<svg width="2169" height="781" viewBox="0 0 2169 781" fill="none" xmlns="http://www.w3.org/2000/svg">
<g opacity="0.9" clip-path="url(#clip0_1_357)">
<rect width="2169" height="781" fill="#D0BEFF"/>
<path d="M0 0H1305L942.958 781H0V0Z" fill="#6D55AA"/>
<path d="M2169 0H1304.7L942 781.08L2169 782V0Z" fill="#4A4458"/>
<path d="M1307 0L945 781" stroke="#625B71" stroke-width="1.5" stroke-linecap="round"/>
<path d="M1311 0L949 781" stroke="#625B71" stroke-width="1.5" stroke-linecap="round"/>
<path d="M1315 0L953 781" stroke="#625B71" stroke-width="1.5" stroke-linecap="round"/>
<path d="M1319 0L957 781" stroke="#625B71" stroke-width="1.5" stroke-linecap="round"/>
<path d="M1323 0L961 781" stroke="#625B71" stroke-width="1.5" stroke-linecap="round"/>
<path d="M1327 0L965 781" stroke="#625B71" stroke-width="1.5" stroke-linecap="round"/>
<path d="M1331 0L969 781" stroke="#625B71" stroke-width="1.5" stroke-linecap="round"/>
<path d="M1335 0L973 781" stroke="#625B71" stroke-width="1.5" stroke-linecap="round"/>
<path d="M1628.34 1L1437 413.812" stroke="#625B71" stroke-width="1.5" stroke-linecap="round"/>
<path d="M1632.68 1L1441.34 413.812" stroke="#625B71" stroke-width="1.5" stroke-linecap="round"/>
<path d="M1637.02 1L1445.68 413.812" stroke="#625B71" stroke-width="1.5" stroke-linecap="round"/>
<path d="M1641.37 1L1450.02 413.812" stroke="#625B71" stroke-width="1.5" stroke-linecap="round"/>
<path d="M1645.71 1L1454.37 413.812" stroke="#625B71" stroke-width="1.5" stroke-linecap="round"/>
<path d="M1650.05 1L1458.71 413.812" stroke="#625B71" stroke-width="1.5" stroke-linecap="round"/>
<path d="M1654.39 1L1463.05 413.812" stroke="#625B71" stroke-width="1.5" stroke-linecap="round"/>
<path d="M1658.73 1L1467.39 413.812" stroke="#625B71" stroke-width="1.5" stroke-linecap="round"/>
<path d="M1663.07 1L1471.73 413.812" stroke="#625B71" stroke-width="1.5" stroke-linecap="round"/>
<path d="M1667.42 1L1476.07 413.812" stroke="#625B71" stroke-width="1.5" stroke-linecap="round"/>
<path d="M1671.76 1L1480.42 413.812" stroke="#625B71" stroke-width="1.5" stroke-linecap="round"/>
<path d="M1676.1 1L1484.76 413.812" stroke="#625B71" stroke-width="1.5" stroke-linecap="round"/>
<path d="M1680.44 1L1489.1 413.812" stroke="#625B71" stroke-width="1.5" stroke-linecap="round"/>
<path d="M1684.78 1L1493.44 413.812" stroke="#625B71" stroke-width="1.5" stroke-linecap="round"/>
<path d="M1689.12 1L1497.78 413.812" stroke="#625B71" stroke-width="1.5" stroke-linecap="round"/>
<path d="M1693.47 1L1502.12 413.812" stroke="#625B71" stroke-width="1.5" stroke-linecap="round"/>
<path d="M1697.81 1L1506.47 413.812" stroke="#625B71" stroke-width="1.5" stroke-linecap="round"/>
<path d="M1702.15 1L1510.81 413.812" stroke="#625B71" stroke-width="1.5" stroke-linecap="round"/>
<path d="M1706.49 1L1515.15 413.812" stroke="#625B71" stroke-width="1.5" stroke-linecap="round"/>
<path d="M1710.83 1L1519.49 413.812" stroke="#625B71" stroke-width="1.5" stroke-linecap="round"/>
<path d="M1715.17 1L1523.83 413.812" stroke="#625B71" stroke-width="1.5" stroke-linecap="round"/>
<path d="M1719.52 1L1528.17 413.812" stroke="#625B71" stroke-width="1.5" stroke-linecap="round"/>
<path d="M1723.86 1L1532.52 413.812" stroke="#625B71" stroke-width="1.5" stroke-linecap="round"/>
<path d="M1869.34 1L1678 413.812" stroke="#625B71" stroke-width="1.5" stroke-linecap="round"/>
<path d="M1873.68 1L1682.34 413.812" stroke="#625B71" stroke-width="1.5" stroke-linecap="round"/>
<path d="M1878.02 1L1686.68 413.812" stroke="#625B71" stroke-width="1.5" stroke-linecap="round"/>
<path d="M1882.37 1L1691.02 413.812" stroke="#625B71" stroke-width="1.5" stroke-linecap="round"/>
<path d="M1886.71 1L1695.37 413.812" stroke="#625B71" stroke-width="1.5" stroke-linecap="round"/>
<path d="M1891.05 1L1699.71 413.812" stroke="#625B71" stroke-width="1.5" stroke-linecap="round"/>
<path d="M1895.39 1L1704.05 413.812" stroke="#625B71" stroke-width="1.5" stroke-linecap="round"/>
<path d="M1899.73 1L1708.39 413.812" stroke="#625B71" stroke-width="1.5" stroke-linecap="round"/>
<path d="M1904.07 1L1712.73 413.812" stroke="#625B71" stroke-width="1.5" stroke-linecap="round"/>
<path d="M1908.42 1L1717.07 413.812" stroke="#625B71" stroke-width="1.5" stroke-linecap="round"/>
<path d="M1912.76 1L1721.42 413.812" stroke="#625B71" stroke-width="1.5" stroke-linecap="round"/>
<path d="M1917.1 1L1725.76 413.812" stroke="#625B71" stroke-width="1.5" stroke-linecap="round"/>
<path d="M1921.44 1L1730.1 413.812" stroke="#625B71" stroke-width="1.5" stroke-linecap="round"/>
<path d="M1925.78 1L1734.44 413.812" stroke="#625B71" stroke-width="1.5" stroke-linecap="round"/>
<path d="M1930.12 1L1738.78 413.812" stroke="#625B71" stroke-width="1.5" stroke-linecap="round"/>
<path d="M1934.47 1L1743.12 413.812" stroke="#625B71" stroke-width="1.5" stroke-linecap="round"/>
<path d="M1938.81 1L1747.47 413.812" stroke="#625B71" stroke-width="1.5" stroke-linecap="round"/>
<path d="M1943.15 1L1751.81 413.812" stroke="#625B71" stroke-width="1.5" stroke-linecap="round"/>
<path d="M1947.49 1L1756.15 413.812" stroke="#625B71" stroke-width="1.5" stroke-linecap="round"/>
<path d="M1951.83 1L1760.49 413.812" stroke="#625B71" stroke-width="1.5" stroke-linecap="round"/>
<path d="M1956.17 1L1764.83 413.812" stroke="#625B71" stroke-width="1.5" stroke-linecap="round"/>
<path d="M1960.52 1L1769.17 413.812" stroke="#625B71" stroke-width="1.5" stroke-linecap="round"/>
<path d="M1964.86 1L1773.52 413.812" stroke="#625B71" stroke-width="1.5" stroke-linecap="round"/>
<path d="M1579.34 368L1388 780.812" stroke="#625B71" stroke-width="1.5" stroke-linecap="round"/>
<path d="M1583.68 368L1392.34 780.812" stroke="#625B71" stroke-width="1.5" stroke-linecap="round"/>
<path d="M1588.02 368L1396.68 780.812" stroke="#625B71" stroke-width="1.5" stroke-linecap="round"/>
<path d="M1592.37 368L1401.02 780.812" stroke="#625B71" stroke-width="1.5" stroke-linecap="round"/>
<path d="M1596.71 368L1405.37 780.812" stroke="#625B71" stroke-width="1.5" stroke-linecap="round"/>
<path d="M1601.05 368L1409.71 780.812" stroke="#625B71" stroke-width="1.5" stroke-linecap="round"/>
<path d="M1605.39 368L1414.05 780.812" stroke="#625B71" stroke-width="1.5" stroke-linecap="round"/>
<path d="M1609.73 368L1418.39 780.812" stroke="#625B71" stroke-width="1.5" stroke-linecap="round"/>
<path d="M1614.07 368L1422.73 780.812" stroke="#625B71" stroke-width="1.5" stroke-linecap="round"/>
<path d="M1618.42 368L1427.07 780.812" stroke="#625B71" stroke-width="1.5" stroke-linecap="round"/>
<path d="M1622.76 368L1431.42 780.812" stroke="#625B71" stroke-width="1.5" stroke-linecap="round"/>
<path d="M1627.1 368L1435.76 780.812" stroke="#625B71" stroke-width="1.5" stroke-linecap="round"/>
<path d="M1631.44 368L1440.1 780.812" stroke="#625B71" stroke-width="1.5" stroke-linecap="round"/>
<path d="M1635.78 368L1444.44 780.812" stroke="#625B71" stroke-width="1.5" stroke-linecap="round"/>
<path d="M1640.12 368L1448.78 780.812" stroke="#625B71" stroke-width="1.5" stroke-linecap="round"/>
<path d="M1644.47 368L1453.12 780.812" stroke="#625B71" stroke-width="1.5" stroke-linecap="round"/>
<path d="M1648.81 368L1457.47 780.812" stroke="#625B71" stroke-width="1.5" stroke-linecap="round"/>
<path d="M1653.15 368L1461.81 780.812" stroke="#625B71" stroke-width="1.5" stroke-linecap="round"/>
<path d="M1657.49 368L1466.15 780.812" stroke="#625B71" stroke-width="1.5" stroke-linecap="round"/>
<path d="M1661.83 368L1470.49 780.812" stroke="#625B71" stroke-width="1.5" stroke-linecap="round"/>
<path d="M1666.17 368L1474.83 780.812" stroke="#625B71" stroke-width="1.5" stroke-linecap="round"/>
<path d="M1670.52 368L1479.17 780.812" stroke="#625B71" stroke-width="1.5" stroke-linecap="round"/>
<path d="M1674.86 368L1483.52 780.812" stroke="#625B71" stroke-width="1.5" stroke-linecap="round"/>
<path d="M1367 0L1005 781" stroke="#625B71" stroke-width="14" stroke-linecap="round"/>
<path d="M1404 0L1042 781" stroke="#958DA5" stroke-width="19" stroke-linecap="round"/>
<path d="M1404 0L1042 781" stroke="#958DA5" stroke-width="19" stroke-linecap="round"/>
<path d="M1990 0L1628 781" stroke="#958DA5" stroke-width="10" stroke-linecap="round"/>
<path d="M1604 0L1242 781" stroke="#958DA5" stroke-width="10" stroke-linecap="round"/>
<path d="M1029 0L667 781" stroke="#4F378B" stroke-width="1.5" stroke-linecap="round"/>
<path d="M1033 0L671 781" stroke="#4F378B" stroke-width="1.5" stroke-linecap="round"/>
<path d="M1037 0L675 781" stroke="#4F378B" stroke-width="1.5" stroke-linecap="round"/>
<path d="M1041 0L679 781" stroke="#4F378B" stroke-width="1.5" stroke-linecap="round"/>
<path d="M1045 0L683 781" stroke="#4F378B" stroke-width="1.5" stroke-linecap="round"/>
<path d="M1049 0L687 781" stroke="#4F378B" stroke-width="1.5" stroke-linecap="round"/>
<path d="M1053 0L691 781" stroke="#4F378B" stroke-width="1.5" stroke-linecap="round"/>
<path d="M1057 0L695 781" stroke="#4F378B" stroke-width="1.5" stroke-linecap="round"/>
<path d="M1061 0L699 781" stroke="#4F378B" stroke-width="1.5" stroke-linecap="round"/>
<path d="M1065 0L703 781" stroke="#4F378B" stroke-width="1.5" stroke-linecap="round"/>
<path d="M1069 0L707 781" stroke="#4F378B" stroke-width="1.5" stroke-linecap="round"/>
<path d="M1073 0L711 781" stroke="#4F378B" stroke-width="1.5" stroke-linecap="round"/>
<path d="M1077 0L715 781" stroke="#4F378B" stroke-width="1.5" stroke-linecap="round"/>
<path d="M1081 0L719 781" stroke="#4F378B" stroke-width="1.5" stroke-linecap="round"/>
<path d="M1085 0L723 781" stroke="#4F378B" stroke-width="1.5" stroke-linecap="round"/>
<path d="M1089 0L727 781" stroke="#4F378B" stroke-width="1.5" stroke-linecap="round"/>
<path d="M1093 0L731 781" stroke="#4F378B" stroke-width="1.5" stroke-linecap="round"/>
<path d="M1097 0L735 781" stroke="#4F378B" stroke-width="1.5" stroke-linecap="round"/>
<path d="M1101 0L739 781" stroke="#4F378B" stroke-width="1.5" stroke-linecap="round"/>
<path d="M1105 0L743 781" stroke="#4F378B" stroke-width="1.5" stroke-linecap="round"/>
<path d="M1109 0L747 781" stroke="#4F378B" stroke-width="1.5" stroke-linecap="round"/>
<path d="M1113 0L751 781" stroke="#4F378B" stroke-width="1.5" stroke-linecap="round"/>
<path d="M1117 0L755 781" stroke="#4F378B" stroke-width="1.5" stroke-linecap="round"/>
<path d="M1121 0L759 781" stroke="#4F378B" stroke-width="1.5" stroke-linecap="round"/>
<path d="M1125 0L763 781" stroke="#4F378B" stroke-width="1.5" stroke-linecap="round"/>
<path d="M1129 0L767 781" stroke="#4F378B" stroke-width="1.5" stroke-linecap="round"/>
<path d="M1133 0L771 781" stroke="#4F378B" stroke-width="1.5" stroke-linecap="round"/>
<path d="M1137 0L775 781" stroke="#4F378B" stroke-width="1.5" stroke-linecap="round"/>
<path d="M1141 0L779 781" stroke="#4F378B" stroke-width="1.5" stroke-linecap="round"/>
<path d="M1145 0L783 781" stroke="#4F378B" stroke-width="1.5" stroke-linecap="round"/>
<path d="M1149 0L787 781" stroke="#4F378B" stroke-width="1.5" stroke-linecap="round"/>
<path d="M1153 0L791 781" stroke="#4F378B" stroke-width="1.5" stroke-linecap="round"/>
<path d="M1157 0L795 781" stroke="#4F378B" stroke-width="1.5" stroke-linecap="round"/>
<path d="M1161 0L799 781" stroke="#4F378B" stroke-width="1.5" stroke-linecap="round"/>
<path d="M1165 0L803 781" stroke="#4F378B" stroke-width="1.5" stroke-linecap="round"/>
<path d="M1169 0L807 781" stroke="#4F378B" stroke-width="1.5" stroke-linecap="round"/>
<path d="M1173 0L811 781" stroke="#4F378B" stroke-width="1.5" stroke-linecap="round"/>
<path d="M1177 0L815 781" stroke="#4F378B" stroke-width="1.5" stroke-linecap="round"/>
<path d="M1181 0L819 781" stroke="#4F378B" stroke-width="1.5" stroke-linecap="round"/>
<path d="M1185 0L823 781" stroke="#4F378B" stroke-width="1.5" stroke-linecap="round"/>
<path d="M1189 0L827 781" stroke="#4F378B" stroke-width="1.5" stroke-linecap="round"/>
<path d="M1193 0L831 781" stroke="#4F378B" stroke-width="1.5" stroke-linecap="round"/>
<path d="M1197 0L835 781" stroke="#4F378B" stroke-width="1.5" stroke-linecap="round"/>
<path d="M1201 0L839 781" stroke="#4F378B" stroke-width="1.5" stroke-linecap="round"/>
<path d="M1205 0L843 781" stroke="#4F378B" stroke-width="1.5" stroke-linecap="round"/>
<path d="M1209 0L847 781" stroke="#4F378B" stroke-width="1.5" stroke-linecap="round"/>
<path d="M1213 0L851 781" stroke="#4F378B" stroke-width="1.5" stroke-linecap="round"/>
<path d="M1217 0L855 781" stroke="#4F378B" stroke-width="1.5" stroke-linecap="round"/>
<path d="M1221 0L859 781" stroke="#4F378B" stroke-width="1.5" stroke-linecap="round"/>
<path d="M1225 0L863 781" stroke="#4F378B" stroke-width="1.5" stroke-linecap="round"/>
<path d="M1229 0L867 781" stroke="#4F378B" stroke-width="1.5" stroke-linecap="round"/>
<path d="M1233 0L871 781" stroke="#4F378B" stroke-width="1.5" stroke-linecap="round"/>
<path d="M1237 0L875 781" stroke="#4F378B" stroke-width="1.5" stroke-linecap="round"/>
<path d="M1241 0L879 781" stroke="#4F378B" stroke-width="1.5" stroke-linecap="round"/>
<path d="M693 0L331 781" stroke="#9A82DB" stroke-width="1.5" stroke-linecap="round"/>
<path d="M695 0L333 781" stroke="#9A82DB" stroke-width="1.5" stroke-linecap="round"/>
<path d="M697 0L335 781" stroke="#9A82DB" stroke-width="1.5" stroke-linecap="round"/>
<path d="M699 0L337 781" stroke="#9A82DB" stroke-width="1.5" stroke-linecap="round"/>
<path d="M701 0L339 781" stroke="#9A82DB" stroke-width="1.5" stroke-linecap="round"/>
<path d="M703 0L341 781" stroke="#9A82DB" stroke-width="1.5" stroke-linecap="round"/>
<path d="M708 0L346 781" stroke="#9A82DB" stroke-width="1.5" stroke-linecap="round"/>
<path d="M710 0L348 781" stroke="#9A82DB" stroke-width="1.5" stroke-linecap="round"/>
<path d="M712 0L350 781" stroke="#9A82DB" stroke-width="1.5" stroke-linecap="round"/>
<path d="M714 0L352 781" stroke="#9A82DB" stroke-width="1.5" stroke-linecap="round"/>
<path d="M716 0L354 781" stroke="#9A82DB" stroke-width="1.5" stroke-linecap="round"/>
<path d="M718 0L356 781" stroke="#9A82DB" stroke-width="1.5" stroke-linecap="round"/>
<path d="M723 0L361 781" stroke="#9A82DB" stroke-width="1.5" stroke-linecap="round"/>
<path d="M725 0L363 781" stroke="#9A82DB" stroke-width="1.5" stroke-linecap="round"/>
<path d="M727 0L365 781" stroke="#9A82DB" stroke-width="1.5" stroke-linecap="round"/>
<path d="M729 0L367 781" stroke="#9A82DB" stroke-width="1.5" stroke-linecap="round"/>
<path d="M731 0L369 781" stroke="#9A82DB" stroke-width="1.5" stroke-linecap="round"/>
<path d="M733 0L371 781" stroke="#9A82DB" stroke-width="1.5" stroke-linecap="round"/>
<path d="M829.206 0L571 557.069" stroke="#4F378B" stroke-width="1.5" stroke-linecap="round"/>
<path d="M832.412 0L574.206 557.069" stroke="#4F378B" stroke-width="1.5" stroke-linecap="round"/>
<path d="M835.618 0L577.412 557.069" stroke="#4F378B" stroke-width="1.5" stroke-linecap="round"/>
<path d="M838.824 0L580.618 557.069" stroke="#4F378B" stroke-width="1.5" stroke-linecap="round"/>
<path d="M842.03 0L583.824 557.069" stroke="#4F378B" stroke-width="1.5" stroke-linecap="round"/>
<path d="M845.236 0L587.03 557.069" stroke="#4F378B" stroke-width="1.5" stroke-linecap="round"/>
<path d="M848.442 0L590.236 557.069" stroke="#4F378B" stroke-width="1.5" stroke-linecap="round"/>
<path d="M851.648 0L593.442 557.069" stroke="#4F378B" stroke-width="1.5" stroke-linecap="round"/>
<path d="M854.854 0L596.648 557.069" stroke="#4F378B" stroke-width="1.5" stroke-linecap="round"/>
<path d="M858.06 0L599.854 557.069" stroke="#4F378B" stroke-width="1.5" stroke-linecap="round"/>
<path d="M861.266 0L603.06 557.069" stroke="#4F378B" stroke-width="1.5" stroke-linecap="round"/>
<path d="M864.472 0L606.266 557.069" stroke="#4F378B" stroke-width="1.5" stroke-linecap="round"/>
<path d="M867.678 0L609.472 557.069" stroke="#4F378B" stroke-width="1.5" stroke-linecap="round"/>
<path d="M870.884 0L612.678 557.069" stroke="#4F378B" stroke-width="1.5" stroke-linecap="round"/>
<path d="M874.09 0L615.884 557.069" stroke="#4F378B" stroke-width="1.5" stroke-linecap="round"/>
<path d="M877.296 0L619.09 557.069" stroke="#4F378B" stroke-width="1.5" stroke-linecap="round"/>
<path d="M880.502 0L622.296 557.069" stroke="#4F378B" stroke-width="1.5" stroke-linecap="round"/>
<path d="M883.708 0L625.502 557.069" stroke="#4F378B" stroke-width="1.5" stroke-linecap="round"/>
<path d="M886.915 0L628.709 557.069" stroke="#4F378B" stroke-width="1.5" stroke-linecap="round"/>
<path d="M890.121 0L631.915 557.069" stroke="#4F378B" stroke-width="1.5" stroke-linecap="round"/>
<path d="M913.206 0L655 557.069" stroke="#4F378B" stroke-width="1.5" stroke-linecap="round"/>
<path d="M916.412 0L658.206 557.069" stroke="#4F378B" stroke-width="1.5" stroke-linecap="round"/>
<path d="M919.618 0L661.412 557.069" stroke="#4F378B" stroke-width="1.5" stroke-linecap="round"/>
<path d="M922.824 0L664.618 557.069" stroke="#4F378B" stroke-width="1.5" stroke-linecap="round"/>
<path d="M926.03 0L667.824 557.069" stroke="#4F378B" stroke-width="1.5" stroke-linecap="round"/>
<path d="M929.236 0L671.03 557.069" stroke="#4F378B" stroke-width="1.5" stroke-linecap="round"/>
<path d="M932.442 0L674.236 557.069" stroke="#4F378B" stroke-width="1.5" stroke-linecap="round"/>
<path d="M935.648 0L677.442 557.069" stroke="#4F378B" stroke-width="1.5" stroke-linecap="round"/>
<path d="M938.854 0L680.648 557.069" stroke="#4F378B" stroke-width="1.5" stroke-linecap="round"/>
<path d="M942.06 0L683.854 557.069" stroke="#4F378B" stroke-width="1.5" stroke-linecap="round"/>
<path d="M945.266 0L687.06 557.069" stroke="#4F378B" stroke-width="1.5" stroke-linecap="round"/>
<path d="M948.472 0L690.266 557.069" stroke="#4F378B" stroke-width="1.5" stroke-linecap="round"/>
<path d="M951.678 0L693.472 557.069" stroke="#4F378B" stroke-width="1.5" stroke-linecap="round"/>
<path d="M954.884 0L696.678 557.069" stroke="#4F378B" stroke-width="1.5" stroke-linecap="round"/>
<path d="M958.09 0L699.884 557.069" stroke="#4F378B" stroke-width="1.5" stroke-linecap="round"/>
<path d="M961.296 0L703.09 557.069" stroke="#4F378B" stroke-width="1.5" stroke-linecap="round"/>
<path d="M964.502 0L706.296 557.069" stroke="#4F378B" stroke-width="1.5" stroke-linecap="round"/>
<path d="M967.708 0L709.502 557.069" stroke="#4F378B" stroke-width="1.5" stroke-linecap="round"/>
<path d="M970.915 0L712.709 557.069" stroke="#4F378B" stroke-width="1.5" stroke-linecap="round"/>
<path d="M974.121 0L715.915 557.069" stroke="#4F378B" stroke-width="1.5" stroke-linecap="round"/>
<path d="M455.315 -11L158 630.446" stroke="#4F378B" stroke-width="1.5" stroke-linecap="round"/>
<path d="M458.631 -11L161.315 630.446" stroke="#4F378B" stroke-width="1.5" stroke-linecap="round"/>
<path d="M461.946 -11L164.631 630.446" stroke="#4F378B" stroke-width="1.5" stroke-linecap="round"/>
<path d="M465.262 -11L167.946 630.446" stroke="#4F378B" stroke-width="1.5" stroke-linecap="round"/>
<path d="M468.577 -11L171.262 630.446" stroke="#4F378B" stroke-width="1.5" stroke-linecap="round"/>
<path d="M471.892 -11L174.577 630.446" stroke="#4F378B" stroke-width="1.5" stroke-linecap="round"/>
<path d="M475.208 -11L177.892 630.446" stroke="#4F378B" stroke-width="1.5" stroke-linecap="round"/>
<path d="M478.523 -11L181.208 630.446" stroke="#4F378B" stroke-width="1.5" stroke-linecap="round"/>
<path d="M481.839 -11L184.523 630.446" stroke="#4F378B" stroke-width="1.5" stroke-linecap="round"/>
<path d="M485.154 -11L187.839 630.446" stroke="#4F378B" stroke-width="1.5" stroke-linecap="round"/>
<path d="M488.469 -11L191.154 630.446" stroke="#4F378B" stroke-width="1.5" stroke-linecap="round"/>
<path d="M491.785 -11L194.469 630.446" stroke="#4F378B" stroke-width="1.5" stroke-linecap="round"/>
<path d="M495.1 -11L197.785 630.446" stroke="#4F378B" stroke-width="1.5" stroke-linecap="round"/>
<path d="M498.416 -11L201.1 630.446" stroke="#4F378B" stroke-width="1.5" stroke-linecap="round"/>
<path d="M501.731 -11L204.416 630.446" stroke="#4F378B" stroke-width="1.5" stroke-linecap="round"/>
<path d="M505.046 -11L207.731 630.446" stroke="#4F378B" stroke-width="1.5" stroke-linecap="round"/>
<path d="M508.362 -11L211.046 630.446" stroke="#4F378B" stroke-width="1.5" stroke-linecap="round"/>
<path d="M511.677 -11L214.362 630.446" stroke="#4F378B" stroke-width="1.5" stroke-linecap="round"/>
<path d="M514.993 -11L217.677 630.446" stroke="#4F378B" stroke-width="1.5" stroke-linecap="round"/>
<path d="M518.308 -11L220.993 630.446" stroke="#4F378B" stroke-width="1.5" stroke-linecap="round"/>
<path d="M521.623 -11L224.308 630.446" stroke="#4F378B" stroke-width="1.5" stroke-linecap="round"/>
<path d="M524.939 -11L227.623 630.446" stroke="#4F378B" stroke-width="1.5" stroke-linecap="round"/>
<path d="M528.254 -11L230.939 630.446" stroke="#4F378B" stroke-width="1.5" stroke-linecap="round"/>
<path d="M531.57 -11L234.254 630.446" stroke="#4F378B" stroke-width="1.5" stroke-linecap="round"/>
<path d="M534.885 -11L237.57 630.446" stroke="#4F378B" stroke-width="1.5" stroke-linecap="round"/>
<path d="M538.2 -11L240.885 630.446" stroke="#4F378B" stroke-width="1.5" stroke-linecap="round"/>
<path d="M541.516 -11L244.2 630.446" stroke="#4F378B" stroke-width="1.5" stroke-linecap="round"/>
<path d="M544.831 -11L247.516 630.446" stroke="#4F378B" stroke-width="1.5" stroke-linecap="round"/>
<path d="M548.146 -11L250.831 630.446" stroke="#4F378B" stroke-width="1.5" stroke-linecap="round"/>
<path d="M551.462 -11L254.147 630.446" stroke="#4F378B" stroke-width="1.5" stroke-linecap="round"/>
<path d="M554.777 -11L257.462 630.446" stroke="#4F378B" stroke-width="1.5" stroke-linecap="round"/>
<path d="M558.093 -11L260.777 630.446" stroke="#4F378B" stroke-width="1.5" stroke-linecap="round"/>
<path d="M561.408 -11L264.093 630.446" stroke="#4F378B" stroke-width="1.5" stroke-linecap="round"/>
<path d="M564.724 -11L267.408 630.446" stroke="#4F378B" stroke-width="1.5" stroke-linecap="round"/>
<path d="M568.039 -11L270.724 630.446" stroke="#4F378B" stroke-width="1.5" stroke-linecap="round"/>
<path d="M571.354 -11L274.039 630.446" stroke="#4F378B" stroke-width="1.5" stroke-linecap="round"/>
<path d="M574.67 -11L277.354 630.446" stroke="#4F378B" stroke-width="1.5" stroke-linecap="round"/>
<path d="M577.985 -11L280.67 630.446" stroke="#4F378B" stroke-width="1.5" stroke-linecap="round"/>
<path d="M581.301 -11L283.985 630.446" stroke="#4F378B" stroke-width="1.5" stroke-linecap="round"/>
<path d="M584.616 -11L287.301 630.446" stroke="#4F378B" stroke-width="1.5" stroke-linecap="round"/>
<path d="M587.931 -11L290.616 630.446" stroke="#4F378B" stroke-width="1.5" stroke-linecap="round"/>
<path d="M591.247 -11L293.931 630.446" stroke="#4F378B" stroke-width="1.5" stroke-linecap="round"/>
<path d="M594.562 -11L297.247 630.446" stroke="#4F378B" stroke-width="1.5" stroke-linecap="round"/>
<path d="M597.877 -11L300.562 630.446" stroke="#4F378B" stroke-width="1.5" stroke-linecap="round"/>
<path d="M601.193 -11L303.877 630.446" stroke="#4F378B" stroke-width="1.5" stroke-linecap="round"/>
<path d="M604.508 -11L307.193 630.446" stroke="#4F378B" stroke-width="1.5" stroke-linecap="round"/>
<path d="M607.824 -11L310.508 630.446" stroke="#4F378B" stroke-width="1.5" stroke-linecap="round"/>
<path d="M611.139 -11L313.824 630.446" stroke="#4F378B" stroke-width="1.5" stroke-linecap="round"/>
<path d="M614.455 -11L317.139 630.446" stroke="#4F378B" stroke-width="1.5" stroke-linecap="round"/>
<path d="M617.77 -11L320.455 630.446" stroke="#4F378B" stroke-width="1.5" stroke-linecap="round"/>
<path d="M621.085 -11L323.77 630.446" stroke="#4F378B" stroke-width="1.5" stroke-linecap="round"/>
<path d="M624.401 -11L327.085 630.446" stroke="#4F378B" stroke-width="1.5" stroke-linecap="round"/>
<path d="M627.716 -11L330.401 630.446" stroke="#4F378B" stroke-width="1.5" stroke-linecap="round"/>
<path d="M631.031 -11L333.716 630.446" stroke="#4F378B" stroke-width="1.5" stroke-linecap="round"/>
<path d="M634.347 -11L337.032 630.446" stroke="#4F378B" stroke-width="1.5" stroke-linecap="round"/>
<path d="M637.662 -11L340.347 630.446" stroke="#4F378B" stroke-width="1.5" stroke-linecap="round"/>
<path d="M640.978 -11L343.662 630.446" stroke="#4F378B" stroke-width="1.5" stroke-linecap="round"/>
<path d="M644.293 -11L346.978 630.446" stroke="#4F378B" stroke-width="1.5" stroke-linecap="round"/>
<path d="M647.609 -11L350.293 630.446" stroke="#4F378B" stroke-width="1.5" stroke-linecap="round"/>
<path d="M650.924 -11L353.608 630.446" stroke="#4F378B" stroke-width="1.5" stroke-linecap="round"/>
<path d="M96.3154 121L-201 762.446" stroke="#836DBD" stroke-width="1.5" stroke-linecap="round"/>
<path d="M99.6309 121L-197.685 762.446" stroke="#836DBD" stroke-width="1.5" stroke-linecap="round"/>
<path d="M102.946 121L-194.369 762.446" stroke="#836DBD" stroke-width="1.5" stroke-linecap="round"/>
<path d="M106.262 121L-191.054 762.446" stroke="#836DBD" stroke-width="1.5" stroke-linecap="round"/>
<path d="M109.577 121L-187.738 762.446" stroke="#836DBD" stroke-width="1.5" stroke-linecap="round"/>
<path d="M112.892 121L-184.423 762.446" stroke="#836DBD" stroke-width="1.5" stroke-linecap="round"/>
<path d="M116.208 121L-181.108 762.446" stroke="#836DBD" stroke-width="1.5" stroke-linecap="round"/>
<path d="M119.523 121L-177.792 762.446" stroke="#836DBD" stroke-width="1.5" stroke-linecap="round"/>
<path d="M122.839 121L-174.477 762.446" stroke="#836DBD" stroke-width="1.5" stroke-linecap="round"/>
<path d="M126.154 121L-171.161 762.446" stroke="#836DBD" stroke-width="1.5" stroke-linecap="round"/>
<path d="M129.469 121L-167.846 762.446" stroke="#836DBD" stroke-width="1.5" stroke-linecap="round"/>
<path d="M132.785 121L-164.531 762.446" stroke="#836DBD" stroke-width="1.5" stroke-linecap="round"/>
<path d="M136.1 121L-161.215 762.446" stroke="#836DBD" stroke-width="1.5" stroke-linecap="round"/>
<path d="M139.416 121L-157.9 762.446" stroke="#836DBD" stroke-width="1.5" stroke-linecap="round"/>
<path d="M142.731 121L-154.584 762.446" stroke="#836DBD" stroke-width="1.5" stroke-linecap="round"/>
<path d="M146.046 121L-151.269 762.446" stroke="#836DBD" stroke-width="1.5" stroke-linecap="round"/>
<path d="M149.362 121L-147.954 762.446" stroke="#836DBD" stroke-width="1.5" stroke-linecap="round"/>
<path d="M152.677 121L-144.638 762.446" stroke="#836DBD" stroke-width="1.5" stroke-linecap="round"/>
<path d="M155.993 121L-141.323 762.446" stroke="#836DBD" stroke-width="1.5" stroke-linecap="round"/>
<path d="M159.308 121L-138.007 762.446" stroke="#836DBD" stroke-width="1.5" stroke-linecap="round"/>
<path d="M162.623 121L-134.692 762.446" stroke="#836DBD" stroke-width="1.5" stroke-linecap="round"/>
<path d="M165.939 121L-131.377 762.446" stroke="#836DBD" stroke-width="1.5" stroke-linecap="round"/>
<path d="M169.254 121L-128.061 762.446" stroke="#836DBD" stroke-width="1.5" stroke-linecap="round"/>
<path d="M172.57 121L-124.746 762.446" stroke="#836DBD" stroke-width="1.5" stroke-linecap="round"/>
<path d="M175.885 121L-121.43 762.446" stroke="#836DBD" stroke-width="1.5" stroke-linecap="round"/>
<path d="M179.2 121L-118.115 762.446" stroke="#836DBD" stroke-width="1.5" stroke-linecap="round"/>
<path d="M182.516 121L-114.8 762.446" stroke="#836DBD" stroke-width="1.5" stroke-linecap="round"/>
<path d="M185.831 121L-111.484 762.446" stroke="#836DBD" stroke-width="1.5" stroke-linecap="round"/>
<path d="M189.146 121L-108.169 762.446" stroke="#836DBD" stroke-width="1.5" stroke-linecap="round"/>
<path d="M192.462 121L-104.853 762.446" stroke="#836DBD" stroke-width="1.5" stroke-linecap="round"/>
<path d="M195.777 121L-101.538 762.446" stroke="#836DBD" stroke-width="1.5" stroke-linecap="round"/>
<path d="M199.093 121L-98.2226 762.446" stroke="#836DBD" stroke-width="1.5" stroke-linecap="round"/>
<path d="M202.408 121L-94.9072 762.446" stroke="#836DBD" stroke-width="1.5" stroke-linecap="round"/>
<path d="M205.724 121L-91.5918 762.446" stroke="#836DBD" stroke-width="1.5" stroke-linecap="round"/>
<path d="M209.039 121L-88.2763 762.446" stroke="#836DBD" stroke-width="1.5" stroke-linecap="round"/>
<path d="M212.354 121L-84.9609 762.446" stroke="#836DBD" stroke-width="1.5" stroke-linecap="round"/>
<path d="M215.67 121L-81.6457 762.446" stroke="#836DBD" stroke-width="1.5" stroke-linecap="round"/>
<path d="M218.985 121L-78.3303 762.446" stroke="#836DBD" stroke-width="1.5" stroke-linecap="round"/>
<path d="M222.301 121L-75.0149 762.446" stroke="#836DBD" stroke-width="1.5" stroke-linecap="round"/>
<path d="M225.616 121L-71.6994 762.446" stroke="#836DBD" stroke-width="1.5" stroke-linecap="round"/>
<path d="M228.931 121L-68.384 762.446" stroke="#836DBD" stroke-width="1.5" stroke-linecap="round"/>
<path d="M232.247 121L-65.0686 762.446" stroke="#836DBD" stroke-width="1.5" stroke-linecap="round"/>
<path d="M235.562 121L-61.7531 762.446" stroke="#836DBD" stroke-width="1.5" stroke-linecap="round"/>
<path d="M238.877 121L-58.4379 762.446" stroke="#836DBD" stroke-width="1.5" stroke-linecap="round"/>
<path d="M242.193 121L-55.1225 762.446" stroke="#836DBD" stroke-width="1.5" stroke-linecap="round"/>
<path d="M245.508 121L-51.8071 762.446" stroke="#836DBD" stroke-width="1.5" stroke-linecap="round"/>
<path d="M248.824 121L-48.4917 762.446" stroke="#836DBD" stroke-width="1.5" stroke-linecap="round"/>
<path d="M252.139 121L-45.1762 762.446" stroke="#836DBD" stroke-width="1.5" stroke-linecap="round"/>
<path d="M255.455 121L-41.8608 762.446" stroke="#836DBD" stroke-width="1.5" stroke-linecap="round"/>
<path d="M258.77 121L-38.5454 762.446" stroke="#836DBD" stroke-width="1.5" stroke-linecap="round"/>
<path d="M262.085 121L-35.2299 762.446" stroke="#836DBD" stroke-width="1.5" stroke-linecap="round"/>
<path d="M265.401 121L-31.9145 762.446" stroke="#836DBD" stroke-width="1.5" stroke-linecap="round"/>
<path d="M268.716 121L-28.5993 762.446" stroke="#836DBD" stroke-width="1.5" stroke-linecap="round"/>
<path d="M272.031 121L-25.2839 762.446" stroke="#836DBD" stroke-width="1.5" stroke-linecap="round"/>
<path d="M275.347 121L-21.9685 762.446" stroke="#836DBD" stroke-width="1.5" stroke-linecap="round"/>
<path d="M278.662 121L-18.653 762.446" stroke="#836DBD" stroke-width="1.5" stroke-linecap="round"/>
<path d="M281.978 121L-15.3376 762.446" stroke="#836DBD" stroke-width="1.5" stroke-linecap="round"/>
<path d="M285.293 121L-12.0222 762.446" stroke="#836DBD" stroke-width="1.5" stroke-linecap="round"/>
<path d="M288.609 121L-8.70675 762.446" stroke="#836DBD" stroke-width="1.5" stroke-linecap="round"/>
<path d="M291.924 121L-5.39156 762.446" stroke="#836DBD" stroke-width="1.5" stroke-linecap="round"/>
<path d="M2099.32 143L1802 784.446" stroke="#898297" stroke-width="1.5" stroke-linecap="round"/>
<path d="M2102.63 143L1805.32 784.446" stroke="#898297" stroke-width="1.5" stroke-linecap="round"/>
<path d="M2105.95 143L1808.63 784.446" stroke="#898297" stroke-width="1.5" stroke-linecap="round"/>
<path d="M2109.26 143L1811.95 784.446" stroke="#898297" stroke-width="1.5" stroke-linecap="round"/>
<path d="M2112.58 143L1815.26 784.446" stroke="#898297" stroke-width="1.5" stroke-linecap="round"/>
<path d="M2115.89 143L1818.58 784.446" stroke="#898297" stroke-width="1.5" stroke-linecap="round"/>
<path d="M2119.21 143L1821.89 784.446" stroke="#898297" stroke-width="1.5" stroke-linecap="round"/>
<path d="M2122.52 143L1825.21 784.446" stroke="#898297" stroke-width="1.5" stroke-linecap="round"/>
<path d="M2125.84 143L1828.52 784.446" stroke="#898297" stroke-width="1.5" stroke-linecap="round"/>
<path d="M2129.15 143L1831.84 784.446" stroke="#898297" stroke-width="1.5" stroke-linecap="round"/>
<path d="M2132.47 143L1835.15 784.446" stroke="#898297" stroke-width="1.5" stroke-linecap="round"/>
<path d="M2135.78 143L1838.47 784.446" stroke="#898297" stroke-width="1.5" stroke-linecap="round"/>
<path d="M2139.1 143L1841.78 784.446" stroke="#898297" stroke-width="1.5" stroke-linecap="round"/>
<path d="M2142.42 143L1845.1 784.446" stroke="#898297" stroke-width="1.5" stroke-linecap="round"/>
<path d="M2145.73 143L1848.42 784.446" stroke="#898297" stroke-width="1.5" stroke-linecap="round"/>
<path d="M2149.05 143L1851.73 784.446" stroke="#898297" stroke-width="1.5" stroke-linecap="round"/>
<path d="M2152.36 143L1855.05 784.446" stroke="#898297" stroke-width="1.5" stroke-linecap="round"/>
<path d="M2155.68 143L1858.36 784.446" stroke="#898297" stroke-width="1.5" stroke-linecap="round"/>
<path d="M2158.99 143L1861.68 784.446" stroke="#898297" stroke-width="1.5" stroke-linecap="round"/>
<path d="M2162.31 143L1864.99 784.446" stroke="#898297" stroke-width="1.5" stroke-linecap="round"/>
<path d="M2165.62 143L1868.31 784.446" stroke="#898297" stroke-width="1.5" stroke-linecap="round"/>
<path d="M2168.94 143L1871.62 784.446" stroke="#898297" stroke-width="1.5" stroke-linecap="round"/>
<path d="M2172.25 143L1874.94 784.446" stroke="#898297" stroke-width="1.5" stroke-linecap="round"/>
<path d="M2175.57 143L1878.25 784.446" stroke="#898297" stroke-width="1.5" stroke-linecap="round"/>
<path d="M2178.88 143L1881.57 784.446" stroke="#898297" stroke-width="1.5" stroke-linecap="round"/>
<path d="M2182.2 143L1884.88 784.446" stroke="#898297" stroke-width="1.5" stroke-linecap="round"/>
<path d="M2185.52 143L1888.2 784.446" stroke="#898297" stroke-width="1.5" stroke-linecap="round"/>
<path d="M2188.83 143L1891.52 784.446" stroke="#898297" stroke-width="1.5" stroke-linecap="round"/>
<path d="M2192.15 143L1894.83 784.446" stroke="#898297" stroke-width="1.5" stroke-linecap="round"/>
<path d="M2195.46 143L1898.15 784.446" stroke="#898297" stroke-width="1.5" stroke-linecap="round"/>
<path d="M2198.78 143L1901.46 784.446" stroke="#898297" stroke-width="1.5" stroke-linecap="round"/>
<path d="M2202.09 143L1904.78 784.446" stroke="#898297" stroke-width="1.5" stroke-linecap="round"/>
<path d="M2205.41 143L1908.09 784.446" stroke="#898297" stroke-width="1.5" stroke-linecap="round"/>
<path d="M2208.72 143L1911.41 784.446" stroke="#898297" stroke-width="1.5" stroke-linecap="round"/>
<path d="M2212.04 143L1914.72 784.446" stroke="#898297" stroke-width="1.5" stroke-linecap="round"/>
<path d="M2215.35 143L1918.04 784.446" stroke="#898297" stroke-width="1.5" stroke-linecap="round"/>
<path d="M2218.67 143L1921.35 784.446" stroke="#898297" stroke-width="1.5" stroke-linecap="round"/>
<path d="M2221.99 143L1924.67 784.446" stroke="#898297" stroke-width="1.5" stroke-linecap="round"/>
<path d="M2225.3 143L1927.99 784.446" stroke="#898297" stroke-width="1.5" stroke-linecap="round"/>
<path d="M2228.62 143L1931.3 784.446" stroke="#898297" stroke-width="1.5" stroke-linecap="round"/>
<path d="M2231.93 143L1934.62 784.446" stroke="#898297" stroke-width="1.5" stroke-linecap="round"/>
<path d="M2235.25 143L1937.93 784.446" stroke="#898297" stroke-width="1.5" stroke-linecap="round"/>
<path d="M2238.56 143L1941.25 784.446" stroke="#898297" stroke-width="1.5" stroke-linecap="round"/>
<path d="M2241.88 143L1944.56 784.446" stroke="#898297" stroke-width="1.5" stroke-linecap="round"/>
<path d="M2245.19 143L1947.88 784.446" stroke="#898297" stroke-width="1.5" stroke-linecap="round"/>
<path d="M2248.51 143L1951.19 784.446" stroke="#898297" stroke-width="1.5" stroke-linecap="round"/>
<path d="M2251.82 143L1954.51 784.446" stroke="#898297" stroke-width="1.5" stroke-linecap="round"/>
<path d="M2255.14 143L1957.82 784.446" stroke="#898297" stroke-width="1.5" stroke-linecap="round"/>
<path d="M2258.45 143L1961.14 784.446" stroke="#898297" stroke-width="1.5" stroke-linecap="round"/>
<path d="M2261.77 143L1964.45 784.446" stroke="#898297" stroke-width="1.5" stroke-linecap="round"/>
<path d="M2265.09 143L1967.77 784.446" stroke="#898297" stroke-width="1.5" stroke-linecap="round"/>
<path d="M2268.4 143L1971.09 784.446" stroke="#898297" stroke-width="1.5" stroke-linecap="round"/>
<path d="M2271.72 143L1974.4 784.446" stroke="#898297" stroke-width="1.5" stroke-linecap="round"/>
<path d="M2275.03 143L1977.72 784.446" stroke="#898297" stroke-width="1.5" stroke-linecap="round"/>
<path d="M2278.35 143L1981.03 784.446" stroke="#898297" stroke-width="1.5" stroke-linecap="round"/>
<path d="M2281.66 143L1984.35 784.446" stroke="#898297" stroke-width="1.5" stroke-linecap="round"/>
<path d="M2284.98 143L1987.66 784.446" stroke="#898297" stroke-width="1.5" stroke-linecap="round"/>
<path d="M2288.29 143L1990.98 784.446" stroke="#898297" stroke-width="1.5" stroke-linecap="round"/>
<path d="M2291.61 143L1994.29 784.446" stroke="#898297" stroke-width="1.5" stroke-linecap="round"/>
<path d="M2294.92 143L1997.61 784.446" stroke="#898297" stroke-width="1.5" stroke-linecap="round"/>
</g>
<defs>
<clipPath id="clip0_1_357">
<rect width="2169" height="781" fill="white"/>
</clipPath>
</defs>
</svg>
