<svg width="2169" height="1534" viewBox="0 0 2169 1534" fill="none" xmlns="http://www.w3.org/2000/svg">
<g opacity="0.9" clip-path="url(#clip0_2_2333)">
<rect width="2169" height="1534" fill="#625B71"/>
<path d="M1111 1L399.041 1537.02" stroke="#4A4458" stroke-width="3.5" stroke-linecap="round"/>
<path d="M1117.96 1L406 1537.02" stroke="#4A4458" stroke-width="3.5" stroke-linecap="round"/>
<path d="M1124.92 1L412.959 1537.02" stroke="#4A4458" stroke-width="3.5" stroke-linecap="round"/>
<path d="M1131.88 1L419.918 1537.02" stroke="#4A4458" stroke-width="3.5" stroke-linecap="round"/>
<path d="M1138.84 1L426.877 1537.02" stroke="#4A4458" stroke-width="3.5" stroke-linecap="round"/>
<path d="M1145.79 1L433.835 1537.02" stroke="#4A4458" stroke-width="3.5" stroke-linecap="round"/>
<path d="M1152.75 1L440.794 1537.02" stroke="#4A4458" stroke-width="3.5" stroke-linecap="round"/>
<path d="M1159.71 1L447.753 1537.02" stroke="#4A4458" stroke-width="3.5" stroke-linecap="round"/>
<path d="M1166.67 1L454.712 1537.02" stroke="#4A4458" stroke-width="3.5" stroke-linecap="round"/>
<path d="M1173.63 1L461.671 1537.02" stroke="#4A4458" stroke-width="3.5" stroke-linecap="round"/>
<path d="M1180.59 1L468.63 1537.02" stroke="#4A4458" stroke-width="3.5" stroke-linecap="round"/>
<path d="M1187.55 1L475.589 1537.02" stroke="#4A4458" stroke-width="3.5" stroke-linecap="round"/>
<path d="M1194.51 1L482.548 1537.02" stroke="#4A4458" stroke-width="3.5" stroke-linecap="round"/>
<path d="M1201.47 1L489.507 1537.02" stroke="#4A4458" stroke-width="3.5" stroke-linecap="round"/>
<path d="M1208.42 1L496.466 1537.02" stroke="#4A4458" stroke-width="3.5" stroke-linecap="round"/>
<path d="M1215.38 1L503.425 1537.02" stroke="#4A4458" stroke-width="3.5" stroke-linecap="round"/>
<path d="M1222.34 1L510.384 1537.02" stroke="#4A4458" stroke-width="3.5" stroke-linecap="round"/>
<path d="M1229.3 1L517.343 1537.02" stroke="#4A4458" stroke-width="3.5" stroke-linecap="round"/>
<path d="M1236.26 1L524.302 1537.02" stroke="#4A4458" stroke-width="3.5" stroke-linecap="round"/>
<path d="M1243.22 1L531.261 1537.02" stroke="#4A4458" stroke-width="3.5" stroke-linecap="round"/>
<path d="M1098 0L386.041 1536.02" stroke="#4A4458" stroke-width="17" stroke-linecap="round"/>
<path d="M1237 -1L525.041 1535.02" stroke="#4A4458" stroke-width="42" stroke-linecap="round"/>
<path d="M1916 0L1204.04 1536.02" stroke="#7A7289" stroke-width="1.5" stroke-linecap="round"/>
<path d="M1920.96 0L1209 1536.02" stroke="#7A7289" stroke-width="1.5" stroke-linecap="round"/>
<path d="M1925.92 0L1213.96 1536.02" stroke="#7A7289" stroke-width="1.5" stroke-linecap="round"/>
<path d="M1930.88 0L1218.92 1536.02" stroke="#7A7289" stroke-width="1.5" stroke-linecap="round"/>
<path d="M1935.84 0L1223.88 1536.02" stroke="#7A7289" stroke-width="1.5" stroke-linecap="round"/>
<path d="M1940.79 0L1228.84 1536.02" stroke="#7A7289" stroke-width="1.5" stroke-linecap="round"/>
<path d="M1945.75 0L1233.79 1536.02" stroke="#7A7289" stroke-width="1.5" stroke-linecap="round"/>
<path d="M1950.71 0L1238.75 1536.02" stroke="#7A7289" stroke-width="1.5" stroke-linecap="round"/>
<path d="M1955.67 0L1243.71 1536.02" stroke="#7A7289" stroke-width="1.5" stroke-linecap="round"/>
<path d="M1960.63 0L1248.67 1536.02" stroke="#7A7289" stroke-width="1.5" stroke-linecap="round"/>
<path d="M1965.59 0L1253.63 1536.02" stroke="#7A7289" stroke-width="1.5" stroke-linecap="round"/>
<path d="M1970.55 0L1258.59 1536.02" stroke="#7A7289" stroke-width="1.5" stroke-linecap="round"/>
<path d="M1975.51 0L1263.55 1536.02" stroke="#7A7289" stroke-width="1.5" stroke-linecap="round"/>
<path d="M1980.47 0L1268.51 1536.02" stroke="#7A7289" stroke-width="1.5" stroke-linecap="round"/>
<path d="M1985.42 0L1273.47 1536.02" stroke="#7A7289" stroke-width="1.5" stroke-linecap="round"/>
<path d="M1990.38 0L1278.42 1536.02" stroke="#7A7289" stroke-width="1.5" stroke-linecap="round"/>
<path d="M1995.34 0L1283.38 1536.02" stroke="#7A7289" stroke-width="1.5" stroke-linecap="round"/>
<path d="M2000.3 0L1288.34 1536.02" stroke="#7A7289" stroke-width="1.5" stroke-linecap="round"/>
<path d="M2005.26 0L1293.3 1536.02" stroke="#7A7289" stroke-width="1.5" stroke-linecap="round"/>
<path d="M2010.22 0L1298.26 1536.02" stroke="#7A7289" stroke-width="1.5" stroke-linecap="round"/>
<path d="M2015.18 0L1303.22 1536.02" stroke="#7A7289" stroke-width="1.5" stroke-linecap="round"/>
<path d="M2020.14 0L1308.18 1536.02" stroke="#7A7289" stroke-width="1.5" stroke-linecap="round"/>
<path d="M2025.1 0L1313.14 1536.02" stroke="#7A7289" stroke-width="1.5" stroke-linecap="round"/>
<path d="M2030.06 0L1318.1 1536.02" stroke="#7A7289" stroke-width="1.5" stroke-linecap="round"/>
<path d="M2035.01 0L1323.06 1536.02" stroke="#7A7289" stroke-width="1.5" stroke-linecap="round"/>
<path d="M2039.97 0L1328.01 1536.02" stroke="#7A7289" stroke-width="1.5" stroke-linecap="round"/>
<path d="M2044.93 0L1332.97 1536.02" stroke="#7A7289" stroke-width="1.5" stroke-linecap="round"/>
<path d="M2049.89 0L1337.93 1536.02" stroke="#7A7289" stroke-width="1.5" stroke-linecap="round"/>
<path d="M2054.85 0L1342.89 1536.02" stroke="#7A7289" stroke-width="1.5" stroke-linecap="round"/>
<path d="M2059.81 0L1347.85 1536.02" stroke="#7A7289" stroke-width="1.5" stroke-linecap="round"/>
<path d="M2064.77 0L1352.81 1536.02" stroke="#7A7289" stroke-width="1.5" stroke-linecap="round"/>
<path d="M2069.73 0L1357.77 1536.02" stroke="#7A7289" stroke-width="1.5" stroke-linecap="round"/>
<path d="M2074.69 0L1362.73 1536.02" stroke="#7A7289" stroke-width="1.5" stroke-linecap="round"/>
<path d="M2079.64 0L1367.69 1536.02" stroke="#7A7289" stroke-width="1.5" stroke-linecap="round"/>
<path d="M2084.6 0L1372.64 1536.02" stroke="#7A7289" stroke-width="1.5" stroke-linecap="round"/>
<path d="M2089.56 0L1377.6 1536.02" stroke="#7A7289" stroke-width="1.5" stroke-linecap="round"/>
<path d="M2094.52 0L1382.56 1536.02" stroke="#7A7289" stroke-width="1.5" stroke-linecap="round"/>
<path d="M2099.48 0L1387.52 1536.02" stroke="#7A7289" stroke-width="1.5" stroke-linecap="round"/>
<path d="M2104.44 0L1392.48 1536.02" stroke="#7A7289" stroke-width="1.5" stroke-linecap="round"/>
<path d="M2109.4 0L1397.44 1536.02" stroke="#7A7289" stroke-width="1.5" stroke-linecap="round"/>
<path d="M2114.36 0L1402.4 1536.02" stroke="#7A7289" stroke-width="1.5" stroke-linecap="round"/>
<path d="M2119.32 0L1407.36 1536.02" stroke="#7A7289" stroke-width="1.5" stroke-linecap="round"/>
<path d="M2124.27 0L1412.32 1536.02" stroke="#7A7289" stroke-width="1.5" stroke-linecap="round"/>
<path d="M2129.23 0L1417.27 1536.02" stroke="#7A7289" stroke-width="1.5" stroke-linecap="round"/>
<path d="M2134 0L1422.04 1536.02" stroke="#958DA5" stroke-width="1.5" stroke-linecap="round"/>
<path d="M2138.96 0L1427 1536.02" stroke="#958DA5" stroke-width="1.5" stroke-linecap="round"/>
<path d="M2143.92 0L1431.96 1536.02" stroke="#958DA5" stroke-width="1.5" stroke-linecap="round"/>
<path d="M2148.88 0L1436.92 1536.02" stroke="#958DA5" stroke-width="1.5" stroke-linecap="round"/>
<path d="M2153.84 0L1441.88 1536.02" stroke="#958DA5" stroke-width="1.5" stroke-linecap="round"/>
<path d="M2158.79 0L1446.84 1536.02" stroke="#958DA5" stroke-width="1.5" stroke-linecap="round"/>
<path d="M2163.75 0L1451.79 1536.02" stroke="#958DA5" stroke-width="1.5" stroke-linecap="round"/>
<path d="M2168.71 0L1456.75 1536.02" stroke="#958DA5" stroke-width="1.5" stroke-linecap="round"/>
<path d="M2173.67 0L1461.71 1536.02" stroke="#958DA5" stroke-width="1.5" stroke-linecap="round"/>
<path d="M2178.63 0L1466.67 1536.02" stroke="#958DA5" stroke-width="1.5" stroke-linecap="round"/>
<path d="M2183.59 0L1471.63 1536.02" stroke="#958DA5" stroke-width="1.5" stroke-linecap="round"/>
<path d="M2188.55 0L1476.59 1536.02" stroke="#958DA5" stroke-width="1.5" stroke-linecap="round"/>
<path d="M2193.51 0L1481.55 1536.02" stroke="#958DA5" stroke-width="1.5" stroke-linecap="round"/>
<path d="M2198.47 0L1486.51 1536.02" stroke="#958DA5" stroke-width="1.5" stroke-linecap="round"/>
<path d="M2203.42 0L1491.47 1536.02" stroke="#958DA5" stroke-width="1.5" stroke-linecap="round"/>
<path d="M2208.38 0L1496.42 1536.02" stroke="#958DA5" stroke-width="1.5" stroke-linecap="round"/>
<path d="M2213.34 0L1501.38 1536.02" stroke="#958DA5" stroke-width="1.5" stroke-linecap="round"/>
<path d="M2218.3 0L1506.34 1536.02" stroke="#958DA5" stroke-width="1.5" stroke-linecap="round"/>
<path d="M2223.26 0L1511.3 1536.02" stroke="#958DA5" stroke-width="1.5" stroke-linecap="round"/>
<path d="M2228.22 0L1516.26 1536.02" stroke="#958DA5" stroke-width="1.5" stroke-linecap="round"/>
<path d="M2233.18 0L1521.22 1536.02" stroke="#958DA5" stroke-width="1.5" stroke-linecap="round"/>
<path d="M2238.14 0L1526.18 1536.02" stroke="#958DA5" stroke-width="1.5" stroke-linecap="round"/>
<path d="M2243.1 0L1531.14 1536.02" stroke="#958DA5" stroke-width="1.5" stroke-linecap="round"/>
<path d="M2248.06 0L1536.1 1536.02" stroke="#958DA5" stroke-width="1.5" stroke-linecap="round"/>
<path d="M2253.01 0L1541.06 1536.02" stroke="#958DA5" stroke-width="1.5" stroke-linecap="round"/>
<path d="M2257.97 0L1546.01 1536.02" stroke="#958DA5" stroke-width="1.5" stroke-linecap="round"/>
<path d="M2262.93 0L1550.97 1536.02" stroke="#958DA5" stroke-width="1.5" stroke-linecap="round"/>
<path d="M2267.89 0L1555.93 1536.02" stroke="#958DA5" stroke-width="1.5" stroke-linecap="round"/>
<path d="M2272.85 0L1560.89 1536.02" stroke="#958DA5" stroke-width="1.5" stroke-linecap="round"/>
<path d="M2277.81 0L1565.85 1536.02" stroke="#958DA5" stroke-width="1.5" stroke-linecap="round"/>
<path d="M2282.77 0L1570.81 1536.02" stroke="#958DA5" stroke-width="1.5" stroke-linecap="round"/>
<path d="M2287.73 0L1575.77 1536.02" stroke="#958DA5" stroke-width="1.5" stroke-linecap="round"/>
<path d="M2292 0L1580.04 1536.02" stroke="#B0A7C0" stroke-width="1.5" stroke-linecap="round"/>
<path d="M2296.96 0L1585 1536.02" stroke="#B0A7C0" stroke-width="1.5" stroke-linecap="round"/>
<path d="M2301.92 0L1589.96 1536.02" stroke="#B0A7C0" stroke-width="1.5" stroke-linecap="round"/>
<path d="M2306.88 0L1594.92 1536.02" stroke="#B0A7C0" stroke-width="1.5" stroke-linecap="round"/>
<path d="M2311.84 0L1599.88 1536.02" stroke="#B0A7C0" stroke-width="1.5" stroke-linecap="round"/>
<path d="M2316.79 0L1604.84 1536.02" stroke="#B0A7C0" stroke-width="1.5" stroke-linecap="round"/>
<path d="M2321.75 0L1609.79 1536.02" stroke="#B0A7C0" stroke-width="1.5" stroke-linecap="round"/>
<path d="M2326.71 0L1614.75 1536.02" stroke="#B0A7C0" stroke-width="1.5" stroke-linecap="round"/>
<path d="M2331.67 0L1619.71 1536.02" stroke="#B0A7C0" stroke-width="1.5" stroke-linecap="round"/>
<path d="M2336.63 0L1624.67 1536.02" stroke="#B0A7C0" stroke-width="1.5" stroke-linecap="round"/>
<path d="M2341.59 0L1629.63 1536.02" stroke="#B0A7C0" stroke-width="1.5" stroke-linecap="round"/>
<path d="M2346.55 0L1634.59 1536.02" stroke="#B0A7C0" stroke-width="1.5" stroke-linecap="round"/>
<path d="M2351.51 0L1639.55 1536.02" stroke="#B0A7C0" stroke-width="1.5" stroke-linecap="round"/>
<path d="M2356.47 0L1644.51 1536.02" stroke="#B0A7C0" stroke-width="1.5" stroke-linecap="round"/>
<path d="M2361.42 0L1649.47 1536.02" stroke="#B0A7C0" stroke-width="1.5" stroke-linecap="round"/>
<path d="M2366.38 0L1654.42 1536.02" stroke="#B0A7C0" stroke-width="1.5" stroke-linecap="round"/>
<path d="M2371.34 0L1659.38 1536.02" stroke="#B0A7C0" stroke-width="1.5" stroke-linecap="round"/>
<path d="M2376.3 0L1664.34 1536.02" stroke="#B0A7C0" stroke-width="1.5" stroke-linecap="round"/>
<path d="M2381.26 0L1669.3 1536.02" stroke="#B0A7C0" stroke-width="1.5" stroke-linecap="round"/>
<path d="M2386.22 0L1674.26 1536.02" stroke="#B0A7C0" stroke-width="1.5" stroke-linecap="round"/>
<path d="M2391.18 0L1679.22 1536.02" stroke="#B0A7C0" stroke-width="1.5" stroke-linecap="round"/>
<path d="M2396.14 0L1684.18 1536.02" stroke="#B0A7C0" stroke-width="1.5" stroke-linecap="round"/>
<path d="M289 0L-422.959 1536.02" stroke="#4A4458" stroke-width="1.5" stroke-linecap="round"/>
<path d="M293.959 0L-418 1536.02" stroke="#4A4458" stroke-width="1.5" stroke-linecap="round"/>
<path d="M298.918 0L-413.041 1536.02" stroke="#4A4458" stroke-width="1.5" stroke-linecap="round"/>
<path d="M303.877 0L-408.082 1536.02" stroke="#4A4458" stroke-width="1.5" stroke-linecap="round"/>
<path d="M308.836 0L-403.123 1536.02" stroke="#4A4458" stroke-width="1.5" stroke-linecap="round"/>
<path d="M313.795 0L-398.164 1536.02" stroke="#4A4458" stroke-width="1.5" stroke-linecap="round"/>
<path d="M318.753 0L-393.206 1536.02" stroke="#4A4458" stroke-width="1.5" stroke-linecap="round"/>
<path d="M323.712 0L-388.247 1536.02" stroke="#4A4458" stroke-width="1.5" stroke-linecap="round"/>
<path d="M328.671 0L-383.288 1536.02" stroke="#4A4458" stroke-width="1.5" stroke-linecap="round"/>
<path d="M333.63 0L-378.329 1536.02" stroke="#4A4458" stroke-width="1.5" stroke-linecap="round"/>
<path d="M338.589 0L-373.37 1536.02" stroke="#4A4458" stroke-width="1.5" stroke-linecap="round"/>
<path d="M343.548 0L-368.411 1536.02" stroke="#4A4458" stroke-width="1.5" stroke-linecap="round"/>
<path d="M348.507 0L-363.452 1536.02" stroke="#4A4458" stroke-width="1.5" stroke-linecap="round"/>
<path d="M353.466 0L-358.493 1536.02" stroke="#4A4458" stroke-width="1.5" stroke-linecap="round"/>
<path d="M358.425 0L-353.534 1536.02" stroke="#4A4458" stroke-width="1.5" stroke-linecap="round"/>
<path d="M363.384 0L-348.575 1536.02" stroke="#4A4458" stroke-width="1.5" stroke-linecap="round"/>
<path d="M368.343 0L-343.616 1536.02" stroke="#4A4458" stroke-width="1.5" stroke-linecap="round"/>
<path d="M373.302 0L-338.657 1536.02" stroke="#4A4458" stroke-width="1.5" stroke-linecap="round"/>
<path d="M378.26 0L-333.698 1536.02" stroke="#4A4458" stroke-width="1.5" stroke-linecap="round"/>
<path d="M383.219 0L-328.739 1536.02" stroke="#4A4458" stroke-width="1.5" stroke-linecap="round"/>
<path d="M388.178 0L-323.78 1536.02" stroke="#4A4458" stroke-width="1.5" stroke-linecap="round"/>
<path d="M393.137 0L-318.822 1536.02" stroke="#4A4458" stroke-width="1.5" stroke-linecap="round"/>
<path d="M398.096 0L-313.863 1536.02" stroke="#4A4458" stroke-width="1.5" stroke-linecap="round"/>
<path d="M403.055 0L-308.904 1536.02" stroke="#4A4458" stroke-width="1.5" stroke-linecap="round"/>
<path d="M408.014 0L-303.945 1536.02" stroke="#4A4458" stroke-width="1.5" stroke-linecap="round"/>
<path d="M412.973 0L-298.986 1536.02" stroke="#4A4458" stroke-width="1.5" stroke-linecap="round"/>
<path d="M417.932 0L-294.027 1536.02" stroke="#4A4458" stroke-width="1.5" stroke-linecap="round"/>
<path d="M422.891 0L-289.068 1536.02" stroke="#4A4458" stroke-width="1.5" stroke-linecap="round"/>
<path d="M427.85 0L-284.109 1536.02" stroke="#4A4458" stroke-width="1.5" stroke-linecap="round"/>
<path d="M432.809 0L-279.15 1536.02" stroke="#4A4458" stroke-width="1.5" stroke-linecap="round"/>
<path d="M437.768 0L-274.191 1536.02" stroke="#4A4458" stroke-width="1.5" stroke-linecap="round"/>
<path d="M442.727 0L-269.232 1536.02" stroke="#4A4458" stroke-width="1.5" stroke-linecap="round"/>
<path d="M447.686 0L-264.273 1536.02" stroke="#4A4458" stroke-width="1.5" stroke-linecap="round"/>
<path d="M452.644 0L-259.315 1536.02" stroke="#4A4458" stroke-width="1.5" stroke-linecap="round"/>
<path d="M457.603 0L-254.356 1536.02" stroke="#4A4458" stroke-width="1.5" stroke-linecap="round"/>
<path d="M462.562 0L-249.397 1536.02" stroke="#4A4458" stroke-width="1.5" stroke-linecap="round"/>
<path d="M467.521 0L-244.438 1536.02" stroke="#4A4458" stroke-width="1.5" stroke-linecap="round"/>
<path d="M472.48 0L-239.479 1536.02" stroke="#4A4458" stroke-width="1.5" stroke-linecap="round"/>
<path d="M779.959 0L68 1536.02" stroke="#4A4458" stroke-width="35" stroke-linecap="round"/>
<path d="M738.959 0L27 1536.02" stroke="#958DA5" stroke-width="3" stroke-linecap="round"/>
<path d="M745.918 0L33.959 1536.02" stroke="#958DA5" stroke-width="3" stroke-linecap="round"/>
<path d="M752.877 0L40.9178 1536.02" stroke="#958DA5" stroke-width="3" stroke-linecap="round"/>
<path d="M759.836 0L47.8768 1536.02" stroke="#958DA5" stroke-width="3" stroke-linecap="round"/>
<path d="M1572 0L860.041 1536.02" stroke="#958DA5" stroke-width="23" stroke-linecap="round"/>
<path d="M1623 0L911.041 1536.02" stroke="#958DA5" stroke-width="23" stroke-linecap="round"/>
<path d="M1675 0L963.041 1536.02" stroke="#958DA5" stroke-width="23" stroke-linecap="round"/>
<path d="M66.6666 160H58.6666V136H50.6666V128H66.6666V160ZM101.333 152H85.3333V146.667H96C98.9333 146.667 101.333 144.267 101.333 141.333V133.333C101.333 130.4 98.9333 128 96 128H77.3333V136H93.3333V141.333H82.6666C79.7333 141.333 77.3333 143.733 77.3333 146.667V160H101.333V152ZM133.333 154.667V133.333C133.333 130.4 130.933 128 128 128H109.333V136H125.333V141.333H114.667V146.667H125.333V152H109.333V160H128C130.933 160 133.333 157.6 133.333 154.667Z" fill="#898297"/>
<g clip-path="url(#clip1_2_2333)">
<path d="M508.133 226.56C490.693 218.347 478.213 201.387 476.293 181.333H468.293C471.013 214.187 498.48 240 532.027 240L535.547 239.84L515.227 219.52L508.133 226.56ZM512.88 191.787C511.867 191.787 510.907 191.627 510.107 191.36C509.253 191.04 508.56 190.667 507.973 190.08C507.387 189.547 506.907 188.907 506.587 188.107C506.267 187.36 506.107 186.507 506.107 185.6H499.173C499.173 187.52 499.547 189.227 500.293 190.667C501.04 192.107 502.053 193.333 503.28 194.347C504.56 195.307 506 196.053 507.653 196.533C509.253 197.067 510.96 197.333 512.773 197.333C514.747 197.333 516.613 197.067 518.267 196.533C519.973 196 521.467 195.2 522.693 194.187C523.92 193.173 524.933 191.893 525.627 190.347C526.32 188.8 526.693 187.093 526.693 185.173C526.693 184.16 526.587 183.147 526.32 182.187C526.053 181.227 525.68 180.32 525.093 179.467C524.56 178.613 523.813 177.867 522.96 177.173C522.053 176.48 520.987 175.947 519.707 175.52C520.773 175.04 521.68 174.453 522.48 173.76C523.28 173.067 523.92 172.32 524.453 171.52C524.987 170.72 525.36 169.92 525.627 169.067C525.893 168.213 526 167.36 526 166.507C526 164.587 525.68 162.88 525.04 161.387C524.4 159.893 523.493 158.667 522.32 157.707C521.253 156.693 519.813 155.947 518.213 155.413C516.56 154.933 514.747 154.667 512.773 154.667C510.853 154.667 509.093 154.933 507.44 155.52C505.84 156.107 504.4 156.907 503.227 157.92C502.107 158.933 501.2 160.107 500.507 161.493C499.867 162.88 499.547 164.373 499.547 166.027H506.48C506.48 165.12 506.64 164.32 506.96 163.627C507.28 162.933 507.707 162.293 508.293 161.813C508.88 161.333 509.52 160.907 510.32 160.64C511.12 160.373 511.92 160.213 512.88 160.213C515.013 160.213 516.613 160.747 517.627 161.867C518.64 162.933 519.173 164.48 519.173 166.453C519.173 167.413 519.013 168.267 518.747 169.067C518.48 169.867 518 170.507 517.413 171.04C516.827 171.573 516.08 172 515.227 172.32C514.373 172.64 513.307 172.8 512.133 172.8H508.027V178.293H512.133C513.307 178.293 514.373 178.4 515.333 178.667C516.293 178.933 517.093 179.36 517.733 179.893C518.373 180.48 518.907 181.173 519.28 182.027C519.653 182.88 519.813 183.893 519.813 185.067C519.813 187.253 519.173 188.907 517.947 190.027C516.72 191.253 515.013 191.787 512.88 191.787ZM558.48 160.213C556.773 158.453 554.747 157.067 552.4 156.107C550.053 155.147 547.44 154.667 544.56 154.667H531.973V197.333H544.24C547.173 197.333 549.893 196.853 552.293 195.893C554.693 194.933 556.773 193.6 558.48 191.84C560.187 190.08 561.52 187.947 562.427 185.493C563.333 182.987 563.813 180.213 563.813 177.12V174.987C563.813 171.893 563.333 169.12 562.427 166.613C561.52 164.107 560.187 161.973 558.48 160.213ZM556.4 177.067C556.4 179.307 556.133 181.28 555.653 183.093C555.12 184.853 554.373 186.4 553.36 187.627C552.347 188.853 551.067 189.813 549.573 190.453C548.027 191.093 546.267 191.413 544.293 191.413H539.44V160.64H544.613C548.453 160.64 551.387 161.867 553.36 164.32C555.387 166.773 556.4 170.293 556.4 174.933V177.067ZM532.027 112L528.507 112.16L548.827 132.48L555.92 125.387C573.36 133.653 585.84 150.56 587.707 170.613H595.707C593.04 137.813 565.573 112 532.027 112Z" fill="#898297"/>
</g>
<path d="M392 542.667H384V540H373.333V556H384V553.333H392V558.667C392 561.6 389.6 564 386.667 564H370.667C367.733 564 365.333 561.6 365.333 558.667V537.333C365.333 534.4 367.733 532 370.667 532H386.667C389.6 532 392 534.4 392 537.333V542.667ZM322.667 537.333V564H314.667V556H304V564H296V537.333C296 534.4 298.4 532 301.333 532H317.333C320.267 532 322.667 534.4 322.667 537.333ZM314.667 540H304V548H314.667V540ZM352 548C354.933 548 357.333 550.4 357.333 553.333V558.667C357.333 561.6 354.933 564 352 564H330.667V532H352C354.933 532 357.333 534.4 357.333 537.333V542.667C357.333 545.6 354.933 548 352 548ZM338.667 540V544H349.333V540H338.667ZM349.333 552H338.667V556H349.333V552Z" fill="#898297"/>
<path d="M171 882.667C176.867 882.667 181.667 887.467 181.667 893.333C181.667 899.2 176.867 904 171 904C165.133 904 160.333 899.2 160.333 893.333C160.333 887.467 165.133 882.667 171 882.667ZM219 920H187V989.333H176.333V957.333H165.667V989.333H155V920H123V909.333H219V920Z" fill="#898297"/>
</g>
<defs>
<clipPath id="clip0_2_2333">
<rect width="2169" height="1534" fill="white"/>
</clipPath>
<clipPath id="clip1_2_2333">
<rect width="128" height="128" fill="white" transform="translate(468 112)"/>
</clipPath>
</defs>
</svg>
