<svg width="2169" height="1534" viewBox="0 0 2169 1534" fill="none" xmlns="http://www.w3.org/2000/svg">
<g opacity="0.9" clip-path="url(#clip0_2_2333)">
<rect width="2169" height="1534" fill="#625B71"/>
<path d="M1111 1L399.041 1537.02" stroke="#4A4458" stroke-width="3.5" stroke-linecap="round"/>
<path d="M1117.96 1L406 1537.02" stroke="#4A4458" stroke-width="3.5" stroke-linecap="round"/>
<path d="M1124.92 1L412.959 1537.02" stroke="#4A4458" stroke-width="3.5" stroke-linecap="round"/>
<path d="M1131.88 1L419.918 1537.02" stroke="#4A4458" stroke-width="3.5" stroke-linecap="round"/>
<path d="M1138.84 1L426.877 1537.02" stroke="#4A4458" stroke-width="3.5" stroke-linecap="round"/>
<path d="M1145.79 1L433.835 1537.02" stroke="#4A4458" stroke-width="3.5" stroke-linecap="round"/>
<path d="M1152.75 1L440.794 1537.02" stroke="#4A4458" stroke-width="3.5" stroke-linecap="round"/>
<path d="M1159.71 1L447.753 1537.02" stroke="#4A4458" stroke-width="3.5" stroke-linecap="round"/>
<path d="M1166.67 1L454.712 1537.02" stroke="#4A4458" stroke-width="3.5" stroke-linecap="round"/>
<path d="M1173.63 1L461.671 1537.02" stroke="#4A4458" stroke-width="3.5" stroke-linecap="round"/>
<path d="M1180.59 1L468.63 1537.02" stroke="#4A4458" stroke-width="3.5" stroke-linecap="round"/>
<path d="M1187.55 1L475.589 1537.02" stroke="#4A4458" stroke-width="3.5" stroke-linecap="round"/>
<path d="M1194.51 1L482.548 1537.02" stroke="#4A4458" stroke-width="3.5" stroke-linecap="round"/>
<path d="M1201.47 1L489.507 1537.02" stroke="#4A4458" stroke-width="3.5" stroke-linecap="round"/>
<path d="M1208.42 1L496.466 1537.02" stroke="#4A4458" stroke-width="3.5" stroke-linecap="round"/>
<path d="M1215.38 1L503.425 1537.02" stroke="#4A4458" stroke-width="3.5" stroke-linecap="round"/>
<path d="M1222.34 1L510.384 1537.02" stroke="#4A4458" stroke-width="3.5" stroke-linecap="round"/>
<path d="M1229.3 1L517.343 1537.02" stroke="#4A4458" stroke-width="3.5" stroke-linecap="round"/>
<path d="M1236.26 1L524.302 1537.02" stroke="#4A4458" stroke-width="3.5" stroke-linecap="round"/>
<path d="M1243.22 1L531.261 1537.02" stroke="#4A4458" stroke-width="3.5" stroke-linecap="round"/>
<path d="M1098 0L386.041 1536.02" stroke="#4A4458" stroke-width="17" stroke-linecap="round"/>
<path d="M1237 -1L525.041 1535.02" stroke="#4A4458" stroke-width="42" stroke-linecap="round"/>
<path d="M1916 0L1204.04 1536.02" stroke="#7A7289" stroke-width="1.5" stroke-linecap="round"/>
<path d="M1920.96 0L1209 1536.02" stroke="#7A7289" stroke-width="1.5" stroke-linecap="round"/>
<path d="M1925.92 0L1213.96 1536.02" stroke="#7A7289" stroke-width="1.5" stroke-linecap="round"/>
<path d="M1930.88 0L1218.92 1536.02" stroke="#7A7289" stroke-width="1.5" stroke-linecap="round"/>
<path d="M1935.84 0L1223.88 1536.02" stroke="#7A7289" stroke-width="1.5" stroke-linecap="round"/>
<path d="M1940.79 0L1228.84 1536.02" stroke="#7A7289" stroke-width="1.5" stroke-linecap="round"/>
<path d="M1945.75 0L1233.79 1536.02" stroke="#7A7289" stroke-width="1.5" stroke-linecap="round"/>
<path d="M1950.71 0L1238.75 1536.02" stroke="#7A7289" stroke-width="1.5" stroke-linecap="round"/>
<path d="M1955.67 0L1243.71 1536.02" stroke="#7A7289" stroke-width="1.5" stroke-linecap="round"/>
<path d="M1960.63 0L1248.67 1536.02" stroke="#7A7289" stroke-width="1.5" stroke-linecap="round"/>
<path d="M1965.59 0L1253.63 1536.02" stroke="#7A7289" stroke-width="1.5" stroke-linecap="round"/>
<path d="M1970.55 0L1258.59 1536.02" stroke="#7A7289" stroke-width="1.5" stroke-linecap="round"/>
<path d="M1975.51 0L1263.55 1536.02" stroke="#7A7289" stroke-width="1.5" stroke-linecap="round"/>
<path d="M1980.47 0L1268.51 1536.02" stroke="#7A7289" stroke-width="1.5" stroke-linecap="round"/>
<path d="M1985.42 0L1273.47 1536.02" stroke="#7A7289" stroke-width="1.5" stroke-linecap="round"/>
<path d="M1990.38 0L1278.42 1536.02" stroke="#7A7289" stroke-width="1.5" stroke-linecap="round"/>
<path d="M1995.34 0L1283.38 1536.02" stroke="#7A7289" stroke-width="1.5" stroke-linecap="round"/>
<path d="M2000.3 0L1288.34 1536.02" stroke="#7A7289" stroke-width="1.5" stroke-linecap="round"/>
<path d="M2005.26 0L1293.3 1536.02" stroke="#7A7289" stroke-width="1.5" stroke-linecap="round"/>
<path d="M2010.22 0L1298.26 1536.02" stroke="#7A7289" stroke-width="1.5" stroke-linecap="round"/>
<path d="M2015.18 0L1303.22 1536.02" stroke="#7A7289" stroke-width="1.5" stroke-linecap="round"/>
<path d="M2020.14 0L1308.18 1536.02" stroke="#7A7289" stroke-width="1.5" stroke-linecap="round"/>
<path d="M2025.1 0L1313.14 1536.02" stroke="#7A7289" stroke-width="1.5" stroke-linecap="round"/>
<path d="M2030.06 0L1318.1 1536.02" stroke="#7A7289" stroke-width="1.5" stroke-linecap="round"/>
<path d="M2035.01 0L1323.06 1536.02" stroke="#7A7289" stroke-width="1.5" stroke-linecap="round"/>
<path d="M2039.97 0L1328.01 1536.02" stroke="#7A7289" stroke-width="1.5" stroke-linecap="round"/>
<path d="M2044.93 0L1332.97 1536.02" stroke="#7A7289" stroke-width="1.5" stroke-linecap="round"/>
<path d="M2049.89 0L1337.93 1536.02" stroke="#7A7289" stroke-width="1.5" stroke-linecap="round"/>
<path d="M2054.85 0L1342.89 1536.02" stroke="#7A7289" stroke-width="1.5" stroke-linecap="round"/>
<path d="M2059.81 0L1347.85 1536.02" stroke="#7A7289" stroke-width="1.5" stroke-linecap="round"/>
<path d="M2064.77 0L1352.81 1536.02" stroke="#7A7289" stroke-width="1.5" stroke-linecap="round"/>
<path d="M2069.73 0L1357.77 1536.02" stroke="#7A7289" stroke-width="1.5" stroke-linecap="round"/>
<path d="M2074.69 0L1362.73 1536.02" stroke="#7A7289" stroke-width="1.5" stroke-linecap="round"/>
<path d="M2079.64 0L1367.69 1536.02" stroke="#7A7289" stroke-width="1.5" stroke-linecap="round"/>
<path d="M2084.6 0L1372.64 1536.02" stroke="#7A7289" stroke-width="1.5" stroke-linecap="round"/>
<path d="M2089.56 0L1377.6 1536.02" stroke="#7A7289" stroke-width="1.5" stroke-linecap="round"/>
<path d="M2094.52 0L1382.56 1536.02" stroke="#7A7289" stroke-width="1.5" stroke-linecap="round"/>
<path d="M2099.48 0L1387.52 1536.02" stroke="#7A7289" stroke-width="1.5" stroke-linecap="round"/>
<path d="M2104.44 0L1392.48 1536.02" stroke="#7A7289" stroke-width="1.5" stroke-linecap="round"/>
<path d="M2109.4 0L1397.44 1536.02" stroke="#7A7289" stroke-width="1.5" stroke-linecap="round"/>
<path d="M2114.36 0L1402.4 1536.02" stroke="#7A7289" stroke-width="1.5" stroke-linecap="round"/>
<path d="M2119.32 0L1407.36 1536.02" stroke="#7A7289" stroke-width="1.5" stroke-linecap="round"/>
<path d="M2124.27 0L1412.32 1536.02" stroke="#7A7289" stroke-width="1.5" stroke-linecap="round"/>
<path d="M2129.23 0L1417.27 1536.02" stroke="#7A7289" stroke-width="1.5" stroke-linecap="round"/>
<path d="M2134 0L1422.04 1536.02" stroke="#958DA5" stroke-width="1.5" stroke-linecap="round"/>
<path d="M2138.96 0L1427 1536.02" stroke="#958DA5" stroke-width="1.5" stroke-linecap="round"/>
<path d="M2143.92 0L1431.96 1536.02" stroke="#958DA5" stroke-width="1.5" stroke-linecap="round"/>
<path d="M2148.88 0L1436.92 1536.02" stroke="#958DA5" stroke-width="1.5" stroke-linecap="round"/>
<path d="M2153.84 0L1441.88 1536.02" stroke="#958DA5" stroke-width="1.5" stroke-linecap="round"/>
<path d="M2158.79 0L1446.84 1536.02" stroke="#958DA5" stroke-width="1.5" stroke-linecap="round"/>
<path d="M2163.75 0L1451.79 1536.02" stroke="#958DA5" stroke-width="1.5" stroke-linecap="round"/>
<path d="M2168.71 0L1456.75 1536.02" stroke="#958DA5" stroke-width="1.5" stroke-linecap="round"/>
<path d="M2173.67 0L1461.71 1536.02" stroke="#958DA5" stroke-width="1.5" stroke-linecap="round"/>
<path d="M2178.63 0L1466.67 1536.02" stroke="#958DA5" stroke-width="1.5" stroke-linecap="round"/>
<path d="M2183.59 0L1471.63 1536.02" stroke="#958DA5" stroke-width="1.5" stroke-linecap="round"/>
<path d="M2188.55 0L1476.59 1536.02" stroke="#958DA5" stroke-width="1.5" stroke-linecap="round"/>
<path d="M2193.51 0L1481.55 1536.02" stroke="#958DA5" stroke-width="1.5" stroke-linecap="round"/>
<path d="M2198.47 0L1486.51 1536.02" stroke="#958DA5" stroke-width="1.5" stroke-linecap="round"/>
<path d="M2203.42 0L1491.47 1536.02" stroke="#958DA5" stroke-width="1.5" stroke-linecap="round"/>
<path d="M2208.38 0L1496.42 1536.02" stroke="#958DA5" stroke-width="1.5" stroke-linecap="round"/>
<path d="M2213.34 0L1501.38 1536.02" stroke="#958DA5" stroke-width="1.5" stroke-linecap="round"/>
<path d="M2218.3 0L1506.34 1536.02" stroke="#958DA5" stroke-width="1.5" stroke-linecap="round"/>
<path d="M2223.26 0L1511.3 1536.02" stroke="#958DA5" stroke-width="1.5" stroke-linecap="round"/>
<path d="M2228.22 0L1516.26 1536.02" stroke="#958DA5" stroke-width="1.5" stroke-linecap="round"/>
<path d="M2233.18 0L1521.22 1536.02" stroke="#958DA5" stroke-width="1.5" stroke-linecap="round"/>
<path d="M2238.14 0L1526.18 1536.02" stroke="#958DA5" stroke-width="1.5" stroke-linecap="round"/>
<path d="M2243.1 0L1531.14 1536.02" stroke="#958DA5" stroke-width="1.5" stroke-linecap="round"/>
<path d="M2248.06 0L1536.1 1536.02" stroke="#958DA5" stroke-width="1.5" stroke-linecap="round"/>
<path d="M2253.01 0L1541.06 1536.02" stroke="#958DA5" stroke-width="1.5" stroke-linecap="round"/>
<path d="M2257.97 0L1546.01 1536.02" stroke="#958DA5" stroke-width="1.5" stroke-linecap="round"/>
<path d="M2262.93 0L1550.97 1536.02" stroke="#958DA5" stroke-width="1.5" stroke-linecap="round"/>
<path d="M2267.89 0L1555.93 1536.02" stroke="#958DA5" stroke-width="1.5" stroke-linecap="round"/>
<path d="M2272.85 0L1560.89 1536.02" stroke="#958DA5" stroke-width="1.5" stroke-linecap="round"/>
<path d="M2277.81 0L1565.85 1536.02" stroke="#958DA5" stroke-width="1.5" stroke-linecap="round"/>
<path d="M2282.77 0L1570.81 1536.02" stroke="#958DA5" stroke-width="1.5" stroke-linecap="round"/>
<path d="M2287.73 0L1575.77 1536.02" stroke="#958DA5" stroke-width="1.5" stroke-linecap="round"/>
<path d="M2292 0L1580.04 1536.02" stroke="#B0A7C0" stroke-width="1.5" stroke-linecap="round"/>
<path d="M2296.96 0L1585 1536.02" stroke="#B0A7C0" stroke-width="1.5" stroke-linecap="round"/>
<path d="M2301.92 0L1589.96 1536.02" stroke="#B0A7C0" stroke-width="1.5" stroke-linecap="round"/>
<path d="M2306.88 0L1594.92 1536.02" stroke="#B0A7C0" stroke-width="1.5" stroke-linecap="round"/>
<path d="M2311.84 0L1599.88 1536.02" stroke="#B0A7C0" stroke-width="1.5" stroke-linecap="round"/>
<path d="M2316.79 0L1604.84 1536.02" stroke="#B0A7C0" stroke-width="1.5" stroke-linecap="round"/>
<path d="M2321.75 0L1609.79 1536.02" stroke="#B0A7C0" stroke-width="1.5" stroke-linecap="round"/>
<path d="M2326.71 0L1614.75 1536.02" stroke="#B0A7C0" stroke-width="1.5" stroke-linecap="round"/>
<path d="M2331.67 0L1619.71 1536.02" stroke="#B0A7C0" stroke-width="1.5" stroke-linecap="round"/>
<path d="M2336.63 0L1624.67 1536.02" stroke="#B0A7C0" stroke-width="1.5" stroke-linecap="round"/>
<path d="M2341.59 0L1629.63 1536.02" stroke="#B0A7C0" stroke-width="1.5" stroke-linecap="round"/>
<path d="M2346.55 0L1634.59 1536.02" stroke="#B0A7C0" stroke-width="1.5" stroke-linecap="round"/>
<path d="M2351.51 0L1639.55 1536.02" stroke="#B0A7C0" stroke-width="1.5" stroke-linecap="round"/>
<path d="M2356.47 0L1644.51 1536.02" stroke="#B0A7C0" stroke-width="1.5" stroke-linecap="round"/>
<path d="M2361.42 0L1649.47 1536.02" stroke="#B0A7C0" stroke-width="1.5" stroke-linecap="round"/>
<path d="M2366.38 0L1654.42 1536.02" stroke="#B0A7C0" stroke-width="1.5" stroke-linecap="round"/>
<path d="M2371.34 0L1659.38 1536.02" stroke="#B0A7C0" stroke-width="1.5" stroke-linecap="round"/>
<path d="M2376.3 0L1664.34 1536.02" stroke="#B0A7C0" stroke-width="1.5" stroke-linecap="round"/>
<path d="M2381.26 0L1669.3 1536.02" stroke="#B0A7C0" stroke-width="1.5" stroke-linecap="round"/>
<path d="M2386.22 0L1674.26 1536.02" stroke="#B0A7C0" stroke-width="1.5" stroke-linecap="round"/>
<path d="M2391.18 0L1679.22 1536.02" stroke="#B0A7C0" stroke-width="1.5" stroke-linecap="round"/>
<path d="M2396.14 0L1684.18 1536.02" stroke="#B0A7C0" stroke-width="1.5" stroke-linecap="round"/>
<path d="M289 0L-422.959 1536.02" stroke="#4A4458" stroke-width="1.5" stroke-linecap="round"/>
<path d="M293.959 0L-418 1536.02" stroke="#4A4458" stroke-width="1.5" stroke-linecap="round"/>
<path d="M298.918 0L-413.041 1536.02" stroke="#4A4458" stroke-width="1.5" stroke-linecap="round"/>
<path d="M303.877 0L-408.082 1536.02" stroke="#4A4458" stroke-width="1.5" stroke-linecap="round"/>
<path d="M308.836 0L-403.123 1536.02" stroke="#4A4458" stroke-width="1.5" stroke-linecap="round"/>
<path d="M313.795 0L-398.164 1536.02" stroke="#4A4458" stroke-width="1.5" stroke-linecap="round"/>
<path d="M318.753 0L-393.206 1536.02" stroke="#4A4458" stroke-width="1.5" stroke-linecap="round"/>
<path d="M323.712 0L-388.247 1536.02" stroke="#4A4458" stroke-width="1.5" stroke-linecap="round"/>
<path d="M328.671 0L-383.288 1536.02" stroke="#4A4458" stroke-width="1.5" stroke-linecap="round"/>
<path d="M333.63 0L-378.329 1536.02" stroke="#4A4458" stroke-width="1.5" stroke-linecap="round"/>
<path d="M338.589 0L-373.37 1536.02" stroke="#4A4458" stroke-width="1.5" stroke-linecap="round"/>
<path d="M343.548 0L-368.411 1536.02" stroke="#4A4458" stroke-width="1.5" stroke-linecap="round"/>
<path d="M348.507 0L-363.452 1536.02" stroke="#4A4458" stroke-width="1.5" stroke-linecap="round"/>
<path d="M353.466 0L-358.493 1536.02" stroke="#4A4458" stroke-width="1.5" stroke-linecap="round"/>
<path d="M358.425 0L-353.534 1536.02" stroke="#4A4458" stroke-width="1.5" stroke-linecap="round"/>
<path d="M363.384 0L-348.575 1536.02" stroke="#4A4458" stroke-width="1.5" stroke-linecap="round"/>
<path d="M368.343 0L-343.616 1536.02" stroke="#4A4458" stroke-width="1.5" stroke-linecap="round"/>
<path d="M373.302 0L-338.657 1536.02" stroke="#4A4458" stroke-width="1.5" stroke-linecap="round"/>
<path d="M378.26 0L-333.698 1536.02" stroke="#4A4458" stroke-width="1.5" stroke-linecap="round"/>
<path d="M383.219 0L-328.739 1536.02" stroke="#4A4458" stroke-width="1.5" stroke-linecap="round"/>
<path d="M388.178 0L-323.78 1536.02" stroke="#4A4458" stroke-width="1.5" stroke-linecap="round"/>
<path d="M393.137 0L-318.822 1536.02" stroke="#4A4458" stroke-width="1.5" stroke-linecap="round"/>
<path d="M398.096 0L-313.863 1536.02" stroke="#4A4458" stroke-width="1.5" stroke-linecap="round"/>
<path d="M403.055 0L-308.904 1536.02" stroke="#4A4458" stroke-width="1.5" stroke-linecap="round"/>
<path d="M408.014 0L-303.945 1536.02" stroke="#4A4458" stroke-width="1.5" stroke-linecap="round"/>
<path d="M412.973 0L-298.986 1536.02" stroke="#4A4458" stroke-width="1.5" stroke-linecap="round"/>
<path d="M417.932 0L-294.027 1536.02" stroke="#4A4458" stroke-width="1.5" stroke-linecap="round"/>
<path d="M422.891 0L-289.068 1536.02" stroke="#4A4458" stroke-width="1.5" stroke-linecap="round"/>
<path d="M427.85 0L-284.109 1536.02" stroke="#4A4458" stroke-width="1.5" stroke-linecap="round"/>
<path d="M432.809 0L-279.15 1536.02" stroke="#4A4458" stroke-width="1.5" stroke-linecap="round"/>
<path d="M437.768 0L-274.191 1536.02" stroke="#4A4458" stroke-width="1.5" stroke-linecap="round"/>
<path d="M442.727 0L-269.232 1536.02" stroke="#4A4458" stroke-width="1.5" stroke-linecap="round"/>
<path d="M447.686 0L-264.273 1536.02" stroke="#4A4458" stroke-width="1.5" stroke-linecap="round"/>
<path d="M452.644 0L-259.315 1536.02" stroke="#4A4458" stroke-width="1.5" stroke-linecap="round"/>
<path d="M457.603 0L-254.356 1536.02" stroke="#4A4458" stroke-width="1.5" stroke-linecap="round"/>
<path d="M462.562 0L-249.397 1536.02" stroke="#4A4458" stroke-width="1.5" stroke-linecap="round"/>
<path d="M467.521 0L-244.438 1536.02" stroke="#4A4458" stroke-width="1.5" stroke-linecap="round"/>
<path d="M472.48 0L-239.479 1536.02" stroke="#4A4458" stroke-width="1.5" stroke-linecap="round"/>
<path d="M779.959 0L68 1536.02" stroke="#4A4458" stroke-width="35" stroke-linecap="round"/>
<path d="M738.959 0L27 1536.02" stroke="#958DA5" stroke-width="3" stroke-linecap="round"/>
<path d="M745.918 0L33.959 1536.02" stroke="#958DA5" stroke-width="3" stroke-linecap="round"/>
<path d="M752.877 0L40.9178 1536.02" stroke="#958DA5" stroke-width="3" stroke-linecap="round"/>
<path d="M759.836 0L47.8768 1536.02" stroke="#958DA5" stroke-width="3" stroke-linecap="round"/>
<path d="M1572 0L860.041 1536.02" stroke="#958DA5" stroke-width="23" stroke-linecap="round"/>
<path d="M1623 0L911.041 1536.02" stroke="#958DA5" stroke-width="23" stroke-linecap="round"/>
<path d="M1675 0L963.041 1536.02" stroke="#958DA5" stroke-width="23" stroke-linecap="round"/>
<path d="M40.6666 312H32.6666V288H24.6666V280H40.6666V312ZM75.3333 304H59.3333V298.667H70C72.9333 298.667 75.3333 296.267 75.3333 293.333V285.333C75.3333 282.4 72.9333 280 70 280H51.3333V288H67.3333V293.333H56.6666C53.7333 293.333 51.3333 295.733 51.3333 298.667V312H75.3333V304ZM107.333 306.667V285.333C107.333 282.4 104.933 280 102 280H83.3333V288H99.3333V293.333H88.6666V298.667H99.3333V304H83.3333V312H102C104.933 312 107.333 309.6 107.333 306.667Z" fill="#898297"/>
<g clip-path="url(#clip1_2_2333)">
<path d="M370.133 502.56C352.693 494.347 340.213 477.387 338.293 457.333H330.293C333.013 490.187 360.48 516 394.027 516L397.547 515.84L377.227 495.52L370.133 502.56ZM374.88 467.787C373.867 467.787 372.907 467.627 372.107 467.36C371.253 467.04 370.56 466.667 369.973 466.08C369.387 465.547 368.907 464.907 368.587 464.107C368.267 463.36 368.107 462.507 368.107 461.6H361.173C361.173 463.52 361.547 465.227 362.293 466.667C363.04 468.107 364.053 469.333 365.28 470.347C366.56 471.307 368 472.053 369.653 472.533C371.253 473.067 372.96 473.333 374.773 473.333C376.747 473.333 378.613 473.067 380.267 472.533C381.973 472 383.467 471.2 384.693 470.187C385.92 469.173 386.933 467.893 387.627 466.347C388.32 464.8 388.693 463.093 388.693 461.173C388.693 460.16 388.587 459.147 388.32 458.187C388.053 457.227 387.68 456.32 387.093 455.467C386.56 454.613 385.813 453.867 384.96 453.173C384.053 452.48 382.987 451.947 381.707 451.52C382.773 451.04 383.68 450.453 384.48 449.76C385.28 449.067 385.92 448.32 386.453 447.52C386.987 446.72 387.36 445.92 387.627 445.067C387.893 444.213 388 443.36 388 442.507C388 440.587 387.68 438.88 387.04 437.387C386.4 435.893 385.493 434.667 384.32 433.707C383.253 432.693 381.813 431.947 380.213 431.413C378.56 430.933 376.747 430.667 374.773 430.667C372.853 430.667 371.093 430.933 369.44 431.52C367.84 432.107 366.4 432.907 365.227 433.92C364.107 434.933 363.2 436.107 362.507 437.493C361.867 438.88 361.547 440.373 361.547 442.027H368.48C368.48 441.12 368.64 440.32 368.96 439.627C369.28 438.933 369.707 438.293 370.293 437.813C370.88 437.333 371.52 436.907 372.32 436.64C373.12 436.373 373.92 436.213 374.88 436.213C377.013 436.213 378.613 436.747 379.627 437.867C380.64 438.933 381.173 440.48 381.173 442.453C381.173 443.413 381.013 444.267 380.747 445.067C380.48 445.867 380 446.507 379.413 447.04C378.827 447.573 378.08 448 377.227 448.32C376.373 448.64 375.307 448.8 374.133 448.8H370.027V454.293H374.133C375.307 454.293 376.373 454.4 377.333 454.667C378.293 454.933 379.093 455.36 379.733 455.893C380.373 456.48 380.907 457.173 381.28 458.027C381.653 458.88 381.813 459.893 381.813 461.067C381.813 463.253 381.173 464.907 379.947 466.027C378.72 467.253 377.013 467.787 374.88 467.787ZM420.48 436.213C418.773 434.453 416.747 433.067 414.4 432.107C412.053 431.147 409.44 430.667 406.56 430.667H393.973V473.333H406.24C409.173 473.333 411.893 472.853 414.293 471.893C416.693 470.933 418.773 469.6 420.48 467.84C422.187 466.08 423.52 463.947 424.427 461.493C425.333 458.987 425.813 456.213 425.813 453.12V450.987C425.813 447.893 425.333 445.12 424.427 442.613C423.52 440.107 422.187 437.973 420.48 436.213ZM418.4 453.067C418.4 455.307 418.133 457.28 417.653 459.093C417.12 460.853 416.373 462.4 415.36 463.627C414.347 464.853 413.067 465.813 411.573 466.453C410.027 467.093 408.267 467.413 406.293 467.413H401.44V436.64H406.613C410.453 436.64 413.387 437.867 415.36 440.32C417.387 442.773 418.4 446.293 418.4 450.933V453.067ZM394.027 388L390.507 388.16L410.827 408.48L417.92 401.387C435.36 409.653 447.84 426.56 449.707 446.613H457.707C455.04 413.813 427.573 388 394.027 388Z" fill="#898297"/>
</g>
<path d="M271 702.667C276.867 702.667 281.667 707.467 281.667 713.333C281.667 719.2 276.867 724 271 724C265.133 724 260.333 719.2 260.333 713.333C260.333 707.467 265.133 702.667 271 702.667ZM319 740H287V809.333H276.333V777.333H265.667V809.333H255V740H223V729.333H319V740Z" fill="#898297"/>
<path d="M795 270C800.891 270 805.667 265.224 805.667 259.333C805.667 253.442 800.891 248.667 795 248.667C789.109 248.667 784.333 253.442 784.333 259.333C784.333 265.224 789.109 270 795 270Z" fill="#898297"/>
<path d="M832.333 307.333V296.667C824.12 296.773 815.853 292.667 810.627 286.907L803.747 279.28C802.84 278.267 801.72 277.467 800.493 276.88C800.44 276.88 800.44 276.827 800.387 276.827H800.333C798.467 275.76 796.333 275.227 793.987 275.44C788.387 275.92 784.333 280.88 784.333 286.48V318C784.333 323.867 789.133 328.667 795 328.667H821.667V355.333H832.333V326C832.333 320.133 827.533 315.333 821.667 315.333H805.667V296.933C812.547 302.64 823 307.28 832.333 307.333ZM784.333 344.667C775.48 344.667 768.333 337.52 768.333 328.667C768.333 321.68 772.813 315.813 779 313.573V302.533C766.84 304.987 757.667 315.76 757.667 328.667C757.667 343.387 769.613 355.333 784.333 355.333C797.24 355.333 808.013 346.16 810.467 334H799.427C797.24 340.187 791.32 344.667 784.333 344.667Z" fill="#898297"/>
<path d="M408.333 1223.83V1211.67C408.333 1205.8 403.533 1201 397.667 1201H323C317.08 1201 312.333 1205.8 312.333 1211.67V1286.33C312.333 1292.2 317.08 1297 323 1297H397.667C403.533 1297 408.333 1292.2 408.333 1286.33V1274.17C411.48 1272.31 413.667 1268.95 413.667 1265V1233C413.667 1229.05 411.48 1225.69 408.333 1223.83ZM403 1233V1265H365.667V1233H403ZM323 1286.33V1211.67H397.667V1222.33H365.667C359.8 1222.33 355 1227.13 355 1233V1265C355 1270.87 359.8 1275.67 365.667 1275.67H397.667V1286.33H323Z" fill="#898297"/>
<path d="M381.667 1257C386.085 1257 389.667 1253.42 389.667 1249C389.667 1244.58 386.085 1241 381.667 1241C377.248 1241 373.667 1244.58 373.667 1249C373.667 1253.42 377.248 1257 381.667 1257Z" fill="#898297"/>
<path d="M1296.57 230.667H1307.24V214.667H1323.24V204H1307.24V188H1296.57V204H1280.57V214.667H1296.57V230.667ZM1275.24 278.667C1269.37 278.667 1264.63 283.467 1264.63 289.333C1264.63 295.2 1269.37 300 1275.24 300C1281.11 300 1285.91 295.2 1285.91 289.333C1285.91 283.467 1281.11 278.667 1275.24 278.667ZM1328.57 278.667C1322.71 278.667 1317.96 283.467 1317.96 289.333C1317.96 295.2 1322.71 300 1328.57 300C1334.44 300 1339.24 295.2 1339.24 289.333C1339.24 283.467 1334.44 278.667 1328.57 278.667ZM1281.11 252H1320.84C1324.84 252 1328.36 249.813 1330.17 246.507L1350.76 209.12L1341.48 204L1320.84 241.333H1283.4L1260.68 193.333H1243.24V204H1253.91L1273.11 244.48L1265.91 257.493C1262.01 264.64 1267.13 273.333 1275.24 273.333H1339.24V262.667H1275.24L1281.11 252Z" fill="#898297"/>
<path d="M802.667 1417.67C803.573 1417.67 804.427 1417.72 805.28 1417.77L781.333 1375H749.333L779.627 1427.48C785.44 1421.45 793.6 1417.67 802.667 1417.67Z" fill="#898297"/>
<path d="M744.8 1383.11L712 1441.67L728 1471L761.76 1412.49L744.8 1383.11Z" fill="#898297"/>
<path d="M771.733 1441.67H754.133L737.227 1471H778.88C773.76 1465.35 770.667 1457.88 770.667 1449.67C770.667 1446.89 771.04 1444.23 771.733 1441.67Z" fill="#898297"/>
<path d="M808 1444.33V1428.33H797.333V1444.33H781.333V1455H797.333V1471H808V1455H824V1444.33H808Z" fill="#898297"/>
<path d="M1672.67 351.333V362H1656.67V378H1646V362H1630V351.333H1646V335.333H1656.67V351.333H1672.67ZM1656.67 426H1582V351.333H1614V340.667H1582C1576.13 340.667 1571.33 345.467 1571.33 351.333V426C1571.33 431.867 1576.13 436.667 1582 436.667H1656.67C1662.53 436.667 1667.33 431.867 1667.33 426V394H1656.67V426ZM1635.33 394V415.333H1646V394H1635.33ZM1614 415.333H1624.67V372.667H1614V415.333ZM1603.33 415.333V383.333H1592.67V415.333H1603.33Z" fill="#898297"/>
<path d="M1413.33 918.307C1416.63 918.307 1419.31 915.632 1419.31 912.333C1419.31 909.034 1416.63 906.36 1413.33 906.36C1410.03 906.36 1407.36 909.034 1407.36 912.333C1407.36 915.632 1410.03 918.307 1413.33 918.307Z" fill="#898297"/>
<path fill-rule="evenodd" clip-rule="evenodd" d="M1413.33 923C1409.44 923 1401.65 924.92 1401.39 928.76C1404.05 932.547 1408.43 935 1413.33 935C1418.24 935 1422.61 932.547 1425.28 928.76C1425.01 924.92 1417.23 923 1413.33 923Z" fill="#898297"/>
<path fill-rule="evenodd" clip-rule="evenodd" d="M1418.67 888.813V863.107L1378.67 845.667L1338.67 863.107V889.293C1338.67 913.507 1355.73 936.173 1378.67 941.667C1381.6 940.973 1384.43 939.96 1387.2 938.733C1392.96 946.947 1402.51 952.333 1413.33 952.333C1430.99 952.333 1445.33 937.987 1445.33 920.333C1445.33 904.493 1433.81 891.373 1418.67 888.813ZM1381.33 920.333C1381.33 923.32 1381.76 926.253 1382.56 928.973C1381.28 929.56 1380 930.147 1378.67 930.573C1361.76 925.24 1349.33 907.96 1349.33 889.293V870.093L1378.67 857.293L1408 870.093V888.813C1392.85 891.373 1381.33 904.493 1381.33 920.333ZM1413.33 941.667C1401.55 941.667 1392 932.12 1392 920.333C1392 908.547 1401.55 899 1413.33 899C1425.12 899 1434.67 908.547 1434.67 920.333C1434.67 932.12 1425.12 941.667 1413.33 941.667Z" fill="#898297"/>
<path d="M1245.09 1243.61C1228.13 1242.81 1214.64 1228.84 1214.64 1211.67C1214.64 1194.01 1228.99 1179.67 1246.64 1179.67C1263.81 1179.67 1277.79 1193.16 1278.59 1210.12L1267.39 1206.76C1265.2 1197.32 1256.72 1190.33 1246.64 1190.33C1234.85 1190.33 1225.31 1199.88 1225.31 1211.67C1225.31 1221.75 1232.29 1230.23 1241.73 1232.41L1245.09 1243.61ZM1299.97 1211.67C1299.97 1213.27 1299.92 1214.87 1299.76 1216.47L1289.25 1213.32C1289.31 1212.79 1289.31 1212.2 1289.31 1211.67C1289.31 1188.09 1270.21 1169 1246.64 1169C1223.07 1169 1203.97 1188.09 1203.97 1211.67C1203.97 1235.24 1223.07 1254.33 1246.64 1254.33C1247.17 1254.33 1247.76 1254.33 1248.29 1254.28L1251.44 1264.79C1249.84 1264.95 1248.24 1265 1246.64 1265C1217.2 1265 1193.31 1241.11 1193.31 1211.67C1193.31 1182.23 1217.2 1158.33 1246.64 1158.33C1276.08 1158.33 1299.97 1182.23 1299.97 1211.67ZM1279.87 1234.39L1299.97 1227.67L1246.64 1211.67L1262.64 1265L1269.36 1244.89L1292.13 1267.67L1302.69 1257.11L1279.87 1234.39Z" fill="#898297"/>
<path d="M2037.66 1177.17H2029.66V1209.17L2055 1224.37L2059 1217.81L2037.66 1205.17V1177.17ZM2063.46 1144.16L2088.03 1164.67L2081.21 1172.85L2056.62 1152.36L2063.46 1144.16ZM2006.53 1144.16L2013.37 1152.35L1988.79 1172.85L1981.97 1164.66L2006.53 1144.16ZM2035 1155.84C2008.49 1155.84 1987 1177.33 1987 1203.84C1987 1230.35 2008.49 1251.84 2035 1251.84C2061.5 1251.84 2083 1230.35 2083 1203.84C2083 1177.33 2061.5 1155.84 2035 1155.84ZM2035 1241.17C2014.41 1241.17 1997.66 1224.43 1997.66 1203.84C1997.66 1183.25 2014.41 1166.51 2035 1166.51C2055.58 1166.51 2072.33 1183.25 2072.33 1203.84C2072.33 1224.43 2055.58 1241.17 2035 1241.17Z" fill="#898297"/>
<path d="M588.667 154V228.667H514V239.333H588.667C594.533 239.333 599.333 234.533 599.333 228.667V154H588.667Z" fill="#898297"/>
<path d="M567.333 132.667H503.333C497.467 132.667 492.667 137.467 492.667 143.333V207.333C492.667 213.2 497.467 218 503.333 218H567.333C573.2 218 578 213.2 578 207.333V143.333C578 137.467 573.2 132.667 567.333 132.667ZM530 207.333H503.333V180.667H530V207.333ZM567.333 207.333H540.667V180.667H567.333V207.333ZM567.333 170H503.333V143.333H567.333V170Z" fill="#898297"/>
<path d="M551.333 866.427C555.867 864.827 559.493 861.2 561.093 856.667H578L562 894C562 902.853 570.373 910 580.667 910C590.96 910 599.333 902.853 599.333 894L583.333 856.667H594V846H561.093C558.907 839.76 552.987 835.333 546 835.333C539.013 835.333 533.093 839.76 530.907 846H498V856.667H508.667L492.667 894C492.667 902.853 501.04 910 511.333 910C521.627 910 530 902.853 530 894L514 856.667H530.907C532.507 861.2 536.133 864.827 540.667 866.427V926H492.667V936.667H599.333V926H551.333V866.427ZM590.64 894H570.693L580.667 870.747L590.64 894ZM521.307 894H501.36L511.333 870.747L521.307 894ZM546 856.667C543.067 856.667 540.667 854.267 540.667 851.333C540.667 848.4 543.067 846 546 846C548.933 846 551.333 848.4 551.333 851.333C551.333 854.267 548.933 856.667 546 856.667Z" fill="#898297"/>
<path d="M702.667 545.667H649.333C643.467 545.667 638.667 550.467 638.667 556.333V609.667C638.667 615.533 643.467 620.333 649.333 620.333H702.667C708.533 620.333 713.333 615.533 713.333 609.667V556.333C713.333 550.467 708.533 545.667 702.667 545.667ZM681.333 612.333H670.667V604.333H681.333V612.333ZM681.333 599H670.667C670.667 591 657.333 583 657.333 572.333C657.333 562.04 665.707 553.667 676 553.667C686.293 553.667 694.667 562.04 694.667 572.333C694.667 583 681.333 591 681.333 599ZM708 537.667H644C644 533.24 647.573 529.667 652 529.667H700C704.427 529.667 708 533.24 708 537.667ZM702.667 521.667H649.333C649.333 517.24 652.907 513.667 657.333 513.667H694.667C699.093 513.667 702.667 517.24 702.667 521.667Z" fill="#898297"/>
<path d="M964 1012.67H900C894.133 1012.67 889.333 1017.47 889.333 1023.33V1108.67C889.333 1114.53 894.133 1119.33 900 1119.33H964C969.867 1119.33 974.667 1114.53 974.667 1108.67V1023.33C974.667 1017.47 969.867 1012.67 964 1012.67ZM916 1023.33H926.667V1050L921.333 1046L916 1050V1023.33ZM964 1108.67H900V1023.33H905.333V1071.33L921.333 1059.33L937.333 1071.33V1023.33H964V1108.67Z" fill="#898297"/>
<path d="M1226.67 453.333H1173.33V448H1226.67V453.333ZM1226.67 544H1173.33V538.667H1226.67V544ZM1226.67 437.333H1173.33C1167.47 437.333 1162.67 442.133 1162.67 448V544C1162.67 549.867 1167.47 554.667 1173.33 554.667H1226.67C1232.53 554.667 1237.33 549.867 1237.33 544V448C1237.33 442.133 1232.53 437.333 1226.67 437.333ZM1173.33 464H1226.67V528H1173.33V464ZM1221.33 490.667V480.747C1221.33 477.387 1218.93 474.667 1216 474.667H1184C1181.07 474.667 1178.67 477.387 1178.67 480.747V491.2C1181.6 491.2 1184 493.6 1184 496.533C1184 499.467 1181.6 501.867 1178.67 501.867V511.253C1178.67 514.613 1181.07 517.333 1184 517.333H1216C1218.93 517.333 1221.33 514.613 1221.33 511.253V501.333C1218.4 501.333 1216 498.933 1216 496C1216 493.067 1218.4 490.667 1221.33 490.667ZM1202.67 509.333H1197.33V504H1202.67V509.333ZM1202.67 498.667H1197.33V493.333H1202.67V498.667ZM1202.67 488H1197.33V482.667H1202.67V488Z" fill="#898297"/>
<path d="M1107.33 770.667V807.84L1080.67 796.427L1054 807.84V738.667H1086V728H1054C1048.13 728 1043.33 732.8 1043.33 738.667V824L1080.67 808L1118 824V770.667H1107.33ZM1128.67 749.333H1118V760H1107.33V749.333H1096.67V738.667H1107.33V728H1118V738.667H1128.67V749.333Z" fill="#898297"/>
</g>
<defs>
<clipPath id="clip0_2_2333">
<rect width="2169" height="1534" fill="white"/>
</clipPath>
<clipPath id="clip1_2_2333">
<rect width="128" height="128" fill="white" transform="translate(330 388)"/>
</clipPath>
</defs>
</svg>
