<svg width="2169" height="1534" viewBox="0 0 2169 1534" fill="none" xmlns="http://www.w3.org/2000/svg">
<g clip-path="url(#clip0_2_2333)">
<rect width="2169" height="1534" fill="#625B71"/>
<path d="M1111 1L399.041 1537.02" stroke="#4A4458" stroke-width="3.5" stroke-linecap="round"/>
<path d="M1117.96 1L406 1537.02" stroke="#4A4458" stroke-width="3.5" stroke-linecap="round"/>
<path d="M1124.92 1L412.959 1537.02" stroke="#4A4458" stroke-width="3.5" stroke-linecap="round"/>
<path d="M1131.88 1L419.918 1537.02" stroke="#4A4458" stroke-width="3.5" stroke-linecap="round"/>
<path d="M1138.84 1L426.877 1537.02" stroke="#4A4458" stroke-width="3.5" stroke-linecap="round"/>
<path d="M1145.79 1L433.835 1537.02" stroke="#4A4458" stroke-width="3.5" stroke-linecap="round"/>
<path d="M1152.75 1L440.794 1537.02" stroke="#4A4458" stroke-width="3.5" stroke-linecap="round"/>
<path d="M1159.71 1L447.753 1537.02" stroke="#4A4458" stroke-width="3.5" stroke-linecap="round"/>
<path d="M1166.67 1L454.712 1537.02" stroke="#4A4458" stroke-width="3.5" stroke-linecap="round"/>
<path d="M1173.63 1L461.671 1537.02" stroke="#4A4458" stroke-width="3.5" stroke-linecap="round"/>
<path d="M1180.59 1L468.63 1537.02" stroke="#4A4458" stroke-width="3.5" stroke-linecap="round"/>
<path d="M1187.55 1L475.589 1537.02" stroke="#4A4458" stroke-width="3.5" stroke-linecap="round"/>
<path d="M1194.51 1L482.548 1537.02" stroke="#4A4458" stroke-width="3.5" stroke-linecap="round"/>
<path d="M1201.47 1L489.507 1537.02" stroke="#4A4458" stroke-width="3.5" stroke-linecap="round"/>
<path d="M1208.42 1L496.466 1537.02" stroke="#4A4458" stroke-width="3.5" stroke-linecap="round"/>
<path d="M1215.38 1L503.425 1537.02" stroke="#4A4458" stroke-width="3.5" stroke-linecap="round"/>
<path d="M1222.34 1L510.384 1537.02" stroke="#4A4458" stroke-width="3.5" stroke-linecap="round"/>
<path d="M1229.3 1L517.343 1537.02" stroke="#4A4458" stroke-width="3.5" stroke-linecap="round"/>
<path d="M1236.26 1L524.302 1537.02" stroke="#4A4458" stroke-width="3.5" stroke-linecap="round"/>
<path d="M1243.22 1L531.261 1537.02" stroke="#4A4458" stroke-width="3.5" stroke-linecap="round"/>
<path d="M1098 0L386.041 1536.02" stroke="#4A4458" stroke-width="17" stroke-linecap="round"/>
<path d="M1237 -1L525.041 1535.02" stroke="#4A4458" stroke-width="42" stroke-linecap="round"/>
<path d="M1916 0L1204.04 1536.02" stroke="#7A7289" stroke-width="1.5" stroke-linecap="round"/>
<path d="M1920.96 0L1209 1536.02" stroke="#7A7289" stroke-width="1.5" stroke-linecap="round"/>
<path d="M1925.92 0L1213.96 1536.02" stroke="#7A7289" stroke-width="1.5" stroke-linecap="round"/>
<path d="M1930.88 0L1218.92 1536.02" stroke="#7A7289" stroke-width="1.5" stroke-linecap="round"/>
<path d="M1935.84 0L1223.88 1536.02" stroke="#7A7289" stroke-width="1.5" stroke-linecap="round"/>
<path d="M1940.79 0L1228.84 1536.02" stroke="#7A7289" stroke-width="1.5" stroke-linecap="round"/>
<path d="M1945.75 0L1233.79 1536.02" stroke="#7A7289" stroke-width="1.5" stroke-linecap="round"/>
<path d="M1950.71 0L1238.75 1536.02" stroke="#7A7289" stroke-width="1.5" stroke-linecap="round"/>
<path d="M1955.67 0L1243.71 1536.02" stroke="#7A7289" stroke-width="1.5" stroke-linecap="round"/>
<path d="M1960.63 0L1248.67 1536.02" stroke="#7A7289" stroke-width="1.5" stroke-linecap="round"/>
<path d="M1965.59 0L1253.63 1536.02" stroke="#7A7289" stroke-width="1.5" stroke-linecap="round"/>
<path d="M1970.55 0L1258.59 1536.02" stroke="#7A7289" stroke-width="1.5" stroke-linecap="round"/>
<path d="M1975.51 0L1263.55 1536.02" stroke="#7A7289" stroke-width="1.5" stroke-linecap="round"/>
<path d="M1980.47 0L1268.51 1536.02" stroke="#7A7289" stroke-width="1.5" stroke-linecap="round"/>
<path d="M1985.42 0L1273.47 1536.02" stroke="#7A7289" stroke-width="1.5" stroke-linecap="round"/>
<path d="M1990.38 0L1278.42 1536.02" stroke="#7A7289" stroke-width="1.5" stroke-linecap="round"/>
<path d="M1995.34 0L1283.38 1536.02" stroke="#7A7289" stroke-width="1.5" stroke-linecap="round"/>
<path d="M2000.3 0L1288.34 1536.02" stroke="#7A7289" stroke-width="1.5" stroke-linecap="round"/>
<path d="M2005.26 0L1293.3 1536.02" stroke="#7A7289" stroke-width="1.5" stroke-linecap="round"/>
<path d="M2010.22 0L1298.26 1536.02" stroke="#7A7289" stroke-width="1.5" stroke-linecap="round"/>
<path d="M2015.18 0L1303.22 1536.02" stroke="#7A7289" stroke-width="1.5" stroke-linecap="round"/>
<path d="M2020.14 0L1308.18 1536.02" stroke="#7A7289" stroke-width="1.5" stroke-linecap="round"/>
<path d="M2025.1 0L1313.14 1536.02" stroke="#7A7289" stroke-width="1.5" stroke-linecap="round"/>
<path d="M2030.06 0L1318.1 1536.02" stroke="#7A7289" stroke-width="1.5" stroke-linecap="round"/>
<path d="M2035.01 0L1323.06 1536.02" stroke="#7A7289" stroke-width="1.5" stroke-linecap="round"/>
<path d="M2039.97 0L1328.01 1536.02" stroke="#7A7289" stroke-width="1.5" stroke-linecap="round"/>
<path d="M2044.93 0L1332.97 1536.02" stroke="#7A7289" stroke-width="1.5" stroke-linecap="round"/>
<path d="M2049.89 0L1337.93 1536.02" stroke="#7A7289" stroke-width="1.5" stroke-linecap="round"/>
<path d="M2054.85 0L1342.89 1536.02" stroke="#7A7289" stroke-width="1.5" stroke-linecap="round"/>
<path d="M2059.81 0L1347.85 1536.02" stroke="#7A7289" stroke-width="1.5" stroke-linecap="round"/>
<path d="M2064.77 0L1352.81 1536.02" stroke="#7A7289" stroke-width="1.5" stroke-linecap="round"/>
<path d="M2069.73 0L1357.77 1536.02" stroke="#7A7289" stroke-width="1.5" stroke-linecap="round"/>
<path d="M2074.69 0L1362.73 1536.02" stroke="#7A7289" stroke-width="1.5" stroke-linecap="round"/>
<path d="M2079.64 0L1367.69 1536.02" stroke="#7A7289" stroke-width="1.5" stroke-linecap="round"/>
<path d="M2084.6 0L1372.64 1536.02" stroke="#7A7289" stroke-width="1.5" stroke-linecap="round"/>
<path d="M2089.56 0L1377.6 1536.02" stroke="#7A7289" stroke-width="1.5" stroke-linecap="round"/>
<path d="M2094.52 0L1382.56 1536.02" stroke="#7A7289" stroke-width="1.5" stroke-linecap="round"/>
<path d="M2099.48 0L1387.52 1536.02" stroke="#7A7289" stroke-width="1.5" stroke-linecap="round"/>
<path d="M2104.44 0L1392.48 1536.02" stroke="#7A7289" stroke-width="1.5" stroke-linecap="round"/>
<path d="M2109.4 0L1397.44 1536.02" stroke="#7A7289" stroke-width="1.5" stroke-linecap="round"/>
<path d="M2114.36 0L1402.4 1536.02" stroke="#7A7289" stroke-width="1.5" stroke-linecap="round"/>
<path d="M2119.32 0L1407.36 1536.02" stroke="#7A7289" stroke-width="1.5" stroke-linecap="round"/>
<path d="M2124.27 0L1412.32 1536.02" stroke="#7A7289" stroke-width="1.5" stroke-linecap="round"/>
<path d="M2129.23 0L1417.27 1536.02" stroke="#7A7289" stroke-width="1.5" stroke-linecap="round"/>
<path d="M2134 0L1422.04 1536.02" stroke="#958DA5" stroke-width="1.5" stroke-linecap="round"/>
<path d="M2138.96 0L1427 1536.02" stroke="#958DA5" stroke-width="1.5" stroke-linecap="round"/>
<path d="M2143.92 0L1431.96 1536.02" stroke="#958DA5" stroke-width="1.5" stroke-linecap="round"/>
<path d="M2148.88 0L1436.92 1536.02" stroke="#958DA5" stroke-width="1.5" stroke-linecap="round"/>
<path d="M2153.84 0L1441.88 1536.02" stroke="#958DA5" stroke-width="1.5" stroke-linecap="round"/>
<path d="M2158.79 0L1446.84 1536.02" stroke="#958DA5" stroke-width="1.5" stroke-linecap="round"/>
<path d="M2163.75 0L1451.79 1536.02" stroke="#958DA5" stroke-width="1.5" stroke-linecap="round"/>
<path d="M2168.71 0L1456.75 1536.02" stroke="#958DA5" stroke-width="1.5" stroke-linecap="round"/>
<path d="M2173.67 0L1461.71 1536.02" stroke="#958DA5" stroke-width="1.5" stroke-linecap="round"/>
<path d="M2178.63 0L1466.67 1536.02" stroke="#958DA5" stroke-width="1.5" stroke-linecap="round"/>
<path d="M2183.59 0L1471.63 1536.02" stroke="#958DA5" stroke-width="1.5" stroke-linecap="round"/>
<path d="M2188.55 0L1476.59 1536.02" stroke="#958DA5" stroke-width="1.5" stroke-linecap="round"/>
<path d="M2193.51 0L1481.55 1536.02" stroke="#958DA5" stroke-width="1.5" stroke-linecap="round"/>
<path d="M2198.47 0L1486.51 1536.02" stroke="#958DA5" stroke-width="1.5" stroke-linecap="round"/>
<path d="M2203.42 0L1491.47 1536.02" stroke="#958DA5" stroke-width="1.5" stroke-linecap="round"/>
<path d="M2208.38 0L1496.42 1536.02" stroke="#958DA5" stroke-width="1.5" stroke-linecap="round"/>
<path d="M2213.34 0L1501.38 1536.02" stroke="#958DA5" stroke-width="1.5" stroke-linecap="round"/>
<path d="M2218.3 0L1506.34 1536.02" stroke="#958DA5" stroke-width="1.5" stroke-linecap="round"/>
<path d="M2223.26 0L1511.3 1536.02" stroke="#958DA5" stroke-width="1.5" stroke-linecap="round"/>
<path d="M2228.22 0L1516.26 1536.02" stroke="#958DA5" stroke-width="1.5" stroke-linecap="round"/>
<path d="M2233.18 0L1521.22 1536.02" stroke="#958DA5" stroke-width="1.5" stroke-linecap="round"/>
<path d="M2238.14 0L1526.18 1536.02" stroke="#958DA5" stroke-width="1.5" stroke-linecap="round"/>
<path d="M2243.1 0L1531.14 1536.02" stroke="#958DA5" stroke-width="1.5" stroke-linecap="round"/>
<path d="M2248.06 0L1536.1 1536.02" stroke="#958DA5" stroke-width="1.5" stroke-linecap="round"/>
<path d="M2253.01 0L1541.06 1536.02" stroke="#958DA5" stroke-width="1.5" stroke-linecap="round"/>
<path d="M2257.97 0L1546.01 1536.02" stroke="#958DA5" stroke-width="1.5" stroke-linecap="round"/>
<path d="M2262.93 0L1550.97 1536.02" stroke="#958DA5" stroke-width="1.5" stroke-linecap="round"/>
<path d="M2267.89 0L1555.93 1536.02" stroke="#958DA5" stroke-width="1.5" stroke-linecap="round"/>
<path d="M2272.85 0L1560.89 1536.02" stroke="#958DA5" stroke-width="1.5" stroke-linecap="round"/>
<path d="M2277.81 0L1565.85 1536.02" stroke="#958DA5" stroke-width="1.5" stroke-linecap="round"/>
<path d="M2282.77 0L1570.81 1536.02" stroke="#958DA5" stroke-width="1.5" stroke-linecap="round"/>
<path d="M2287.73 0L1575.77 1536.02" stroke="#958DA5" stroke-width="1.5" stroke-linecap="round"/>
<path d="M2292 0L1580.04 1536.02" stroke="#B0A7C0" stroke-width="1.5" stroke-linecap="round"/>
<path d="M2296.96 0L1585 1536.02" stroke="#B0A7C0" stroke-width="1.5" stroke-linecap="round"/>
<path d="M2301.92 0L1589.96 1536.02" stroke="#B0A7C0" stroke-width="1.5" stroke-linecap="round"/>
<path d="M2306.88 0L1594.92 1536.02" stroke="#B0A7C0" stroke-width="1.5" stroke-linecap="round"/>
<path d="M2311.84 0L1599.88 1536.02" stroke="#B0A7C0" stroke-width="1.5" stroke-linecap="round"/>
<path d="M2316.79 0L1604.84 1536.02" stroke="#B0A7C0" stroke-width="1.5" stroke-linecap="round"/>
<path d="M2321.75 0L1609.79 1536.02" stroke="#B0A7C0" stroke-width="1.5" stroke-linecap="round"/>
<path d="M2326.71 0L1614.75 1536.02" stroke="#B0A7C0" stroke-width="1.5" stroke-linecap="round"/>
<path d="M2331.67 0L1619.71 1536.02" stroke="#B0A7C0" stroke-width="1.5" stroke-linecap="round"/>
<path d="M2336.63 0L1624.67 1536.02" stroke="#B0A7C0" stroke-width="1.5" stroke-linecap="round"/>
<path d="M2341.59 0L1629.63 1536.02" stroke="#B0A7C0" stroke-width="1.5" stroke-linecap="round"/>
<path d="M2346.55 0L1634.59 1536.02" stroke="#B0A7C0" stroke-width="1.5" stroke-linecap="round"/>
<path d="M2351.51 0L1639.55 1536.02" stroke="#B0A7C0" stroke-width="1.5" stroke-linecap="round"/>
<path d="M2356.47 0L1644.51 1536.02" stroke="#B0A7C0" stroke-width="1.5" stroke-linecap="round"/>
<path d="M2361.42 0L1649.47 1536.02" stroke="#B0A7C0" stroke-width="1.5" stroke-linecap="round"/>
<path d="M2366.38 0L1654.42 1536.02" stroke="#B0A7C0" stroke-width="1.5" stroke-linecap="round"/>
<path d="M2371.34 0L1659.38 1536.02" stroke="#B0A7C0" stroke-width="1.5" stroke-linecap="round"/>
<path d="M2376.3 0L1664.34 1536.02" stroke="#B0A7C0" stroke-width="1.5" stroke-linecap="round"/>
<path d="M2381.26 0L1669.3 1536.02" stroke="#B0A7C0" stroke-width="1.5" stroke-linecap="round"/>
<path d="M2386.22 0L1674.26 1536.02" stroke="#B0A7C0" stroke-width="1.5" stroke-linecap="round"/>
<path d="M2391.18 0L1679.22 1536.02" stroke="#B0A7C0" stroke-width="1.5" stroke-linecap="round"/>
<path d="M2396.14 0L1684.18 1536.02" stroke="#B0A7C0" stroke-width="1.5" stroke-linecap="round"/>
<path d="M289 0L-422.959 1536.02" stroke="#4A4458" stroke-width="1.5" stroke-linecap="round"/>
<path d="M293.959 0L-418 1536.02" stroke="#4A4458" stroke-width="1.5" stroke-linecap="round"/>
<path d="M298.918 0L-413.041 1536.02" stroke="#4A4458" stroke-width="1.5" stroke-linecap="round"/>
<path d="M303.877 0L-408.082 1536.02" stroke="#4A4458" stroke-width="1.5" stroke-linecap="round"/>
<path d="M308.836 0L-403.123 1536.02" stroke="#4A4458" stroke-width="1.5" stroke-linecap="round"/>
<path d="M313.795 0L-398.164 1536.02" stroke="#4A4458" stroke-width="1.5" stroke-linecap="round"/>
<path d="M318.753 0L-393.206 1536.02" stroke="#4A4458" stroke-width="1.5" stroke-linecap="round"/>
<path d="M323.712 0L-388.247 1536.02" stroke="#4A4458" stroke-width="1.5" stroke-linecap="round"/>
<path d="M328.671 0L-383.288 1536.02" stroke="#4A4458" stroke-width="1.5" stroke-linecap="round"/>
<path d="M333.63 0L-378.329 1536.02" stroke="#4A4458" stroke-width="1.5" stroke-linecap="round"/>
<path d="M338.589 0L-373.37 1536.02" stroke="#4A4458" stroke-width="1.5" stroke-linecap="round"/>
<path d="M343.548 0L-368.411 1536.02" stroke="#4A4458" stroke-width="1.5" stroke-linecap="round"/>
<path d="M348.507 0L-363.452 1536.02" stroke="#4A4458" stroke-width="1.5" stroke-linecap="round"/>
<path d="M353.466 0L-358.493 1536.02" stroke="#4A4458" stroke-width="1.5" stroke-linecap="round"/>
<path d="M358.425 0L-353.534 1536.02" stroke="#4A4458" stroke-width="1.5" stroke-linecap="round"/>
<path d="M363.384 0L-348.575 1536.02" stroke="#4A4458" stroke-width="1.5" stroke-linecap="round"/>
<path d="M368.343 0L-343.616 1536.02" stroke="#4A4458" stroke-width="1.5" stroke-linecap="round"/>
<path d="M373.302 0L-338.657 1536.02" stroke="#4A4458" stroke-width="1.5" stroke-linecap="round"/>
<path d="M378.26 0L-333.698 1536.02" stroke="#4A4458" stroke-width="1.5" stroke-linecap="round"/>
<path d="M383.219 0L-328.739 1536.02" stroke="#4A4458" stroke-width="1.5" stroke-linecap="round"/>
<path d="M388.178 0L-323.78 1536.02" stroke="#4A4458" stroke-width="1.5" stroke-linecap="round"/>
<path d="M393.137 0L-318.822 1536.02" stroke="#4A4458" stroke-width="1.5" stroke-linecap="round"/>
<path d="M398.096 0L-313.863 1536.02" stroke="#4A4458" stroke-width="1.5" stroke-linecap="round"/>
<path d="M403.055 0L-308.904 1536.02" stroke="#4A4458" stroke-width="1.5" stroke-linecap="round"/>
<path d="M408.014 0L-303.945 1536.02" stroke="#4A4458" stroke-width="1.5" stroke-linecap="round"/>
<path d="M412.973 0L-298.986 1536.02" stroke="#4A4458" stroke-width="1.5" stroke-linecap="round"/>
<path d="M417.932 0L-294.027 1536.02" stroke="#4A4458" stroke-width="1.5" stroke-linecap="round"/>
<path d="M422.891 0L-289.068 1536.02" stroke="#4A4458" stroke-width="1.5" stroke-linecap="round"/>
<path d="M427.85 0L-284.109 1536.02" stroke="#4A4458" stroke-width="1.5" stroke-linecap="round"/>
<path d="M432.809 0L-279.15 1536.02" stroke="#4A4458" stroke-width="1.5" stroke-linecap="round"/>
<path d="M437.768 0L-274.191 1536.02" stroke="#4A4458" stroke-width="1.5" stroke-linecap="round"/>
<path d="M442.727 0L-269.232 1536.02" stroke="#4A4458" stroke-width="1.5" stroke-linecap="round"/>
<path d="M447.686 0L-264.273 1536.02" stroke="#4A4458" stroke-width="1.5" stroke-linecap="round"/>
<path d="M452.644 0L-259.315 1536.02" stroke="#4A4458" stroke-width="1.5" stroke-linecap="round"/>
<path d="M457.603 0L-254.356 1536.02" stroke="#4A4458" stroke-width="1.5" stroke-linecap="round"/>
<path d="M462.562 0L-249.397 1536.02" stroke="#4A4458" stroke-width="1.5" stroke-linecap="round"/>
<path d="M467.521 0L-244.438 1536.02" stroke="#4A4458" stroke-width="1.5" stroke-linecap="round"/>
<path d="M472.48 0L-239.479 1536.02" stroke="#4A4458" stroke-width="1.5" stroke-linecap="round"/>
<path d="M779.959 0L68 1536.02" stroke="#4A4458" stroke-width="35" stroke-linecap="round"/>
<path d="M738.959 0L27 1536.02" stroke="#958DA5" stroke-width="3" stroke-linecap="round"/>
<path d="M745.918 0L33.959 1536.02" stroke="#958DA5" stroke-width="3" stroke-linecap="round"/>
<path d="M752.877 0L40.9178 1536.02" stroke="#958DA5" stroke-width="3" stroke-linecap="round"/>
<path d="M759.836 0L47.8768 1536.02" stroke="#958DA5" stroke-width="3" stroke-linecap="round"/>
<path d="M1572 0L860.041 1536.02" stroke="#958DA5" stroke-width="23" stroke-linecap="round"/>
<path d="M1623 0L911.041 1536.02" stroke="#958DA5" stroke-width="23" stroke-linecap="round"/>
<path d="M1675 0L963.041 1536.02" stroke="#958DA5" stroke-width="23" stroke-linecap="round"/>
</g>
<defs>
<clipPath id="clip0_2_2333">
<rect width="2169" height="1534" fill="white"/>
</clipPath>
</defs>
</svg>
