<svg width="2169" height="1059" viewBox="0 0 2169 1059" fill="none" xmlns="http://www.w3.org/2000/svg">
<g opacity="0.9" clip-path="url(#clip0_5_849)">
<rect width="2169" height="1059" fill="#986977"/>
<path d="M312.068 0L-185 1072.4" stroke="#31111D" stroke-width="3" stroke-linecap="round"/>
<path d="M321.135 0L-175.932 1072.4" stroke="#31111D" stroke-width="3" stroke-linecap="round"/>
<path d="M330.203 0L-166.865 1072.4" stroke="#31111D" stroke-width="3" stroke-linecap="round"/>
<path d="M339.271 0L-157.797 1072.4" stroke="#31111D" stroke-width="3" stroke-linecap="round"/>
<path d="M1139.85 4L938 439.494" stroke="#7D5260" stroke-width="3" stroke-linecap="round"/>
<path d="M1149.71 4L947.855 439.494" stroke="#7D5260" stroke-width="3" stroke-linecap="round"/>
<path d="M1159.56 4L957.71 439.494" stroke="#7D5260" stroke-width="3" stroke-linecap="round"/>
<path d="M1169.42 4L967.565 439.494" stroke="#7D5260" stroke-width="3" stroke-linecap="round"/>
<path d="M1179.27 4L977.42 439.494" stroke="#7D5260" stroke-width="3" stroke-linecap="round"/>
<path d="M1189.13 4L987.274 439.494" stroke="#7D5260" stroke-width="3" stroke-linecap="round"/>
<path d="M1198.98 4L997.129 439.494" stroke="#7D5260" stroke-width="3" stroke-linecap="round"/>
<path d="M1208.84 4L1006.98 439.494" stroke="#7D5260" stroke-width="3" stroke-linecap="round"/>
<path d="M1218.69 4L1016.84 439.494" stroke="#7D5260" stroke-width="3" stroke-linecap="round"/>
<path d="M1228.55 4L1026.69 439.494" stroke="#7D5260" stroke-width="3" stroke-linecap="round"/>
<path d="M1238.4 4L1036.55 439.494" stroke="#7D5260" stroke-width="3" stroke-linecap="round"/>
<path d="M1248.26 4L1046.4 439.494" stroke="#7D5260" stroke-width="3" stroke-linecap="round"/>
<path d="M1258.11 4L1056.26 439.494" stroke="#7D5260" stroke-width="3" stroke-linecap="round"/>
<path d="M1267.97 4L1066.11 439.494" stroke="#7D5260" stroke-width="3" stroke-linecap="round"/>
<path d="M1277.82 4L1075.97 439.494" stroke="#7D5260" stroke-width="3" stroke-linecap="round"/>
<path d="M1287.68 4L1085.82 439.494" stroke="#7D5260" stroke-width="3" stroke-linecap="round"/>
<path d="M839.855 650L638 1085.49" stroke="#7D5260" stroke-width="3" stroke-linecap="round"/>
<path d="M849.71 650L647.855 1085.49" stroke="#7D5260" stroke-width="3" stroke-linecap="round"/>
<path d="M859.565 650L657.71 1085.49" stroke="#7D5260" stroke-width="3" stroke-linecap="round"/>
<path d="M869.419 650L667.565 1085.49" stroke="#7D5260" stroke-width="3" stroke-linecap="round"/>
<path d="M879.274 650L677.42 1085.49" stroke="#7D5260" stroke-width="3" stroke-linecap="round"/>
<path d="M889.129 650L687.274 1085.49" stroke="#7D5260" stroke-width="3" stroke-linecap="round"/>
<path d="M898.984 650L697.129 1085.49" stroke="#7D5260" stroke-width="3" stroke-linecap="round"/>
<path d="M908.839 650L706.984 1085.49" stroke="#7D5260" stroke-width="3" stroke-linecap="round"/>
<path d="M918.694 650L716.839 1085.49" stroke="#7D5260" stroke-width="3" stroke-linecap="round"/>
<path d="M928.549 650L726.694 1085.49" stroke="#7D5260" stroke-width="3" stroke-linecap="round"/>
<path d="M938.404 650L736.549 1085.49" stroke="#7D5260" stroke-width="3" stroke-linecap="round"/>
<path d="M948.259 650L746.404 1085.49" stroke="#7D5260" stroke-width="3" stroke-linecap="round"/>
<path d="M958.113 650L756.258 1085.49" stroke="#7D5260" stroke-width="3" stroke-linecap="round"/>
<path d="M967.968 650L766.113 1085.49" stroke="#7D5260" stroke-width="3" stroke-linecap="round"/>
<path d="M977.823 650L775.968 1085.49" stroke="#7D5260" stroke-width="3" stroke-linecap="round"/>
<path d="M987.678 650L785.823 1085.49" stroke="#7D5260" stroke-width="3" stroke-linecap="round"/>
<path d="M1225.96 439L940 1055.95" stroke="#7D5260" stroke-width="3" stroke-linecap="round"/>
<path d="M1234.92 439L948.961 1055.95" stroke="#7D5260" stroke-width="3" stroke-linecap="round"/>
<path d="M1243.88 439L957.922 1055.95" stroke="#7D5260" stroke-width="3" stroke-linecap="round"/>
<path d="M1252.84 439L966.883 1055.95" stroke="#7D5260" stroke-width="3" stroke-linecap="round"/>
<path d="M1261.81 439L975.844 1055.95" stroke="#7D5260" stroke-width="3" stroke-linecap="round"/>
<path d="M1270.77 439L984.805 1055.95" stroke="#7D5260" stroke-width="3" stroke-linecap="round"/>
<path d="M1279.73 439L993.766 1055.95" stroke="#7D5260" stroke-width="3" stroke-linecap="round"/>
<path d="M1288.69 439L1002.73 1055.95" stroke="#7D5260" stroke-width="3" stroke-linecap="round"/>
<path d="M1297.65 439L1011.69 1055.95" stroke="#7D5260" stroke-width="3" stroke-linecap="round"/>
<path d="M1306.61 439L1020.65 1055.95" stroke="#7D5260" stroke-width="3" stroke-linecap="round"/>
<path d="M1315.57 439L1029.61 1055.95" stroke="#7D5260" stroke-width="3" stroke-linecap="round"/>
<path d="M1324.53 439L1038.57 1055.95" stroke="#7D5260" stroke-width="3" stroke-linecap="round"/>
<path d="M1333.49 439L1047.53 1055.95" stroke="#7D5260" stroke-width="3" stroke-linecap="round"/>
<path d="M1342.45 439L1056.49 1055.95" stroke="#7D5260" stroke-width="3" stroke-linecap="round"/>
<path d="M1351.42 439L1065.45 1055.95" stroke="#7D5260" stroke-width="3" stroke-linecap="round"/>
<path d="M1360.38 439L1074.42 1055.95" stroke="#7D5260" stroke-width="3" stroke-linecap="round"/>
<path d="M1815.96 -1L1530 615.949" stroke="#7D5260" stroke-width="3" stroke-linecap="round"/>
<path d="M1824.92 -1L1538.96 615.949" stroke="#7D5260" stroke-width="3" stroke-linecap="round"/>
<path d="M1833.88 -1L1547.92 615.949" stroke="#7D5260" stroke-width="3" stroke-linecap="round"/>
<path d="M1842.84 -1L1556.88 615.949" stroke="#7D5260" stroke-width="3" stroke-linecap="round"/>
<path d="M1851.81 -1L1565.84 615.949" stroke="#7D5260" stroke-width="3" stroke-linecap="round"/>
<path d="M1860.77 -1L1574.81 615.949" stroke="#7D5260" stroke-width="3" stroke-linecap="round"/>
<path d="M1869.73 -1L1583.77 615.949" stroke="#7D5260" stroke-width="3" stroke-linecap="round"/>
<path d="M1878.69 -1L1592.73 615.949" stroke="#7D5260" stroke-width="3" stroke-linecap="round"/>
<path d="M1887.65 -1L1601.69 615.949" stroke="#7D5260" stroke-width="3" stroke-linecap="round"/>
<path d="M1896.61 -1L1610.65 615.949" stroke="#7D5260" stroke-width="3" stroke-linecap="round"/>
<path d="M1905.57 -1L1619.61 615.949" stroke="#7D5260" stroke-width="3" stroke-linecap="round"/>
<path d="M1914.53 -1L1628.57 615.949" stroke="#7D5260" stroke-width="3" stroke-linecap="round"/>
<path d="M1923.49 -1L1637.53 615.949" stroke="#7D5260" stroke-width="3" stroke-linecap="round"/>
<path d="M1932.45 -1L1646.49 615.949" stroke="#7D5260" stroke-width="3" stroke-linecap="round"/>
<path d="M1941.42 -1L1655.45 615.949" stroke="#7D5260" stroke-width="3" stroke-linecap="round"/>
<path d="M1950.38 -1L1664.42 615.949" stroke="#7D5260" stroke-width="3" stroke-linecap="round"/>
<path d="M348.068 0L-149 1072.4" stroke="#492532" stroke-width="2.5" stroke-linecap="round"/>
<path d="M357.135 0L-139.932 1072.4" stroke="#492532" stroke-width="2.5" stroke-linecap="round"/>
<path d="M366.203 0L-130.865 1072.4" stroke="#492532" stroke-width="2.5" stroke-linecap="round"/>
<path d="M375.271 0L-121.797 1072.4" stroke="#492532" stroke-width="2.5" stroke-linecap="round"/>
<path d="M384.338 0L-112.729 1072.4" stroke="#492532" stroke-width="2.5" stroke-linecap="round"/>
<path d="M393.406 0L-103.662 1072.4" stroke="#492532" stroke-width="2.5" stroke-linecap="round"/>
<path d="M402.473 0L-94.5942 1072.4" stroke="#492532" stroke-width="2.5" stroke-linecap="round"/>
<path d="M411.541 0L-85.5266 1072.4" stroke="#492532" stroke-width="2.5" stroke-linecap="round"/>
<path d="M420.068 0L-77 1072.4" stroke="#7D5260" stroke-width="2.5" stroke-linecap="round"/>
<path d="M429.135 0L-67.9324 1072.4" stroke="#7D5260" stroke-width="2.5" stroke-linecap="round"/>
<path d="M438.203 0L-58.8647 1072.4" stroke="#7D5260" stroke-width="2.5" stroke-linecap="round"/>
<path d="M447.271 0L-49.7971 1072.4" stroke="#7D5260" stroke-width="2.5" stroke-linecap="round"/>
<path d="M456.338 0L-40.7295 1072.4" stroke="#7D5260" stroke-width="2.5" stroke-linecap="round"/>
<path d="M465.406 0L-31.6619 1072.4" stroke="#7D5260" stroke-width="2.5" stroke-linecap="round"/>
<path d="M474.473 0L-22.5942 1072.4" stroke="#7D5260" stroke-width="2.5" stroke-linecap="round"/>
<path d="M483.541 0L-13.5266 1072.4" stroke="#7D5260" stroke-width="2.5" stroke-linecap="round"/>
<path d="M492.609 0L-4.45898 1072.4" stroke="#7D5260" stroke-width="2.5" stroke-linecap="round"/>
<path d="M501.676 0L4.60864 1072.4" stroke="#7D5260" stroke-width="2.5" stroke-linecap="round"/>
<path d="M510.744 0L13.6763 1072.4" stroke="#7D5260" stroke-width="2.5" stroke-linecap="round"/>
<path d="M519.812 0L22.7439 1072.4" stroke="#7D5260" stroke-width="2.5" stroke-linecap="round"/>
<path d="M528.879 0L31.8115 1072.4" stroke="#7D5260" stroke-width="2.5" stroke-linecap="round"/>
<path d="M537.947 0L40.8792 1072.4" stroke="#7D5260" stroke-width="2.5" stroke-linecap="round"/>
<path d="M547.014 0L49.9468 1072.4" stroke="#7D5260" stroke-width="2.5" stroke-linecap="round"/>
<path d="M556.082 0L59.0144 1072.4" stroke="#7D5260" stroke-width="2.5" stroke-linecap="round"/>
<path d="M2343.07 0L1846 1072.4" stroke="#31111D" stroke-width="3" stroke-linecap="round"/>
<path d="M2352.14 0L1855.07 1072.4" stroke="#31111D" stroke-width="3" stroke-linecap="round"/>
<path d="M2361.2 0L1864.14 1072.4" stroke="#31111D" stroke-width="3" stroke-linecap="round"/>
<path d="M2370.27 0L1873.2 1072.4" stroke="#31111D" stroke-width="3" stroke-linecap="round"/>
<path d="M2379.07 0L1882 1072.4" stroke="#492532" stroke-width="2.5" stroke-linecap="round"/>
<path d="M2388.14 0L1891.07 1072.4" stroke="#492532" stroke-width="2.5" stroke-linecap="round"/>
<path d="M2397.2 0L1900.14 1072.4" stroke="#492532" stroke-width="2.5" stroke-linecap="round"/>
<path d="M2406.27 0L1909.2 1072.4" stroke="#492532" stroke-width="2.5" stroke-linecap="round"/>
<path d="M2415.34 0L1918.27 1072.4" stroke="#492532" stroke-width="2.5" stroke-linecap="round"/>
<path d="M2424.41 0L1927.34 1072.4" stroke="#492532" stroke-width="2.5" stroke-linecap="round"/>
<path d="M2433.47 0L1936.41 1072.4" stroke="#492532" stroke-width="2.5" stroke-linecap="round"/>
<path d="M2442.54 0L1945.47 1072.4" stroke="#492532" stroke-width="2.5" stroke-linecap="round"/>
<path d="M2451.07 0L1954 1072.4" stroke="#7D5260" stroke-width="2.5" stroke-linecap="round"/>
<path d="M2460.14 0L1963.07 1072.4" stroke="#7D5260" stroke-width="2.5" stroke-linecap="round"/>
<path d="M2469.2 0L1972.14 1072.4" stroke="#7D5260" stroke-width="2.5" stroke-linecap="round"/>
<path d="M2478.27 0L1981.2 1072.4" stroke="#7D5260" stroke-width="2.5" stroke-linecap="round"/>
<path d="M2487.34 0L1990.27 1072.4" stroke="#7D5260" stroke-width="2.5" stroke-linecap="round"/>
<path d="M2496.41 0L1999.34 1072.4" stroke="#7D5260" stroke-width="2.5" stroke-linecap="round"/>
<path d="M2505.47 0L2008.41 1072.4" stroke="#7D5260" stroke-width="2.5" stroke-linecap="round"/>
<path d="M2514.54 0L2017.47 1072.4" stroke="#7D5260" stroke-width="2.5" stroke-linecap="round"/>
<path d="M2523.61 0L2026.54 1072.4" stroke="#7D5260" stroke-width="2.5" stroke-linecap="round"/>
<path d="M2532.68 0L2035.61 1072.4" stroke="#7D5260" stroke-width="2.5" stroke-linecap="round"/>
<path d="M2541.74 0L2044.68 1072.4" stroke="#7D5260" stroke-width="2.5" stroke-linecap="round"/>
<path d="M2550.81 0L2053.74 1072.4" stroke="#7D5260" stroke-width="2.5" stroke-linecap="round"/>
<path d="M2559.88 0L2062.81 1072.4" stroke="#7D5260" stroke-width="2.5" stroke-linecap="round"/>
<path d="M2568.95 0L2071.88 1072.4" stroke="#7D5260" stroke-width="2.5" stroke-linecap="round"/>
<path d="M2578.01 0L2080.95 1072.4" stroke="#7D5260" stroke-width="2.5" stroke-linecap="round"/>
<path d="M2587.08 0L2090.01 1072.4" stroke="#7D5260" stroke-width="2.5" stroke-linecap="round"/>
<path d="M756.068 0L259 1072.4" stroke="#532D3B" stroke-width="8" stroke-linecap="round"/>
<path d="M773.068 0L276 1072.4" stroke="#7D5260" stroke-width="24" stroke-linecap="round"/>
<path d="M2078.07 0L1581 1072.4" stroke="#916371" stroke-width="12" stroke-linecap="round"/>
<path d="M2060.07 0L1563 1072.4" stroke="#7D5260" stroke-width="24" stroke-linecap="round"/>
<path d="M2143.07 0L1646 1072.4" stroke="#916371" stroke-width="30" stroke-linecap="round"/>
<path d="M2106.07 0L1609 1072.4" stroke="#7D5260" stroke-width="34" stroke-linecap="round"/>
<path d="M1663.07 0L1166 1072.4" stroke="#B58392" stroke-width="5" stroke-linecap="round"/>
<path d="M1672.14 0L1175.07 1072.4" stroke="#B58392" stroke-width="5" stroke-linecap="round"/>
<path d="M1705.07 0L1208 1072.4" stroke="#B58392" stroke-width="5" stroke-linecap="round"/>
<path d="M1714.14 0L1217.07 1072.4" stroke="#B58392" stroke-width="5" stroke-linecap="round"/>
<path d="M1688.07 0L1191 1072.4" stroke="#7D5260" stroke-width="17" stroke-linecap="round"/>
<path d="M1030.07 0L533 1072.4" stroke="#B58392" stroke-width="24" stroke-linecap="round"/>
<path d="M1359.07 0L862 1072.4" stroke="#7D5260" stroke-width="24" stroke-linecap="round"/>
<path d="M1330.07 0L833 1072.4" stroke="#B58392" stroke-width="24" stroke-linecap="round"/>
<path d="M46.736 312.053C50.0427 311.093 53.5627 310.507 57.1893 310.507C77.776 310.507 94.5227 327.253 94.5227 347.84C94.5227 351.467 93.936 354.987 92.976 358.293L101.296 366.613C103.803 360.853 105.189 354.507 105.189 347.84C105.189 321.333 83.696 299.84 57.1893 299.84C50.5227 299.84 44.176 301.227 38.3627 303.68L46.736 312.053ZM85.6533 288.16L110.224 308.667L103.397 316.853L78.8107 296.357L85.6533 288.16ZM9.296 289.707L1.776 297.227L9.08267 304.533L4.176 308.64L11.0027 316.853L16.656 312.16L20.9227 316.427C13.616 324.853 9.18933 335.84 9.18933 347.84C9.18933 374.347 30.6827 395.84 57.1893 395.84C69.1893 395.84 80.176 391.413 88.6027 384.107L99.8027 395.307L107.323 387.787L9.296 289.707ZM57.1893 385.173C36.6027 385.173 19.856 368.427 19.856 347.84C19.856 338.773 23.1093 330.453 28.496 324L81.0293 376.533C74.576 381.92 66.256 385.173 57.1893 385.173ZM33.0827 298.4L35.536 296.373L28.7093 288.16L25.5093 290.827L33.0827 298.4Z" fill="#B58392"/>
<path d="M166.211 95.9999L154.851 84.6399L149.197 90.2932L166.157 107.253L198.157 75.2532L192.504 69.5999L166.211 95.9999ZM202.461 28.1599L227.032 48.6666L220.205 56.8532L195.619 36.3572L202.461 28.1599ZM145.533 28.1599L152.371 36.3519L127.795 56.8532L120.968 48.6612L145.533 28.1599ZM173.997 39.8399C147.491 39.8399 125.997 61.3333 125.997 87.8399C125.997 114.347 147.491 135.84 173.997 135.84C200.504 135.84 221.997 114.347 221.997 87.8399C221.997 61.3333 200.504 39.8399 173.997 39.8399ZM173.997 125.173C153.411 125.173 136.664 108.427 136.664 87.8399C136.664 67.2533 153.411 50.5066 173.997 50.5066C194.584 50.5066 211.331 67.2533 211.331 87.8399C211.331 108.427 194.584 125.173 173.997 125.173Z" fill="#B58392"/>
<path d="M580.333 196H505.667C499.8 196 495 200.8 495 206.667V244C495 249.867 499.8 254.667 505.667 254.667H580.333C586.2 254.667 591 249.867 591 244V206.667C591 200.8 586.2 196 580.333 196ZM505.667 233.333H522.36C523.48 237.493 525.933 241.173 529.133 244H505.667V233.333ZM580.333 244H556.867C560.067 241.173 562.52 237.493 563.64 233.333H580.333V244ZM580.333 222.667H553.667V228C553.667 233.707 548.707 238.667 543 238.667C537.293 238.667 532.333 233.707 532.333 228V222.667H505.667V206.667H580.333V222.667ZM553.667 260V265.333C553.667 267.84 552.653 270.133 551.107 272C549.133 274.4 546.2 276 543 276C539.8 276 536.867 274.4 534.893 272C533.347 270.133 532.333 267.84 532.333 265.333V260H495V281.333C495 287.2 499.8 292 505.667 292H580.333C586.2 292 591 287.2 591 281.333V260H553.667ZM505.667 270.667H522.36C522.467 271.147 522.68 271.573 522.84 272C524.12 275.627 526.307 278.827 529.133 281.333H505.667V270.667ZM580.333 281.333H556.867C559.747 278.827 561.933 275.627 563.16 272C563.32 271.573 563.533 271.147 563.64 270.667H580.333V281.333Z" fill="#B58392"/>
<path d="M373.333 469.333V490.667L394.667 469.333H373.333ZM437.333 469.333L458.667 490.667V469.333H437.333ZM458.667 554.667V533.333L437.333 554.667H458.667ZM373.333 554.667H394.667L373.333 533.333V554.667ZM453.333 512C453.333 491.36 436.64 474.667 416 474.667C395.36 474.667 378.667 491.36 378.667 512C378.667 532.64 395.36 549.333 416 549.333C436.64 549.333 453.333 532.64 453.333 512ZM416 538.667C401.28 538.667 389.333 526.72 389.333 512C389.333 497.28 401.28 485.333 416 485.333C430.72 485.333 442.667 497.28 442.667 512C442.667 526.72 430.72 538.667 416 538.667Z" fill="#B58392"/>
<path d="M313.333 779H238.667C232.8 779 228 783.8 228 789.667V864.333C228 870.2 232.8 875 238.667 875H313.333C319.2 875 324 870.2 324 864.333V789.667C324 783.8 319.2 779 313.333 779ZM313.333 864.333H238.667V789.667H313.333V864.333Z" fill="#B58392"/>
<path d="M260 827H249.333V853.667H260V827Z" fill="#B58392"/>
<path d="M302.667 800.333H292V853.667H302.667V800.333Z" fill="#B58392"/>
<path d="M281.333 837.667H270.667V853.667H281.333V837.667Z" fill="#B58392"/>
<path d="M281.333 816.333H270.667V827H281.333V816.333Z" fill="#B58392"/>
<path d="M506.667 925L514.933 933.267C509.813 942.28 497.173 949.48 485.333 951.24V903.667H501.333V893H485.333V886.707C491.52 884.467 496 878.6 496 871.667C496 862.867 488.8 855.667 480 855.667C471.2 855.667 464 862.867 464 871.667C464 878.6 468.48 884.467 474.667 886.707V893H458.667V903.667H474.667V951.24C462.827 949.48 450.187 942.28 445.067 933.267L453.333 925L432 909V925C432 945.693 458.24 962.333 480 962.333C501.76 962.333 528 945.693 528 925V909L506.667 925ZM480 866.333C482.933 866.333 485.333 868.733 485.333 871.667C485.333 874.6 482.933 877 480 877C477.067 877 474.667 874.6 474.667 871.667C474.667 868.733 477.067 866.333 480 866.333Z" fill="#B58392"/>
<path d="M654.867 588.221L664.68 571.261C665.533 569.607 664.893 567.581 663.293 566.727C661.747 565.927 659.827 566.407 658.867 567.901L648.84 585.181C633.587 578.727 616.413 578.727 601.16 585.181L591.133 567.901C590.12 566.354 588.04 565.874 586.493 566.834C585 567.794 584.52 569.714 585.32 571.261L595.133 588.221C578.6 597.661 567.827 614.674 566.333 633.661H683.667C682.173 614.674 671.4 597.661 654.867 588.221ZM598.333 618.994C594.653 618.994 591.667 616.007 591.667 612.327C591.667 608.647 594.653 605.661 598.333 605.661C602.013 605.661 605 608.647 605 612.327C605 616.007 602.013 618.994 598.333 618.994ZM651.667 618.994C647.987 618.994 645 616.007 645 612.327C645 608.647 647.987 605.661 651.667 605.661C655.347 605.661 658.333 608.647 658.333 612.327C658.333 616.007 655.347 618.994 651.667 618.994Z" fill="#B58392"/>
<path d="M792.667 304.667H707.333C701.467 304.667 696.667 309.467 696.667 315.333V411.333L718 390H792.667C798.533 390 803.333 385.2 803.333 379.333V315.333C803.333 309.467 798.533 304.667 792.667 304.667ZM792.667 379.333H713.573L707.333 385.573V315.333H792.667V379.333ZM744.667 320.667H755.333V352.667H744.667V320.667ZM744.667 363.333H755.333V374H744.667V363.333Z" fill="#B58392"/>
<path d="M986 522.667C974.213 522.667 964.667 532.213 964.667 544C964.667 555.787 974.213 565.333 986 565.333C997.787 565.333 1007.33 555.787 1007.33 544C1007.33 532.213 997.787 522.667 986 522.667ZM972.667 544C972.667 536.64 978.64 530.667 986 530.667C988.24 530.667 990.267 531.253 992.133 532.213L974.213 550.133C973.253 548.267 972.667 546.24 972.667 544ZM986 557.333C983.76 557.333 981.733 556.747 979.867 555.787L997.787 537.867C998.747 539.733 999.333 541.76 999.333 544C999.333 551.36 993.36 557.333 986 557.333Z" fill="#B58392"/>
<path d="M980.667 576H927.333V512H980.667V517.333H991.333V496C991.333 490.133 986.533 485.333 980.667 485.333H927.333C921.467 485.333 916.667 490.133 916.667 496V592C916.667 597.867 921.467 602.667 927.333 602.667H980.667C986.533 602.667 991.333 597.867 991.333 592V570.667H980.667V576ZM927.333 496H980.667V501.333H927.333V496ZM980.667 592H927.333V586.667H980.667V592Z" fill="#B58392"/>
<path d="M1408.38 108.801L1412.12 118.792L1455.03 102.748L1425.04 168.567L1434.71 172.978L1464.71 107.158L1480.75 150.07L1490.75 146.334L1468.33 86.3874L1408.38 108.801Z" fill="#B58392"/>
<path d="M1389.33 292.667V367.333H1314.67V292.667H1389.33ZM1389.33 282H1314.67C1308.8 282 1304 286.8 1304 292.667V367.333C1304 373.2 1308.8 378 1314.67 378H1389.33C1395.2 378 1400 373.2 1400 367.333V292.667C1400 286.8 1395.2 282 1389.33 282Z" fill="#B58392"/>
<path d="M1362.67 356.667H1325.33V346H1362.67V356.667ZM1378.67 335.333H1325.33V324.667H1378.67V335.333ZM1378.67 314H1325.33V303.333H1378.67V314Z" fill="#B58392"/>
<path d="M1471.33 975H1460.67V991H1444.67V1001.67H1471.33V975ZM1407.33 959H1423.33V948.333H1396.67V975H1407.33V959ZM1482 927H1386C1380.13 927 1375.33 931.8 1375.33 937.667V1012.33C1375.33 1018.2 1380.13 1023 1386 1023H1482C1487.87 1023 1492.67 1018.2 1492.67 1012.33V937.667C1492.67 931.8 1487.87 927 1482 927ZM1482 1012.39H1386V937.613H1482V1012.39Z" fill="#B58392"/>
<path d="M1567.05 713.207H1502.5V723.791H1567.05V739.666L1588.5 718.499L1567.05 697.332V713.207Z" fill="#B58392"/>
<path d="M-1010.66 670.469L3560.14 2789.25" stroke="#FF0000" stroke-width="8" stroke-linecap="round"/>
<path d="M885.375 58.125H831.625C825.712 58.125 820.875 62.9625 820.875 68.875V154.875L858.5 138.75L896.125 154.875V68.875C896.125 62.9625 891.288 58.125 885.375 58.125Z" fill="#B58392"/>
<path d="M1875.33 828C1873.09 828 1870.91 828.213 1868.72 828.587L1792.72 796L1792.67 833.333L1846.32 840.48C1844.08 842.827 1842.16 845.44 1840.51 848.267L1792.67 854.667L1792.72 892L1835.76 873.547C1838.48 893.013 1855.12 908 1875.33 908C1897.41 908 1915.33 890.08 1915.33 868C1915.33 845.92 1897.41 828 1875.33 828ZM1803.33 824L1803.39 812.16L1843.44 829.333L1803.33 824ZM1835.87 861.92L1803.33 875.84V864L1836.24 859.627C1836.08 860.373 1835.97 861.12 1835.87 861.92ZM1875.33 897.333C1859.17 897.333 1846 884.16 1846 868C1846 851.84 1859.17 838.667 1875.33 838.667C1891.49 838.667 1904.67 851.84 1904.67 868C1904.67 884.16 1891.49 897.333 1875.33 897.333Z" fill="#B58392"/>
<path d="M1884.77 854.827L1875.33 864.213L1865.89 854.827L1862.16 858.56L1871.55 868L1862.16 877.44L1865.89 881.173L1875.33 871.787L1884.77 881.173L1888.51 877.44L1879.12 868L1888.51 858.56L1884.77 854.827Z" fill="#B58392"/>
<path d="M2014.67 572.667H2003.04C2003.63 571.013 2004 569.2 2004 567.333C2004 558.48 1996.85 551.333 1988 551.333C1982.4 551.333 1977.55 554.213 1974.67 558.533L1972 562.107L1969.33 558.48C1966.45 554.213 1961.6 551.333 1956 551.333C1947.15 551.333 1940 558.48 1940 567.333C1940 569.2 1940.37 571.013 1940.96 572.667H1929.33C1923.41 572.667 1918.72 577.413 1918.72 583.333L1918.67 642C1918.67 647.92 1923.41 652.667 1929.33 652.667H2014.67C2020.59 652.667 2025.33 647.92 2025.33 642V583.333C2025.33 577.413 2020.59 572.667 2014.67 572.667ZM1988 562C1990.93 562 1993.33 564.4 1993.33 567.333C1993.33 570.267 1990.93 572.667 1988 572.667C1985.07 572.667 1982.67 570.267 1982.67 567.333C1982.67 564.4 1985.07 562 1988 562ZM1956 562C1958.93 562 1961.33 564.4 1961.33 567.333C1961.33 570.267 1958.93 572.667 1956 572.667C1953.07 572.667 1950.67 570.267 1950.67 567.333C1950.67 564.4 1953.07 562 1956 562ZM2014.67 642H1929.33V631.333H2014.67V642ZM2014.67 615.333H1929.33V583.333H1956.43L1945.33 598.427L1953.97 604.667L1972 580.133L1990.03 604.667L1998.67 598.427L1987.57 583.333H2014.67V615.333Z" fill="#B58392"/>
<path d="M2102.67 358.667H2017.33C2011.41 358.667 2006.67 363.413 2006.67 369.333V428C2006.67 433.92 2011.41 438.667 2017.33 438.667H2038.67V465.333L2060 454.667L2081.33 465.333V438.667H2102.67C2108.59 438.667 2113.33 433.92 2113.33 428V369.333C2113.33 363.413 2108.59 358.667 2102.67 358.667ZM2102.67 428H2017.33V417.333H2102.67V428ZM2102.67 401.333H2017.33V369.333H2102.67V401.333Z" fill="#B58392"/>
</g>
<defs>
<clipPath id="clip0_5_849">
<rect width="2169" height="1059" fill="white"/>
</clipPath>
</defs>
</svg>
