<svg width="2169" height="1059" viewBox="0 0 2169 1059" fill="none" xmlns="http://www.w3.org/2000/svg">
<g clip-path="url(#clip0_5_849)">
<rect width="2169" height="1059" fill="#986977"/>
<path d="M312.068 0L-185 1072.4" stroke="#31111D" stroke-width="3" stroke-linecap="round"/>
<path d="M321.135 0L-175.932 1072.4" stroke="#31111D" stroke-width="3" stroke-linecap="round"/>
<path d="M330.203 0L-166.865 1072.4" stroke="#31111D" stroke-width="3" stroke-linecap="round"/>
<path d="M339.271 0L-157.797 1072.4" stroke="#31111D" stroke-width="3" stroke-linecap="round"/>
<path d="M939.855 4L738 439.494" stroke="#7D5260" stroke-width="3" stroke-linecap="round"/>
<path d="M949.71 4L747.855 439.494" stroke="#7D5260" stroke-width="3" stroke-linecap="round"/>
<path d="M959.565 4L757.71 439.494" stroke="#7D5260" stroke-width="3" stroke-linecap="round"/>
<path d="M969.419 4L767.565 439.494" stroke="#7D5260" stroke-width="3" stroke-linecap="round"/>
<path d="M979.274 4L777.42 439.494" stroke="#7D5260" stroke-width="3" stroke-linecap="round"/>
<path d="M989.129 4L787.274 439.494" stroke="#7D5260" stroke-width="3" stroke-linecap="round"/>
<path d="M998.984 4L797.129 439.494" stroke="#7D5260" stroke-width="3" stroke-linecap="round"/>
<path d="M1008.84 4L806.984 439.494" stroke="#7D5260" stroke-width="3" stroke-linecap="round"/>
<path d="M1018.69 4L816.839 439.494" stroke="#7D5260" stroke-width="3" stroke-linecap="round"/>
<path d="M1028.55 4L826.694 439.494" stroke="#7D5260" stroke-width="3" stroke-linecap="round"/>
<path d="M1038.4 4L836.549 439.494" stroke="#7D5260" stroke-width="3" stroke-linecap="round"/>
<path d="M1048.26 4L846.404 439.494" stroke="#7D5260" stroke-width="3" stroke-linecap="round"/>
<path d="M1058.11 4L856.258 439.494" stroke="#7D5260" stroke-width="3" stroke-linecap="round"/>
<path d="M1067.97 4L866.113 439.494" stroke="#7D5260" stroke-width="3" stroke-linecap="round"/>
<path d="M1077.82 4L875.968 439.494" stroke="#7D5260" stroke-width="3" stroke-linecap="round"/>
<path d="M1087.68 4L885.823 439.494" stroke="#7D5260" stroke-width="3" stroke-linecap="round"/>
<path d="M639.855 650L438 1085.49" stroke="#7D5260" stroke-width="3" stroke-linecap="round"/>
<path d="M649.71 650L447.855 1085.49" stroke="#7D5260" stroke-width="3" stroke-linecap="round"/>
<path d="M659.565 650L457.71 1085.49" stroke="#7D5260" stroke-width="3" stroke-linecap="round"/>
<path d="M669.419 650L467.565 1085.49" stroke="#7D5260" stroke-width="3" stroke-linecap="round"/>
<path d="M679.274 650L477.42 1085.49" stroke="#7D5260" stroke-width="3" stroke-linecap="round"/>
<path d="M689.129 650L487.274 1085.49" stroke="#7D5260" stroke-width="3" stroke-linecap="round"/>
<path d="M698.984 650L497.129 1085.49" stroke="#7D5260" stroke-width="3" stroke-linecap="round"/>
<path d="M708.839 650L506.984 1085.49" stroke="#7D5260" stroke-width="3" stroke-linecap="round"/>
<path d="M718.694 650L516.839 1085.49" stroke="#7D5260" stroke-width="3" stroke-linecap="round"/>
<path d="M728.549 650L526.694 1085.49" stroke="#7D5260" stroke-width="3" stroke-linecap="round"/>
<path d="M738.404 650L536.549 1085.49" stroke="#7D5260" stroke-width="3" stroke-linecap="round"/>
<path d="M748.259 650L546.404 1085.49" stroke="#7D5260" stroke-width="3" stroke-linecap="round"/>
<path d="M758.113 650L556.258 1085.49" stroke="#7D5260" stroke-width="3" stroke-linecap="round"/>
<path d="M767.968 650L566.113 1085.49" stroke="#7D5260" stroke-width="3" stroke-linecap="round"/>
<path d="M777.823 650L575.968 1085.49" stroke="#7D5260" stroke-width="3" stroke-linecap="round"/>
<path d="M787.678 650L585.823 1085.49" stroke="#7D5260" stroke-width="3" stroke-linecap="round"/>
<path d="M1225.96 439L940 1055.95" stroke="#7D5260" stroke-width="3" stroke-linecap="round"/>
<path d="M1234.92 439L948.961 1055.95" stroke="#7D5260" stroke-width="3" stroke-linecap="round"/>
<path d="M1243.88 439L957.922 1055.95" stroke="#7D5260" stroke-width="3" stroke-linecap="round"/>
<path d="M1252.84 439L966.883 1055.95" stroke="#7D5260" stroke-width="3" stroke-linecap="round"/>
<path d="M1261.81 439L975.844 1055.95" stroke="#7D5260" stroke-width="3" stroke-linecap="round"/>
<path d="M1270.77 439L984.805 1055.95" stroke="#7D5260" stroke-width="3" stroke-linecap="round"/>
<path d="M1279.73 439L993.766 1055.95" stroke="#7D5260" stroke-width="3" stroke-linecap="round"/>
<path d="M1288.69 439L1002.73 1055.95" stroke="#7D5260" stroke-width="3" stroke-linecap="round"/>
<path d="M1297.65 439L1011.69 1055.95" stroke="#7D5260" stroke-width="3" stroke-linecap="round"/>
<path d="M1306.61 439L1020.65 1055.95" stroke="#7D5260" stroke-width="3" stroke-linecap="round"/>
<path d="M1315.57 439L1029.61 1055.95" stroke="#7D5260" stroke-width="3" stroke-linecap="round"/>
<path d="M1324.53 439L1038.57 1055.95" stroke="#7D5260" stroke-width="3" stroke-linecap="round"/>
<path d="M1333.49 439L1047.53 1055.95" stroke="#7D5260" stroke-width="3" stroke-linecap="round"/>
<path d="M1342.45 439L1056.49 1055.95" stroke="#7D5260" stroke-width="3" stroke-linecap="round"/>
<path d="M1351.42 439L1065.45 1055.95" stroke="#7D5260" stroke-width="3" stroke-linecap="round"/>
<path d="M1360.38 439L1074.42 1055.95" stroke="#7D5260" stroke-width="3" stroke-linecap="round"/>
<path d="M1815.96 -1L1530 615.949" stroke="#7D5260" stroke-width="3" stroke-linecap="round"/>
<path d="M1824.92 -1L1538.96 615.949" stroke="#7D5260" stroke-width="3" stroke-linecap="round"/>
<path d="M1833.88 -1L1547.92 615.949" stroke="#7D5260" stroke-width="3" stroke-linecap="round"/>
<path d="M1842.84 -1L1556.88 615.949" stroke="#7D5260" stroke-width="3" stroke-linecap="round"/>
<path d="M1851.81 -1L1565.84 615.949" stroke="#7D5260" stroke-width="3" stroke-linecap="round"/>
<path d="M1860.77 -1L1574.81 615.949" stroke="#7D5260" stroke-width="3" stroke-linecap="round"/>
<path d="M1869.73 -1L1583.77 615.949" stroke="#7D5260" stroke-width="3" stroke-linecap="round"/>
<path d="M1878.69 -1L1592.73 615.949" stroke="#7D5260" stroke-width="3" stroke-linecap="round"/>
<path d="M1887.65 -1L1601.69 615.949" stroke="#7D5260" stroke-width="3" stroke-linecap="round"/>
<path d="M1896.61 -1L1610.65 615.949" stroke="#7D5260" stroke-width="3" stroke-linecap="round"/>
<path d="M1905.57 -1L1619.61 615.949" stroke="#7D5260" stroke-width="3" stroke-linecap="round"/>
<path d="M1914.53 -1L1628.57 615.949" stroke="#7D5260" stroke-width="3" stroke-linecap="round"/>
<path d="M1923.49 -1L1637.53 615.949" stroke="#7D5260" stroke-width="3" stroke-linecap="round"/>
<path d="M1932.45 -1L1646.49 615.949" stroke="#7D5260" stroke-width="3" stroke-linecap="round"/>
<path d="M1941.42 -1L1655.45 615.949" stroke="#7D5260" stroke-width="3" stroke-linecap="round"/>
<path d="M1950.38 -1L1664.42 615.949" stroke="#7D5260" stroke-width="3" stroke-linecap="round"/>
<path d="M348.068 0L-149 1072.4" stroke="#492532" stroke-width="2.5" stroke-linecap="round"/>
<path d="M357.135 0L-139.932 1072.4" stroke="#492532" stroke-width="2.5" stroke-linecap="round"/>
<path d="M366.203 0L-130.865 1072.4" stroke="#492532" stroke-width="2.5" stroke-linecap="round"/>
<path d="M375.271 0L-121.797 1072.4" stroke="#492532" stroke-width="2.5" stroke-linecap="round"/>
<path d="M384.338 0L-112.729 1072.4" stroke="#492532" stroke-width="2.5" stroke-linecap="round"/>
<path d="M393.406 0L-103.662 1072.4" stroke="#492532" stroke-width="2.5" stroke-linecap="round"/>
<path d="M402.473 0L-94.5942 1072.4" stroke="#492532" stroke-width="2.5" stroke-linecap="round"/>
<path d="M411.541 0L-85.5266 1072.4" stroke="#492532" stroke-width="2.5" stroke-linecap="round"/>
<path d="M420.068 0L-77 1072.4" stroke="#7D5260" stroke-width="2.5" stroke-linecap="round"/>
<path d="M429.135 0L-67.9324 1072.4" stroke="#7D5260" stroke-width="2.5" stroke-linecap="round"/>
<path d="M438.203 0L-58.8647 1072.4" stroke="#7D5260" stroke-width="2.5" stroke-linecap="round"/>
<path d="M447.271 0L-49.7971 1072.4" stroke="#7D5260" stroke-width="2.5" stroke-linecap="round"/>
<path d="M456.338 0L-40.7295 1072.4" stroke="#7D5260" stroke-width="2.5" stroke-linecap="round"/>
<path d="M465.406 0L-31.6619 1072.4" stroke="#7D5260" stroke-width="2.5" stroke-linecap="round"/>
<path d="M474.473 0L-22.5942 1072.4" stroke="#7D5260" stroke-width="2.5" stroke-linecap="round"/>
<path d="M483.541 0L-13.5266 1072.4" stroke="#7D5260" stroke-width="2.5" stroke-linecap="round"/>
<path d="M492.609 0L-4.45898 1072.4" stroke="#7D5260" stroke-width="2.5" stroke-linecap="round"/>
<path d="M501.676 0L4.60864 1072.4" stroke="#7D5260" stroke-width="2.5" stroke-linecap="round"/>
<path d="M510.744 0L13.6763 1072.4" stroke="#7D5260" stroke-width="2.5" stroke-linecap="round"/>
<path d="M519.812 0L22.7439 1072.4" stroke="#7D5260" stroke-width="2.5" stroke-linecap="round"/>
<path d="M528.879 0L31.8115 1072.4" stroke="#7D5260" stroke-width="2.5" stroke-linecap="round"/>
<path d="M537.947 0L40.8792 1072.4" stroke="#7D5260" stroke-width="2.5" stroke-linecap="round"/>
<path d="M547.014 0L49.9468 1072.4" stroke="#7D5260" stroke-width="2.5" stroke-linecap="round"/>
<path d="M556.082 0L59.0144 1072.4" stroke="#7D5260" stroke-width="2.5" stroke-linecap="round"/>
<path d="M2253.07 0L1756 1072.4" stroke="#31111D" stroke-width="3" stroke-linecap="round"/>
<path d="M2262.14 0L1765.07 1072.4" stroke="#31111D" stroke-width="3" stroke-linecap="round"/>
<path d="M2271.2 0L1774.14 1072.4" stroke="#31111D" stroke-width="3" stroke-linecap="round"/>
<path d="M2280.27 0L1783.2 1072.4" stroke="#31111D" stroke-width="3" stroke-linecap="round"/>
<path d="M2289.07 0L1792 1072.4" stroke="#492532" stroke-width="2.5" stroke-linecap="round"/>
<path d="M2298.14 0L1801.07 1072.4" stroke="#492532" stroke-width="2.5" stroke-linecap="round"/>
<path d="M2307.2 0L1810.14 1072.4" stroke="#492532" stroke-width="2.5" stroke-linecap="round"/>
<path d="M2316.27 0L1819.2 1072.4" stroke="#492532" stroke-width="2.5" stroke-linecap="round"/>
<path d="M2325.34 0L1828.27 1072.4" stroke="#492532" stroke-width="2.5" stroke-linecap="round"/>
<path d="M2334.41 0L1837.34 1072.4" stroke="#492532" stroke-width="2.5" stroke-linecap="round"/>
<path d="M2343.47 0L1846.41 1072.4" stroke="#492532" stroke-width="2.5" stroke-linecap="round"/>
<path d="M2352.54 0L1855.47 1072.4" stroke="#492532" stroke-width="2.5" stroke-linecap="round"/>
<path d="M2361.07 0L1864 1072.4" stroke="#7D5260" stroke-width="2.5" stroke-linecap="round"/>
<path d="M2370.14 0L1873.07 1072.4" stroke="#7D5260" stroke-width="2.5" stroke-linecap="round"/>
<path d="M2379.2 0L1882.14 1072.4" stroke="#7D5260" stroke-width="2.5" stroke-linecap="round"/>
<path d="M2388.27 0L1891.2 1072.4" stroke="#7D5260" stroke-width="2.5" stroke-linecap="round"/>
<path d="M2397.34 0L1900.27 1072.4" stroke="#7D5260" stroke-width="2.5" stroke-linecap="round"/>
<path d="M2406.41 0L1909.34 1072.4" stroke="#7D5260" stroke-width="2.5" stroke-linecap="round"/>
<path d="M2415.47 0L1918.41 1072.4" stroke="#7D5260" stroke-width="2.5" stroke-linecap="round"/>
<path d="M2424.54 0L1927.47 1072.4" stroke="#7D5260" stroke-width="2.5" stroke-linecap="round"/>
<path d="M2433.61 0L1936.54 1072.4" stroke="#7D5260" stroke-width="2.5" stroke-linecap="round"/>
<path d="M2442.68 0L1945.61 1072.4" stroke="#7D5260" stroke-width="2.5" stroke-linecap="round"/>
<path d="M2451.74 0L1954.68 1072.4" stroke="#7D5260" stroke-width="2.5" stroke-linecap="round"/>
<path d="M2460.81 0L1963.74 1072.4" stroke="#7D5260" stroke-width="2.5" stroke-linecap="round"/>
<path d="M2469.88 0L1972.81 1072.4" stroke="#7D5260" stroke-width="2.5" stroke-linecap="round"/>
<path d="M2478.95 0L1981.88 1072.4" stroke="#7D5260" stroke-width="2.5" stroke-linecap="round"/>
<path d="M2488.01 0L1990.95 1072.4" stroke="#7D5260" stroke-width="2.5" stroke-linecap="round"/>
<path d="M2497.08 0L2000.01 1072.4" stroke="#7D5260" stroke-width="2.5" stroke-linecap="round"/>
<path d="M643.068 0L146 1072.4" stroke="#532D3B" stroke-width="8" stroke-linecap="round"/>
<path d="M660.068 0L163 1072.4" stroke="#7D5260" stroke-width="24" stroke-linecap="round"/>
<path d="M2078.07 0L1581 1072.4" stroke="#916371" stroke-width="12" stroke-linecap="round"/>
<path d="M2060.07 0L1563 1072.4" stroke="#7D5260" stroke-width="24" stroke-linecap="round"/>
<path d="M2143.07 0L1646 1072.4" stroke="#916371" stroke-width="30" stroke-linecap="round"/>
<path d="M2106.07 0L1609 1072.4" stroke="#7D5260" stroke-width="34" stroke-linecap="round"/>
<path d="M1663.07 0L1166 1072.4" stroke="#B58392" stroke-width="5" stroke-linecap="round"/>
<path d="M1672.14 0L1175.07 1072.4" stroke="#B58392" stroke-width="5" stroke-linecap="round"/>
<path d="M1705.07 0L1208 1072.4" stroke="#B58392" stroke-width="5" stroke-linecap="round"/>
<path d="M1714.14 0L1217.07 1072.4" stroke="#B58392" stroke-width="5" stroke-linecap="round"/>
<path d="M1688.07 0L1191 1072.4" stroke="#7D5260" stroke-width="17" stroke-linecap="round"/>
<path d="M820.068 0L323 1072.4" stroke="#B58392" stroke-width="24" stroke-linecap="round"/>
<path d="M1259.07 0L762 1072.4" stroke="#7D5260" stroke-width="24" stroke-linecap="round"/>
<path d="M1230.07 0L733 1072.4" stroke="#B58392" stroke-width="24" stroke-linecap="round"/>
</g>
<defs>
<clipPath id="clip0_5_849">
<rect width="2169" height="1059" fill="white"/>
</clipPath>
</defs>
</svg>
