<svg width="2169" height="2589" viewBox="0 0 2169 2589" fill="none" xmlns="http://www.w3.org/2000/svg">
<g opacity="0.9" clip-path="url(#clip0_6_1320)">
<rect width="2169" height="2589" fill="#6D55AA"/>
<path d="M526.897 0L-686 2616.55" stroke="#7F67BE" stroke-width="18" stroke-linecap="round"/>
<path d="M559.795 0L-653.102 2616.55" stroke="#7F67BE" stroke-width="18" stroke-linecap="round"/>
<path d="M592.692 0L-620.205 2616.55" stroke="#7F67BE" stroke-width="18" stroke-linecap="round"/>
<path d="M911.897 4L-301 2620.55" stroke="#B69DF8" stroke-width="7" stroke-linecap="round"/>
<path d="M932.795 4L-280.102 2620.55" stroke="#B69DF8" stroke-width="7" stroke-linecap="round"/>
<path d="M953.692 4L-259.205 2620.55" stroke="#B69DF8" stroke-width="7" stroke-linecap="round"/>
<path d="M974.59 4L-238.308 2620.55" stroke="#B69DF8" stroke-width="7" stroke-linecap="round"/>
<path d="M1261.9 2L49.0001 2618.55" stroke="#B69DF8" stroke-width="16" stroke-linecap="round"/>
<path d="M1286.79 2L73.8975 2618.55" stroke="#B69DF8" stroke-width="16" stroke-linecap="round"/>
<path d="M1311.69 2L98.795 2618.55" stroke="#B69DF8" stroke-width="16" stroke-linecap="round"/>
<path d="M1336.59 2L123.692 2618.55" stroke="#B69DF8" stroke-width="16" stroke-linecap="round"/>
<path d="M1361.49 2L148.59 2618.55" stroke="#B69DF8" stroke-width="16" stroke-linecap="round"/>
<path d="M1481.9 2L269 2618.55" stroke="#B69DF8" stroke-width="5" stroke-linecap="round"/>
<path d="M1495.79 2L282.898 2618.55" stroke="#B69DF8" stroke-width="5" stroke-linecap="round"/>
<path d="M1509.69 2L296.795 2618.55" stroke="#B69DF8" stroke-width="5" stroke-linecap="round"/>
<path d="M1523.59 2L310.692 2618.55" stroke="#B69DF8" stroke-width="5" stroke-linecap="round"/>
<path d="M1537.49 2L324.59 2618.55" stroke="#B69DF8" stroke-width="5" stroke-linecap="round"/>
<path d="M1551.38 2L338.487 2618.55" stroke="#B69DF8" stroke-width="5" stroke-linecap="round"/>
<path d="M1565.28 2L352.385 2618.55" stroke="#B69DF8" stroke-width="5" stroke-linecap="round"/>
<path d="M1579.18 2L366.282 2618.55" stroke="#B69DF8" stroke-width="5" stroke-linecap="round"/>
<path d="M1593.08 2L380.18 2618.55" stroke="#B69DF8" stroke-width="5" stroke-linecap="round"/>
<path d="M749.897 12L-463 2628.55" stroke="#4F378B" stroke-width="72" stroke-linecap="round"/>
<path d="M1102.9 0L-110 2616.55" stroke="#4A3480" stroke-width="112" stroke-linecap="round"/>
<path d="M2649.9 2L1437 2618.55" stroke="#B69DF8" stroke-width="4" stroke-linecap="round"/>
<path d="M2665.79 2L1452.9 2618.55" stroke="#B69DF8" stroke-width="4" stroke-linecap="round"/>
<path d="M2681.69 2L1468.79 2618.55" stroke="#B69DF8" stroke-width="4" stroke-linecap="round"/>
<path d="M2697.59 2L1484.69 2618.55" stroke="#B69DF8" stroke-width="4" stroke-linecap="round"/>
<path d="M2713.49 2L1500.59 2618.55" stroke="#B69DF8" stroke-width="4" stroke-linecap="round"/>
<path d="M2729.38 2L1516.49 2618.55" stroke="#B69DF8" stroke-width="4" stroke-linecap="round"/>
<path d="M2745.28 2L1532.38 2618.55" stroke="#B69DF8" stroke-width="4" stroke-linecap="round"/>
<path d="M2761.18 2L1548.28 2618.55" stroke="#B69DF8" stroke-width="4" stroke-linecap="round"/>
<path d="M2777.08 2L1564.18 2618.55" stroke="#B69DF8" stroke-width="4" stroke-linecap="round"/>
<path d="M2792.97 2L1580.08 2618.55" stroke="#B69DF8" stroke-width="4" stroke-linecap="round"/>
<path d="M2808.87 2L1595.97 2618.55" stroke="#B69DF8" stroke-width="4" stroke-linecap="round"/>
<path d="M2825.9 2L1613 2618.55" stroke="#EADDFF" stroke-width="4" stroke-linecap="round"/>
<path d="M2841.79 2L1628.9 2618.55" stroke="#EADDFF" stroke-width="4" stroke-linecap="round"/>
<path d="M2857.69 2L1644.79 2618.55" stroke="#EADDFF" stroke-width="4" stroke-linecap="round"/>
<path d="M2873.59 2L1660.69 2618.55" stroke="#EADDFF" stroke-width="4" stroke-linecap="round"/>
<path d="M2889.49 2L1676.59 2618.55" stroke="#EADDFF" stroke-width="4" stroke-linecap="round"/>
<path d="M2409.9 2L1197 2618.55" stroke="#9A82DB" stroke-width="4" stroke-linecap="round"/>
<path d="M2425.79 2L1212.9 2618.55" stroke="#9A82DB" stroke-width="4" stroke-linecap="round"/>
<path d="M2441.69 2L1228.79 2618.55" stroke="#9A82DB" stroke-width="4" stroke-linecap="round"/>
<path d="M2457.59 2L1244.69 2618.55" stroke="#9A82DB" stroke-width="4" stroke-linecap="round"/>
<path d="M2473.49 2L1260.59 2618.55" stroke="#9A82DB" stroke-width="4" stroke-linecap="round"/>
<path d="M2489.38 2L1276.49 2618.55" stroke="#9A82DB" stroke-width="4" stroke-linecap="round"/>
<path d="M2505.28 2L1292.38 2618.55" stroke="#9A82DB" stroke-width="4" stroke-linecap="round"/>
<path d="M2521.18 2L1308.28 2618.55" stroke="#9A82DB" stroke-width="4" stroke-linecap="round"/>
<path d="M2537.08 2L1324.18 2618.55" stroke="#9A82DB" stroke-width="4" stroke-linecap="round"/>
<path d="M2552.97 2L1340.08 2618.55" stroke="#9A82DB" stroke-width="4" stroke-linecap="round"/>
<path d="M2568.87 2L1355.97 2618.55" stroke="#9A82DB" stroke-width="4" stroke-linecap="round"/>
<path d="M2584.77 2L1371.87 2618.55" stroke="#9A82DB" stroke-width="4" stroke-linecap="round"/>
<path d="M2600.67 2L1387.77 2618.55" stroke="#9A82DB" stroke-width="4" stroke-linecap="round"/>
<path d="M2616.56 2L1403.67 2618.55" stroke="#9A82DB" stroke-width="4" stroke-linecap="round"/>
<path d="M2632.46 2L1419.56 2618.55" stroke="#9A82DB" stroke-width="4" stroke-linecap="round"/>
<path d="M2149.9 2L937 2618.55" stroke="#B69DF8" stroke-width="4" stroke-linecap="round"/>
<path d="M2165.79 2L952.898 2618.55" stroke="#B69DF8" stroke-width="4" stroke-linecap="round"/>
<path d="M2181.69 2L968.795 2618.55" stroke="#B69DF8" stroke-width="4" stroke-linecap="round"/>
<path d="M2197.59 2L984.692 2618.55" stroke="#B69DF8" stroke-width="4" stroke-linecap="round"/>
<path d="M2213.49 2L1000.59 2618.55" stroke="#B69DF8" stroke-width="4" stroke-linecap="round"/>
<path d="M2229.38 2L1016.49 2618.55" stroke="#B69DF8" stroke-width="4" stroke-linecap="round"/>
<path d="M2245.28 2L1032.38 2618.55" stroke="#B69DF8" stroke-width="4" stroke-linecap="round"/>
<path d="M2261.18 2L1048.28 2618.55" stroke="#B69DF8" stroke-width="4" stroke-linecap="round"/>
<path d="M2277.08 2L1064.18 2618.55" stroke="#B69DF8" stroke-width="4" stroke-linecap="round"/>
<path d="M2292.97 2L1080.08 2618.55" stroke="#B69DF8" stroke-width="4" stroke-linecap="round"/>
<path d="M2308.87 2L1095.97 2618.55" stroke="#B69DF8" stroke-width="4" stroke-linecap="round"/>
<path d="M2325.9 2L1113 2618.55" stroke="#EADDFF" stroke-width="4" stroke-linecap="round"/>
<path d="M2341.79 2L1128.9 2618.55" stroke="#EADDFF" stroke-width="4" stroke-linecap="round"/>
<path d="M2357.69 2L1144.79 2618.55" stroke="#EADDFF" stroke-width="4" stroke-linecap="round"/>
<path d="M2373.59 2L1160.69 2618.55" stroke="#EADDFF" stroke-width="4" stroke-linecap="round"/>
<path d="M2389.49 2L1176.59 2618.55" stroke="#EADDFF" stroke-width="4" stroke-linecap="round"/>
<path d="M1909.9 2L697 2618.55" stroke="#9A82DB" stroke-width="4" stroke-linecap="round"/>
<path d="M1925.79 2L712.898 2618.55" stroke="#9A82DB" stroke-width="4" stroke-linecap="round"/>
<path d="M1941.69 2L728.795 2618.55" stroke="#9A82DB" stroke-width="4" stroke-linecap="round"/>
<path d="M1957.59 2L744.692 2618.55" stroke="#9A82DB" stroke-width="4" stroke-linecap="round"/>
<path d="M1973.49 2L760.59 2618.55" stroke="#9A82DB" stroke-width="4" stroke-linecap="round"/>
<path d="M1989.38 2L776.487 2618.55" stroke="#9A82DB" stroke-width="4" stroke-linecap="round"/>
<path d="M2005.28 2L792.385 2618.55" stroke="#9A82DB" stroke-width="4" stroke-linecap="round"/>
<path d="M2021.18 2L808.282 2618.55" stroke="#9A82DB" stroke-width="4" stroke-linecap="round"/>
<path d="M2037.08 2L824.18 2618.55" stroke="#9A82DB" stroke-width="4" stroke-linecap="round"/>
<path d="M2052.97 2L840.077 2618.55" stroke="#9A82DB" stroke-width="4" stroke-linecap="round"/>
<path d="M2068.87 2L855.975 2618.55" stroke="#9A82DB" stroke-width="4" stroke-linecap="round"/>
<path d="M2084.77 2L871.872 2618.55" stroke="#9A82DB" stroke-width="4" stroke-linecap="round"/>
<path d="M2100.67 2L887.77 2618.55" stroke="#9A82DB" stroke-width="4" stroke-linecap="round"/>
<path d="M2116.56 2L903.667 2618.55" stroke="#9A82DB" stroke-width="4" stroke-linecap="round"/>
<path d="M2132.46 2L919.565 2618.55" stroke="#9A82DB" stroke-width="4" stroke-linecap="round"/>
</g>
<defs>
<clipPath id="clip0_6_1320">
<rect width="2169" height="2589" fill="white"/>
</clipPath>
</defs>
</svg>
