<svg width="2169" height="2589" viewBox="0 0 2169 2589" fill="none" xmlns="http://www.w3.org/2000/svg">
<g opacity="0.9" clip-path="url(#clip0_6_1320)">
<rect width="2169" height="2589" fill="#6D55AA"/>
<path d="M636.897 0L-576 2616.55" stroke="#7F67BE" stroke-width="18" stroke-linecap="round"/>
<path d="M669.795 0L-543.102 2616.55" stroke="#7F67BE" stroke-width="18" stroke-linecap="round"/>
<path d="M702.692 0L-510.205 2616.55" stroke="#7F67BE" stroke-width="18" stroke-linecap="round"/>
<path d="M1021.9 4L-191 2620.55" stroke="#B69DF8" stroke-width="7" stroke-linecap="round"/>
<path d="M1042.79 4L-170.102 2620.55" stroke="#B69DF8" stroke-width="7" stroke-linecap="round"/>
<path d="M1063.69 4L-149.205 2620.55" stroke="#B69DF8" stroke-width="7" stroke-linecap="round"/>
<path d="M1084.59 4L-128.308 2620.55" stroke="#B69DF8" stroke-width="7" stroke-linecap="round"/>
<path d="M1371.9 2L159 2618.55" stroke="#6750A4" stroke-width="16" stroke-linecap="round"/>
<path d="M1396.79 2L183.898 2618.55" stroke="#6750A4" stroke-width="16" stroke-linecap="round"/>
<path d="M1421.69 2L208.795 2618.55" stroke="#6750A4" stroke-width="16" stroke-linecap="round"/>
<path d="M1446.59 2L233.692 2618.55" stroke="#6750A4" stroke-width="16" stroke-linecap="round"/>
<path d="M1471.49 2L258.59 2618.55" stroke="#6750A4" stroke-width="16" stroke-linecap="round"/>
<path d="M1591.9 2L379 2618.55" stroke="#B69DF8" stroke-width="5" stroke-linecap="round"/>
<path d="M1605.79 2L392.898 2618.55" stroke="#B69DF8" stroke-width="5" stroke-linecap="round"/>
<path d="M1619.69 2L406.795 2618.55" stroke="#B69DF8" stroke-width="5" stroke-linecap="round"/>
<path d="M1633.59 2L420.692 2618.55" stroke="#B69DF8" stroke-width="5" stroke-linecap="round"/>
<path d="M1647.49 2L434.59 2618.55" stroke="#B69DF8" stroke-width="5" stroke-linecap="round"/>
<path d="M1661.38 2L448.487 2618.55" stroke="#B69DF8" stroke-width="5" stroke-linecap="round"/>
<path d="M1675.28 2L462.385 2618.55" stroke="#B69DF8" stroke-width="5" stroke-linecap="round"/>
<path d="M1689.18 2L476.282 2618.55" stroke="#B69DF8" stroke-width="5" stroke-linecap="round"/>
<path d="M1703.08 2L490.18 2618.55" stroke="#B69DF8" stroke-width="5" stroke-linecap="round"/>
<path d="M859.897 12L-353 2628.55" stroke="#4F378B" stroke-width="72" stroke-linecap="round"/>
<path d="M1212.9 0L5.65609e-05 2616.55" stroke="#4A3480" stroke-width="112" stroke-linecap="round"/>
</g>
<defs>
<clipPath id="clip0_6_1320">
<rect width="2169" height="2589" fill="white"/>
</clipPath>
</defs>
</svg>
