<svg width="2169" height="2589" viewBox="0 0 2169 2589" fill="none" xmlns="http://www.w3.org/2000/svg">
<g opacity="0.9" clip-path="url(#clip0_6_1320)">
<rect width="2169" height="2589" fill="#6D55AA"/>
<path d="M526.897 0L-686 2616.55" stroke="#7F67BE" stroke-width="18" stroke-linecap="round"/>
<path d="M559.795 0L-653.102 2616.55" stroke="#7F67BE" stroke-width="18" stroke-linecap="round"/>
<path d="M592.692 0L-620.205 2616.55" stroke="#7F67BE" stroke-width="18" stroke-linecap="round"/>
<path d="M961.897 4L-251 2620.55" stroke="#B69DF8" stroke-width="7" stroke-linecap="round"/>
<path d="M982.795 4L-230.102 2620.55" stroke="#B69DF8" stroke-width="7" stroke-linecap="round"/>
<path d="M1003.69 4L-209.205 2620.55" stroke="#B69DF8" stroke-width="7" stroke-linecap="round"/>
<path d="M1024.59 4L-188.308 2620.55" stroke="#B69DF8" stroke-width="7" stroke-linecap="round"/>
<path d="M1401.9 2L189 2618.55" stroke="#B69DF8" stroke-width="16" stroke-linecap="round"/>
<path d="M1426.79 2L213.898 2618.55" stroke="#B69DF8" stroke-width="16" stroke-linecap="round"/>
<path d="M1451.69 2L238.795 2618.55" stroke="#B69DF8" stroke-width="16" stroke-linecap="round"/>
<path d="M1476.59 2L263.692 2618.55" stroke="#B69DF8" stroke-width="16" stroke-linecap="round"/>
<path d="M1501.49 2L288.59 2618.55" stroke="#B69DF8" stroke-width="16" stroke-linecap="round"/>
<path d="M1851.9 2L639 2618.55" stroke="#B69DF8" stroke-width="5" stroke-linecap="round"/>
<path d="M1865.79 2L652.898 2618.55" stroke="#B69DF8" stroke-width="5" stroke-linecap="round"/>
<path d="M1879.69 2L666.795 2618.55" stroke="#B69DF8" stroke-width="5" stroke-linecap="round"/>
<path d="M1893.59 2L680.692 2618.55" stroke="#B69DF8" stroke-width="5" stroke-linecap="round"/>
<path d="M1907.49 2L694.59 2618.55" stroke="#B69DF8" stroke-width="5" stroke-linecap="round"/>
<path d="M1921.38 2L708.487 2618.55" stroke="#B69DF8" stroke-width="5" stroke-linecap="round"/>
<path d="M1935.28 2L722.385 2618.55" stroke="#B69DF8" stroke-width="5" stroke-linecap="round"/>
<path d="M1949.18 2L736.282 2618.55" stroke="#B69DF8" stroke-width="5" stroke-linecap="round"/>
<path d="M1963.08 2L750.18 2618.55" stroke="#B69DF8" stroke-width="5" stroke-linecap="round"/>
<path d="M929.897 -88L-283 2528.55" stroke="#4F378B" stroke-width="72" stroke-linecap="round"/>
<path d="M1102.9 0L-110 2616.55" stroke="#4A3480" stroke-width="112" stroke-linecap="round"/>
<path d="M2989.9 2L1777 2618.55" stroke="#B69DF8" stroke-width="4" stroke-linecap="round"/>
<path d="M3005.79 2L1792.9 2618.55" stroke="#B69DF8" stroke-width="4" stroke-linecap="round"/>
<path d="M3021.69 2L1808.79 2618.55" stroke="#B69DF8" stroke-width="4" stroke-linecap="round"/>
<path d="M3037.59 2L1824.69 2618.55" stroke="#B69DF8" stroke-width="4" stroke-linecap="round"/>
<path d="M3053.49 2L1840.59 2618.55" stroke="#B69DF8" stroke-width="4" stroke-linecap="round"/>
<path d="M3069.38 2L1856.49 2618.55" stroke="#B69DF8" stroke-width="4" stroke-linecap="round"/>
<path d="M3085.28 2L1872.38 2618.55" stroke="#B69DF8" stroke-width="4" stroke-linecap="round"/>
<path d="M3101.18 2L1888.28 2618.55" stroke="#B69DF8" stroke-width="4" stroke-linecap="round"/>
<path d="M3117.08 2L1904.18 2618.55" stroke="#B69DF8" stroke-width="4" stroke-linecap="round"/>
<path d="M3132.97 2L1920.08 2618.55" stroke="#B69DF8" stroke-width="4" stroke-linecap="round"/>
<path d="M3148.87 2L1935.97 2618.55" stroke="#B69DF8" stroke-width="4" stroke-linecap="round"/>
<path d="M3155.9 12L1943 2628.55" stroke="#EADDFF" stroke-width="4" stroke-linecap="round"/>
<path d="M3171.79 12L1958.9 2628.55" stroke="#EADDFF" stroke-width="4" stroke-linecap="round"/>
<path d="M3187.69 12L1974.79 2628.55" stroke="#EADDFF" stroke-width="4" stroke-linecap="round"/>
<path d="M3203.59 12L1990.69 2628.55" stroke="#EADDFF" stroke-width="4" stroke-linecap="round"/>
<path d="M3219.49 12L2006.59 2628.55" stroke="#EADDFF" stroke-width="4" stroke-linecap="round"/>
<path d="M2759.9 12L1547 2628.55" stroke="#9A82DB" stroke-width="4" stroke-linecap="round"/>
<path d="M2775.79 12L1562.9 2628.55" stroke="#9A82DB" stroke-width="4" stroke-linecap="round"/>
<path d="M2791.69 12L1578.79 2628.55" stroke="#9A82DB" stroke-width="4" stroke-linecap="round"/>
<path d="M2807.59 12L1594.69 2628.55" stroke="#9A82DB" stroke-width="4" stroke-linecap="round"/>
<path d="M2823.49 12L1610.59 2628.55" stroke="#9A82DB" stroke-width="4" stroke-linecap="round"/>
<path d="M2839.38 12L1626.49 2628.55" stroke="#9A82DB" stroke-width="4" stroke-linecap="round"/>
<path d="M2855.28 12L1642.38 2628.55" stroke="#9A82DB" stroke-width="4" stroke-linecap="round"/>
<path d="M2871.18 12L1658.28 2628.55" stroke="#9A82DB" stroke-width="4" stroke-linecap="round"/>
<path d="M2887.08 12L1674.18 2628.55" stroke="#9A82DB" stroke-width="4" stroke-linecap="round"/>
<path d="M2902.97 12L1690.08 2628.55" stroke="#9A82DB" stroke-width="4" stroke-linecap="round"/>
<path d="M2918.87 12L1705.97 2628.55" stroke="#9A82DB" stroke-width="4" stroke-linecap="round"/>
<path d="M2934.77 12L1721.87 2628.55" stroke="#9A82DB" stroke-width="4" stroke-linecap="round"/>
<path d="M2950.67 12L1737.77 2628.55" stroke="#9A82DB" stroke-width="4" stroke-linecap="round"/>
<path d="M2966.56 12L1753.67 2628.55" stroke="#9A82DB" stroke-width="4" stroke-linecap="round"/>
<path d="M2982.46 12L1769.56 2628.55" stroke="#9A82DB" stroke-width="4" stroke-linecap="round"/>
<path d="M2685.9 2L1473 2618.55" stroke="#EADDFF" stroke-width="4" stroke-linecap="round"/>
<path d="M2701.79 2L1488.9 2618.55" stroke="#EADDFF" stroke-width="4" stroke-linecap="round"/>
<path d="M2717.69 2L1504.79 2618.55" stroke="#EADDFF" stroke-width="4" stroke-linecap="round"/>
<path d="M2733.59 2L1520.69 2618.55" stroke="#EADDFF" stroke-width="4" stroke-linecap="round"/>
<path d="M2749.49 2L1536.59 2618.55" stroke="#EADDFF" stroke-width="4" stroke-linecap="round"/>
<path d="M2239.9 2L1027 2618.55" stroke="#9A82DB" stroke-width="4" stroke-linecap="round"/>
<path d="M2255.79 2L1042.9 2618.55" stroke="#9A82DB" stroke-width="4" stroke-linecap="round"/>
<path d="M2271.69 2L1058.79 2618.55" stroke="#9A82DB" stroke-width="4" stroke-linecap="round"/>
<path d="M2287.59 2L1074.69 2618.55" stroke="#9A82DB" stroke-width="4" stroke-linecap="round"/>
<path d="M2303.49 2L1090.59 2618.55" stroke="#9A82DB" stroke-width="4" stroke-linecap="round"/>
<path d="M2319.38 2L1106.49 2618.55" stroke="#9A82DB" stroke-width="4" stroke-linecap="round"/>
<path d="M2335.28 2L1122.38 2618.55" stroke="#9A82DB" stroke-width="4" stroke-linecap="round"/>
<path d="M2351.18 2L1138.28 2618.55" stroke="#9A82DB" stroke-width="4" stroke-linecap="round"/>
<path d="M2367.08 2L1154.18 2618.55" stroke="#9A82DB" stroke-width="4" stroke-linecap="round"/>
<path d="M2382.97 2L1170.08 2618.55" stroke="#9A82DB" stroke-width="4" stroke-linecap="round"/>
<path d="M2398.87 2L1185.97 2618.55" stroke="#9A82DB" stroke-width="4" stroke-linecap="round"/>
<path d="M2414.77 2L1201.87 2618.55" stroke="#9A82DB" stroke-width="4" stroke-linecap="round"/>
<path d="M2430.67 2L1217.77 2618.55" stroke="#9A82DB" stroke-width="4" stroke-linecap="round"/>
<path d="M2446.56 2L1233.67 2618.55" stroke="#9A82DB" stroke-width="4" stroke-linecap="round"/>
<path d="M2462.46 2L1249.56 2618.55" stroke="#9A82DB" stroke-width="4" stroke-linecap="round"/>
<path d="M450.613 1791.65V1828.83L423.947 1817.41L397.28 1828.83V1759.65H429.28V1748.99H397.28C391.413 1748.99 386.613 1753.79 386.613 1759.65V1844.99L423.947 1828.99L461.28 1844.99V1791.65H450.613ZM455.04 1780.99L439.947 1765.89L447.467 1758.37L454.987 1765.89L473.867 1747.01L481.387 1754.53L455.04 1780.99Z" fill="#B69DF8"/>
<path d="M608.667 1428H555.333C549.467 1428 544.667 1432.8 544.667 1438.67V1524L582 1508L619.333 1524V1438.67C619.333 1432.8 614.533 1428 608.667 1428ZM608.667 1508L582 1496.37L555.333 1508V1438.67H608.667V1508Z" fill="#B69DF8"/>
<path d="M1101.33 1300.67V1337.84L1074.67 1326.43L1048 1337.84V1268.67H1080V1258H1048C1042.13 1258 1037.33 1262.8 1037.33 1268.67V1354L1074.67 1338L1112 1354V1300.67H1101.33ZM1122.67 1279.33H1090.67V1268.67H1122.67V1279.33Z" fill="#B69DF8"/>
<path d="M294 127.333V196.507L267.333 185.04L240.667 196.507V127.333H294ZM315.333 95.3333H261.947C256.08 95.3333 251.333 100.133 251.333 106H304.667C310.533 106 315.333 110.8 315.333 116.667V186L326 191.333V106C326 100.133 321.2 95.3333 315.333 95.3333ZM294 116.667H240.667C234.8 116.667 230 121.467 230 127.333V212.667L267.333 196.667L304.667 212.667V127.333C304.667 121.467 299.867 116.667 294 116.667Z" fill="#B69DF8"/>
<path d="M300 896C273.493 896 252 917.493 252 944C252 970.507 273.493 992 300 992C326.507 992 348 970.507 348 944C348 917.493 326.507 896 300 896ZM300 981.333C279.413 981.333 262.667 964.587 262.667 944C262.667 923.413 279.413 906.667 300 906.667C320.587 906.667 337.333 923.413 337.333 944C337.333 964.587 320.587 981.333 300 981.333Z" fill="#B69DF8"/>
<path d="M305.333 917.333H294.667V946.187L314.88 966.453L322.453 958.88L305.333 941.813V917.333Z" fill="#B69DF8"/>
<path d="M347.947 898.773V910.293C360.587 916.267 369.333 929.12 369.333 944C369.333 958.88 360.587 971.733 347.947 977.707V989.227C366.56 982.613 380 964.853 380 944C380 923.147 366.56 905.387 347.947 898.773Z" fill="#B69DF8"/>
<path d="M496.667 582.667H481.68C479.28 578.507 475.973 574.933 471.973 572.213L480.667 563.52L473.147 556L461.573 567.573C459.12 566.987 456.613 566.667 454 566.667C451.387 566.667 448.88 566.987 446.48 567.573L434.853 556L427.333 563.52L435.973 572.213C432.027 574.933 428.72 578.507 426.32 582.667H411.333V593.333H422.48C422.213 595.093 422 596.853 422 598.667V604H411.333V614.667H422V620C422 621.813 422.213 623.573 422.48 625.333H411.333V636H426.32C431.867 645.547 442.16 652 454 652C465.84 652 476.133 645.547 481.68 636H496.667V625.333H485.52C485.787 623.573 486 621.813 486 620V614.667H496.667V604H486V598.667C486 596.853 485.787 595.093 485.52 593.333H496.667V582.667ZM475.333 620C475.333 621.173 475.173 622.507 474.96 623.733L474.427 627.2L472.453 630.667C468.613 637.28 461.573 641.333 454 641.333C446.427 641.333 439.387 637.227 435.547 630.667L433.573 627.253L433.04 623.787C432.827 622.56 432.667 621.227 432.667 620V598.667C432.667 597.44 432.827 596.107 433.04 594.933L433.573 591.467L435.547 588C437.147 585.227 439.387 582.827 442 581.013L445.04 578.933L448.987 577.973C450.64 577.547 452.347 577.333 454 577.333C455.707 577.333 457.36 577.547 459.067 577.973L462.693 578.827L465.947 581.067C468.613 582.88 470.8 585.227 472.4 588.053L474.427 591.52L474.96 594.987C475.173 596.16 475.333 597.493 475.333 598.667V620ZM443.333 614.667H464.667V625.333H443.333V614.667ZM443.333 593.333H464.667V604H443.333V593.333Z" fill="#B69DF8"/>
<path fill-rule="evenodd" clip-rule="evenodd" d="M610 230.667C580.56 230.667 556.667 254.56 556.667 284C556.667 313.44 580.56 337.333 610 337.333C639.44 337.333 663.333 313.44 663.333 284C663.333 254.56 639.44 230.667 610 230.667ZM610 326.667C586.48 326.667 567.333 307.52 567.333 284C567.333 260.48 586.48 241.333 610 241.333C633.52 241.333 652.667 260.48 652.667 284C652.667 307.52 633.52 326.667 610 326.667Z" fill="#B69DF8"/>
<path fill-rule="evenodd" clip-rule="evenodd" d="M617.947 280.693C620.24 274.187 618.853 266.613 613.627 261.387C607.707 255.467 598.747 254.453 591.76 258.24L604.293 270.773L596.773 278.293L584.24 265.76C580.453 272.8 581.467 281.707 587.387 287.627C592.613 292.853 600.187 294.24 606.693 291.947L624.88 310.133C625.947 311.2 627.6 311.2 628.667 310.133L636.133 302.667C637.2 301.6 637.2 299.947 636.133 298.88L617.947 280.693Z" fill="#B69DF8"/>
<path d="M1565.33 282.667L1544 304H1560C1560 321.653 1545.65 336 1528 336C1522.61 336 1517.49 334.667 1513.07 332.267L1505.28 340.053C1511.84 344.213 1519.63 346.667 1528 346.667C1551.57 346.667 1570.67 327.573 1570.67 304H1586.67L1565.33 282.667ZM1496 304C1496 286.347 1510.35 272 1528 272C1533.39 272 1538.51 273.333 1542.93 275.733L1550.72 267.947C1544.16 263.787 1536.37 261.333 1528 261.333C1504.43 261.333 1485.33 280.427 1485.33 304H1469.33L1490.67 325.333L1512 304H1496Z" fill="#B69DF8"/>
<path d="M773.333 1091.33H768V1080.67H757.333V1091.33H714.667V1080.67H704V1091.33H698.667C692.747 1091.33 688.053 1096.13 688.053 1102L688 1176.67C688 1182.53 692.747 1187.33 698.667 1187.33H773.333C779.2 1187.33 784 1182.53 784 1176.67V1102C784 1096.13 779.2 1091.33 773.333 1091.33ZM773.333 1176.67H698.667V1123.33H773.333V1176.67ZM773.333 1112.67H698.667V1102H773.333V1112.67ZM720 1144.67H709.333V1134H720V1144.67ZM741.333 1144.67H730.667V1134H741.333V1144.67ZM762.667 1144.67H752V1134H762.667V1144.67ZM720 1166H709.333V1155.33H720V1166ZM741.333 1166H730.667V1155.33H741.333V1166ZM762.667 1166H752V1155.33H762.667V1166Z" fill="#B69DF8"/>
<path d="M936.667 756H931.333V745.333H920.667V756H867.333V745.333H856.667V756H851.333C845.467 756 840.667 760.8 840.667 766.667V852C840.667 857.867 845.467 862.667 851.333 862.667H936.667C942.533 862.667 947.333 857.867 947.333 852V766.667C947.333 760.8 942.533 756 936.667 756ZM936.667 852H851.333V793.333H936.667V852ZM936.667 782.667H851.333V766.667H936.667V782.667Z" fill="#B69DF8"/>
<path d="M224 2158H320V2168.67H224V2158ZM309.333 2131.33V2136.67H234.667V2131.33H309.333ZM320 2120.67H224V2147.33H320V2120.67ZM224 2099.33H320V2110H224V2099.33Z" fill="#B69DF8"/>
<path d="M1080.67 429.333H995.333C989.467 429.333 984.667 434.133 984.667 440V504C984.667 509.867 989.467 514.667 995.333 514.667H1080.67C1086.53 514.667 1091.33 509.867 1091.33 504V440C1091.33 434.133 1086.53 429.333 1080.67 429.333ZM1043.33 440H1056.67V504H1043.33V440ZM1032.67 504H1019.33V440H1032.67V504ZM995.333 440H1008.67V504H995.333V440ZM1080.67 504H1067.33V440H1080.67V504Z" fill="#B69DF8"/>
<path d="M126 441.333L120.987 452.32L110 457.333L120.987 462.347L126 473.333L131.013 462.347L142 457.333L131.013 452.32L126 441.333ZM168.667 414.667H151.76L142 404H110L100.24 414.667H83.3333C77.4666 414.667 72.6666 419.467 72.6666 425.333V489.333C72.6666 495.2 77.4666 500 83.3333 500H168.667C174.533 500 179.333 495.2 179.333 489.333V425.333C179.333 419.467 174.533 414.667 168.667 414.667ZM168.667 489.333H83.3333V425.333H104.933L108.08 421.867L114.693 414.667H137.307L143.92 421.867L147.067 425.333H168.667V489.333ZM126 430.667C111.28 430.667 99.3333 442.613 99.3333 457.333C99.3333 472.053 111.28 484 126 484C140.72 484 152.667 472.053 152.667 457.333C152.667 442.613 140.72 430.667 126 430.667ZM126 473.333C117.2 473.333 110 466.133 110 457.333C110 448.533 117.2 441.333 126 441.333C134.8 441.333 142 448.533 142 457.333C142 466.133 134.8 473.333 126 473.333Z" fill="#B69DF8"/>
<path d="M198.831 1311.28L150.404 1262.85C155.364 1250.37 152.804 1235.65 142.724 1225.52C130.458 1213.25 111.364 1212.13 97.7644 1222.05L118.244 1242.58L110.671 1250.1L90.2444 1229.68C80.3244 1243.22 81.4444 1262.37 93.7111 1274.58C103.631 1284.5 118.084 1287.12 130.458 1282.48L179.044 1331.06C181.124 1333.14 184.484 1333.14 186.564 1331.06L198.831 1318.8C200.964 1316.77 200.964 1313.41 198.831 1311.28ZM182.831 1319.81L132.378 1269.36C129.124 1271.76 125.498 1273.2 121.711 1273.73C114.458 1274.8 106.831 1272.61 101.284 1267.06C96.2178 1262.05 93.8711 1255.33 94.2444 1248.72L110.724 1265.2L133.338 1242.58L116.858 1226.1C123.471 1225.73 130.138 1228.08 135.204 1233.09C140.964 1238.85 143.151 1246.8 141.818 1254.21C141.178 1258 139.578 1261.52 137.124 1264.66L187.524 1315.06L182.831 1319.81Z" fill="#B69DF8"/>
<path d="M1242.67 101.333H1157.33C1151.47 101.333 1146.67 106.133 1146.67 112V176C1146.67 181.867 1151.47 186.667 1157.33 186.667H1242.67C1248.53 186.667 1253.33 181.867 1253.33 176V112C1253.33 106.133 1248.53 101.333 1242.67 101.333ZM1178.67 138.667H1157.33V112H1178.67V138.667ZM1210.67 138.667H1189.33V112H1210.67V138.667ZM1242.67 138.667H1221.33V112H1242.67V138.667ZM1178.67 176H1157.33V149.333H1178.67V176ZM1210.67 176H1189.33V149.333H1210.67V176ZM1242.67 176H1221.33V149.333H1242.67V176Z" fill="#B69DF8"/>
<path d="M1416 1419.44L1450.08 1474H1381.92L1416 1419.44ZM1416 1399.33L1362.67 1484.67H1469.33L1416 1399.33Z" fill="#B69DF8"/>
<path d="M1264 1738.67C1234.56 1738.67 1210.67 1762.56 1210.67 1792C1210.67 1821.44 1234.56 1845.33 1264 1845.33C1293.44 1845.33 1317.33 1821.44 1317.33 1792C1317.33 1762.56 1293.44 1738.67 1264 1738.67ZM1264 1834.67C1240.48 1834.67 1221.33 1815.52 1221.33 1792C1221.33 1768.48 1240.48 1749.33 1264 1749.33C1287.52 1749.33 1306.67 1768.48 1306.67 1792C1306.67 1815.52 1287.52 1834.67 1264 1834.67ZM1288.48 1768.43L1253.33 1803.57L1239.52 1789.81L1232 1797.33L1253.33 1818.67L1296 1776L1288.48 1768.43Z" fill="#B69DF8"/>
<path d="M648 2236.67H584C578.133 2236.67 573.333 2241.47 573.333 2247.33V2332.67C573.333 2338.53 578.133 2343.33 584 2343.33H648C653.867 2343.33 658.667 2338.53 658.667 2332.67V2247.33C658.667 2241.47 653.867 2236.67 648 2236.67ZM600 2247.33H610.667V2274L605.333 2270L600 2274V2247.33ZM648 2332.67H584V2247.33H589.333V2295.33L605.333 2283.33L621.333 2295.33V2247.33H648V2332.67Z" fill="#B69DF8"/>
<path d="M1428 586.667H1332C1326.13 586.667 1321.33 591.467 1321.33 597.333V666.667C1321.33 672.533 1326.13 677.333 1332 677.333H1428C1433.87 677.333 1438.67 672.533 1438.67 666.667V597.333C1438.67 591.467 1433.87 586.667 1428 586.667ZM1332 666.667V597.333H1374.67V666.667H1332ZM1428 666.667H1385.33V597.333H1428V666.667ZM1390.67 616H1422.67V624H1390.67V616ZM1390.67 629.333H1422.67V637.333H1390.67V629.333ZM1390.67 642.667H1422.67V650.667H1390.67V642.667Z" fill="#B69DF8"/>
<path d="M1222 908.667C1192.56 908.667 1168.67 932.56 1168.67 962C1168.67 991.44 1192.56 1015.33 1222 1015.33C1251.44 1015.33 1275.33 991.44 1275.33 962C1275.33 932.56 1251.44 908.667 1222 908.667ZM1222 1004.67C1198.48 1004.67 1179.33 985.52 1179.33 962C1179.33 938.48 1198.48 919.333 1222 919.333C1245.52 919.333 1264.67 938.48 1264.67 962C1264.67 985.52 1245.52 1004.67 1222 1004.67ZM1246.48 938.427L1211.33 973.573L1197.52 959.813L1190 967.333L1211.33 988.667L1254 946L1246.48 938.427Z" fill="#B69DF8"/>
<path d="M907.133 1654.53L882.6 1630L907.133 1605.47L899.667 1598L867.667 1630L899.667 1662L907.133 1654.53ZM934.867 1654.53L959.4 1630L934.867 1605.47L942.333 1598L974.333 1630L942.333 1662L934.867 1654.53Z" fill="#B69DF8"/>
<path d="M817.333 1914.19L789.12 1942.4L806.667 1960H764V1917.33L781.547 1934.88L809.813 1906.67L817.333 1914.19ZM718.187 2013.33L746.4 1985.12L764 2002.67V1960H721.333L738.88 1977.55L710.667 2005.81L718.187 2013.33Z" fill="#B69DF8"/>
<path d="M989.867 2446.21L965.44 2421.73L972.96 2414.21L1004.96 2446.21L985.813 2465.36L978.293 2457.79L989.867 2446.21ZM895.04 2404.72L917.387 2427.07L898.293 2446.21L930.293 2478.21L937.813 2470.69L913.387 2446.21L924.96 2434.64L993.12 2502.8L1000.64 2495.28L902.613 2397.2L895.04 2404.72Z" fill="#B69DF8"/>
<path d="M1150 2140.67V2098H1123.33V2140.67L1136.67 2132.67L1150 2140.67Z" fill="#B69DF8"/>
<path d="M1160.67 2076.67H1075.33C1069.47 2076.67 1064.67 2081.47 1064.67 2087.33V2183.33L1086 2162H1160.67C1166.53 2162 1171.33 2157.2 1171.33 2151.33V2087.33C1171.33 2081.47 1166.53 2076.67 1160.67 2076.67ZM1160.67 2151.33H1086L1075.33 2162V2087.33H1160.67V2151.33Z" fill="#B69DF8"/>
<path d="M1922.13 454.667C1919.68 442.507 1908.91 433.333 1896 433.333C1883.09 433.333 1872.32 442.507 1869.87 454.667H1842.67V465.333H1869.87C1872.32 477.493 1883.09 486.667 1896 486.667C1908.91 486.667 1919.68 477.493 1922.13 465.333H1949.33V454.667H1922.13ZM1896 476C1887.15 476 1880 468.853 1880 460C1880 451.147 1887.15 444 1896 444C1904.85 444 1912 451.147 1912 460C1912 468.853 1904.85 476 1896 476Z" fill="#B69DF8"/>
<path d="M1706.05 810.667H1668.67V821.333H1706.05V837.333L1727.33 816L1706.05 794.667V810.667ZM1737.95 805.333V789.333H1775.33V778.667H1737.95V762.667L1716.67 784L1737.95 805.333Z" fill="#B69DF8"/>
<path d="M1527.33 1116.67V1127.33H1612.67V1116.67H1527.33ZM1591.33 1090L1583.81 1082.48L1575.33 1090.91V1074H1564.67V1091.01L1556.08 1082.59L1548.67 1090L1570 1111.33L1591.33 1090ZM1527.33 1143.33H1612.67V1132.67H1527.33V1143.33ZM1548.67 1170L1556.08 1177.41L1564.67 1168.99V1186H1575.33V1169.09L1583.81 1177.57L1591.33 1170L1570 1148.67L1548.67 1170Z" fill="#B69DF8"/>
<path d="M1654.24 1925.33L1680 1951.09V2010.67H1616V1925.33H1654.24ZM1658.67 1914.67H1616C1610.13 1914.67 1605.33 1919.47 1605.33 1925.33V2010.67C1605.33 2016.53 1610.13 2021.33 1616 2021.33H1680C1685.87 2021.33 1690.67 2016.53 1690.67 2010.67V1946.67L1658.67 1914.67ZM1648 1978.67C1653.87 1978.67 1658.67 1973.87 1658.67 1968C1658.67 1962.13 1653.87 1957.33 1648 1957.33C1642.13 1957.33 1637.33 1962.13 1637.33 1968C1637.33 1973.87 1642.13 1978.67 1648 1978.67ZM1669.33 1996.96C1669.33 1992.64 1666.77 1988.8 1662.83 1987.09C1658.29 1985.12 1653.28 1984 1648 1984C1642.72 1984 1637.71 1985.12 1633.17 1987.09C1629.23 1988.8 1626.67 1992.64 1626.67 1996.96V2000H1669.33V1996.96Z" fill="#B69DF8"/>
<path d="M1803.33 1708.24V1689.04C1776.61 1687.65 1755.33 1665.47 1755.33 1638.43C1755.33 1610.48 1778.05 1587.76 1806 1587.76C1833.95 1587.76 1856.67 1610.48 1856.67 1638.43C1856.67 1664.83 1838.32 1691.39 1810.96 1704.56L1803.33 1708.24ZM1806 1598.43C1783.92 1598.43 1766 1616.35 1766 1638.43C1766 1660.51 1783.92 1678.43 1806 1678.43H1814V1690.69C1833.41 1678.43 1846 1658.27 1846 1638.43C1846 1616.35 1828.08 1598.43 1806 1598.43ZM1800.67 1659.76H1811.33V1670.43H1800.67V1659.76ZM1811.33 1651.76H1800.67C1800.67 1634.43 1816.67 1635.76 1816.67 1625.09C1816.67 1619.23 1811.87 1614.43 1806 1614.43C1800.13 1614.43 1795.33 1619.23 1795.33 1625.09H1784.67C1784.67 1613.31 1794.21 1603.76 1806 1603.76C1817.79 1603.76 1827.33 1613.31 1827.33 1625.09C1827.33 1638.43 1811.33 1639.76 1811.33 1651.76Z" fill="#B69DF8"/>
<path d="M1954 1254.67C1924.56 1254.67 1900.67 1278.56 1900.67 1308C1900.67 1337.44 1924.56 1361.33 1954 1361.33C1983.44 1361.33 2007.33 1337.44 2007.33 1308C2007.33 1278.56 1983.44 1254.67 1954 1254.67ZM1954 1350.67C1930.43 1350.67 1911.33 1331.57 1911.33 1308C1911.33 1284.43 1930.43 1265.33 1954 1265.33C1977.57 1265.33 1996.67 1284.43 1996.67 1308C1996.67 1331.57 1977.57 1350.67 1954 1350.67Z" fill="#B69DF8"/>
<path d="M1927.87 1298.29C1929.25 1301.28 1929.95 1304.48 1930 1307.89C1930.05 1311.25 1929.31 1314.56 1927.87 1317.81L1935.17 1321.12C1937.15 1316.8 1938.11 1312.32 1938.05 1307.79C1938 1303.31 1937.04 1298.99 1935.17 1294.99L1927.87 1298.29Z" fill="#B69DF8"/>
<path d="M1961.09 1283.09C1965.25 1291.47 1967.39 1299.84 1967.39 1307.84C1967.39 1315.89 1965.25 1324.32 1961.09 1332.85L1968.29 1336.37C1972.99 1326.72 1975.39 1317.12 1975.39 1307.84C1975.39 1298.56 1972.99 1289.01 1968.29 1279.52L1961.09 1283.09Z" fill="#B69DF8"/>
<path d="M1944.4 1290.51C1947.23 1296.21 1948.67 1302.29 1948.67 1308.64C1948.67 1314.88 1947.28 1320.53 1944.51 1325.44L1951.44 1329.39C1954.91 1323.25 1956.67 1316.32 1956.67 1308.64C1956.67 1301.07 1954.96 1293.76 1951.55 1286.93L1944.4 1290.51Z" fill="#B69DF8"/>
<path d="M2091.76 971.92C2092.03 970.16 2092.61 968.613 2093.36 967.28C2094.11 965.947 2095.17 964.827 2096.51 963.973C2097.79 963.173 2099.39 962.8 2101.36 962.747C2102.59 962.8 2103.71 963.013 2104.72 963.44C2105.79 963.92 2106.75 964.56 2107.49 965.36C2108.24 966.16 2108.83 967.12 2109.31 968.187C2109.79 969.253 2110 970.427 2110.05 971.6H2119.6C2119.49 969.093 2119.01 966.8 2118.11 964.72C2117.2 962.64 2115.97 960.827 2114.37 959.333C2112.77 957.84 2110.85 956.667 2108.61 955.813C2106.37 954.96 2103.92 954.587 2101.2 954.587C2097.73 954.587 2094.69 955.173 2092.13 956.4C2089.57 957.627 2087.44 959.227 2085.73 961.307C2084.03 963.387 2082.75 965.787 2081.95 968.56C2081.15 971.333 2080.67 974.213 2080.67 977.307V978.747C2080.67 981.84 2081.09 984.72 2081.89 987.493C2082.69 990.267 2083.97 992.667 2085.68 994.693C2087.39 996.72 2089.52 998.373 2092.08 999.547C2094.64 1000.72 2097.68 1001.36 2101.15 1001.36C2103.65 1001.36 2106 1000.93 2108.19 1000.13C2110.37 999.333 2112.29 998.213 2113.95 996.773C2115.6 995.333 2116.93 993.68 2117.89 991.76C2118.85 989.84 2119.44 987.813 2119.49 985.627H2109.95C2109.89 986.747 2109.63 987.76 2109.15 988.72C2108.67 989.68 2108.03 990.48 2107.23 991.173C2106.43 991.867 2105.52 992.4 2104.45 992.773C2103.44 993.147 2102.37 993.253 2101.25 993.307C2099.33 993.253 2097.73 992.88 2096.51 992.08C2095.17 991.227 2094.11 990.107 2093.36 988.773C2092.61 987.44 2092.03 985.84 2091.76 984.08C2091.49 982.32 2091.33 980.507 2091.33 978.747V977.307C2091.33 975.44 2091.49 973.68 2091.76 971.92ZM2102 924.667C2072.56 924.667 2048.67 948.56 2048.67 978C2048.67 1007.44 2072.56 1031.33 2102 1031.33C2131.44 1031.33 2155.33 1007.44 2155.33 978C2155.33 948.56 2131.44 924.667 2102 924.667ZM2102 1020.67C2078.48 1020.67 2059.33 1001.52 2059.33 978C2059.33 954.48 2078.48 935.333 2102 935.333C2125.52 935.333 2144.67 954.48 2144.67 978C2144.67 1001.52 2125.52 1020.67 2102 1020.67Z" fill="#B69DF8"/>
<path d="M1542.67 2255.33H1457.33C1451.41 2255.33 1446.72 2260.08 1446.72 2266L1446.67 2330C1446.67 2335.92 1451.41 2340.67 1457.33 2340.67H1542.67C1548.59 2340.67 1553.33 2335.92 1553.33 2330V2266C1553.33 2260.08 1548.59 2255.33 1542.67 2255.33ZM1542.67 2330H1457.33V2298H1542.67V2330ZM1542.67 2276.67H1457.33V2266H1542.67V2276.67Z" fill="#B69DF8"/>
</g>
<defs>
<clipPath id="clip0_6_1320">
<rect width="2169" height="2589" fill="white"/>
</clipPath>
</defs>
</svg>
