<svg width="2169" height="1208" viewBox="0 0 2169 1208" fill="none" xmlns="http://www.w3.org/2000/svg">
<g opacity="0.9" clip-path="url(#clip0_9_1795)">
<rect width="2169" height="1208" fill="#5B5569"/>
<path d="M573.187 0L13 1208.48" stroke="#898297" stroke-width="18" stroke-linecap="round"/>
<path d="M311.315 0L14 641.446" stroke="#898297" stroke-width="1.5" stroke-linecap="round"/>
<path d="M314.631 0L17.3155 641.446" stroke="#898297" stroke-width="1.5" stroke-linecap="round"/>
<path d="M317.946 0L20.6309 641.446" stroke="#898297" stroke-width="1.5" stroke-linecap="round"/>
<path d="M321.262 0L23.9463 641.446" stroke="#898297" stroke-width="1.5" stroke-linecap="round"/>
<path d="M324.577 0L27.2615 641.446" stroke="#898297" stroke-width="1.5" stroke-linecap="round"/>
<path d="M327.892 0L30.5769 641.446" stroke="#898297" stroke-width="1.5" stroke-linecap="round"/>
<path d="M331.208 0L33.8924 641.446" stroke="#898297" stroke-width="1.5" stroke-linecap="round"/>
<path d="M334.523 0L37.2078 641.446" stroke="#898297" stroke-width="1.5" stroke-linecap="round"/>
<path d="M337.839 0L40.5232 641.446" stroke="#898297" stroke-width="1.5" stroke-linecap="round"/>
<path d="M341.154 0L43.8387 641.446" stroke="#898297" stroke-width="1.5" stroke-linecap="round"/>
<path d="M344.469 0L47.1541 641.446" stroke="#898297" stroke-width="1.5" stroke-linecap="round"/>
<path d="M347.785 0L50.4693 641.446" stroke="#898297" stroke-width="1.5" stroke-linecap="round"/>
<path d="M351.1 0L53.7847 641.446" stroke="#898297" stroke-width="1.5" stroke-linecap="round"/>
<path d="M354.416 0L57.1001 641.446" stroke="#898297" stroke-width="1.5" stroke-linecap="round"/>
<path d="M357.731 0L60.4156 641.446" stroke="#898297" stroke-width="1.5" stroke-linecap="round"/>
<path d="M361.046 0L63.731 641.446" stroke="#898297" stroke-width="1.5" stroke-linecap="round"/>
<path d="M364.362 0L67.0464 641.446" stroke="#898297" stroke-width="1.5" stroke-linecap="round"/>
<path d="M367.677 0L70.3619 641.446" stroke="#898297" stroke-width="1.5" stroke-linecap="round"/>
<path d="M370.993 0L73.6773 641.446" stroke="#898297" stroke-width="1.5" stroke-linecap="round"/>
<path d="M374.308 0L76.9927 641.446" stroke="#898297" stroke-width="1.5" stroke-linecap="round"/>
<path d="M377.624 0L80.3081 641.446" stroke="#898297" stroke-width="1.5" stroke-linecap="round"/>
<path d="M380.939 0L83.6236 641.446" stroke="#898297" stroke-width="1.5" stroke-linecap="round"/>
<path d="M384.254 0L86.939 641.446" stroke="#898297" stroke-width="1.5" stroke-linecap="round"/>
<path d="M387.569 0L90.2539 641.446" stroke="#898297" stroke-width="1.5" stroke-linecap="round"/>
<path d="M390.885 0L93.5694 641.446" stroke="#898297" stroke-width="1.5" stroke-linecap="round"/>
<path d="M394.2 0L96.8848 641.446" stroke="#898297" stroke-width="1.5" stroke-linecap="round"/>
<path d="M397.516 0L100.2 641.446" stroke="#898297" stroke-width="1.5" stroke-linecap="round"/>
<path d="M400.831 0L103.516 641.446" stroke="#898297" stroke-width="1.5" stroke-linecap="round"/>
<path d="M404.146 0L106.831 641.446" stroke="#898297" stroke-width="1.5" stroke-linecap="round"/>
<path d="M407.462 0L110.147 641.446" stroke="#898297" stroke-width="1.5" stroke-linecap="round"/>
<path d="M410.777 0L113.462 641.446" stroke="#898297" stroke-width="1.5" stroke-linecap="round"/>
<path d="M414.093 0L116.777 641.446" stroke="#898297" stroke-width="1.5" stroke-linecap="round"/>
<path d="M417.408 0L120.093 641.446" stroke="#898297" stroke-width="1.5" stroke-linecap="round"/>
<path d="M420.724 0L123.408 641.446" stroke="#898297" stroke-width="1.5" stroke-linecap="round"/>
<path d="M424.039 0L126.724 641.446" stroke="#898297" stroke-width="1.5" stroke-linecap="round"/>
<path d="M427.354 0L130.039 641.446" stroke="#898297" stroke-width="1.5" stroke-linecap="round"/>
<path d="M430.67 0L133.355 641.446" stroke="#898297" stroke-width="1.5" stroke-linecap="round"/>
<path d="M433.985 0L136.67 641.446" stroke="#898297" stroke-width="1.5" stroke-linecap="round"/>
<path d="M437.301 0L139.985 641.446" stroke="#898297" stroke-width="1.5" stroke-linecap="round"/>
<path d="M440.616 0L143.301 641.446" stroke="#898297" stroke-width="1.5" stroke-linecap="round"/>
<path d="M443.931 0L146.616 641.446" stroke="#898297" stroke-width="1.5" stroke-linecap="round"/>
<path d="M447.247 0L149.931 641.446" stroke="#898297" stroke-width="1.5" stroke-linecap="round"/>
<path d="M450.562 0L153.247 641.446" stroke="#898297" stroke-width="1.5" stroke-linecap="round"/>
<path d="M453.877 0L156.562 641.446" stroke="#898297" stroke-width="1.5" stroke-linecap="round"/>
<path d="M457.193 0L159.877 641.446" stroke="#898297" stroke-width="1.5" stroke-linecap="round"/>
<path d="M460.508 0L163.193 641.446" stroke="#898297" stroke-width="1.5" stroke-linecap="round"/>
<path d="M463.824 0L166.508 641.446" stroke="#898297" stroke-width="1.5" stroke-linecap="round"/>
<path d="M467.139 0L169.824 641.446" stroke="#898297" stroke-width="1.5" stroke-linecap="round"/>
<path d="M470.455 0L173.139 641.446" stroke="#898297" stroke-width="1.5" stroke-linecap="round"/>
<path d="M473.77 0L176.455 641.446" stroke="#898297" stroke-width="1.5" stroke-linecap="round"/>
<path d="M477.085 0L179.77 641.446" stroke="#898297" stroke-width="1.5" stroke-linecap="round"/>
<path d="M480.401 0L183.085 641.446" stroke="#898297" stroke-width="1.5" stroke-linecap="round"/>
<path d="M483.716 0L186.401 641.446" stroke="#898297" stroke-width="1.5" stroke-linecap="round"/>
<path d="M487.032 0L189.716 641.446" stroke="#898297" stroke-width="1.5" stroke-linecap="round"/>
<path d="M490.347 0L193.032 641.446" stroke="#898297" stroke-width="1.5" stroke-linecap="round"/>
<path d="M493.662 0L196.347 641.446" stroke="#898297" stroke-width="1.5" stroke-linecap="round"/>
<path d="M496.978 0L199.662 641.446" stroke="#898297" stroke-width="1.5" stroke-linecap="round"/>
<path d="M500.293 0L202.978 641.446" stroke="#898297" stroke-width="1.5" stroke-linecap="round"/>
<path d="M503.608 0L206.293 641.446" stroke="#898297" stroke-width="1.5" stroke-linecap="round"/>
<path d="M506.924 0L209.608 641.446" stroke="#898297" stroke-width="1.5" stroke-linecap="round"/>
<path d="M949.27 -17L530 887.556" stroke="#A199B0" stroke-width="2" stroke-linecap="round"/>
<path d="M954.539 -17L535.269 887.556" stroke="#A199B0" stroke-width="2" stroke-linecap="round"/>
<path d="M959.808 -17L540.539 887.556" stroke="#A199B0" stroke-width="2" stroke-linecap="round"/>
<path d="M965.078 -17L545.808 887.556" stroke="#A199B0" stroke-width="2" stroke-linecap="round"/>
<path d="M970.347 -17L551.077 887.556" stroke="#A199B0" stroke-width="2" stroke-linecap="round"/>
<path d="M975.616 -17L556.347 887.556" stroke="#A199B0" stroke-width="2" stroke-linecap="round"/>
<path d="M980.886 -17L561.616 887.556" stroke="#A199B0" stroke-width="2" stroke-linecap="round"/>
<path d="M986.155 -17L566.886 887.556" stroke="#A199B0" stroke-width="2" stroke-linecap="round"/>
<path d="M991.424 -17L572.155 887.556" stroke="#A199B0" stroke-width="2" stroke-linecap="round"/>
<path d="M996.694 -17L577.424 887.556" stroke="#A199B0" stroke-width="2" stroke-linecap="round"/>
<path d="M1001.96 -17L582.694 887.556" stroke="#A199B0" stroke-width="2" stroke-linecap="round"/>
<path d="M1007.23 -17L587.963 887.556" stroke="#A199B0" stroke-width="2" stroke-linecap="round"/>
<path d="M1012.5 -17L593.233 887.556" stroke="#A199B0" stroke-width="2" stroke-linecap="round"/>
<path d="M1017.77 -17L598.502 887.556" stroke="#A199B0" stroke-width="2" stroke-linecap="round"/>
<path d="M2389.27 303L1970 1207.56" stroke="#A199B0" stroke-width="2" stroke-linecap="round"/>
<path d="M2394.54 303L1975.27 1207.56" stroke="#A199B0" stroke-width="2" stroke-linecap="round"/>
<path d="M2399.81 303L1980.54 1207.56" stroke="#A199B0" stroke-width="2" stroke-linecap="round"/>
<path d="M2405.08 303L1985.81 1207.56" stroke="#A199B0" stroke-width="2" stroke-linecap="round"/>
<path d="M2410.35 303L1991.08 1207.56" stroke="#A199B0" stroke-width="2" stroke-linecap="round"/>
<path d="M2415.62 303L1996.35 1207.56" stroke="#A199B0" stroke-width="2" stroke-linecap="round"/>
<path d="M2420.89 303L2001.62 1207.56" stroke="#A199B0" stroke-width="2" stroke-linecap="round"/>
<path d="M2426.16 303L2006.89 1207.56" stroke="#A199B0" stroke-width="2" stroke-linecap="round"/>
<path d="M2431.42 303L2012.15 1207.56" stroke="#A199B0" stroke-width="2" stroke-linecap="round"/>
<path d="M2436.69 303L2017.42 1207.56" stroke="#A199B0" stroke-width="2" stroke-linecap="round"/>
<path d="M2441.96 303L2022.69 1207.56" stroke="#A199B0" stroke-width="2" stroke-linecap="round"/>
<path d="M2447.23 303L2027.96 1207.56" stroke="#A199B0" stroke-width="2" stroke-linecap="round"/>
<path d="M2452.5 303L2033.23 1207.56" stroke="#A199B0" stroke-width="2" stroke-linecap="round"/>
<path d="M2457.77 303L2038.5 1207.56" stroke="#A199B0" stroke-width="2" stroke-linecap="round"/>
<path d="M1045.41 67L566 1101.3" stroke="#A199B0" stroke-width="2" stroke-linecap="round"/>
<path d="M1049.81 67L570.405 1101.3" stroke="#A199B0" stroke-width="2" stroke-linecap="round"/>
<path d="M1054.22 67L574.811 1101.3" stroke="#A199B0" stroke-width="2" stroke-linecap="round"/>
<path d="M1058.62 67L579.216 1101.3" stroke="#A199B0" stroke-width="2" stroke-linecap="round"/>
<path d="M1063.03 67L583.621 1101.3" stroke="#A199B0" stroke-width="2" stroke-linecap="round"/>
<path d="M1067.43 67L588.026 1101.3" stroke="#A199B0" stroke-width="2" stroke-linecap="round"/>
<path d="M1071.84 67L592.432 1101.3" stroke="#A199B0" stroke-width="2" stroke-linecap="round"/>
<path d="M1076.24 67L596.837 1101.3" stroke="#A199B0" stroke-width="2" stroke-linecap="round"/>
<path d="M1080.65 67L601.243 1101.3" stroke="#A199B0" stroke-width="2" stroke-linecap="round"/>
<path d="M1085.05 67L605.648 1101.3" stroke="#A199B0" stroke-width="2" stroke-linecap="round"/>
<path d="M1089.46 67L610.053 1101.3" stroke="#A199B0" stroke-width="2" stroke-linecap="round"/>
<path d="M1093.86 67L614.458 1101.3" stroke="#A199B0" stroke-width="2" stroke-linecap="round"/>
<path d="M1127.41 67L648 1101.3" stroke="#A199B0" stroke-width="2" stroke-linecap="round"/>
<path d="M1131.81 67L652.405 1101.3" stroke="#A199B0" stroke-width="2" stroke-linecap="round"/>
<path d="M1136.22 67L656.811 1101.3" stroke="#A199B0" stroke-width="2" stroke-linecap="round"/>
<path d="M1140.62 67L661.216 1101.3" stroke="#A199B0" stroke-width="2" stroke-linecap="round"/>
<path d="M1145.03 67L665.621 1101.3" stroke="#A199B0" stroke-width="2" stroke-linecap="round"/>
<path d="M1149.43 67L670.026 1101.3" stroke="#A199B0" stroke-width="2" stroke-linecap="round"/>
<path d="M1153.84 67L674.432 1101.3" stroke="#A199B0" stroke-width="2" stroke-linecap="round"/>
<path d="M1158.24 67L678.837 1101.3" stroke="#A199B0" stroke-width="2" stroke-linecap="round"/>
<path d="M1162.65 67L683.243 1101.3" stroke="#A199B0" stroke-width="2" stroke-linecap="round"/>
<path d="M1167.05 67L687.648 1101.3" stroke="#A199B0" stroke-width="2" stroke-linecap="round"/>
<path d="M1171.46 67L692.053 1101.3" stroke="#A199B0" stroke-width="2" stroke-linecap="round"/>
<path d="M1175.86 67L696.458 1101.3" stroke="#A199B0" stroke-width="2" stroke-linecap="round"/>
<path d="M1142.24 0L572 1230.27" stroke="#A199B0" stroke-width="18" stroke-linecap="round"/>
<path d="M1241.98 0L718 1130.47" stroke="#423D4D" stroke-width="2" stroke-linecap="round"/>
<path d="M1246.96 0L722.981 1130.47" stroke="#423D4D" stroke-width="2" stroke-linecap="round"/>
<path d="M1251.94 0L727.963 1130.47" stroke="#423D4D" stroke-width="2" stroke-linecap="round"/>
<path d="M1256.93 0L732.945 1130.47" stroke="#423D4D" stroke-width="2" stroke-linecap="round"/>
<path d="M1261.91 0L737.926 1130.47" stroke="#423D4D" stroke-width="2" stroke-linecap="round"/>
<path d="M1266.89 0L742.908 1130.47" stroke="#423D4D" stroke-width="2" stroke-linecap="round"/>
<path d="M1271.87 0L747.889 1130.47" stroke="#423D4D" stroke-width="2" stroke-linecap="round"/>
<path d="M1276.85 0L752.871 1130.47" stroke="#423D4D" stroke-width="2" stroke-linecap="round"/>
<path d="M1281.83 0L757.852 1130.47" stroke="#423D4D" stroke-width="2" stroke-linecap="round"/>
<path d="M1286.82 0L762.834 1130.47" stroke="#423D4D" stroke-width="2" stroke-linecap="round"/>
<path d="M1291.8 0L767.816 1130.47" stroke="#423D4D" stroke-width="2" stroke-linecap="round"/>
<path d="M1296.78 0L772.797 1130.47" stroke="#423D4D" stroke-width="2" stroke-linecap="round"/>
<path d="M1301.76 0L777.779 1130.47" stroke="#423D4D" stroke-width="2" stroke-linecap="round"/>
<path d="M1306.74 0L782.761 1130.47" stroke="#423D4D" stroke-width="2" stroke-linecap="round"/>
<path d="M1311.72 0L787.742 1130.47" stroke="#423D4D" stroke-width="2" stroke-linecap="round"/>
<path d="M1316.71 0L792.723 1130.47" stroke="#423D4D" stroke-width="2" stroke-linecap="round"/>
<path d="M1321.69 0L797.705 1130.47" stroke="#423D4D" stroke-width="2" stroke-linecap="round"/>
<path d="M1326.67 0L802.686 1130.47" stroke="#423D4D" stroke-width="2" stroke-linecap="round"/>
<path d="M1331.65 0L807.668 1130.47" stroke="#423D4D" stroke-width="2" stroke-linecap="round"/>
<path d="M1336.63 0L812.65 1130.47" stroke="#423D4D" stroke-width="2" stroke-linecap="round"/>
<path d="M1341.61 0L817.631 1130.47" stroke="#423D4D" stroke-width="2" stroke-linecap="round"/>
<path d="M1346.59 0L822.613 1130.47" stroke="#423D4D" stroke-width="2" stroke-linecap="round"/>
<path d="M1351.58 0L827.595 1130.47" stroke="#423D4D" stroke-width="2" stroke-linecap="round"/>
<path d="M1356.56 0L832.576 1130.47" stroke="#423D4D" stroke-width="2" stroke-linecap="round"/>
<path d="M374.315 567L77 1208.45" stroke="#898297" stroke-width="1.5" stroke-linecap="round"/>
<path d="M377.631 567L80.3155 1208.45" stroke="#898297" stroke-width="1.5" stroke-linecap="round"/>
<path d="M380.946 567L83.6309 1208.45" stroke="#898297" stroke-width="1.5" stroke-linecap="round"/>
<path d="M384.262 567L86.9463 1208.45" stroke="#898297" stroke-width="1.5" stroke-linecap="round"/>
<path d="M387.577 567L90.2618 1208.45" stroke="#898297" stroke-width="1.5" stroke-linecap="round"/>
<path d="M390.893 567L93.5772 1208.45" stroke="#898297" stroke-width="1.5" stroke-linecap="round"/>
<path d="M394.208 567L96.8926 1208.45" stroke="#898297" stroke-width="1.5" stroke-linecap="round"/>
<path d="M397.523 567L100.208 1208.45" stroke="#898297" stroke-width="1.5" stroke-linecap="round"/>
<path d="M400.838 567L103.523 1208.45" stroke="#898297" stroke-width="1.5" stroke-linecap="round"/>
<path d="M404.154 567L106.838 1208.45" stroke="#898297" stroke-width="1.5" stroke-linecap="round"/>
<path d="M407.469 567L110.154 1208.45" stroke="#898297" stroke-width="1.5" stroke-linecap="round"/>
<path d="M410.785 567L113.469 1208.45" stroke="#898297" stroke-width="1.5" stroke-linecap="round"/>
<path d="M414.1 567L116.785 1208.45" stroke="#898297" stroke-width="1.5" stroke-linecap="round"/>
<path d="M417.416 567L120.1 1208.45" stroke="#898297" stroke-width="1.5" stroke-linecap="round"/>
<path d="M420.731 567L123.416 1208.45" stroke="#898297" stroke-width="1.5" stroke-linecap="round"/>
<path d="M424.046 567L126.731 1208.45" stroke="#898297" stroke-width="1.5" stroke-linecap="round"/>
<path d="M427.362 567L130.046 1208.45" stroke="#898297" stroke-width="1.5" stroke-linecap="round"/>
<path d="M430.677 567L133.362 1208.45" stroke="#898297" stroke-width="1.5" stroke-linecap="round"/>
<path d="M433.993 567L136.677 1208.45" stroke="#898297" stroke-width="1.5" stroke-linecap="round"/>
<path d="M437.308 567L139.993 1208.45" stroke="#898297" stroke-width="1.5" stroke-linecap="round"/>
<path d="M440.624 567L143.308 1208.45" stroke="#898297" stroke-width="1.5" stroke-linecap="round"/>
<path d="M443.939 567L146.624 1208.45" stroke="#898297" stroke-width="1.5" stroke-linecap="round"/>
<path d="M447.254 567L149.939 1208.45" stroke="#898297" stroke-width="1.5" stroke-linecap="round"/>
<path d="M450.569 567L153.254 1208.45" stroke="#898297" stroke-width="1.5" stroke-linecap="round"/>
<path d="M453.885 567L156.569 1208.45" stroke="#898297" stroke-width="1.5" stroke-linecap="round"/>
<path d="M457.2 567L159.885 1208.45" stroke="#898297" stroke-width="1.5" stroke-linecap="round"/>
<path d="M460.516 567L163.2 1208.45" stroke="#898297" stroke-width="1.5" stroke-linecap="round"/>
<path d="M463.831 567L166.516 1208.45" stroke="#898297" stroke-width="1.5" stroke-linecap="round"/>
<path d="M467.146 567L169.831 1208.45" stroke="#898297" stroke-width="1.5" stroke-linecap="round"/>
<path d="M470.462 567L173.147 1208.45" stroke="#898297" stroke-width="1.5" stroke-linecap="round"/>
<path d="M473.777 567L176.462 1208.45" stroke="#898297" stroke-width="1.5" stroke-linecap="round"/>
<path d="M477.093 567L179.777 1208.45" stroke="#898297" stroke-width="1.5" stroke-linecap="round"/>
<path d="M480.408 567L183.093 1208.45" stroke="#898297" stroke-width="1.5" stroke-linecap="round"/>
<path d="M483.724 567L186.408 1208.45" stroke="#898297" stroke-width="1.5" stroke-linecap="round"/>
<path d="M487.039 567L189.724 1208.45" stroke="#898297" stroke-width="1.5" stroke-linecap="round"/>
<path d="M490.354 567L193.039 1208.45" stroke="#898297" stroke-width="1.5" stroke-linecap="round"/>
<path d="M493.67 567L196.355 1208.45" stroke="#898297" stroke-width="1.5" stroke-linecap="round"/>
<path d="M496.985 567L199.67 1208.45" stroke="#898297" stroke-width="1.5" stroke-linecap="round"/>
<path d="M500.301 567L202.985 1208.45" stroke="#898297" stroke-width="1.5" stroke-linecap="round"/>
<path d="M503.616 567L206.301 1208.45" stroke="#898297" stroke-width="1.5" stroke-linecap="round"/>
<path d="M506.931 567L209.616 1208.45" stroke="#898297" stroke-width="1.5" stroke-linecap="round"/>
<path d="M510.247 567L212.931 1208.45" stroke="#898297" stroke-width="1.5" stroke-linecap="round"/>
<path d="M513.562 567L216.247 1208.45" stroke="#898297" stroke-width="1.5" stroke-linecap="round"/>
<path d="M516.877 567L219.562 1208.45" stroke="#898297" stroke-width="1.5" stroke-linecap="round"/>
<path d="M520.193 567L222.877 1208.45" stroke="#898297" stroke-width="1.5" stroke-linecap="round"/>
<path d="M523.508 567L226.193 1208.45" stroke="#898297" stroke-width="1.5" stroke-linecap="round"/>
<path d="M526.824 567L229.508 1208.45" stroke="#898297" stroke-width="1.5" stroke-linecap="round"/>
<path d="M530.139 567L232.824 1208.45" stroke="#898297" stroke-width="1.5" stroke-linecap="round"/>
<path d="M533.455 567L236.139 1208.45" stroke="#898297" stroke-width="1.5" stroke-linecap="round"/>
<path d="M536.77 567L239.455 1208.45" stroke="#898297" stroke-width="1.5" stroke-linecap="round"/>
<path d="M540.085 567L242.77 1208.45" stroke="#898297" stroke-width="1.5" stroke-linecap="round"/>
<path d="M543.401 567L246.085 1208.45" stroke="#898297" stroke-width="1.5" stroke-linecap="round"/>
<path d="M546.716 567L249.401 1208.45" stroke="#898297" stroke-width="1.5" stroke-linecap="round"/>
<path d="M550.032 567L252.716 1208.45" stroke="#898297" stroke-width="1.5" stroke-linecap="round"/>
<path d="M553.347 567L256.032 1208.45" stroke="#898297" stroke-width="1.5" stroke-linecap="round"/>
<path d="M556.662 567L259.347 1208.45" stroke="#898297" stroke-width="1.5" stroke-linecap="round"/>
<path d="M559.978 567L262.662 1208.45" stroke="#898297" stroke-width="1.5" stroke-linecap="round"/>
<path d="M563.293 567L265.978 1208.45" stroke="#898297" stroke-width="1.5" stroke-linecap="round"/>
<path d="M566.608 567L269.293 1208.45" stroke="#898297" stroke-width="1.5" stroke-linecap="round"/>
<path d="M569.924 567L272.608 1208.45" stroke="#898297" stroke-width="1.5" stroke-linecap="round"/>
<path d="M1621.82 -30L1052 1199.36" stroke="#898297" stroke-width="12" stroke-linecap="round"/>
<path d="M1603.82 -30L1034 1199.36" stroke="#464052" stroke-width="24" stroke-linecap="round"/>
<path d="M1686.82 -30L1117 1199.36" stroke="#7E788B" stroke-width="30" stroke-linecap="round"/>
<path d="M1649.82 -30L1080 1199.36" stroke="#464052" stroke-width="34" stroke-linecap="round"/>
<path d="M1956.51 0L1393 1215.75" stroke="#B0A7C0" stroke-width="4" stroke-linecap="round"/>
<path d="M1963.02 0L1399.51 1215.75" stroke="#B0A7C0" stroke-width="4" stroke-linecap="round"/>
<path d="M1969.53 0L1406.02 1215.75" stroke="#B0A7C0" stroke-width="4" stroke-linecap="round"/>
<path d="M1976.05 0L1412.53 1215.75" stroke="#B0A7C0" stroke-width="4" stroke-linecap="round"/>
<path d="M1982.56 0L1419.05 1215.75" stroke="#B0A7C0" stroke-width="4" stroke-linecap="round"/>
<path d="M1989.07 0L1425.56 1215.75" stroke="#B0A7C0" stroke-width="4" stroke-linecap="round"/>
<path d="M1995.58 0L1432.07 1215.75" stroke="#B0A7C0" stroke-width="4" stroke-linecap="round"/>
<path d="M2002.09 0L1438.58 1215.75" stroke="#B0A7C0" stroke-width="4" stroke-linecap="round"/>
<path d="M2008.6 0L1445.09 1215.75" stroke="#B0A7C0" stroke-width="4" stroke-linecap="round"/>
<path d="M2022.51 0L1459 1215.75" stroke="#898297" stroke-width="4" stroke-linecap="round"/>
<path d="M2029.02 0L1465.51 1215.75" stroke="#898297" stroke-width="4" stroke-linecap="round"/>
<path d="M2035.53 0L1472.02 1215.75" stroke="#898297" stroke-width="4" stroke-linecap="round"/>
<path d="M2042.05 0L1478.53 1215.75" stroke="#898297" stroke-width="4" stroke-linecap="round"/>
<path d="M2048.56 0L1485.05 1215.75" stroke="#898297" stroke-width="4" stroke-linecap="round"/>
<path d="M2055.07 0L1491.56 1215.75" stroke="#898297" stroke-width="4" stroke-linecap="round"/>
<path d="M2072.51 0L1509 1215.75" stroke="#B0A7C0" stroke-width="4" stroke-linecap="round"/>
<path d="M2079.02 0L1515.51 1215.75" stroke="#B0A7C0" stroke-width="4" stroke-linecap="round"/>
<path d="M2085.53 0L1522.02 1215.75" stroke="#B0A7C0" stroke-width="4" stroke-linecap="round"/>
<path d="M2092.05 0L1528.53 1215.75" stroke="#B0A7C0" stroke-width="4" stroke-linecap="round"/>
<path d="M2098.56 0L1535.05 1215.75" stroke="#B0A7C0" stroke-width="4" stroke-linecap="round"/>
<path d="M2105.07 0L1541.56 1215.75" stroke="#B0A7C0" stroke-width="4" stroke-linecap="round"/>
<path d="M2122.51 0L1559 1215.75" stroke="#A199B0" stroke-width="4" stroke-linecap="round"/>
<path d="M2129.02 0L1565.51 1215.75" stroke="#A199B0" stroke-width="4" stroke-linecap="round"/>
<path d="M2135.53 0L1572.02 1215.75" stroke="#A199B0" stroke-width="4" stroke-linecap="round"/>
<path d="M2142.05 0L1578.53 1215.75" stroke="#A199B0" stroke-width="4" stroke-linecap="round"/>
<path d="M2148.56 0L1585.05 1215.75" stroke="#A199B0" stroke-width="4" stroke-linecap="round"/>
<path d="M2155.07 0L1591.56 1215.75" stroke="#A199B0" stroke-width="4" stroke-linecap="round"/>
<path d="M2161.58 0L1598.07 1215.75" stroke="#A199B0" stroke-width="4" stroke-linecap="round"/>
<path d="M2168.09 0L1604.58 1215.75" stroke="#A199B0" stroke-width="4" stroke-linecap="round"/>
<path d="M2174.6 0L1611.09 1215.75" stroke="#A199B0" stroke-width="4" stroke-linecap="round"/>
<path d="M403.92 1101.57H474.16C480.08 1101.57 484.827 1106.32 484.827 1112.24V1176.24C484.827 1178.05 484.4 1179.76 483.6 1181.25L474.16 1171.81V1144.24H446.587L425.253 1122.91H474.16V1112.24H414.587L403.92 1101.57ZM476.773 1204.56L459.067 1186.91H388.827C382.907 1186.91 378.16 1182.16 378.16 1176.24L378.213 1112.24C378.213 1110.43 378.64 1108.72 379.44 1107.28L371.173 1098.96L378.693 1091.44L484.293 1197.04L476.773 1204.56ZM388.827 1116.67V1122.91H395.067L388.827 1116.67ZM448.4 1176.24L416.4 1144.24H388.827V1176.24H448.4Z" fill="#898297"/>
<path d="M92.6667 688.667V683.333H100.667V686H111.333V680.667H98C95.0667 680.667 92.6667 678.267 92.6667 675.333V667.333C92.6667 664.4 95.0667 662 98 662H114C116.933 662 119.333 664.4 119.333 667.333V672.667H111.333V670H100.667V675.333H114C116.933 675.333 119.333 677.733 119.333 680.667V688.667C119.333 691.6 116.933 694 114 694H98C95.0667 694 92.6667 691.6 92.6667 688.667ZM132.667 694H148.667C151.6 694 154 691.6 154 688.667V680.667C154 677.733 151.6 675.333 148.667 675.333H135.333V670H146V672.667H154V667.333C154 664.4 151.6 662 148.667 662H132.667C129.733 662 127.333 664.4 127.333 667.333V675.333C127.333 678.267 129.733 680.667 132.667 680.667H146V686H135.333V683.333H127.333V688.667C127.333 691.6 129.733 694 132.667 694ZM84.6667 667.333C84.6667 664.4 82.2667 662 79.3333 662H63.3333C60.4 662 58 664.4 58 667.333V688.667C58 691.6 60.4 694 63.3333 694H79.3333C82.2667 694 84.6667 691.6 84.6667 688.667V683.333H76.6667V686H66V670H76.6667V672.667H84.6667V667.333Z" fill="#898297"/>
<path d="M988.747 1073.2C979.253 1070.05 974.667 1068.08 974.667 1063.07C974.667 1057.63 980.587 1055.65 984.32 1055.65C991.307 1055.65 993.867 1060.93 994.453 1062.8L1002.88 1059.23C1002.08 1056.83 998.507 1048.99 989.333 1047.28V1040.67H978.667V1047.39C965.44 1050.37 965.387 1062.64 965.387 1063.17C965.387 1075.28 977.387 1078.69 983.253 1080.83C991.68 1083.81 995.413 1086.53 995.413 1091.65C995.413 1097.68 989.813 1100.24 984.853 1100.24C975.147 1100.24 972.373 1090.27 972.053 1089.09L963.2 1092.67C966.56 1104.35 975.36 1107.49 978.667 1108.45V1115.33H989.333V1108.72C991.467 1108.24 1004.8 1105.57 1004.8 1091.55C1004.8 1084.13 1001.55 1077.63 988.747 1073.2ZM936 1126H925.333V1094H957.333V1104.67H944.107C952.693 1117.52 967.36 1126 984 1126C1010.51 1126 1032 1104.51 1032 1078H1042.67C1042.67 1110.43 1016.43 1136.67 984 1136.67C964.16 1136.67 946.613 1126.8 936 1111.76V1126ZM925.333 1078C925.333 1045.57 951.573 1019.33 984 1019.33C1003.84 1019.33 1021.39 1029.2 1032 1044.24V1030H1042.67V1062H1010.67V1051.33H1023.89C1015.31 1038.48 1000.64 1030 984 1030C957.493 1030 936 1051.49 936 1078H925.333Z" fill="#898297"/>
<path d="M531.893 940H492.107L464 968.107V1007.89L492.107 1036H531.893L560 1007.89V968.107L531.893 940ZM549.333 1003.47L527.467 1025.33H496.533L474.667 1003.47V972.533L496.533 950.667H527.467L549.333 972.533V1003.47ZM527.093 965.387L512 980.48L496.907 965.387L489.387 972.907L504.48 988L489.387 1003.09L496.907 1010.61L512 995.52L527.093 1010.61L534.613 1003.09L519.52 988L534.613 972.907L527.093 965.387Z" fill="#898297"/>
<path d="M557.333 430.667V441.333H536V430.667H557.333ZM504 430.667V462.667H482.667V430.667H504ZM557.333 473.333V505.333H536V473.333H557.333ZM504 494.667V505.333H482.667V494.667H504ZM568 420H525.333V452H568V420ZM514.667 420H472V473.333H514.667V420ZM568 462.667H525.333V516H568V462.667ZM514.667 484H472V516H514.667V484Z" fill="#898297"/>
<path d="M1240 420.667H1282.67V378H1240V420.667ZM1250.67 388.667H1272V410H1250.67V388.667Z" fill="#898297"/>
<path d="M1293.33 378V420.667H1336V378H1293.33ZM1325.33 410H1304V388.667H1325.33V410Z" fill="#898297"/>
<path d="M1240 474H1282.67V431.333H1240V474ZM1250.67 442H1272V463.333H1250.67V442Z" fill="#898297"/>
<path d="M1320 431.333H1309.33V447.333H1293.33V458H1309.33V474H1320V458H1336V447.333H1320V431.333Z" fill="#898297"/>
<path d="M1136 702.667C1106.56 702.667 1082.67 726.56 1082.67 756C1082.67 785.44 1106.56 809.333 1136 809.333H1178.67C1184.53 809.333 1189.33 804.533 1189.33 798.667V756C1189.33 726.56 1165.44 702.667 1136 702.667ZM1136 798.667C1120.59 798.667 1107.04 790.453 1099.57 778.187L1115.31 762.453L1132.85 777.333L1157.33 752.907V761.333H1168V734.667H1141.33V745.333H1149.76L1132.27 762.827L1114.67 748L1094.99 767.733C1093.92 764 1093.33 760.053 1093.33 756C1093.33 732.48 1112.48 713.333 1136 713.333C1159.52 713.333 1178.67 732.48 1178.67 756C1178.67 779.52 1159.52 798.667 1136 798.667ZM1176 801.333C1173.07 801.333 1170.67 798.933 1170.67 796C1170.67 793.067 1173.07 790.667 1176 790.667C1178.93 790.667 1181.33 793.067 1181.33 796C1181.33 798.933 1178.93 801.333 1176 801.333Z" fill="#898297"/>
<path d="M91.3333 778H16.6667C10.8 778 6 782.8 6 788.667V863.333C6 869.2 10.8 874 16.6667 874H91.3333C97.2 874 102 869.2 102 863.333V788.667C102 782.8 97.2 778 91.3333 778ZM91.3333 863.333H82.1067L91.3333 854.107V863.333ZM91.3333 847.333H86.8L70.8 863.333H62.16L78.16 847.333H66.8533L50.8533 863.333H42.2667L58.2667 847.333H46.96L30.96 863.333H21.1467L37.1467 847.333H25.84L16.6667 856.507V788.667H91.3333V847.333Z" fill="#898297"/>
<path d="M46.9067 820.667L57.5733 831.333L84.6667 804.187L77.1467 796.667L57.5733 816.24L46.9067 805.573L23.3333 829.147L30.8533 836.667L46.9067 820.667Z" fill="#898297"/>
<path d="M645.333 120.667H656V131.333H645.333V120.667ZM720 94V168.667C720 174.533 715.2 179.333 709.333 179.333H634.667C628.747 179.333 624 174.533 624 168.667L624.053 94C624.053 88.1334 628.747 83.3334 634.667 83.3334H640V72.6667H650.667V83.3334H693.333V72.6667H704V83.3334H709.333C715.2 83.3334 720 88.1334 720 94ZM634.667 104.667H709.333V94H634.667V104.667ZM709.333 168.667V115.333H634.667V168.667H709.333ZM688 131.333H698.667V120.667H688V131.333ZM666.667 131.333H677.333V120.667H666.667V131.333Z" fill="#898297"/>
<path d="M101.333 240V293.333H58.6667V240H101.333ZM93.3334 208H66.6667L61.3334 213.333H42.6667V224H117.333V213.333H98.6667L93.3334 208ZM112 229.333H48.0001V293.333C48.0001 299.2 52.8001 304 58.6667 304H101.333C107.2 304 112 299.2 112 293.333V229.333Z" fill="#898297"/>
<path d="M2019.31 737.84L2008 749.147L1996.64 737.84L1989.12 745.36L2000.48 756.667L1989.17 767.973L1996.69 775.493L2008 764.187L2019.31 775.493L2026.83 767.973L2015.52 756.667L2026.83 745.36L2019.31 737.84ZM2026.67 703.333L2021.33 698H1994.67L1989.33 703.333H1970.67V714H2045.33V703.333H2026.67ZM1976 783.333C1976 789.2 1980.8 794 1986.67 794H2029.33C2035.2 794 2040 789.2 2040 783.333V719.333H1976V783.333ZM1986.67 730H2029.33V783.333H1986.67V730Z" fill="#898297"/>
<path d="M1714 253.333C1714 259.2 1718.8 264 1724.67 264H1767.33C1773.2 264 1778 259.2 1778 253.333V189.333H1714V253.333ZM1724.67 200H1767.33V253.333H1724.67V200ZM1764.67 173.333L1759.33 168H1732.67L1727.33 173.333H1708.67V184H1783.33V173.333H1764.67Z" fill="#898297"/>
<path d="M1492 38H1396V48.6667H1492V38Z" fill="#898297"/>
<path d="M1492 123.333H1396V134H1492V123.333Z" fill="#898297"/>
<path d="M1630 508H1534V518.667H1630V508Z" fill="#898297"/>
<path d="M1630 593.333H1534V604H1630V593.333Z" fill="#898297"/>
<path d="M1630 550.667H1534V561.333H1630V550.667Z" fill="#898297"/>
<path d="M1478 842.667H1382V853.333H1478V842.667Z" fill="#898297"/>
<path d="M1478 938.667H1382V949.333H1478V938.667Z" fill="#898297"/>
<path d="M1478 906.667H1382V917.333H1478V906.667Z" fill="#898297"/>
<path d="M1478 874.667H1382V885.333H1478V874.667Z" fill="#898297"/>
<path d="M1891.33 1107V1128.33H1816.67V1107H1891.33ZM1896.67 1096.33H1811.33C1808.4 1096.33 1806 1098.73 1806 1101.67V1133.67C1806 1136.6 1808.4 1139 1811.33 1139H1896.67C1899.6 1139 1902 1136.6 1902 1133.67V1101.67C1902 1098.73 1899.6 1096.33 1896.67 1096.33ZM1827.33 1125.67C1822.96 1125.67 1819.33 1122.09 1819.33 1117.67C1819.33 1113.24 1822.96 1109.67 1827.33 1109.67C1831.71 1109.67 1835.33 1113.24 1835.33 1117.67C1835.33 1122.09 1831.76 1125.67 1827.33 1125.67ZM1891.33 1053.67V1075H1816.67V1053.67H1891.33ZM1896.67 1043H1811.33C1808.4 1043 1806 1045.4 1806 1048.33V1080.33C1806 1083.27 1808.4 1085.67 1811.33 1085.67H1896.67C1899.6 1085.67 1902 1083.27 1902 1080.33V1048.33C1902 1045.4 1899.6 1043 1896.67 1043ZM1827.33 1072.33C1822.96 1072.33 1819.33 1068.76 1819.33 1064.33C1819.33 1059.91 1822.96 1056.33 1827.33 1056.33C1831.71 1056.33 1835.33 1059.96 1835.33 1064.33C1835.33 1068.71 1831.76 1072.33 1827.33 1072.33Z" fill="#898297"/>
<path d="M2453.19 0L1893 1208.48" stroke="#898297" stroke-width="18" stroke-linecap="round"/>
<path d="M2473.19 0L1913 1208.48" stroke="#898297" stroke-width="18" stroke-linecap="round"/>
<path d="M2493.19 0L1933 1208.48" stroke="#898297" stroke-width="18" stroke-linecap="round"/>
</g>
<defs>
<clipPath id="clip0_9_1795">
<rect width="2169" height="1208" fill="white"/>
</clipPath>
</defs>
</svg>
