<svg width="2169" height="1208" viewBox="0 0 2169 1208" fill="none" xmlns="http://www.w3.org/2000/svg">
<g opacity="0.9" clip-path="url(#clip0_9_1795)">
<rect width="2169" height="1208" fill="#5B5569"/>
<path d="M573.187 0L13 1208.48" stroke="#898297" stroke-width="18" stroke-linecap="round"/>
<path d="M311.315 0L14 641.446" stroke="#898297" stroke-width="1.5" stroke-linecap="round"/>
<path d="M314.631 0L17.3155 641.446" stroke="#898297" stroke-width="1.5" stroke-linecap="round"/>
<path d="M317.946 0L20.6309 641.446" stroke="#898297" stroke-width="1.5" stroke-linecap="round"/>
<path d="M321.262 0L23.9463 641.446" stroke="#898297" stroke-width="1.5" stroke-linecap="round"/>
<path d="M324.577 0L27.2615 641.446" stroke="#898297" stroke-width="1.5" stroke-linecap="round"/>
<path d="M327.892 0L30.5769 641.446" stroke="#898297" stroke-width="1.5" stroke-linecap="round"/>
<path d="M331.208 0L33.8924 641.446" stroke="#898297" stroke-width="1.5" stroke-linecap="round"/>
<path d="M334.523 0L37.2078 641.446" stroke="#898297" stroke-width="1.5" stroke-linecap="round"/>
<path d="M337.839 0L40.5232 641.446" stroke="#898297" stroke-width="1.5" stroke-linecap="round"/>
<path d="M341.154 0L43.8387 641.446" stroke="#898297" stroke-width="1.5" stroke-linecap="round"/>
<path d="M344.469 0L47.1541 641.446" stroke="#898297" stroke-width="1.5" stroke-linecap="round"/>
<path d="M347.785 0L50.4693 641.446" stroke="#898297" stroke-width="1.5" stroke-linecap="round"/>
<path d="M351.1 0L53.7847 641.446" stroke="#898297" stroke-width="1.5" stroke-linecap="round"/>
<path d="M354.416 0L57.1001 641.446" stroke="#898297" stroke-width="1.5" stroke-linecap="round"/>
<path d="M357.731 0L60.4156 641.446" stroke="#898297" stroke-width="1.5" stroke-linecap="round"/>
<path d="M361.046 0L63.731 641.446" stroke="#898297" stroke-width="1.5" stroke-linecap="round"/>
<path d="M364.362 0L67.0464 641.446" stroke="#898297" stroke-width="1.5" stroke-linecap="round"/>
<path d="M367.677 0L70.3619 641.446" stroke="#898297" stroke-width="1.5" stroke-linecap="round"/>
<path d="M370.993 0L73.6773 641.446" stroke="#898297" stroke-width="1.5" stroke-linecap="round"/>
<path d="M374.308 0L76.9927 641.446" stroke="#898297" stroke-width="1.5" stroke-linecap="round"/>
<path d="M377.624 0L80.3081 641.446" stroke="#898297" stroke-width="1.5" stroke-linecap="round"/>
<path d="M380.939 0L83.6236 641.446" stroke="#898297" stroke-width="1.5" stroke-linecap="round"/>
<path d="M384.254 0L86.939 641.446" stroke="#898297" stroke-width="1.5" stroke-linecap="round"/>
<path d="M387.569 0L90.2539 641.446" stroke="#898297" stroke-width="1.5" stroke-linecap="round"/>
<path d="M390.885 0L93.5694 641.446" stroke="#898297" stroke-width="1.5" stroke-linecap="round"/>
<path d="M394.2 0L96.8848 641.446" stroke="#898297" stroke-width="1.5" stroke-linecap="round"/>
<path d="M397.516 0L100.2 641.446" stroke="#898297" stroke-width="1.5" stroke-linecap="round"/>
<path d="M400.831 0L103.516 641.446" stroke="#898297" stroke-width="1.5" stroke-linecap="round"/>
<path d="M404.146 0L106.831 641.446" stroke="#898297" stroke-width="1.5" stroke-linecap="round"/>
<path d="M407.462 0L110.147 641.446" stroke="#898297" stroke-width="1.5" stroke-linecap="round"/>
<path d="M410.777 0L113.462 641.446" stroke="#898297" stroke-width="1.5" stroke-linecap="round"/>
<path d="M414.093 0L116.777 641.446" stroke="#898297" stroke-width="1.5" stroke-linecap="round"/>
<path d="M417.408 0L120.093 641.446" stroke="#898297" stroke-width="1.5" stroke-linecap="round"/>
<path d="M420.724 0L123.408 641.446" stroke="#898297" stroke-width="1.5" stroke-linecap="round"/>
<path d="M424.039 0L126.724 641.446" stroke="#898297" stroke-width="1.5" stroke-linecap="round"/>
<path d="M427.354 0L130.039 641.446" stroke="#898297" stroke-width="1.5" stroke-linecap="round"/>
<path d="M430.67 0L133.355 641.446" stroke="#898297" stroke-width="1.5" stroke-linecap="round"/>
<path d="M433.985 0L136.67 641.446" stroke="#898297" stroke-width="1.5" stroke-linecap="round"/>
<path d="M437.301 0L139.985 641.446" stroke="#898297" stroke-width="1.5" stroke-linecap="round"/>
<path d="M440.616 0L143.301 641.446" stroke="#898297" stroke-width="1.5" stroke-linecap="round"/>
<path d="M443.931 0L146.616 641.446" stroke="#898297" stroke-width="1.5" stroke-linecap="round"/>
<path d="M447.247 0L149.931 641.446" stroke="#898297" stroke-width="1.5" stroke-linecap="round"/>
<path d="M450.562 0L153.247 641.446" stroke="#898297" stroke-width="1.5" stroke-linecap="round"/>
<path d="M453.877 0L156.562 641.446" stroke="#898297" stroke-width="1.5" stroke-linecap="round"/>
<path d="M457.193 0L159.877 641.446" stroke="#898297" stroke-width="1.5" stroke-linecap="round"/>
<path d="M460.508 0L163.193 641.446" stroke="#898297" stroke-width="1.5" stroke-linecap="round"/>
<path d="M463.824 0L166.508 641.446" stroke="#898297" stroke-width="1.5" stroke-linecap="round"/>
<path d="M467.139 0L169.824 641.446" stroke="#898297" stroke-width="1.5" stroke-linecap="round"/>
<path d="M470.455 0L173.139 641.446" stroke="#898297" stroke-width="1.5" stroke-linecap="round"/>
<path d="M473.77 0L176.455 641.446" stroke="#898297" stroke-width="1.5" stroke-linecap="round"/>
<path d="M477.085 0L179.77 641.446" stroke="#898297" stroke-width="1.5" stroke-linecap="round"/>
<path d="M480.401 0L183.085 641.446" stroke="#898297" stroke-width="1.5" stroke-linecap="round"/>
<path d="M483.716 0L186.401 641.446" stroke="#898297" stroke-width="1.5" stroke-linecap="round"/>
<path d="M487.032 0L189.716 641.446" stroke="#898297" stroke-width="1.5" stroke-linecap="round"/>
<path d="M490.347 0L193.032 641.446" stroke="#898297" stroke-width="1.5" stroke-linecap="round"/>
<path d="M493.662 0L196.347 641.446" stroke="#898297" stroke-width="1.5" stroke-linecap="round"/>
<path d="M496.978 0L199.662 641.446" stroke="#898297" stroke-width="1.5" stroke-linecap="round"/>
<path d="M500.293 0L202.978 641.446" stroke="#898297" stroke-width="1.5" stroke-linecap="round"/>
<path d="M503.608 0L206.293 641.446" stroke="#898297" stroke-width="1.5" stroke-linecap="round"/>
<path d="M506.924 0L209.608 641.446" stroke="#898297" stroke-width="1.5" stroke-linecap="round"/>
<path d="M949.27 -17L530 887.556" stroke="#A199B0" stroke-width="2" stroke-linecap="round"/>
<path d="M954.539 -17L535.269 887.556" stroke="#A199B0" stroke-width="2" stroke-linecap="round"/>
<path d="M959.808 -17L540.539 887.556" stroke="#A199B0" stroke-width="2" stroke-linecap="round"/>
<path d="M965.078 -17L545.808 887.556" stroke="#A199B0" stroke-width="2" stroke-linecap="round"/>
<path d="M970.347 -17L551.077 887.556" stroke="#A199B0" stroke-width="2" stroke-linecap="round"/>
<path d="M975.616 -17L556.347 887.556" stroke="#A199B0" stroke-width="2" stroke-linecap="round"/>
<path d="M980.886 -17L561.616 887.556" stroke="#A199B0" stroke-width="2" stroke-linecap="round"/>
<path d="M986.155 -17L566.886 887.556" stroke="#A199B0" stroke-width="2" stroke-linecap="round"/>
<path d="M991.424 -17L572.155 887.556" stroke="#A199B0" stroke-width="2" stroke-linecap="round"/>
<path d="M996.694 -17L577.424 887.556" stroke="#A199B0" stroke-width="2" stroke-linecap="round"/>
<path d="M1001.96 -17L582.694 887.556" stroke="#A199B0" stroke-width="2" stroke-linecap="round"/>
<path d="M1007.23 -17L587.963 887.556" stroke="#A199B0" stroke-width="2" stroke-linecap="round"/>
<path d="M1012.5 -17L593.233 887.556" stroke="#A199B0" stroke-width="2" stroke-linecap="round"/>
<path d="M1017.77 -17L598.502 887.556" stroke="#A199B0" stroke-width="2" stroke-linecap="round"/>
<path d="M1045.41 67L566 1101.3" stroke="#A199B0" stroke-width="2" stroke-linecap="round"/>
<path d="M1049.81 67L570.405 1101.3" stroke="#A199B0" stroke-width="2" stroke-linecap="round"/>
<path d="M1054.22 67L574.811 1101.3" stroke="#A199B0" stroke-width="2" stroke-linecap="round"/>
<path d="M1058.62 67L579.216 1101.3" stroke="#A199B0" stroke-width="2" stroke-linecap="round"/>
<path d="M1063.03 67L583.621 1101.3" stroke="#A199B0" stroke-width="2" stroke-linecap="round"/>
<path d="M1067.43 67L588.026 1101.3" stroke="#A199B0" stroke-width="2" stroke-linecap="round"/>
<path d="M1071.84 67L592.432 1101.3" stroke="#A199B0" stroke-width="2" stroke-linecap="round"/>
<path d="M1076.24 67L596.837 1101.3" stroke="#A199B0" stroke-width="2" stroke-linecap="round"/>
<path d="M1080.65 67L601.243 1101.3" stroke="#A199B0" stroke-width="2" stroke-linecap="round"/>
<path d="M1085.05 67L605.648 1101.3" stroke="#A199B0" stroke-width="2" stroke-linecap="round"/>
<path d="M1089.46 67L610.053 1101.3" stroke="#A199B0" stroke-width="2" stroke-linecap="round"/>
<path d="M1093.86 67L614.458 1101.3" stroke="#A199B0" stroke-width="2" stroke-linecap="round"/>
<path d="M1127.41 67L648 1101.3" stroke="#A199B0" stroke-width="2" stroke-linecap="round"/>
<path d="M1131.81 67L652.405 1101.3" stroke="#A199B0" stroke-width="2" stroke-linecap="round"/>
<path d="M1136.22 67L656.811 1101.3" stroke="#A199B0" stroke-width="2" stroke-linecap="round"/>
<path d="M1140.62 67L661.216 1101.3" stroke="#A199B0" stroke-width="2" stroke-linecap="round"/>
<path d="M1145.03 67L665.621 1101.3" stroke="#A199B0" stroke-width="2" stroke-linecap="round"/>
<path d="M1149.43 67L670.026 1101.3" stroke="#A199B0" stroke-width="2" stroke-linecap="round"/>
<path d="M1153.84 67L674.432 1101.3" stroke="#A199B0" stroke-width="2" stroke-linecap="round"/>
<path d="M1158.24 67L678.837 1101.3" stroke="#A199B0" stroke-width="2" stroke-linecap="round"/>
<path d="M1162.65 67L683.243 1101.3" stroke="#A199B0" stroke-width="2" stroke-linecap="round"/>
<path d="M1167.05 67L687.648 1101.3" stroke="#A199B0" stroke-width="2" stroke-linecap="round"/>
<path d="M1171.46 67L692.053 1101.3" stroke="#A199B0" stroke-width="2" stroke-linecap="round"/>
<path d="M1175.86 67L696.458 1101.3" stroke="#A199B0" stroke-width="2" stroke-linecap="round"/>
<path d="M1142.24 0L572 1230.27" stroke="#A199B0" stroke-width="18" stroke-linecap="round"/>
<path d="M1241.98 0L718 1130.47" stroke="#423D4D" stroke-width="2" stroke-linecap="round"/>
<path d="M1246.96 0L722.981 1130.47" stroke="#423D4D" stroke-width="2" stroke-linecap="round"/>
<path d="M1251.94 0L727.963 1130.47" stroke="#423D4D" stroke-width="2" stroke-linecap="round"/>
<path d="M1256.93 0L732.945 1130.47" stroke="#423D4D" stroke-width="2" stroke-linecap="round"/>
<path d="M1261.91 0L737.926 1130.47" stroke="#423D4D" stroke-width="2" stroke-linecap="round"/>
<path d="M1266.89 0L742.908 1130.47" stroke="#423D4D" stroke-width="2" stroke-linecap="round"/>
<path d="M1271.87 0L747.889 1130.47" stroke="#423D4D" stroke-width="2" stroke-linecap="round"/>
<path d="M1276.85 0L752.871 1130.47" stroke="#423D4D" stroke-width="2" stroke-linecap="round"/>
<path d="M1281.83 0L757.852 1130.47" stroke="#423D4D" stroke-width="2" stroke-linecap="round"/>
<path d="M1286.82 0L762.834 1130.47" stroke="#423D4D" stroke-width="2" stroke-linecap="round"/>
<path d="M1291.8 0L767.816 1130.47" stroke="#423D4D" stroke-width="2" stroke-linecap="round"/>
<path d="M1296.78 0L772.797 1130.47" stroke="#423D4D" stroke-width="2" stroke-linecap="round"/>
<path d="M1301.76 0L777.779 1130.47" stroke="#423D4D" stroke-width="2" stroke-linecap="round"/>
<path d="M1306.74 0L782.761 1130.47" stroke="#423D4D" stroke-width="2" stroke-linecap="round"/>
<path d="M1311.72 0L787.742 1130.47" stroke="#423D4D" stroke-width="2" stroke-linecap="round"/>
<path d="M1316.71 0L792.723 1130.47" stroke="#423D4D" stroke-width="2" stroke-linecap="round"/>
<path d="M1321.69 0L797.705 1130.47" stroke="#423D4D" stroke-width="2" stroke-linecap="round"/>
<path d="M1326.67 0L802.686 1130.47" stroke="#423D4D" stroke-width="2" stroke-linecap="round"/>
<path d="M1331.65 0L807.668 1130.47" stroke="#423D4D" stroke-width="2" stroke-linecap="round"/>
<path d="M1336.63 0L812.65 1130.47" stroke="#423D4D" stroke-width="2" stroke-linecap="round"/>
<path d="M1341.61 0L817.631 1130.47" stroke="#423D4D" stroke-width="2" stroke-linecap="round"/>
<path d="M1346.59 0L822.613 1130.47" stroke="#423D4D" stroke-width="2" stroke-linecap="round"/>
<path d="M1351.58 0L827.595 1130.47" stroke="#423D4D" stroke-width="2" stroke-linecap="round"/>
<path d="M1356.56 0L832.576 1130.47" stroke="#423D4D" stroke-width="2" stroke-linecap="round"/>
<path d="M374.315 567L77 1208.45" stroke="#898297" stroke-width="1.5" stroke-linecap="round"/>
<path d="M377.631 567L80.3155 1208.45" stroke="#898297" stroke-width="1.5" stroke-linecap="round"/>
<path d="M380.946 567L83.6309 1208.45" stroke="#898297" stroke-width="1.5" stroke-linecap="round"/>
<path d="M384.262 567L86.9463 1208.45" stroke="#898297" stroke-width="1.5" stroke-linecap="round"/>
<path d="M387.577 567L90.2618 1208.45" stroke="#898297" stroke-width="1.5" stroke-linecap="round"/>
<path d="M390.893 567L93.5772 1208.45" stroke="#898297" stroke-width="1.5" stroke-linecap="round"/>
<path d="M394.208 567L96.8926 1208.45" stroke="#898297" stroke-width="1.5" stroke-linecap="round"/>
<path d="M397.523 567L100.208 1208.45" stroke="#898297" stroke-width="1.5" stroke-linecap="round"/>
<path d="M400.838 567L103.523 1208.45" stroke="#898297" stroke-width="1.5" stroke-linecap="round"/>
<path d="M404.154 567L106.838 1208.45" stroke="#898297" stroke-width="1.5" stroke-linecap="round"/>
<path d="M407.469 567L110.154 1208.45" stroke="#898297" stroke-width="1.5" stroke-linecap="round"/>
<path d="M410.785 567L113.469 1208.45" stroke="#898297" stroke-width="1.5" stroke-linecap="round"/>
<path d="M414.1 567L116.785 1208.45" stroke="#898297" stroke-width="1.5" stroke-linecap="round"/>
<path d="M417.416 567L120.1 1208.45" stroke="#898297" stroke-width="1.5" stroke-linecap="round"/>
<path d="M420.731 567L123.416 1208.45" stroke="#898297" stroke-width="1.5" stroke-linecap="round"/>
<path d="M424.046 567L126.731 1208.45" stroke="#898297" stroke-width="1.5" stroke-linecap="round"/>
<path d="M427.362 567L130.046 1208.45" stroke="#898297" stroke-width="1.5" stroke-linecap="round"/>
<path d="M430.677 567L133.362 1208.45" stroke="#898297" stroke-width="1.5" stroke-linecap="round"/>
<path d="M433.993 567L136.677 1208.45" stroke="#898297" stroke-width="1.5" stroke-linecap="round"/>
<path d="M437.308 567L139.993 1208.45" stroke="#898297" stroke-width="1.5" stroke-linecap="round"/>
<path d="M440.624 567L143.308 1208.45" stroke="#898297" stroke-width="1.5" stroke-linecap="round"/>
<path d="M443.939 567L146.624 1208.45" stroke="#898297" stroke-width="1.5" stroke-linecap="round"/>
<path d="M447.254 567L149.939 1208.45" stroke="#898297" stroke-width="1.5" stroke-linecap="round"/>
<path d="M450.569 567L153.254 1208.45" stroke="#898297" stroke-width="1.5" stroke-linecap="round"/>
<path d="M453.885 567L156.569 1208.45" stroke="#898297" stroke-width="1.5" stroke-linecap="round"/>
<path d="M457.2 567L159.885 1208.45" stroke="#898297" stroke-width="1.5" stroke-linecap="round"/>
<path d="M460.516 567L163.2 1208.45" stroke="#898297" stroke-width="1.5" stroke-linecap="round"/>
<path d="M463.831 567L166.516 1208.45" stroke="#898297" stroke-width="1.5" stroke-linecap="round"/>
<path d="M467.146 567L169.831 1208.45" stroke="#898297" stroke-width="1.5" stroke-linecap="round"/>
<path d="M470.462 567L173.147 1208.45" stroke="#898297" stroke-width="1.5" stroke-linecap="round"/>
<path d="M473.777 567L176.462 1208.45" stroke="#898297" stroke-width="1.5" stroke-linecap="round"/>
<path d="M477.093 567L179.777 1208.45" stroke="#898297" stroke-width="1.5" stroke-linecap="round"/>
<path d="M480.408 567L183.093 1208.45" stroke="#898297" stroke-width="1.5" stroke-linecap="round"/>
<path d="M483.724 567L186.408 1208.45" stroke="#898297" stroke-width="1.5" stroke-linecap="round"/>
<path d="M487.039 567L189.724 1208.45" stroke="#898297" stroke-width="1.5" stroke-linecap="round"/>
<path d="M490.354 567L193.039 1208.45" stroke="#898297" stroke-width="1.5" stroke-linecap="round"/>
<path d="M493.67 567L196.355 1208.45" stroke="#898297" stroke-width="1.5" stroke-linecap="round"/>
<path d="M496.985 567L199.67 1208.45" stroke="#898297" stroke-width="1.5" stroke-linecap="round"/>
<path d="M500.301 567L202.985 1208.45" stroke="#898297" stroke-width="1.5" stroke-linecap="round"/>
<path d="M503.616 567L206.301 1208.45" stroke="#898297" stroke-width="1.5" stroke-linecap="round"/>
<path d="M506.931 567L209.616 1208.45" stroke="#898297" stroke-width="1.5" stroke-linecap="round"/>
<path d="M510.247 567L212.931 1208.45" stroke="#898297" stroke-width="1.5" stroke-linecap="round"/>
<path d="M513.562 567L216.247 1208.45" stroke="#898297" stroke-width="1.5" stroke-linecap="round"/>
<path d="M516.877 567L219.562 1208.45" stroke="#898297" stroke-width="1.5" stroke-linecap="round"/>
<path d="M520.193 567L222.877 1208.45" stroke="#898297" stroke-width="1.5" stroke-linecap="round"/>
<path d="M523.508 567L226.193 1208.45" stroke="#898297" stroke-width="1.5" stroke-linecap="round"/>
<path d="M526.824 567L229.508 1208.45" stroke="#898297" stroke-width="1.5" stroke-linecap="round"/>
<path d="M530.139 567L232.824 1208.45" stroke="#898297" stroke-width="1.5" stroke-linecap="round"/>
<path d="M533.455 567L236.139 1208.45" stroke="#898297" stroke-width="1.5" stroke-linecap="round"/>
<path d="M536.77 567L239.455 1208.45" stroke="#898297" stroke-width="1.5" stroke-linecap="round"/>
<path d="M540.085 567L242.77 1208.45" stroke="#898297" stroke-width="1.5" stroke-linecap="round"/>
<path d="M543.401 567L246.085 1208.45" stroke="#898297" stroke-width="1.5" stroke-linecap="round"/>
<path d="M546.716 567L249.401 1208.45" stroke="#898297" stroke-width="1.5" stroke-linecap="round"/>
<path d="M550.032 567L252.716 1208.45" stroke="#898297" stroke-width="1.5" stroke-linecap="round"/>
<path d="M553.347 567L256.032 1208.45" stroke="#898297" stroke-width="1.5" stroke-linecap="round"/>
<path d="M556.662 567L259.347 1208.45" stroke="#898297" stroke-width="1.5" stroke-linecap="round"/>
<path d="M559.978 567L262.662 1208.45" stroke="#898297" stroke-width="1.5" stroke-linecap="round"/>
<path d="M563.293 567L265.978 1208.45" stroke="#898297" stroke-width="1.5" stroke-linecap="round"/>
<path d="M566.608 567L269.293 1208.45" stroke="#898297" stroke-width="1.5" stroke-linecap="round"/>
<path d="M569.924 567L272.608 1208.45" stroke="#898297" stroke-width="1.5" stroke-linecap="round"/>
<path d="M1501.82 0L932 1229.36" stroke="#898297" stroke-width="12" stroke-linecap="round"/>
<path d="M1483.82 0L914 1229.36" stroke="#464052" stroke-width="24" stroke-linecap="round"/>
<path d="M1566.82 0L997 1229.36" stroke="#7E788B" stroke-width="30" stroke-linecap="round"/>
<path d="M1529.82 0L960 1229.36" stroke="#464052" stroke-width="34" stroke-linecap="round"/>
<path d="M1956.51 0L1393 1215.75" stroke="#B0A7C0" stroke-width="4" stroke-linecap="round"/>
<path d="M1963.02 0L1399.51 1215.75" stroke="#B0A7C0" stroke-width="4" stroke-linecap="round"/>
<path d="M1969.53 0L1406.02 1215.75" stroke="#B0A7C0" stroke-width="4" stroke-linecap="round"/>
<path d="M1976.05 0L1412.53 1215.75" stroke="#B0A7C0" stroke-width="4" stroke-linecap="round"/>
<path d="M1982.56 0L1419.05 1215.75" stroke="#B0A7C0" stroke-width="4" stroke-linecap="round"/>
<path d="M1989.07 0L1425.56 1215.75" stroke="#B0A7C0" stroke-width="4" stroke-linecap="round"/>
<path d="M1995.58 0L1432.07 1215.75" stroke="#B0A7C0" stroke-width="4" stroke-linecap="round"/>
<path d="M2002.09 0L1438.58 1215.75" stroke="#B0A7C0" stroke-width="4" stroke-linecap="round"/>
<path d="M2008.6 0L1445.09 1215.75" stroke="#B0A7C0" stroke-width="4" stroke-linecap="round"/>
<path d="M2022.51 0L1459 1215.75" stroke="#898297" stroke-width="4" stroke-linecap="round"/>
<path d="M2029.02 0L1465.51 1215.75" stroke="#898297" stroke-width="4" stroke-linecap="round"/>
<path d="M2035.53 0L1472.02 1215.75" stroke="#898297" stroke-width="4" stroke-linecap="round"/>
<path d="M2042.05 0L1478.53 1215.75" stroke="#898297" stroke-width="4" stroke-linecap="round"/>
<path d="M2048.56 0L1485.05 1215.75" stroke="#898297" stroke-width="4" stroke-linecap="round"/>
<path d="M2055.07 0L1491.56 1215.75" stroke="#898297" stroke-width="4" stroke-linecap="round"/>
<path d="M2072.51 0L1509 1215.75" stroke="#B0A7C0" stroke-width="4" stroke-linecap="round"/>
<path d="M2079.02 0L1515.51 1215.75" stroke="#B0A7C0" stroke-width="4" stroke-linecap="round"/>
<path d="M2085.53 0L1522.02 1215.75" stroke="#B0A7C0" stroke-width="4" stroke-linecap="round"/>
<path d="M2092.05 0L1528.53 1215.75" stroke="#B0A7C0" stroke-width="4" stroke-linecap="round"/>
<path d="M2098.56 0L1535.05 1215.75" stroke="#B0A7C0" stroke-width="4" stroke-linecap="round"/>
<path d="M2105.07 0L1541.56 1215.75" stroke="#B0A7C0" stroke-width="4" stroke-linecap="round"/>
<path d="M2122.51 0L1559 1215.75" stroke="#A199B0" stroke-width="4" stroke-linecap="round"/>
<path d="M2129.02 0L1565.51 1215.75" stroke="#A199B0" stroke-width="4" stroke-linecap="round"/>
<path d="M2135.53 0L1572.02 1215.75" stroke="#A199B0" stroke-width="4" stroke-linecap="round"/>
<path d="M2142.05 0L1578.53 1215.75" stroke="#A199B0" stroke-width="4" stroke-linecap="round"/>
<path d="M2148.56 0L1585.05 1215.75" stroke="#A199B0" stroke-width="4" stroke-linecap="round"/>
<path d="M2155.07 0L1591.56 1215.75" stroke="#A199B0" stroke-width="4" stroke-linecap="round"/>
<path d="M2161.58 0L1598.07 1215.75" stroke="#A199B0" stroke-width="4" stroke-linecap="round"/>
<path d="M2168.09 0L1604.58 1215.75" stroke="#A199B0" stroke-width="4" stroke-linecap="round"/>
<path d="M2174.6 0L1611.09 1215.75" stroke="#A199B0" stroke-width="4" stroke-linecap="round"/>
</g>
<defs>
<clipPath id="clip0_9_1795">
<rect width="2169" height="1208" fill="white"/>
</clipPath>
</defs>
</svg>
