<svg width="2169" height="1983" viewBox="0 0 2169 1983" fill="none" xmlns="http://www.w3.org/2000/svg">
<g opacity="0.9" clip-path="url(#clip0_9_1893)">
<rect width="2169" height="1983" fill="#986977"/>
<path d="M353.959 0L-358 1536.02" stroke="#492532" stroke-width="1.5" stroke-linecap="round"/>
<path d="M359.918 0L-352.041 1536.02" stroke="#492532" stroke-width="1.5" stroke-linecap="round"/>
<path d="M365.877 0L-346.082 1536.02" stroke="#492532" stroke-width="1.5" stroke-linecap="round"/>
<path d="M371.836 0L-340.123 1536.02" stroke="#492532" stroke-width="1.5" stroke-linecap="round"/>
<path d="M377.794 0L-334.165 1536.02" stroke="#492532" stroke-width="1.5" stroke-linecap="round"/>
<path d="M383.753 0L-328.206 1536.02" stroke="#492532" stroke-width="1.5" stroke-linecap="round"/>
<path d="M389.712 0L-322.247 1536.02" stroke="#492532" stroke-width="1.5" stroke-linecap="round"/>
<path d="M395.671 0L-316.288 1536.02" stroke="#492532" stroke-width="1.5" stroke-linecap="round"/>
<path d="M401.63 0L-310.329 1536.02" stroke="#492532" stroke-width="1.5" stroke-linecap="round"/>
<path d="M407.589 0L-304.37 1536.02" stroke="#492532" stroke-width="1.5" stroke-linecap="round"/>
<path d="M413.548 0L-298.411 1536.02" stroke="#492532" stroke-width="1.5" stroke-linecap="round"/>
<path d="M419.507 0L-292.452 1536.02" stroke="#492532" stroke-width="1.5" stroke-linecap="round"/>
<path d="M425.466 0L-286.493 1536.02" stroke="#492532" stroke-width="1.5" stroke-linecap="round"/>
<path d="M431.425 0L-280.534 1536.02" stroke="#492532" stroke-width="1.5" stroke-linecap="round"/>
<path d="M437.384 0L-274.575 1536.02" stroke="#492532" stroke-width="1.5" stroke-linecap="round"/>
<path d="M443.343 0L-268.616 1536.02" stroke="#492532" stroke-width="1.5" stroke-linecap="round"/>
<path d="M449.302 0L-262.657 1536.02" stroke="#492532" stroke-width="1.5" stroke-linecap="round"/>
<path d="M455.261 0L-256.698 1536.02" stroke="#492532" stroke-width="1.5" stroke-linecap="round"/>
<path d="M461.22 0L-250.739 1536.02" stroke="#492532" stroke-width="1.5" stroke-linecap="round"/>
<path d="M467.179 0L-244.78 1536.02" stroke="#492532" stroke-width="1.5" stroke-linecap="round"/>
<path d="M473.137 0L-238.822 1536.02" stroke="#492532" stroke-width="1.5" stroke-linecap="round"/>
<path d="M479.096 0L-232.863 1536.02" stroke="#492532" stroke-width="1.5" stroke-linecap="round"/>
<path d="M485.055 0L-226.904 1536.02" stroke="#492532" stroke-width="1.5" stroke-linecap="round"/>
<path d="M491.014 0L-220.945 1536.02" stroke="#492532" stroke-width="1.5" stroke-linecap="round"/>
<path d="M496.973 0L-214.986 1536.02" stroke="#492532" stroke-width="1.5" stroke-linecap="round"/>
<path d="M502.932 0L-209.027 1536.02" stroke="#492532" stroke-width="1.5" stroke-linecap="round"/>
<path d="M508.891 0L-203.068 1536.02" stroke="#492532" stroke-width="1.5" stroke-linecap="round"/>
<path d="M514.85 0L-197.109 1536.02" stroke="#492532" stroke-width="1.5" stroke-linecap="round"/>
<path d="M520.809 0L-191.15 1536.02" stroke="#492532" stroke-width="1.5" stroke-linecap="round"/>
<path d="M526.768 0L-185.191 1536.02" stroke="#492532" stroke-width="1.5" stroke-linecap="round"/>
<path d="M532.727 0L-179.232 1536.02" stroke="#492532" stroke-width="1.5" stroke-linecap="round"/>
<path d="M538.686 0L-173.273 1536.02" stroke="#492532" stroke-width="1.5" stroke-linecap="round"/>
<path d="M544.645 0L-167.314 1536.02" stroke="#492532" stroke-width="1.5" stroke-linecap="round"/>
<path d="M550.604 0L-161.355 1536.02" stroke="#492532" stroke-width="1.5" stroke-linecap="round"/>
<path d="M556.562 0L-155.396 1536.02" stroke="#492532" stroke-width="1.5" stroke-linecap="round"/>
<path d="M562.521 0L-149.437 1536.02" stroke="#492532" stroke-width="1.5" stroke-linecap="round"/>
<path d="M568.48 0L-143.479 1536.02" stroke="#492532" stroke-width="1.5" stroke-linecap="round"/>
<path d="M574.439 0L-137.52 1536.02" stroke="#492532" stroke-width="1.5" stroke-linecap="round"/>
<path d="M580.398 0L-131.561 1536.02" stroke="#492532" stroke-width="1.5" stroke-linecap="round"/>
<path d="M586.357 0L-125.602 1536.02" stroke="#492532" stroke-width="1.5" stroke-linecap="round"/>
<path d="M592.316 0L-119.643 1536.02" stroke="#492532" stroke-width="1.5" stroke-linecap="round"/>
<path d="M598.275 0L-113.684 1536.02" stroke="#492532" stroke-width="1.5" stroke-linecap="round"/>
<path d="M604.234 0L-107.725 1536.02" stroke="#492532" stroke-width="1.5" stroke-linecap="round"/>
<path d="M610.192 0L-101.767 1536.02" stroke="#492532" stroke-width="1.5" stroke-linecap="round"/>
<path d="M616.055 -1L-188 1733.72" stroke="#633B48" stroke-width="1.5" stroke-linecap="round"/>
<path d="M622.11 -1L-181.945 1733.72" stroke="#633B48" stroke-width="1.5" stroke-linecap="round"/>
<path d="M628.166 -1L-175.89 1733.72" stroke="#633B48" stroke-width="1.5" stroke-linecap="round"/>
<path d="M634.221 -1L-169.835 1733.72" stroke="#633B48" stroke-width="1.5" stroke-linecap="round"/>
<path d="M640.276 -1L-163.779 1733.72" stroke="#633B48" stroke-width="1.5" stroke-linecap="round"/>
<path d="M646.332 -1L-157.724 1733.72" stroke="#633B48" stroke-width="1.5" stroke-linecap="round"/>
<path d="M652.387 -1L-151.669 1733.72" stroke="#633B48" stroke-width="1.5" stroke-linecap="round"/>
<path d="M658.442 -1L-145.613 1733.72" stroke="#633B48" stroke-width="1.5" stroke-linecap="round"/>
<path d="M664.497 -1L-139.558 1733.72" stroke="#633B48" stroke-width="1.5" stroke-linecap="round"/>
<path d="M670.552 -1L-133.503 1733.72" stroke="#633B48" stroke-width="1.5" stroke-linecap="round"/>
<path d="M676.607 -1L-127.448 1733.72" stroke="#633B48" stroke-width="1.5" stroke-linecap="round"/>
<path d="M682.663 -1L-121.392 1733.72" stroke="#633B48" stroke-width="1.5" stroke-linecap="round"/>
<path d="M688.718 -1L-115.337 1733.72" stroke="#633B48" stroke-width="1.5" stroke-linecap="round"/>
<path d="M694.773 -1L-109.282 1733.72" stroke="#633B48" stroke-width="1.5" stroke-linecap="round"/>
<path d="M700.829 -1L-103.227 1733.72" stroke="#633B48" stroke-width="1.5" stroke-linecap="round"/>
<path d="M706.884 -1L-97.1714 1733.72" stroke="#633B48" stroke-width="1.5" stroke-linecap="round"/>
<path d="M712.939 -1L-91.1163 1733.72" stroke="#633B48" stroke-width="1.5" stroke-linecap="round"/>
<path d="M718.994 -1L-85.0611 1733.72" stroke="#633B48" stroke-width="1.5" stroke-linecap="round"/>
<path d="M725.049 -1L-79.0059 1733.72" stroke="#633B48" stroke-width="1.5" stroke-linecap="round"/>
<path d="M731.104 -1L-72.9507 1733.72" stroke="#633B48" stroke-width="1.5" stroke-linecap="round"/>
<path d="M737.16 -1L-66.8951 1733.72" stroke="#633B48" stroke-width="1.5" stroke-linecap="round"/>
<path d="M743.215 -1L-60.8399 1733.72" stroke="#633B48" stroke-width="1.5" stroke-linecap="round"/>
<path d="M749.271 -1L-54.7847 1733.72" stroke="#633B48" stroke-width="1.5" stroke-linecap="round"/>
<path d="M755.326 -1L-48.7295 1733.72" stroke="#633B48" stroke-width="1.5" stroke-linecap="round"/>
<path d="M761.381 -1L-42.6744 1733.72" stroke="#633B48" stroke-width="1.5" stroke-linecap="round"/>
<path d="M767.436 -1L-36.6192 1733.72" stroke="#633B48" stroke-width="1.5" stroke-linecap="round"/>
<path d="M773.491 -1L-30.564 1733.72" stroke="#633B48" stroke-width="1.5" stroke-linecap="round"/>
<path d="M779.547 -1L-24.5084 1733.72" stroke="#633B48" stroke-width="1.5" stroke-linecap="round"/>
<path d="M785.602 -1L-18.4532 1733.72" stroke="#633B48" stroke-width="1.5" stroke-linecap="round"/>
<path d="M791.657 -1L-12.398 1733.72" stroke="#633B48" stroke-width="1.5" stroke-linecap="round"/>
<path d="M797.712 -1L-6.34282 1733.72" stroke="#633B48" stroke-width="1.5" stroke-linecap="round"/>
<path d="M803.768 -1L-0.287647 1733.72" stroke="#633B48" stroke-width="1.5" stroke-linecap="round"/>
<path d="M809.522 0L-127 2020.51" stroke="#7D5260" stroke-width="1.5" stroke-linecap="round"/>
<path d="M818.045 0L-118.478 2020.51" stroke="#7D5260" stroke-width="1.5" stroke-linecap="round"/>
<path d="M826.567 0L-109.955 2020.51" stroke="#7D5260" stroke-width="1.5" stroke-linecap="round"/>
<path d="M835.09 0L-101.433 2020.51" stroke="#7D5260" stroke-width="1.5" stroke-linecap="round"/>
<path d="M843.612 0L-92.9102 2020.51" stroke="#7D5260" stroke-width="1.5" stroke-linecap="round"/>
<path d="M852.135 0L-84.3877 2020.51" stroke="#7D5260" stroke-width="1.5" stroke-linecap="round"/>
<path d="M860.657 0L-75.8653 2020.51" stroke="#7D5260" stroke-width="1.5" stroke-linecap="round"/>
<path d="M869.18 0L-67.3428 2020.51" stroke="#7D5260" stroke-width="1.5" stroke-linecap="round"/>
<path d="M877.702 0L-58.8203 2020.51" stroke="#7D5260" stroke-width="1.5" stroke-linecap="round"/>
<path d="M886.225 0L-50.2979 2020.51" stroke="#7D5260" stroke-width="1.5" stroke-linecap="round"/>
<path d="M894.747 0L-41.7754 2020.51" stroke="#7D5260" stroke-width="1.5" stroke-linecap="round"/>
<path d="M903.27 0L-33.253 2020.51" stroke="#7D5260" stroke-width="1.5" stroke-linecap="round"/>
<path d="M911.792 0L-24.7305 2020.51" stroke="#7D5260" stroke-width="1.5" stroke-linecap="round"/>
<path d="M920.314 0L-16.208 2020.51" stroke="#7D5260" stroke-width="1.5" stroke-linecap="round"/>
<path d="M928.837 0L-7.68557 2020.51" stroke="#7D5260" stroke-width="1.5" stroke-linecap="round"/>
<path d="M937.359 0L0.836887 2020.51" stroke="#7D5260" stroke-width="1.5" stroke-linecap="round"/>
<path d="M945.882 0L9.35935 2020.51" stroke="#7D5260" stroke-width="1.5" stroke-linecap="round"/>
<path d="M954.404 0L17.8818 2020.51" stroke="#7D5260" stroke-width="1.5" stroke-linecap="round"/>
<path d="M962.927 0L26.4043 2020.51" stroke="#7D5260" stroke-width="1.5" stroke-linecap="round"/>
<path d="M971.449 0L34.9267 2020.51" stroke="#7D5260" stroke-width="1.5" stroke-linecap="round"/>
<path d="M979.972 0L43.4492 2020.51" stroke="#7D5260" stroke-width="1.5" stroke-linecap="round"/>
<path d="M988.494 0L51.9717 2020.51" stroke="#7D5260" stroke-width="1.5" stroke-linecap="round"/>
<path d="M2677.9 2L1465 2618.55" stroke="#D29DAC" stroke-width="4" stroke-linecap="round"/>
<path d="M2693.79 2L1480.9 2618.55" stroke="#D29DAC" stroke-width="4" stroke-linecap="round"/>
<path d="M2709.69 2L1496.79 2618.55" stroke="#D29DAC" stroke-width="4" stroke-linecap="round"/>
<path d="M2725.59 2L1512.69 2618.55" stroke="#D29DAC" stroke-width="4" stroke-linecap="round"/>
<path d="M2741.49 2L1528.59 2618.55" stroke="#D29DAC" stroke-width="4" stroke-linecap="round"/>
<path d="M2757.38 2L1544.49 2618.55" stroke="#D29DAC" stroke-width="4" stroke-linecap="round"/>
<path d="M2773.28 2L1560.38 2618.55" stroke="#D29DAC" stroke-width="4" stroke-linecap="round"/>
<path d="M2789.18 2L1576.28 2618.55" stroke="#D29DAC" stroke-width="4" stroke-linecap="round"/>
<path d="M2805.08 2L1592.18 2618.55" stroke="#D29DAC" stroke-width="4" stroke-linecap="round"/>
<path d="M2820.97 2L1608.08 2618.55" stroke="#D29DAC" stroke-width="4" stroke-linecap="round"/>
<path d="M2836.87 2L1623.97 2618.55" stroke="#D29DAC" stroke-width="4" stroke-linecap="round"/>
<path d="M2843.9 12L1631 2628.55" stroke="#FFD8E4" stroke-width="4" stroke-linecap="round"/>
<path d="M2859.79 12L1646.9 2628.55" stroke="#FFD8E4" stroke-width="4" stroke-linecap="round"/>
<path d="M2875.69 12L1662.79 2628.55" stroke="#FFD8E4" stroke-width="4" stroke-linecap="round"/>
<path d="M2891.59 12L1678.69 2628.55" stroke="#FFD8E4" stroke-width="4" stroke-linecap="round"/>
<path d="M2907.49 12L1694.59 2628.55" stroke="#FFD8E4" stroke-width="4" stroke-linecap="round"/>
<path d="M2449.9 12L1237 2628.55" stroke="#B58392" stroke-width="4" stroke-linecap="round"/>
<path d="M2465.79 12L1252.9 2628.55" stroke="#B58392" stroke-width="4" stroke-linecap="round"/>
<path d="M2481.69 12L1268.79 2628.55" stroke="#B58392" stroke-width="4" stroke-linecap="round"/>
<path d="M2497.59 12L1284.69 2628.55" stroke="#B58392" stroke-width="4" stroke-linecap="round"/>
<path d="M2513.49 12L1300.59 2628.55" stroke="#B58392" stroke-width="4" stroke-linecap="round"/>
<path d="M2529.38 12L1316.49 2628.55" stroke="#B58392" stroke-width="4" stroke-linecap="round"/>
<path d="M2545.28 12L1332.38 2628.55" stroke="#B58392" stroke-width="4" stroke-linecap="round"/>
<path d="M2561.18 12L1348.28 2628.55" stroke="#B58392" stroke-width="4" stroke-linecap="round"/>
<path d="M2577.08 12L1364.18 2628.55" stroke="#B58392" stroke-width="4" stroke-linecap="round"/>
<path d="M2592.97 12L1380.08 2628.55" stroke="#B58392" stroke-width="4" stroke-linecap="round"/>
<path d="M2608.87 12L1395.97 2628.55" stroke="#B58392" stroke-width="4" stroke-linecap="round"/>
<path d="M2624.77 12L1411.87 2628.55" stroke="#B58392" stroke-width="4" stroke-linecap="round"/>
<path d="M2640.67 12L1427.77 2628.55" stroke="#B58392" stroke-width="4" stroke-linecap="round"/>
<path d="M2656.56 12L1443.67 2628.55" stroke="#B58392" stroke-width="4" stroke-linecap="round"/>
<path d="M2375.9 2L1163 2618.55" stroke="#FFD8E4" stroke-width="4" stroke-linecap="round"/>
<path d="M2391.79 2L1178.9 2618.55" stroke="#FFD8E4" stroke-width="4" stroke-linecap="round"/>
<path d="M2407.69 2L1194.79 2618.55" stroke="#FFD8E4" stroke-width="4" stroke-linecap="round"/>
<path d="M2423.59 2L1210.69 2618.55" stroke="#FFD8E4" stroke-width="4" stroke-linecap="round"/>
<path d="M2439.49 2L1226.59 2618.55" stroke="#FFD8E4" stroke-width="4" stroke-linecap="round"/>
<path d="M1929.9 2L717 2618.55" stroke="#B58392" stroke-width="4" stroke-linecap="round"/>
<path d="M1945.79 2L732.898 2618.55" stroke="#B58392" stroke-width="4" stroke-linecap="round"/>
<path d="M1961.69 2L748.795 2618.55" stroke="#B58392" stroke-width="4" stroke-linecap="round"/>
<path d="M1977.59 2L764.692 2618.55" stroke="#B58392" stroke-width="4" stroke-linecap="round"/>
<path d="M1993.49 2L780.59 2618.55" stroke="#B58392" stroke-width="4" stroke-linecap="round"/>
<path d="M2009.38 2L796.487 2618.55" stroke="#B58392" stroke-width="4" stroke-linecap="round"/>
<path d="M2025.28 2L812.385 2618.55" stroke="#B58392" stroke-width="4" stroke-linecap="round"/>
<path d="M2041.18 2L828.282 2618.55" stroke="#B58392" stroke-width="4" stroke-linecap="round"/>
<path d="M2057.08 2L844.18 2618.55" stroke="#B58392" stroke-width="4" stroke-linecap="round"/>
<path d="M2072.97 2L860.077 2618.55" stroke="#B58392" stroke-width="4" stroke-linecap="round"/>
<path d="M2088.87 2L875.975 2618.55" stroke="#B58392" stroke-width="4" stroke-linecap="round"/>
<path d="M2104.77 2L891.872 2618.55" stroke="#B58392" stroke-width="4" stroke-linecap="round"/>
<path d="M2120.67 2L907.77 2618.55" stroke="#B58392" stroke-width="4" stroke-linecap="round"/>
<path d="M2136.56 2L923.667 2618.55" stroke="#B58392" stroke-width="4" stroke-linecap="round"/>
<path d="M2152.46 2L939.565 2618.55" stroke="#B58392" stroke-width="4" stroke-linecap="round"/>
<path d="M1264.34 2L1073 414.812" stroke="#D29DAC" stroke-width="1.5" stroke-linecap="round"/>
<path d="M1268.68 2L1077.34 414.812" stroke="#D29DAC" stroke-width="1.5" stroke-linecap="round"/>
<path d="M1273.02 2L1081.68 414.812" stroke="#D29DAC" stroke-width="1.5" stroke-linecap="round"/>
<path d="M1277.37 2L1086.02 414.812" stroke="#D29DAC" stroke-width="1.5" stroke-linecap="round"/>
<path d="M1281.71 2L1090.37 414.812" stroke="#D29DAC" stroke-width="1.5" stroke-linecap="round"/>
<path d="M1286.05 2L1094.71 414.812" stroke="#D29DAC" stroke-width="1.5" stroke-linecap="round"/>
<path d="M1290.39 2L1099.05 414.812" stroke="#D29DAC" stroke-width="1.5" stroke-linecap="round"/>
<path d="M1294.73 2L1103.39 414.812" stroke="#D29DAC" stroke-width="1.5" stroke-linecap="round"/>
<path d="M1299.07 2L1107.73 414.812" stroke="#D29DAC" stroke-width="1.5" stroke-linecap="round"/>
<path d="M1303.42 2L1112.07 414.812" stroke="#D29DAC" stroke-width="1.5" stroke-linecap="round"/>
<path d="M1307.76 2L1116.42 414.812" stroke="#D29DAC" stroke-width="1.5" stroke-linecap="round"/>
<path d="M1312.1 2L1120.76 414.812" stroke="#D29DAC" stroke-width="1.5" stroke-linecap="round"/>
<path d="M1316.44 2L1125.1 414.812" stroke="#D29DAC" stroke-width="1.5" stroke-linecap="round"/>
<path d="M1320.78 2L1129.44 414.812" stroke="#D29DAC" stroke-width="1.5" stroke-linecap="round"/>
<path d="M1325.12 2L1133.78 414.812" stroke="#D29DAC" stroke-width="1.5" stroke-linecap="round"/>
<path d="M1329.47 2L1138.12 414.812" stroke="#D29DAC" stroke-width="1.5" stroke-linecap="round"/>
<path d="M1333.81 2L1142.47 414.812" stroke="#D29DAC" stroke-width="1.5" stroke-linecap="round"/>
<path d="M1338.15 2L1146.81 414.812" stroke="#D29DAC" stroke-width="1.5" stroke-linecap="round"/>
<path d="M1342.49 2L1151.15 414.812" stroke="#D29DAC" stroke-width="1.5" stroke-linecap="round"/>
<path d="M1346.83 2L1155.49 414.812" stroke="#D29DAC" stroke-width="1.5" stroke-linecap="round"/>
<path d="M1351.17 2L1159.83 414.812" stroke="#D29DAC" stroke-width="1.5" stroke-linecap="round"/>
<path d="M1355.52 2L1164.17 414.812" stroke="#D29DAC" stroke-width="1.5" stroke-linecap="round"/>
<path d="M1359.86 2L1168.52 414.812" stroke="#D29DAC" stroke-width="1.5" stroke-linecap="round"/>
<path d="M1505.34 2L1314 414.812" stroke="#D29DAC" stroke-width="1.5" stroke-linecap="round"/>
<path d="M1509.68 2L1318.34 414.812" stroke="#D29DAC" stroke-width="1.5" stroke-linecap="round"/>
<path d="M1514.02 2L1322.68 414.812" stroke="#D29DAC" stroke-width="1.5" stroke-linecap="round"/>
<path d="M1518.37 2L1327.02 414.812" stroke="#D29DAC" stroke-width="1.5" stroke-linecap="round"/>
<path d="M1522.71 2L1331.37 414.812" stroke="#D29DAC" stroke-width="1.5" stroke-linecap="round"/>
<path d="M1527.05 2L1335.71 414.812" stroke="#D29DAC" stroke-width="1.5" stroke-linecap="round"/>
<path d="M1531.39 2L1340.05 414.812" stroke="#D29DAC" stroke-width="1.5" stroke-linecap="round"/>
<path d="M1535.73 2L1344.39 414.812" stroke="#D29DAC" stroke-width="1.5" stroke-linecap="round"/>
<path d="M1540.07 2L1348.73 414.812" stroke="#D29DAC" stroke-width="1.5" stroke-linecap="round"/>
<path d="M1544.42 2L1353.07 414.812" stroke="#D29DAC" stroke-width="1.5" stroke-linecap="round"/>
<path d="M1548.76 2L1357.42 414.812" stroke="#D29DAC" stroke-width="1.5" stroke-linecap="round"/>
<path d="M1553.1 2L1361.76 414.812" stroke="#D29DAC" stroke-width="1.5" stroke-linecap="round"/>
<path d="M1557.44 2L1366.1 414.812" stroke="#D29DAC" stroke-width="1.5" stroke-linecap="round"/>
<path d="M1561.78 2L1370.44 414.812" stroke="#D29DAC" stroke-width="1.5" stroke-linecap="round"/>
<path d="M1566.12 2L1374.78 414.812" stroke="#D29DAC" stroke-width="1.5" stroke-linecap="round"/>
<path d="M1570.47 2L1379.12 414.812" stroke="#D29DAC" stroke-width="1.5" stroke-linecap="round"/>
<path d="M1574.81 2L1383.47 414.812" stroke="#D29DAC" stroke-width="1.5" stroke-linecap="round"/>
<path d="M1579.15 2L1387.81 414.812" stroke="#D29DAC" stroke-width="1.5" stroke-linecap="round"/>
<path d="M1583.49 2L1392.15 414.812" stroke="#D29DAC" stroke-width="1.5" stroke-linecap="round"/>
<path d="M1587.83 2L1396.49 414.812" stroke="#D29DAC" stroke-width="1.5" stroke-linecap="round"/>
<path d="M1592.17 2L1400.83 414.812" stroke="#D29DAC" stroke-width="1.5" stroke-linecap="round"/>
<path d="M1596.52 2L1405.17 414.812" stroke="#D29DAC" stroke-width="1.5" stroke-linecap="round"/>
<path d="M1600.86 2L1409.52 414.812" stroke="#D29DAC" stroke-width="1.5" stroke-linecap="round"/>
<path d="M1215.34 369L1024 781.812" stroke="#D29DAC" stroke-width="1.5" stroke-linecap="round"/>
<path d="M1219.68 369L1028.34 781.812" stroke="#D29DAC" stroke-width="1.5" stroke-linecap="round"/>
<path d="M1224.02 369L1032.68 781.812" stroke="#D29DAC" stroke-width="1.5" stroke-linecap="round"/>
<path d="M1228.37 369L1037.02 781.812" stroke="#D29DAC" stroke-width="1.5" stroke-linecap="round"/>
<path d="M1232.71 369L1041.37 781.812" stroke="#D29DAC" stroke-width="1.5" stroke-linecap="round"/>
<path d="M1237.05 369L1045.71 781.812" stroke="#D29DAC" stroke-width="1.5" stroke-linecap="round"/>
<path d="M1241.39 369L1050.05 781.812" stroke="#D29DAC" stroke-width="1.5" stroke-linecap="round"/>
<path d="M1245.73 369L1054.39 781.812" stroke="#D29DAC" stroke-width="1.5" stroke-linecap="round"/>
<path d="M1250.07 369L1058.73 781.812" stroke="#D29DAC" stroke-width="1.5" stroke-linecap="round"/>
<path d="M1254.42 369L1063.07 781.812" stroke="#D29DAC" stroke-width="1.5" stroke-linecap="round"/>
<path d="M1258.76 369L1067.42 781.812" stroke="#D29DAC" stroke-width="1.5" stroke-linecap="round"/>
<path d="M1263.1 369L1071.76 781.812" stroke="#D29DAC" stroke-width="1.5" stroke-linecap="round"/>
<path d="M1267.44 369L1076.1 781.812" stroke="#D29DAC" stroke-width="1.5" stroke-linecap="round"/>
<path d="M1271.78 369L1080.44 781.812" stroke="#D29DAC" stroke-width="1.5" stroke-linecap="round"/>
<path d="M1276.12 369L1084.78 781.812" stroke="#D29DAC" stroke-width="1.5" stroke-linecap="round"/>
<path d="M1280.47 369L1089.12 781.812" stroke="#D29DAC" stroke-width="1.5" stroke-linecap="round"/>
<path d="M1284.81 369L1093.47 781.812" stroke="#D29DAC" stroke-width="1.5" stroke-linecap="round"/>
<path d="M1289.15 369L1097.81 781.812" stroke="#D29DAC" stroke-width="1.5" stroke-linecap="round"/>
<path d="M1293.49 369L1102.15 781.812" stroke="#D29DAC" stroke-width="1.5" stroke-linecap="round"/>
<path d="M1297.83 369L1106.49 781.812" stroke="#D29DAC" stroke-width="1.5" stroke-linecap="round"/>
<path d="M1302.17 369L1110.83 781.812" stroke="#D29DAC" stroke-width="1.5" stroke-linecap="round"/>
<path d="M1306.52 369L1115.17 781.812" stroke="#D29DAC" stroke-width="1.5" stroke-linecap="round"/>
<path d="M1310.86 369L1119.52 781.812" stroke="#D29DAC" stroke-width="1.5" stroke-linecap="round"/>
<path d="M894.342 782L703 1194.81" stroke="#D29DAC" stroke-width="1.5" stroke-linecap="round"/>
<path d="M898.683 782L707.342 1194.81" stroke="#D29DAC" stroke-width="1.5" stroke-linecap="round"/>
<path d="M903.025 782L711.683 1194.81" stroke="#D29DAC" stroke-width="1.5" stroke-linecap="round"/>
<path d="M907.366 782L716.025 1194.81" stroke="#D29DAC" stroke-width="1.5" stroke-linecap="round"/>
<path d="M911.708 782L720.366 1194.81" stroke="#D29DAC" stroke-width="1.5" stroke-linecap="round"/>
<path d="M916.05 782L724.708 1194.81" stroke="#D29DAC" stroke-width="1.5" stroke-linecap="round"/>
<path d="M920.391 782L729.05 1194.81" stroke="#D29DAC" stroke-width="1.5" stroke-linecap="round"/>
<path d="M924.733 782L733.391 1194.81" stroke="#D29DAC" stroke-width="1.5" stroke-linecap="round"/>
<path d="M929.074 782L737.733 1194.81" stroke="#D29DAC" stroke-width="1.5" stroke-linecap="round"/>
<path d="M933.416 782L742.074 1194.81" stroke="#D29DAC" stroke-width="1.5" stroke-linecap="round"/>
<path d="M937.758 782L746.416 1194.81" stroke="#D29DAC" stroke-width="1.5" stroke-linecap="round"/>
<path d="M942.099 782L750.758 1194.81" stroke="#D29DAC" stroke-width="1.5" stroke-linecap="round"/>
<path d="M946.441 782L755.099 1194.81" stroke="#D29DAC" stroke-width="1.5" stroke-linecap="round"/>
<path d="M950.782 782L759.441 1194.81" stroke="#D29DAC" stroke-width="1.5" stroke-linecap="round"/>
<path d="M955.124 782L763.782 1194.81" stroke="#D29DAC" stroke-width="1.5" stroke-linecap="round"/>
<path d="M959.466 782L768.124 1194.81" stroke="#D29DAC" stroke-width="1.5" stroke-linecap="round"/>
<path d="M963.807 782L772.466 1194.81" stroke="#D29DAC" stroke-width="1.5" stroke-linecap="round"/>
<path d="M968.149 782L776.807 1194.81" stroke="#D29DAC" stroke-width="1.5" stroke-linecap="round"/>
<path d="M972.49 782L781.149 1194.81" stroke="#D29DAC" stroke-width="1.5" stroke-linecap="round"/>
<path d="M976.832 782L785.49 1194.81" stroke="#D29DAC" stroke-width="1.5" stroke-linecap="round"/>
<path d="M981.173 782L789.832 1194.81" stroke="#D29DAC" stroke-width="1.5" stroke-linecap="round"/>
<path d="M985.515 782L794.174 1194.81" stroke="#D29DAC" stroke-width="1.5" stroke-linecap="round"/>
<path d="M989.857 782L798.515 1194.81" stroke="#D29DAC" stroke-width="1.5" stroke-linecap="round"/>
<path d="M1135.34 782L944 1194.81" stroke="#D29DAC" stroke-width="1.5" stroke-linecap="round"/>
<path d="M1139.68 782L948.342 1194.81" stroke="#D29DAC" stroke-width="1.5" stroke-linecap="round"/>
<path d="M1144.02 782L952.683 1194.81" stroke="#D29DAC" stroke-width="1.5" stroke-linecap="round"/>
<path d="M1148.37 782L957.025 1194.81" stroke="#D29DAC" stroke-width="1.5" stroke-linecap="round"/>
<path d="M1152.71 782L961.366 1194.81" stroke="#D29DAC" stroke-width="1.5" stroke-linecap="round"/>
<path d="M1157.05 782L965.708 1194.81" stroke="#D29DAC" stroke-width="1.5" stroke-linecap="round"/>
<path d="M1161.39 782L970.05 1194.81" stroke="#D29DAC" stroke-width="1.5" stroke-linecap="round"/>
<path d="M1165.73 782L974.391 1194.81" stroke="#D29DAC" stroke-width="1.5" stroke-linecap="round"/>
<path d="M1170.07 782L978.733 1194.81" stroke="#D29DAC" stroke-width="1.5" stroke-linecap="round"/>
<path d="M1174.42 782L983.074 1194.81" stroke="#D29DAC" stroke-width="1.5" stroke-linecap="round"/>
<path d="M1178.76 782L987.416 1194.81" stroke="#D29DAC" stroke-width="1.5" stroke-linecap="round"/>
<path d="M1183.1 782L991.758 1194.81" stroke="#D29DAC" stroke-width="1.5" stroke-linecap="round"/>
<path d="M1187.44 782L996.099 1194.81" stroke="#D29DAC" stroke-width="1.5" stroke-linecap="round"/>
<path d="M1191.78 782L1000.44 1194.81" stroke="#D29DAC" stroke-width="1.5" stroke-linecap="round"/>
<path d="M1196.12 782L1004.78 1194.81" stroke="#D29DAC" stroke-width="1.5" stroke-linecap="round"/>
<path d="M1200.47 782L1009.12 1194.81" stroke="#D29DAC" stroke-width="1.5" stroke-linecap="round"/>
<path d="M1204.81 782L1013.47 1194.81" stroke="#D29DAC" stroke-width="1.5" stroke-linecap="round"/>
<path d="M1209.15 782L1017.81 1194.81" stroke="#D29DAC" stroke-width="1.5" stroke-linecap="round"/>
<path d="M1213.49 782L1022.15 1194.81" stroke="#D29DAC" stroke-width="1.5" stroke-linecap="round"/>
<path d="M1217.83 782L1026.49 1194.81" stroke="#D29DAC" stroke-width="1.5" stroke-linecap="round"/>
<path d="M1222.17 782L1030.83 1194.81" stroke="#D29DAC" stroke-width="1.5" stroke-linecap="round"/>
<path d="M1226.52 782L1035.17 1194.81" stroke="#D29DAC" stroke-width="1.5" stroke-linecap="round"/>
<path d="M1230.86 782L1039.52 1194.81" stroke="#D29DAC" stroke-width="1.5" stroke-linecap="round"/>
<path d="M845.342 1149L654 1561.81" stroke="#D29DAC" stroke-width="1.5" stroke-linecap="round"/>
<path d="M849.683 1149L658.342 1561.81" stroke="#D29DAC" stroke-width="1.5" stroke-linecap="round"/>
<path d="M854.025 1149L662.683 1561.81" stroke="#D29DAC" stroke-width="1.5" stroke-linecap="round"/>
<path d="M858.366 1149L667.025 1561.81" stroke="#D29DAC" stroke-width="1.5" stroke-linecap="round"/>
<path d="M862.708 1149L671.366 1561.81" stroke="#D29DAC" stroke-width="1.5" stroke-linecap="round"/>
<path d="M867.05 1149L675.708 1561.81" stroke="#D29DAC" stroke-width="1.5" stroke-linecap="round"/>
<path d="M871.391 1149L680.05 1561.81" stroke="#D29DAC" stroke-width="1.5" stroke-linecap="round"/>
<path d="M875.733 1149L684.391 1561.81" stroke="#D29DAC" stroke-width="1.5" stroke-linecap="round"/>
<path d="M880.074 1149L688.733 1561.81" stroke="#D29DAC" stroke-width="1.5" stroke-linecap="round"/>
<path d="M884.416 1149L693.074 1561.81" stroke="#D29DAC" stroke-width="1.5" stroke-linecap="round"/>
<path d="M888.758 1149L697.416 1561.81" stroke="#D29DAC" stroke-width="1.5" stroke-linecap="round"/>
<path d="M893.099 1149L701.758 1561.81" stroke="#D29DAC" stroke-width="1.5" stroke-linecap="round"/>
<path d="M897.441 1149L706.099 1561.81" stroke="#D29DAC" stroke-width="1.5" stroke-linecap="round"/>
<path d="M901.782 1149L710.441 1561.81" stroke="#D29DAC" stroke-width="1.5" stroke-linecap="round"/>
<path d="M906.124 1149L714.782 1561.81" stroke="#D29DAC" stroke-width="1.5" stroke-linecap="round"/>
<path d="M910.466 1149L719.124 1561.81" stroke="#D29DAC" stroke-width="1.5" stroke-linecap="round"/>
<path d="M914.807 1149L723.466 1561.81" stroke="#D29DAC" stroke-width="1.5" stroke-linecap="round"/>
<path d="M919.149 1149L727.807 1561.81" stroke="#D29DAC" stroke-width="1.5" stroke-linecap="round"/>
<path d="M923.49 1149L732.149 1561.81" stroke="#D29DAC" stroke-width="1.5" stroke-linecap="round"/>
<path d="M927.832 1149L736.49 1561.81" stroke="#D29DAC" stroke-width="1.5" stroke-linecap="round"/>
<path d="M932.173 1149L740.832 1561.81" stroke="#D29DAC" stroke-width="1.5" stroke-linecap="round"/>
<path d="M936.515 1149L745.174 1561.81" stroke="#D29DAC" stroke-width="1.5" stroke-linecap="round"/>
<path d="M940.857 1149L749.515 1561.81" stroke="#D29DAC" stroke-width="1.5" stroke-linecap="round"/>
<path d="M524.342 1562L333 1974.81" stroke="#D29DAC" stroke-width="1.5" stroke-linecap="round"/>
<path d="M528.683 1562L337.342 1974.81" stroke="#D29DAC" stroke-width="1.5" stroke-linecap="round"/>
<path d="M533.025 1562L341.683 1974.81" stroke="#D29DAC" stroke-width="1.5" stroke-linecap="round"/>
<path d="M537.366 1562L346.025 1974.81" stroke="#D29DAC" stroke-width="1.5" stroke-linecap="round"/>
<path d="M541.708 1562L350.366 1974.81" stroke="#D29DAC" stroke-width="1.5" stroke-linecap="round"/>
<path d="M546.05 1562L354.708 1974.81" stroke="#D29DAC" stroke-width="1.5" stroke-linecap="round"/>
<path d="M550.391 1562L359.05 1974.81" stroke="#D29DAC" stroke-width="1.5" stroke-linecap="round"/>
<path d="M554.733 1562L363.391 1974.81" stroke="#D29DAC" stroke-width="1.5" stroke-linecap="round"/>
<path d="M559.074 1562L367.733 1974.81" stroke="#D29DAC" stroke-width="1.5" stroke-linecap="round"/>
<path d="M563.416 1562L372.074 1974.81" stroke="#D29DAC" stroke-width="1.5" stroke-linecap="round"/>
<path d="M567.758 1562L376.416 1974.81" stroke="#D29DAC" stroke-width="1.5" stroke-linecap="round"/>
<path d="M572.099 1562L380.758 1974.81" stroke="#D29DAC" stroke-width="1.5" stroke-linecap="round"/>
<path d="M576.441 1562L385.099 1974.81" stroke="#D29DAC" stroke-width="1.5" stroke-linecap="round"/>
<path d="M580.782 1562L389.441 1974.81" stroke="#D29DAC" stroke-width="1.5" stroke-linecap="round"/>
<path d="M585.124 1562L393.782 1974.81" stroke="#D29DAC" stroke-width="1.5" stroke-linecap="round"/>
<path d="M589.466 1562L398.124 1974.81" stroke="#D29DAC" stroke-width="1.5" stroke-linecap="round"/>
<path d="M593.807 1562L402.466 1974.81" stroke="#D29DAC" stroke-width="1.5" stroke-linecap="round"/>
<path d="M598.149 1562L406.807 1974.81" stroke="#D29DAC" stroke-width="1.5" stroke-linecap="round"/>
<path d="M602.49 1562L411.149 1974.81" stroke="#D29DAC" stroke-width="1.5" stroke-linecap="round"/>
<path d="M606.832 1562L415.49 1974.81" stroke="#D29DAC" stroke-width="1.5" stroke-linecap="round"/>
<path d="M611.173 1562L419.832 1974.81" stroke="#D29DAC" stroke-width="1.5" stroke-linecap="round"/>
<path d="M615.515 1562L424.174 1974.81" stroke="#D29DAC" stroke-width="1.5" stroke-linecap="round"/>
<path d="M619.857 1562L428.515 1974.81" stroke="#D29DAC" stroke-width="1.5" stroke-linecap="round"/>
<path d="M765.342 1562L574 1974.81" stroke="#D29DAC" stroke-width="1.5" stroke-linecap="round"/>
<path d="M769.683 1562L578.342 1974.81" stroke="#D29DAC" stroke-width="1.5" stroke-linecap="round"/>
<path d="M774.025 1562L582.683 1974.81" stroke="#D29DAC" stroke-width="1.5" stroke-linecap="round"/>
<path d="M778.366 1562L587.025 1974.81" stroke="#D29DAC" stroke-width="1.5" stroke-linecap="round"/>
<path d="M782.708 1562L591.366 1974.81" stroke="#D29DAC" stroke-width="1.5" stroke-linecap="round"/>
<path d="M787.05 1562L595.708 1974.81" stroke="#D29DAC" stroke-width="1.5" stroke-linecap="round"/>
<path d="M791.391 1562L600.05 1974.81" stroke="#D29DAC" stroke-width="1.5" stroke-linecap="round"/>
<path d="M795.733 1562L604.391 1974.81" stroke="#D29DAC" stroke-width="1.5" stroke-linecap="round"/>
<path d="M800.074 1562L608.733 1974.81" stroke="#D29DAC" stroke-width="1.5" stroke-linecap="round"/>
<path d="M804.416 1562L613.074 1974.81" stroke="#D29DAC" stroke-width="1.5" stroke-linecap="round"/>
<path d="M808.758 1562L617.416 1974.81" stroke="#D29DAC" stroke-width="1.5" stroke-linecap="round"/>
<path d="M813.099 1562L621.758 1974.81" stroke="#D29DAC" stroke-width="1.5" stroke-linecap="round"/>
<path d="M817.441 1562L626.099 1974.81" stroke="#D29DAC" stroke-width="1.5" stroke-linecap="round"/>
<path d="M821.782 1562L630.441 1974.81" stroke="#D29DAC" stroke-width="1.5" stroke-linecap="round"/>
<path d="M826.124 1562L634.782 1974.81" stroke="#D29DAC" stroke-width="1.5" stroke-linecap="round"/>
<path d="M830.466 1562L639.124 1974.81" stroke="#D29DAC" stroke-width="1.5" stroke-linecap="round"/>
<path d="M834.807 1562L643.466 1974.81" stroke="#D29DAC" stroke-width="1.5" stroke-linecap="round"/>
<path d="M839.149 1562L647.807 1974.81" stroke="#D29DAC" stroke-width="1.5" stroke-linecap="round"/>
<path d="M843.49 1562L652.149 1974.81" stroke="#D29DAC" stroke-width="1.5" stroke-linecap="round"/>
<path d="M847.832 1562L656.49 1974.81" stroke="#D29DAC" stroke-width="1.5" stroke-linecap="round"/>
<path d="M852.173 1562L660.832 1974.81" stroke="#D29DAC" stroke-width="1.5" stroke-linecap="round"/>
<path d="M856.515 1562L665.174 1974.81" stroke="#D29DAC" stroke-width="1.5" stroke-linecap="round"/>
<path d="M860.857 1562L669.515 1974.81" stroke="#D29DAC" stroke-width="1.5" stroke-linecap="round"/>
<path d="M580.934 1804.8L558.534 1782.4L551.067 1789.87L580.934 1819.73L644.934 1755.73L637.467 1748.27L580.934 1804.8Z" fill="#B58392"/>
<path d="M1007.81 945.76L1000.29 938.24L966.48 972.053L974 979.573L1007.81 945.76ZM1030.43 938.24L974 994.667L951.707 972.427L944.187 979.947L974 1009.76L1038 945.76L1030.43 938.24ZM914 979.947L943.813 1009.76L951.333 1002.24L921.573 972.427L914 979.947Z" fill="#B58392"/>
<path d="M1395.44 136.293L1402.91 143.76L1334.96 211.707L1305.09 181.84L1312.56 174.373L1334.96 196.773L1395.44 136.293ZM1395.44 121.2L1334.96 181.68L1312.56 159.28L1290 181.84L1334.96 226.8L1418 143.76L1395.44 121.2Z" fill="#B58392"/>
<path d="M1797.9 4L585 2620.55" stroke="#E8C5D0" stroke-width="7" stroke-linecap="round"/>
<path d="M1818.79 4L605.898 2620.55" stroke="#E8C5D0" stroke-width="7" stroke-linecap="round"/>
<path d="M1839.69 4L626.795 2620.55" stroke="#E8C5D0" stroke-width="7" stroke-linecap="round"/>
<path d="M1860.59 4L647.692 2620.55" stroke="#E8C5D0" stroke-width="7" stroke-linecap="round"/>
<path d="M155.173 168.667H193.2C190.693 143.493 170.64 123.44 145.467 120.933V158.96C150 160.613 153.52 164.133 155.173 168.667ZM156.133 134.427C166.8 138.8 175.333 147.333 179.707 158H161.413C159.92 156.027 158.107 154.213 156.133 152.72V134.427ZM86.8 174C86.8 201.68 107.867 224.4 134.8 227.067V189.04C128.613 186.8 124.133 180.933 124.133 174C124.133 167.067 128.613 161.2 134.8 158.96V120.933C107.867 123.6 86.8 146.32 86.8 174ZM124.133 134.427V152.773C117.573 157.68 113.467 165.52 113.467 174C113.467 182.48 117.573 190.32 124.133 195.28V213.627C108.347 207.28 97.4667 191.867 97.4667 174C97.4667 156.133 108.347 140.72 124.133 134.427ZM145.467 189.04V227.067C170.64 224.56 190.693 204.507 193.2 179.333H155.173C153.52 183.867 150 187.387 145.467 189.04ZM156.133 195.28C158.107 193.787 159.92 192.027 161.413 190H179.707C175.333 200.667 166.8 209.2 156.133 213.573V195.28Z" fill="#B58392"/>
<path d="M1812.67 984C1812.67 989.867 1807.87 994.667 1802 994.667C1796.13 994.667 1791.33 989.867 1791.33 984C1791.33 978.133 1796.13 973.333 1802 973.333C1807.87 973.333 1812.67 978.133 1812.67 984ZM1802 941.333C1796.13 941.333 1791.33 946.133 1791.33 952C1791.33 957.867 1796.13 962.667 1802 962.667C1807.87 962.667 1812.67 957.867 1812.67 952C1812.67 946.133 1807.87 941.333 1802 941.333ZM1802 909.333C1796.13 909.333 1791.33 914.133 1791.33 920C1791.33 925.867 1796.13 930.667 1802 930.667C1807.87 930.667 1812.67 925.867 1812.67 920C1812.67 914.133 1807.87 909.333 1802 909.333ZM1834 930.667C1839.87 930.667 1844.67 925.867 1844.67 920C1844.67 914.133 1839.87 909.333 1834 909.333C1828.13 909.333 1823.33 914.133 1823.33 920C1823.33 925.867 1828.13 930.667 1834 930.667ZM1834 941.333C1828.13 941.333 1823.33 946.133 1823.33 952C1823.33 957.867 1828.13 962.667 1834 962.667C1839.87 962.667 1844.67 957.867 1844.67 952C1844.67 946.133 1839.87 941.333 1834 941.333ZM1834 973.333C1828.13 973.333 1823.33 978.133 1823.33 984C1823.33 989.867 1828.13 994.667 1834 994.667C1839.87 994.667 1844.67 989.867 1844.67 984C1844.67 978.133 1839.87 973.333 1834 973.333Z" fill="#B58392"/>
<path d="M1371.33 726.667H1323.33C1317.47 726.667 1312.67 721.867 1312.67 716V700C1312.67 694.133 1317.47 689.333 1323.33 689.333H1371.33V726.667ZM1323.33 716H1360.67V700H1323.33V716ZM1382 774.667H1323.33C1317.47 774.667 1312.67 769.867 1312.67 764V748C1312.67 742.133 1317.47 737.333 1323.33 737.333H1382V774.667ZM1323.33 764H1371.33V748H1323.33V764ZM1419.33 716H1408.67L1419.33 689.333H1382V726.667H1392.67V774.667L1419.33 716ZM1327.33 760H1335.33V752H1327.33V760ZM1327.33 712H1335.33V704H1327.33V712Z" fill="#B58392"/>
<path d="M320.98 1658.67H395.647V1669.33H406.313V1637.33C406.313 1631.47 401.513 1626.67 395.647 1626.67H390.313V1616H379.647V1626.67H336.98V1616H326.313V1626.67H320.98C315.06 1626.67 310.367 1631.47 310.367 1637.33L310.313 1712C310.313 1717.87 315.06 1722.67 320.98 1722.67H358.313V1712H320.98V1658.67ZM320.98 1637.33H395.647V1648H320.98V1637.33ZM416.127 1692.16L412.34 1695.95L401.033 1684.64L404.82 1680.85C406.9 1678.77 410.26 1678.77 412.34 1680.85L416.127 1684.64C418.207 1686.72 418.207 1690.08 416.127 1692.16ZM397.247 1688.43L408.553 1699.73L380.287 1728H368.98V1716.69L397.247 1688.43Z" fill="#B58392"/>
<path d="M586.774 1202.32L591.68 1207.23L585.76 1213.15L593.28 1220.67L606.72 1207.23L586.72 1187.23L573.28 1200.67L580.8 1208.19L586.774 1202.32ZM622.24 1191.76C624.32 1189.68 624.32 1186.32 622.24 1184.24L609.76 1171.76C608.694 1170.69 607.36 1170.21 605.974 1170.21C604.587 1170.21 603.254 1170.75 602.24 1171.76L592.48 1181.52L612.48 1201.52L622.24 1191.76ZM526.774 1169.2L519.2 1176.72L558.24 1215.76L527.787 1246.21V1266.21H547.787L578.24 1235.76L617.28 1274.8L624.8 1267.28L526.774 1169.2ZM543.36 1255.55H538.454V1250.64L565.814 1223.28L570.72 1228.19L543.36 1255.55Z" fill="#B58392"/>
<path d="M702.667 888.667H777.333V899.333H702.667V888.667ZM740 824.667L704.427 878H775.573L740 824.667ZM740 843.867L755.627 867.333H724.373L740 843.867Z" fill="#B58392"/>
<path d="M914 556.667C900.613 556.667 889.04 549.093 883.28 538H914V527.333H879.76C879.493 525.573 879.333 523.813 879.333 522C879.333 520.187 879.493 518.427 879.76 516.667H914V506H883.28C889.04 494.907 900.667 487.333 914 487.333C922.587 487.333 930.48 490.48 936.56 495.707L946 486.267C937.52 478.64 926.267 474 914 474C893.093 474 875.387 487.387 868.773 506H850V516.667H866.32C866.107 518.427 866 520.187 866 522C866 523.813 866.107 525.573 866.32 527.333H850V538H868.773C875.387 556.613 893.093 570 914 570C926.32 570 937.52 565.36 946 557.733L936.507 548.293C930.48 553.52 922.64 556.667 914 556.667Z" fill="#B58392"/>
<path d="M863.333 1839.33H858V1828.67H847.333V1839.33H804.667V1828.67H794V1839.33H788.667C782.747 1839.33 778.053 1844.13 778.053 1850L778 1924.67C778 1930.53 782.747 1935.33 788.667 1935.33H863.333C869.2 1935.33 874 1930.53 874 1924.67V1850C874 1844.13 869.2 1839.33 863.333 1839.33ZM863.333 1924.67H788.667V1871.33H863.333V1924.67ZM863.333 1860.67H788.667V1850H863.333V1860.67ZM826 1887.33H852.667V1914H826V1887.33Z" fill="#B58392"/>
<path d="M1084 1426.67V1394.67C1084 1388.8 1079.2 1384 1073.33 1384H1068V1373.33H1057.33V1384H1014.67V1373.33H1004V1384H998.667C992.8 1384 988 1388.8 988 1394.67V1469.33C988 1475.2 992.8 1480 998.667 1480H1036V1469.33H998.667V1416H1073.33V1426.67H1084ZM1073.33 1405.33H998.667V1394.67H1073.33V1405.33ZM1055.41 1469.33C1057.71 1477.07 1064.85 1482.67 1073.33 1482.67C1083.63 1482.67 1092 1474.29 1092 1464C1092 1453.71 1083.63 1445.33 1073.33 1445.33C1068.27 1445.33 1063.63 1447.36 1060.27 1450.67H1068V1458.67H1046.67V1437.33H1054.67V1444.96C1059.47 1440.27 1066.08 1437.33 1073.33 1437.33C1088.05 1437.33 1100 1449.28 1100 1464C1100 1478.72 1088.05 1490.67 1073.33 1490.67C1060.43 1490.67 1049.65 1481.49 1047.2 1469.33H1055.41Z" fill="#B58392"/>
<path d="M1208 1044.67V1082H1176V1044.67H1208ZM1208 1034H1176C1170.13 1034 1165.33 1038.8 1165.33 1044.67V1092.67H1218.67V1044.67C1218.67 1038.8 1213.87 1034 1208 1034ZM1245.33 1071.33H1229.33V1087.33H1245.33V1071.33ZM1154.67 1071.33H1138.67V1087.33H1154.67V1071.33ZM1234.67 1098H1149.33V1130H1160V1108.67H1224V1130H1234.67V1098Z" fill="#B58392"/>
<path d="M1569.81 271.147L1577.33 278.667L1604 252L1577.33 225.333L1569.81 232.853L1583.57 246.667H1532V257.333H1583.57L1569.81 271.147ZM1617.33 204H1542.67C1536.75 204 1532 208.8 1532 214.667V236H1542.67V214.667H1617.33V289.333H1542.67V268H1532V289.333C1532 295.2 1536.75 300 1542.67 300H1617.33C1623.2 300 1628 295.2 1628 289.333V214.667C1628 208.8 1623.2 204 1617.33 204Z" fill="#B58392"/>
<path d="M2080.67 522.667H1995.33V533.333H2080.67V522.667Z" fill="#B58392"/>
<path d="M2080.67 426.667H1995.33V437.333H2080.67V426.667Z" fill="#B58392"/>
<path d="M2024.19 488.48L2016.67 496L2038 517.333L2059.33 496L2051.81 488.48L2043.33 496.907V463.093L2051.81 471.52L2059.33 464L2038 442.667L2016.67 464L2024.19 471.52L2032.67 463.093V496.907L2024.19 488.48Z" fill="#B58392"/>
<path d="M1496 1586.67C1466.56 1586.67 1442.67 1610.56 1442.67 1640C1442.67 1669.44 1466.56 1693.33 1496 1693.33C1525.44 1693.33 1549.33 1669.44 1549.33 1640C1549.33 1610.56 1525.44 1586.67 1496 1586.67ZM1496 1682.67C1472.48 1682.67 1453.33 1663.52 1453.33 1640C1453.33 1616.48 1472.48 1597.33 1496 1597.33C1519.52 1597.33 1538.67 1616.48 1538.67 1640C1538.67 1663.52 1519.52 1682.67 1496 1682.67ZM1466.67 1669.33L1506.72 1650.72L1525.33 1610.67L1485.28 1629.28L1466.67 1669.33ZM1496 1634.13C1499.25 1634.13 1501.87 1636.75 1501.87 1640C1501.87 1643.25 1499.25 1645.87 1496 1645.87C1492.75 1645.87 1490.13 1643.25 1490.13 1640C1490.13 1636.75 1492.75 1634.13 1496 1634.13Z" fill="#B58392"/>
<path d="M1664 1247.33C1687.52 1247.33 1706.67 1266.48 1706.67 1290C1706.67 1297.89 1704.48 1305.25 1700.69 1311.65L1708.48 1319.44C1714.08 1310.96 1717.33 1300.88 1717.33 1290C1717.33 1260.56 1693.44 1236.67 1664 1236.67C1653.12 1236.67 1643.04 1239.92 1634.61 1245.52L1642.4 1253.31C1648.75 1249.52 1656.11 1247.33 1664 1247.33ZM1679.52 1290.43L1693.33 1260.67L1663.57 1274.48L1679.52 1290.43ZM1611.2 1252.29L1619.52 1260.61C1613.92 1269.04 1610.67 1279.12 1610.67 1290C1610.67 1319.44 1634.56 1343.33 1664 1343.33C1674.88 1343.33 1684.96 1340.08 1693.39 1334.48L1701.71 1342.8L1709.23 1335.28L1618.72 1244.72L1611.2 1252.29ZM1627.31 1268.35L1648.53 1289.57L1634.67 1319.33L1664.43 1305.52L1685.65 1326.75C1679.25 1330.48 1671.89 1332.67 1664 1332.67C1640.48 1332.67 1621.33 1313.52 1621.33 1290C1621.33 1282.11 1623.52 1274.75 1627.31 1268.35Z" fill="#B58392"/>
</g>
<defs>
<clipPath id="clip0_9_1893">
<rect width="2169" height="1983" fill="white"/>
</clipPath>
</defs>
</svg>
