<svg width="2169" height="2511" viewBox="0 0 2169 2511" fill="none" xmlns="http://www.w3.org/2000/svg">
<g opacity="0.9" clip-path="url(#clip0_9_2051)">
<rect width="2169" height="2511" fill="#6D55AA"/>
<path d="M971.897 -6L-241 2610.55" stroke="#B69DF8" stroke-width="7" stroke-linecap="round"/>
<path d="M992.795 -6L-220.102 2610.55" stroke="#B69DF8" stroke-width="7" stroke-linecap="round"/>
<path d="M1013.69 -6L-199.205 2610.55" stroke="#B69DF8" stroke-width="7" stroke-linecap="round"/>
<path d="M1034.59 -6L-178.308 2610.55" stroke="#B69DF8" stroke-width="7" stroke-linecap="round"/>
<path d="M1961.9 -18L749 2598.55" stroke="#B69DF8" stroke-width="5" stroke-linecap="round"/>
<path d="M1975.79 -18L762.898 2598.55" stroke="#B69DF8" stroke-width="5" stroke-linecap="round"/>
<path d="M1989.69 -18L776.795 2598.55" stroke="#B69DF8" stroke-width="5" stroke-linecap="round"/>
<path d="M2003.59 -18L790.692 2598.55" stroke="#B69DF8" stroke-width="5" stroke-linecap="round"/>
<path d="M2017.49 -18L804.59 2598.55" stroke="#B69DF8" stroke-width="5" stroke-linecap="round"/>
<path d="M2031.38 -18L818.487 2598.55" stroke="#B69DF8" stroke-width="5" stroke-linecap="round"/>
<path d="M2045.28 -18L832.385 2598.55" stroke="#B69DF8" stroke-width="5" stroke-linecap="round"/>
<path d="M2059.18 -18L846.282 2598.55" stroke="#B69DF8" stroke-width="5" stroke-linecap="round"/>
<path d="M2073.08 -18L860.18 2598.55" stroke="#B69DF8" stroke-width="5" stroke-linecap="round"/>
<path d="M1359.07 0L862 1072.4" stroke="#6750A4" stroke-width="24" stroke-linecap="round"/>
<path d="M1424.36 -5L233 2565.32" stroke="#42306D" stroke-width="24" stroke-linecap="round"/>
<path d="M1114.68 1L-450.959 3378.8" stroke="#7F67BE" stroke-width="3.5" stroke-linecap="round"/>
<path d="M1126.31 1L-439.322 3378.8" stroke="#7F67BE" stroke-width="3.5" stroke-linecap="round"/>
<path d="M1137.95 1L-427.685 3378.8" stroke="#7F67BE" stroke-width="3.5" stroke-linecap="round"/>
<path d="M1149.59 1L-416.048 3378.8" stroke="#7F67BE" stroke-width="3.5" stroke-linecap="round"/>
<path d="M1161.23 1L-404.412 3378.8" stroke="#7F67BE" stroke-width="3.5" stroke-linecap="round"/>
<path d="M1172.86 1L-392.775 3378.8" stroke="#7F67BE" stroke-width="3.5" stroke-linecap="round"/>
<path d="M1184.5 1L-381.138 3378.8" stroke="#7F67BE" stroke-width="3.5" stroke-linecap="round"/>
<path d="M1196.14 1L-369.501 3378.8" stroke="#7F67BE" stroke-width="3.5" stroke-linecap="round"/>
<path d="M1207.77 1L-357.864 3378.8" stroke="#7F67BE" stroke-width="3.5" stroke-linecap="round"/>
<path d="M1219.41 1L-346.228 3378.8" stroke="#7F67BE" stroke-width="3.5" stroke-linecap="round"/>
<path d="M1231.05 1L-334.59 3378.8" stroke="#7F67BE" stroke-width="3.5" stroke-linecap="round"/>
<path d="M1242.68 1L-322.954 3378.8" stroke="#7F67BE" stroke-width="3.5" stroke-linecap="round"/>
<path d="M1254.32 1L-311.317 3378.8" stroke="#7F67BE" stroke-width="3.5" stroke-linecap="round"/>
<path d="M1265.96 1L-299.68 3378.8" stroke="#7F67BE" stroke-width="3.5" stroke-linecap="round"/>
<path d="M1277.59 1L-288.043 3378.8" stroke="#7F67BE" stroke-width="3.5" stroke-linecap="round"/>
<path d="M1289.23 1L-276.406 3378.8" stroke="#7F67BE" stroke-width="3.5" stroke-linecap="round"/>
<path d="M1300.87 1L-264.77 3378.8" stroke="#7F67BE" stroke-width="3.5" stroke-linecap="round"/>
<path d="M1312.5 1L-253.133 3378.8" stroke="#7F67BE" stroke-width="3.5" stroke-linecap="round"/>
<path d="M1324.14 1L-241.496 3378.8" stroke="#7F67BE" stroke-width="3.5" stroke-linecap="round"/>
<path d="M1335.78 1L-229.859 3378.8" stroke="#7F67BE" stroke-width="3.5" stroke-linecap="round"/>
<path d="M1102.78 0L-128.959 2657.42" stroke="#463276" stroke-width="17" stroke-linecap="round"/>
<path d="M1366.19 -6L75.9999 2777.53" stroke="#463276" stroke-width="42" stroke-linecap="round"/>
<path d="M1596.11 -30L324 2714.52" stroke="#463276" stroke-width="24" stroke-linecap="round"/>
<path d="M1691.36 -30L500 2540.32" stroke="#9A82DB" stroke-width="30" stroke-linecap="round"/>
<path d="M1621.63 -30L347 2719.96" stroke="#9A82DB" stroke-width="30" stroke-linecap="round"/>
<path d="M1657.62 -30L457 2560.28" stroke="#463276" stroke-width="34" stroke-linecap="round"/>
<path d="M1480.32 -14L-4.99993 3190.51" stroke="#3E2E65" stroke-width="5" stroke-linecap="round"/>
<path d="M1498.63 -14L13.3155 3190.51" stroke="#3E2E65" stroke-width="5" stroke-linecap="round"/>
<path d="M1451.86 -3L197 2704.32" stroke="#7560AE" stroke-width="17" stroke-linecap="round"/>
<path d="M951.946 -24L-67.0002 2174.33" stroke="#D0BCFF" stroke-width="24" stroke-linecap="round"/>
<path d="M2349.9 22L1137 2638.55" stroke="#9A82DB" stroke-width="4" stroke-linecap="round"/>
<path d="M2365.79 22L1152.9 2638.55" stroke="#9A82DB" stroke-width="4" stroke-linecap="round"/>
<path d="M2381.69 22L1168.79 2638.55" stroke="#9A82DB" stroke-width="4" stroke-linecap="round"/>
<path d="M2397.59 22L1184.69 2638.55" stroke="#9A82DB" stroke-width="4" stroke-linecap="round"/>
<path d="M2413.49 22L1200.59 2638.55" stroke="#9A82DB" stroke-width="4" stroke-linecap="round"/>
<path d="M2429.38 22L1216.49 2638.55" stroke="#9A82DB" stroke-width="4" stroke-linecap="round"/>
<path d="M2445.28 22L1232.38 2638.55" stroke="#9A82DB" stroke-width="4" stroke-linecap="round"/>
<path d="M2461.18 22L1248.28 2638.55" stroke="#9A82DB" stroke-width="4" stroke-linecap="round"/>
<path d="M2477.08 22L1264.18 2638.55" stroke="#9A82DB" stroke-width="4" stroke-linecap="round"/>
<path d="M2492.97 22L1280.08 2638.55" stroke="#9A82DB" stroke-width="4" stroke-linecap="round"/>
<path d="M2508.87 22L1295.97 2638.55" stroke="#9A82DB" stroke-width="4" stroke-linecap="round"/>
<path d="M2524.77 22L1311.87 2638.55" stroke="#9A82DB" stroke-width="4" stroke-linecap="round"/>
<path d="M2540.67 22L1327.77 2638.55" stroke="#9A82DB" stroke-width="4" stroke-linecap="round"/>
<path d="M2556.56 22L1343.67 2638.55" stroke="#9A82DB" stroke-width="4" stroke-linecap="round"/>
<path d="M2572.46 22L1359.56 2638.55" stroke="#9A82DB" stroke-width="4" stroke-linecap="round"/>
<path d="M646.897 -30L-566 2586.55" stroke="#7F67BE" stroke-width="18" stroke-linecap="round"/>
<path d="M679.795 -30L-533.102 2586.55" stroke="#7F67BE" stroke-width="18" stroke-linecap="round"/>
<path d="M712.692 -30L-500.205 2586.55" stroke="#7F67BE" stroke-width="18" stroke-linecap="round"/>
<path d="M195.253 4L-195 845.954" stroke="#836DBD" stroke-width="1.5" stroke-linecap="round"/>
<path d="M198.505 4L-191.747 845.954" stroke="#836DBD" stroke-width="1.5" stroke-linecap="round"/>
<path d="M201.758 4L-188.494 845.954" stroke="#836DBD" stroke-width="1.5" stroke-linecap="round"/>
<path d="M205.011 4L-185.242 845.954" stroke="#836DBD" stroke-width="1.5" stroke-linecap="round"/>
<path d="M208.264 4L-181.989 845.954" stroke="#836DBD" stroke-width="1.5" stroke-linecap="round"/>
<path d="M211.517 4L-178.736 845.954" stroke="#836DBD" stroke-width="1.5" stroke-linecap="round"/>
<path d="M214.769 4L-175.483 845.954" stroke="#836DBD" stroke-width="1.5" stroke-linecap="round"/>
<path d="M218.022 4L-172.231 845.954" stroke="#836DBD" stroke-width="1.5" stroke-linecap="round"/>
<path d="M221.275 4L-168.978 845.954" stroke="#836DBD" stroke-width="1.5" stroke-linecap="round"/>
<path d="M224.527 4L-165.725 845.954" stroke="#836DBD" stroke-width="1.5" stroke-linecap="round"/>
<path d="M227.78 4L-162.472 845.954" stroke="#836DBD" stroke-width="1.5" stroke-linecap="round"/>
<path d="M231.033 4L-159.22 845.954" stroke="#836DBD" stroke-width="1.5" stroke-linecap="round"/>
<path d="M234.286 4L-155.967 845.954" stroke="#836DBD" stroke-width="1.5" stroke-linecap="round"/>
<path d="M237.539 4L-152.714 845.954" stroke="#836DBD" stroke-width="1.5" stroke-linecap="round"/>
<path d="M240.791 4L-149.461 845.954" stroke="#836DBD" stroke-width="1.5" stroke-linecap="round"/>
<path d="M244.044 4L-146.209 845.954" stroke="#836DBD" stroke-width="1.5" stroke-linecap="round"/>
<path d="M247.297 4L-142.956 845.954" stroke="#836DBD" stroke-width="1.5" stroke-linecap="round"/>
<path d="M250.549 4L-139.703 845.954" stroke="#836DBD" stroke-width="1.5" stroke-linecap="round"/>
<path d="M253.802 4L-136.451 845.954" stroke="#836DBD" stroke-width="1.5" stroke-linecap="round"/>
<path d="M257.055 4L-133.198 845.954" stroke="#836DBD" stroke-width="1.5" stroke-linecap="round"/>
<path d="M260.308 4L-129.945 845.954" stroke="#836DBD" stroke-width="1.5" stroke-linecap="round"/>
<path d="M263.561 4L-126.692 845.954" stroke="#836DBD" stroke-width="1.5" stroke-linecap="round"/>
<path d="M266.813 4L-123.44 845.954" stroke="#836DBD" stroke-width="1.5" stroke-linecap="round"/>
<path d="M270.066 4L-120.187 845.954" stroke="#836DBD" stroke-width="1.5" stroke-linecap="round"/>
<path d="M273.319 4L-116.934 845.954" stroke="#836DBD" stroke-width="1.5" stroke-linecap="round"/>
<path d="M276.571 4L-113.681 845.954" stroke="#836DBD" stroke-width="1.5" stroke-linecap="round"/>
<path d="M279.824 4L-110.429 845.954" stroke="#836DBD" stroke-width="1.5" stroke-linecap="round"/>
<path d="M283.077 4L-107.176 845.954" stroke="#836DBD" stroke-width="1.5" stroke-linecap="round"/>
<path d="M286.33 4L-103.923 845.954" stroke="#836DBD" stroke-width="1.5" stroke-linecap="round"/>
<path d="M289.583 4L-100.67 845.954" stroke="#836DBD" stroke-width="1.5" stroke-linecap="round"/>
<path d="M292.835 4L-97.4175 845.954" stroke="#836DBD" stroke-width="1.5" stroke-linecap="round"/>
<path d="M296.088 4L-94.1649 845.954" stroke="#836DBD" stroke-width="1.5" stroke-linecap="round"/>
<path d="M299.341 4L-90.9122 845.954" stroke="#836DBD" stroke-width="1.5" stroke-linecap="round"/>
<path d="M302.593 4L-87.6595 845.954" stroke="#836DBD" stroke-width="1.5" stroke-linecap="round"/>
<path d="M305.846 4L-84.4066 845.954" stroke="#836DBD" stroke-width="1.5" stroke-linecap="round"/>
<path d="M309.099 4L-81.1539 845.954" stroke="#836DBD" stroke-width="1.5" stroke-linecap="round"/>
<path d="M312.352 4L-77.9012 845.954" stroke="#836DBD" stroke-width="1.5" stroke-linecap="round"/>
<path d="M315.604 4L-74.6483 845.954" stroke="#836DBD" stroke-width="1.5" stroke-linecap="round"/>
<path d="M318.857 4L-71.3956 845.954" stroke="#836DBD" stroke-width="1.5" stroke-linecap="round"/>
<path d="M322.11 4L-68.1429 845.954" stroke="#836DBD" stroke-width="1.5" stroke-linecap="round"/>
<path d="M325.363 4L-64.8902 845.954" stroke="#836DBD" stroke-width="1.5" stroke-linecap="round"/>
<path d="M328.615 4L-61.6375 845.954" stroke="#836DBD" stroke-width="1.5" stroke-linecap="round"/>
<path d="M331.868 4L-58.3846 845.954" stroke="#836DBD" stroke-width="1.5" stroke-linecap="round"/>
<path d="M335.121 4L-55.1319 845.954" stroke="#836DBD" stroke-width="1.5" stroke-linecap="round"/>
<path d="M338.374 4L-51.8792 845.954" stroke="#836DBD" stroke-width="1.5" stroke-linecap="round"/>
<path d="M341.626 4L-48.6263 845.954" stroke="#836DBD" stroke-width="1.5" stroke-linecap="round"/>
<path d="M344.879 4L-45.3736 845.954" stroke="#836DBD" stroke-width="1.5" stroke-linecap="round"/>
<path d="M348.132 4L-42.1209 845.954" stroke="#836DBD" stroke-width="1.5" stroke-linecap="round"/>
<path d="M351.385 4L-38.868 845.954" stroke="#836DBD" stroke-width="1.5" stroke-linecap="round"/>
<path d="M354.637 4L-35.6155 845.954" stroke="#836DBD" stroke-width="1.5" stroke-linecap="round"/>
<path d="M357.89 4L-32.3626 845.954" stroke="#836DBD" stroke-width="1.5" stroke-linecap="round"/>
<path d="M361.143 4L-29.1102 845.954" stroke="#836DBD" stroke-width="1.5" stroke-linecap="round"/>
<path d="M364.396 4L-25.8572 845.954" stroke="#836DBD" stroke-width="1.5" stroke-linecap="round"/>
<path d="M367.648 4L-22.6043 845.954" stroke="#836DBD" stroke-width="1.5" stroke-linecap="round"/>
<path d="M370.901 4L-19.3519 845.954" stroke="#836DBD" stroke-width="1.5" stroke-linecap="round"/>
<path d="M374.154 4L-16.0989 845.954" stroke="#836DBD" stroke-width="1.5" stroke-linecap="round"/>
<path d="M377.407 4L-12.846 845.954" stroke="#836DBD" stroke-width="1.5" stroke-linecap="round"/>
<path d="M380.659 4L-9.59357 845.954" stroke="#836DBD" stroke-width="1.5" stroke-linecap="round"/>
<path d="M383.912 4L-6.34064 845.954" stroke="#836DBD" stroke-width="1.5" stroke-linecap="round"/>
<path d="M387.165 4L-3.08771 845.954" stroke="#836DBD" stroke-width="1.5" stroke-linecap="round"/>
<path d="M2236.88 1318L1670 2541.01" stroke="#836DBD" stroke-width="1.5" stroke-linecap="round"/>
<path d="M2241.75 1318L1674.88 2541.01" stroke="#836DBD" stroke-width="1.5" stroke-linecap="round"/>
<path d="M2246.63 1318L1679.75 2541.01" stroke="#836DBD" stroke-width="1.5" stroke-linecap="round"/>
<path d="M2251.5 1318L1684.63 2541.01" stroke="#836DBD" stroke-width="1.5" stroke-linecap="round"/>
<path d="M2256.38 1318L1689.5 2541.01" stroke="#836DBD" stroke-width="1.5" stroke-linecap="round"/>
<path d="M2261.25 1318L1694.38 2541.01" stroke="#836DBD" stroke-width="1.5" stroke-linecap="round"/>
<path d="M2266.13 1318L1699.25 2541.01" stroke="#836DBD" stroke-width="1.5" stroke-linecap="round"/>
<path d="M2271.01 1318L1704.13 2541.01" stroke="#836DBD" stroke-width="1.5" stroke-linecap="round"/>
<path d="M2275.88 1318L1709.01 2541.01" stroke="#836DBD" stroke-width="1.5" stroke-linecap="round"/>
<path d="M2280.76 1318L1713.88 2541.01" stroke="#836DBD" stroke-width="1.5" stroke-linecap="round"/>
<path d="M2285.63 1318L1718.76 2541.01" stroke="#836DBD" stroke-width="1.5" stroke-linecap="round"/>
<path d="M2290.51 1318L1723.63 2541.01" stroke="#836DBD" stroke-width="1.5" stroke-linecap="round"/>
<path d="M2295.38 1318L1728.51 2541.01" stroke="#836DBD" stroke-width="1.5" stroke-linecap="round"/>
<path d="M2300.26 1318L1733.38 2541.01" stroke="#836DBD" stroke-width="1.5" stroke-linecap="round"/>
<path d="M2305.14 1318L1738.26 2541.01" stroke="#836DBD" stroke-width="1.5" stroke-linecap="round"/>
<path d="M2310.01 1318L1743.14 2541.01" stroke="#836DBD" stroke-width="1.5" stroke-linecap="round"/>
<path d="M2314.89 1318L1748.01 2541.01" stroke="#836DBD" stroke-width="1.5" stroke-linecap="round"/>
<path d="M2319.76 1318L1752.89 2541.01" stroke="#836DBD" stroke-width="1.5" stroke-linecap="round"/>
<path d="M2324.64 1318L1757.76 2541.01" stroke="#836DBD" stroke-width="1.5" stroke-linecap="round"/>
<path d="M2329.51 1318L1762.64 2541.01" stroke="#836DBD" stroke-width="1.5" stroke-linecap="round"/>
<path d="M2334.39 1318L1767.51 2541.01" stroke="#836DBD" stroke-width="1.5" stroke-linecap="round"/>
<path d="M2339.27 1318L1772.39 2541.01" stroke="#836DBD" stroke-width="1.5" stroke-linecap="round"/>
<path d="M2344.14 1318L1777.27 2541.01" stroke="#836DBD" stroke-width="1.5" stroke-linecap="round"/>
<path d="M2349.02 1318L1782.14 2541.01" stroke="#836DBD" stroke-width="1.5" stroke-linecap="round"/>
<path d="M2353.89 1318L1787.02 2541.01" stroke="#836DBD" stroke-width="1.5" stroke-linecap="round"/>
<path d="M2358.77 1318L1791.89 2541.01" stroke="#836DBD" stroke-width="1.5" stroke-linecap="round"/>
<path d="M2363.64 1318L1796.77 2541.01" stroke="#836DBD" stroke-width="1.5" stroke-linecap="round"/>
<path d="M2368.52 1318L1801.64 2541.01" stroke="#836DBD" stroke-width="1.5" stroke-linecap="round"/>
<path d="M2373.4 1318L1806.52 2541.01" stroke="#836DBD" stroke-width="1.5" stroke-linecap="round"/>
<path d="M2378.27 1318L1811.4 2541.01" stroke="#836DBD" stroke-width="1.5" stroke-linecap="round"/>
<path d="M2383.15 1318L1816.27 2541.01" stroke="#836DBD" stroke-width="1.5" stroke-linecap="round"/>
<path d="M2388.02 1318L1821.15 2541.01" stroke="#836DBD" stroke-width="1.5" stroke-linecap="round"/>
<path d="M2392.9 1318L1826.02 2541.01" stroke="#836DBD" stroke-width="1.5" stroke-linecap="round"/>
<path d="M2397.77 1318L1830.9 2541.01" stroke="#836DBD" stroke-width="1.5" stroke-linecap="round"/>
<path d="M2402.65 1318L1835.77 2541.01" stroke="#836DBD" stroke-width="1.5" stroke-linecap="round"/>
<path d="M2407.53 1318L1840.65 2541.01" stroke="#836DBD" stroke-width="1.5" stroke-linecap="round"/>
<path d="M2412.4 1318L1845.53 2541.01" stroke="#836DBD" stroke-width="1.5" stroke-linecap="round"/>
<path d="M2417.28 1318L1850.4 2541.01" stroke="#836DBD" stroke-width="1.5" stroke-linecap="round"/>
<path d="M2422.15 1318L1855.28 2541.01" stroke="#836DBD" stroke-width="1.5" stroke-linecap="round"/>
<path d="M2427.03 1318L1860.15 2541.01" stroke="#836DBD" stroke-width="1.5" stroke-linecap="round"/>
<path d="M1360.67 1817.33H1403.33V1828H1360.67V1817.33ZM1360.67 1796H1403.33V1806.67H1360.67V1796ZM1392.67 1742.67H1350C1344.13 1742.67 1339.33 1747.47 1339.33 1753.33V1838.67C1339.33 1844.53 1344.08 1849.33 1349.95 1849.33H1414C1419.87 1849.33 1424.67 1844.53 1424.67 1838.67V1774.67L1392.67 1742.67ZM1414 1838.67H1350V1753.33H1387.33V1780H1414V1838.67Z" fill="#B69DF8"/>
<path d="M1567.33 1513.33H1492.67V1438.67H1567.33V1513.33ZM1482 1428V1524H1578V1428H1482ZM1556.67 1495.15L1549.15 1502.67L1530 1483.52L1510.85 1502.67L1503.33 1495.15L1522.48 1476L1503.33 1456.85L1510.85 1449.33L1530 1468.48L1549.15 1449.33L1556.67 1456.85L1537.52 1476L1556.67 1495.15Z" fill="#B69DF8"/>
<path d="M1709.33 1152C1719.73 1152 1729.39 1157.23 1734.67 1165.33C1729.39 1173.44 1719.73 1178.67 1709.33 1178.67C1698.93 1178.67 1689.28 1173.44 1684 1165.33C1689.28 1157.23 1698.93 1152 1709.33 1152ZM1709.33 1141.33C1692.37 1141.33 1677.87 1151.31 1672 1165.33C1677.87 1179.36 1692.37 1189.33 1709.33 1189.33C1726.29 1189.33 1740.8 1179.36 1746.67 1165.33C1740.8 1151.31 1726.29 1141.33 1709.33 1141.33ZM1709.33 1173.33C1704.91 1173.33 1701.33 1169.76 1701.33 1165.33C1701.33 1160.91 1704.91 1157.33 1709.33 1157.33C1713.76 1157.33 1717.33 1160.91 1717.33 1165.33C1717.33 1169.76 1713.76 1173.33 1709.33 1173.33ZM1735.95 1137.81C1736 1137.23 1736 1136.59 1736 1136C1736 1106.56 1712.11 1082.67 1682.67 1082.67C1653.23 1082.67 1629.33 1106.56 1629.33 1136C1629.33 1163.57 1650.29 1186.29 1677.12 1189.07C1672.16 1185.17 1667.95 1180.32 1664.75 1174.77C1650.13 1168 1640 1153.17 1640 1136C1640 1126.13 1643.36 1117.07 1649.01 1109.87L1679.2 1140.05C1682.19 1137.92 1685.44 1136.16 1688.91 1134.72L1656.53 1102.35C1663.73 1096.69 1672.8 1093.33 1682.67 1093.33C1705.28 1093.33 1723.73 1110.88 1725.23 1133.07C1729.01 1134.24 1732.64 1135.84 1735.95 1137.81Z" fill="#B69DF8"/>
<path d="M738 2368.93L730.267 2361.89C702.8 2336.99 684.667 2320.56 684.667 2300.4C684.667 2283.97 697.573 2271.07 714 2271.07C723.28 2271.07 732.187 2275.39 738 2282.21C743.813 2275.39 752.72 2271.07 762 2271.07C778.427 2271.07 791.333 2283.97 791.333 2300.4C791.333 2320.56 773.2 2336.99 745.733 2361.95L738 2368.93Z" fill="#B69DF8"/>
<path d="M1660 2281.07C1650.72 2281.07 1641.81 2285.39 1636 2292.21C1630.19 2285.39 1621.28 2281.07 1612 2281.07C1595.57 2281.07 1582.67 2293.97 1582.67 2310.4C1582.67 2330.56 1600.8 2346.99 1628.27 2371.95L1636 2378.93L1643.73 2371.89C1671.2 2346.99 1689.33 2330.56 1689.33 2310.4C1689.33 2293.97 1676.43 2281.07 1660 2281.07ZM1636.53 2364L1636 2364.53L1635.47 2364C1610.08 2341.01 1593.33 2325.81 1593.33 2310.4C1593.33 2299.73 1601.33 2291.73 1612 2291.73C1620.21 2291.73 1628.21 2297.01 1631.04 2304.32H1641.01C1643.79 2297.01 1651.79 2291.73 1660 2291.73C1670.67 2291.73 1678.67 2299.73 1678.67 2310.4C1678.67 2325.81 1661.92 2341.01 1636.53 2364Z" fill="#B69DF8"/>
<path d="M1381.33 971.333H1376V944.667H1322.67V971.333H1318.51C1315.57 968.08 1311.41 966 1306.67 966C1297.81 966 1290.67 973.147 1290.67 982V1019.33C1290.67 1028.19 1297.81 1035.33 1306.67 1035.33C1311.41 1035.33 1315.57 1033.25 1318.51 1030H1397.33V987.333C1397.33 978.48 1390.19 971.333 1381.33 971.333ZM1312 1019.33C1312 1022.27 1309.6 1024.67 1306.67 1024.67C1303.73 1024.67 1301.33 1022.27 1301.33 1019.33V982C1301.33 979.067 1303.73 976.667 1306.67 976.667C1309.6 976.667 1312 979.067 1312 982V1019.33ZM1333.33 955.333H1365.33V971.333H1333.33V955.333ZM1386.67 1019.33H1322.67V982H1381.33C1384.27 982 1386.67 984.4 1386.67 987.333V1019.33Z" fill="#B69DF8"/>
<path d="M1360 998C1362.95 998 1365.33 995.612 1365.33 992.667C1365.33 989.721 1362.95 987.333 1360 987.333C1357.05 987.333 1354.67 989.721 1354.67 992.667C1354.67 995.612 1357.05 998 1360 998Z" fill="#B69DF8"/>
<path d="M1376 998C1378.95 998 1381.33 995.612 1381.33 992.667C1381.33 989.721 1378.95 987.333 1376 987.333C1373.05 987.333 1370.67 989.721 1370.67 992.667C1370.67 995.612 1373.05 998 1376 998Z" fill="#B69DF8"/>
<path d="M1360 1014C1362.95 1014 1365.33 1011.61 1365.33 1008.67C1365.33 1005.72 1362.95 1003.33 1360 1003.33C1357.05 1003.33 1354.67 1005.72 1354.67 1008.67C1354.67 1011.61 1357.05 1014 1360 1014Z" fill="#B69DF8"/>
<path d="M1376 1014C1378.95 1014 1381.33 1011.61 1381.33 1008.67C1381.33 1005.72 1378.95 1003.33 1376 1003.33C1373.05 1003.33 1370.67 1005.72 1370.67 1008.67C1370.67 1011.61 1373.05 1014 1376 1014Z" fill="#B69DF8"/>
<path d="M1349.33 987.333H1328V1014H1349.33V987.333Z" fill="#B69DF8"/>
<path d="M1778.69 1952.03C1786.05 1952.03 1792.72 1955.01 1797.57 1959.81L1784.03 1973.36H1816.03V1941.36L1805.09 1952.29C1798.32 1945.52 1788.99 1941.36 1778.69 1941.36C1759.87 1941.36 1744.4 1955.28 1741.79 1973.36H1752.56C1755.01 1961.2 1765.79 1952.03 1778.69 1952.03ZM1808.77 2000.77C1812.29 1995.97 1814.75 1990.27 1815.6 1984.03H1804.83C1802.37 1996.19 1791.6 2005.36 1778.69 2005.36C1771.33 2005.36 1764.67 2002.37 1759.81 1997.57L1773.36 1984.03H1741.36V2016.03L1752.29 2005.09C1759.07 2011.87 1768.4 2016.03 1778.69 2016.03C1786.96 2016.03 1794.59 2013.31 1800.77 2008.77L1826.69 2034.64L1834.64 2026.69L1808.77 2000.77Z" fill="#B69DF8"/>
<path d="M1867.01 767.84C1866.59 767.84 1866.16 767.733 1865.79 767.52C1855.55 762.24 1846.69 760 1836.08 760C1825.52 760 1815.49 762.507 1806.37 767.52C1805.09 768.213 1803.49 767.733 1802.75 766.453C1802.05 765.173 1802.53 763.52 1803.81 762.827C1813.73 757.44 1824.61 754.667 1836.08 754.667C1847.44 754.667 1857.36 757.173 1868.24 762.773C1869.57 763.467 1870.05 765.067 1869.36 766.347C1868.88 767.307 1867.97 767.84 1867.01 767.84ZM1790.69 795.84C1790.16 795.84 1789.63 795.68 1789.15 795.36C1787.92 794.507 1787.65 792.853 1788.51 791.627C1793.79 784.16 1800.51 778.293 1808.51 774.187C1825.25 765.547 1846.69 765.493 1863.49 774.133C1871.49 778.24 1878.21 784.053 1883.49 791.467C1884.35 792.64 1884.08 794.347 1882.85 795.2C1881.63 796.053 1879.97 795.787 1879.12 794.56C1874.32 787.84 1868.24 782.56 1861.04 778.88C1845.73 771.04 1826.16 771.04 1810.91 778.933C1803.65 782.667 1797.57 788 1792.77 794.72C1792.35 795.467 1791.55 795.84 1790.69 795.84ZM1824.03 860.213C1823.33 860.213 1822.64 859.947 1822.16 859.413C1817.52 854.773 1815.01 851.787 1811.44 845.333C1807.76 838.773 1805.84 830.773 1805.84 822.187C1805.84 806.347 1819.39 793.44 1836.03 793.44C1852.67 793.44 1866.21 806.347 1866.21 822.187C1866.21 823.68 1865.04 824.853 1863.55 824.853C1862.05 824.853 1860.88 823.68 1860.88 822.187C1860.88 809.28 1849.73 798.773 1836.03 798.773C1822.32 798.773 1811.17 809.28 1811.17 822.187C1811.17 829.867 1812.88 836.96 1816.13 842.72C1819.55 848.853 1821.89 851.467 1826 855.627C1827.01 856.693 1827.01 858.347 1826 859.413C1825.41 859.947 1824.72 860.213 1824.03 860.213ZM1862.27 850.347C1855.92 850.347 1850.32 848.747 1845.73 845.6C1837.79 840.213 1833.04 831.467 1833.04 822.187C1833.04 820.693 1834.21 819.52 1835.71 819.52C1837.2 819.52 1838.37 820.693 1838.37 822.187C1838.37 829.707 1842.21 836.8 1848.72 841.173C1852.51 843.733 1856.93 844.96 1862.27 844.96C1863.55 844.96 1865.68 844.8 1867.81 844.427C1869.25 844.16 1870.64 845.12 1870.91 846.613C1871.17 848.053 1870.21 849.44 1868.72 849.707C1865.68 850.293 1863.01 850.347 1862.27 850.347ZM1851.55 861.333C1851.33 861.333 1851.07 861.28 1850.85 861.227C1842.37 858.88 1836.83 855.733 1831.01 850.027C1823.55 842.613 1819.44 832.747 1819.44 822.187C1819.44 813.547 1826.8 806.507 1835.87 806.507C1844.93 806.507 1852.29 813.547 1852.29 822.187C1852.29 827.893 1857.25 832.533 1863.39 832.533C1869.52 832.533 1874.48 827.893 1874.48 822.187C1874.48 802.08 1857.15 785.76 1835.81 785.76C1820.67 785.76 1806.8 794.187 1800.56 807.253C1798.48 811.573 1797.41 816.64 1797.41 822.187C1797.41 826.347 1797.79 832.907 1800.99 841.44C1801.52 842.827 1800.83 844.373 1799.44 844.853C1798.05 845.387 1796.51 844.64 1796.03 843.307C1793.41 836.32 1792.13 829.387 1792.13 822.187C1792.13 815.787 1793.36 809.973 1795.76 804.907C1802.85 790.027 1818.59 780.373 1835.81 780.373C1860.08 780.373 1879.81 799.093 1879.81 822.133C1879.81 830.773 1872.45 837.813 1863.39 837.813C1854.32 837.813 1846.96 830.773 1846.96 822.133C1846.96 816.427 1842 811.787 1835.87 811.787C1829.73 811.787 1824.77 816.427 1824.77 822.133C1824.77 831.253 1828.29 839.787 1834.75 846.187C1839.81 851.2 1844.67 853.973 1852.19 856.053C1853.63 856.427 1854.43 857.92 1854.05 859.307C1853.79 860.533 1852.67 861.333 1851.55 861.333Z" fill="#B69DF8"/>
<path d="M862 1999.33H926V1956.67H862V1999.33ZM872.667 1967.33H915.333V1988.67H872.667V1967.33ZM851.333 1994H840.667V2010C840.667 2015.87 845.467 2020.67 851.333 2020.67H867.333V2010H851.333V1994ZM851.333 1946H867.333V1935.33H851.333C845.467 1935.33 840.667 1940.13 840.667 1946V1962H851.333V1946ZM936.667 1935.33H920.667V1946H936.667V1962H947.333V1946C947.333 1940.13 942.533 1935.33 936.667 1935.33ZM936.667 2010H920.667V2020.67H936.667C942.533 2020.67 947.333 2015.87 947.333 2010V1994H936.667V2010Z" fill="#B69DF8"/>
<path fill-rule="evenodd" clip-rule="evenodd" d="M542.933 647.76L542.88 647.813L530.08 635.013L535.733 629.36L542.933 636.56L556.213 623.333L561.867 628.987L542.987 647.867L542.933 647.76ZM532 564.667C502.667 564.667 478.667 588.667 478.667 618C478.667 647.333 502.667 671.333 532 671.333C561.333 671.333 585.333 647.333 585.333 618C585.333 588.667 561.333 564.667 532 564.667ZM507.147 587.493L514.667 595.013L522.187 587.493L527.84 593.147L520.32 600.667L527.84 608.187L522.187 613.84L514.667 606.32L507.147 613.84L501.493 608.187L509.013 600.667L501.493 593.147L507.147 587.493ZM532 660.667C520.267 660.667 509.6 655.867 501.6 648.4L562.4 587.6C569.867 595.6 574.667 606.267 574.667 618C574.667 641.467 555.467 660.667 532 660.667Z" fill="#B69DF8"/>
<path d="M639.333 318H740.667V328.667H639.333V318ZM729.147 301.2C733.413 302.32 737.787 299.813 738.96 295.547C740.08 291.28 737.573 286.907 733.307 285.733L704.987 278.16L690.267 230.053L679.973 227.333V271.493L653.467 264.4L648.507 252.027L640.773 249.947V277.52L729.147 301.2Z" fill="#B69DF8"/>
<path d="M113 819.333H102.333V830H113V819.333ZM113 840.667H102.333V851.333H113V840.667ZM113 798C107.08 798 102.333 802.8 102.333 808.667H113V798ZM134.333 862H123.667V872.667H134.333V862ZM166.333 798V808.667H177C177 802.8 172.2 798 166.333 798ZM134.333 798H123.667V808.667H134.333V798ZM113 872.667V862H102.333C102.333 867.867 107.08 872.667 113 872.667ZM166.333 851.333H177V840.667H166.333V851.333ZM166.333 830H177V819.333H166.333V830ZM166.333 872.667C172.2 872.667 177 867.867 177 862H166.333V872.667ZM91.6667 819.333H81V883.333C81 889.2 85.7467 894 91.6667 894H155.667V883.333H91.6667V819.333ZM145 808.667H155.667V798H145V808.667ZM145 872.667H155.667V862H145V872.667Z" fill="#B69DF8"/>
<path d="M2088.04 1333.09C2089.59 1331.01 2092.36 1330.1 2094.81 1331.12C2095.72 1331.49 2096.52 1332.08 2097.11 1332.88C2098.28 1334.37 2098.44 1336.02 2098.28 1337.41C2098.01 1339.17 2096.95 1340.77 2095.4 1341.62C2095.4 1341.62 2069.43 1357.36 2068.36 1355.97C2067.29 1354.58 2088.04 1333.09 2088.04 1333.09ZM2146.33 1324.02C2146.33 1337.36 2141 1340.02 2138.33 1340.02C2137.11 1340.02 2135.99 1339.49 2135.03 1338.64C2132.47 1356.34 2122.44 1366.96 2106.6 1370.58C2107.19 1372.93 2109.16 1374.69 2111.67 1374.69H2114.76C2115.93 1374.69 2116.95 1375.49 2117.32 1376.61C2118.23 1379.38 2120.84 1382.05 2122.76 1383.65C2124.09 1384.77 2124.04 1386.8 2122.6 1387.81C2120.79 1389.09 2117.8 1390.42 2113.05 1390.64C2112.09 1390.69 2111.19 1390.26 2110.65 1389.46C2109.96 1388.4 2109 1386.48 2109 1384.08C2109 1382.48 2109.21 1381.04 2109.48 1379.81C2105.32 1378.96 2102.07 1375.65 2101.21 1371.49C2098.6 1371.81 2095.88 1372.02 2093 1372.02C2088.31 1372.02 2083.93 1371.54 2079.93 1370.69C2079.83 1371.12 2079.67 1371.54 2079.67 1372.02C2079.67 1374.96 2082.07 1377.36 2085 1377.36H2088.09C2089.27 1377.36 2090.28 1378.16 2090.65 1379.28C2091.56 1382.05 2094.17 1384.72 2096.09 1386.32C2097.43 1387.44 2097.37 1389.46 2095.93 1390.48C2094.12 1391.76 2091.13 1393.09 2086.39 1393.3C2085.43 1393.36 2084.52 1392.93 2083.99 1392.13C2083.29 1391.06 2082.33 1389.14 2082.33 1386.74C2082.33 1385.14 2082.55 1383.7 2082.81 1382.48C2078.01 1381.46 2074.33 1377.14 2074.33 1372.02C2074.33 1371.06 2074.49 1370.1 2074.76 1369.2C2061.64 1364.61 2053.27 1354.37 2050.97 1338.58C2050.01 1339.49 2048.95 1340.02 2047.67 1340.02C2045 1340.02 2039.67 1337.36 2039.67 1324.02C2039.67 1311.92 2048.73 1300.02 2055.67 1300.02C2057.96 1300.02 2058.28 1302.64 2058.33 1304.56C2065.16 1295.06 2075.72 1288.45 2087.93 1287.01C2089 1281.89 2093.69 1278.69 2098.33 1278.69V1284.02C2098.33 1284.02 2100.09 1281.36 2103.67 1281.36C2107.24 1281.36 2109 1284.02 2109 1284.02C2106.39 1284.02 2104.47 1285.89 2103.88 1288.13C2113.59 1290.69 2121.96 1296.61 2127.67 1304.56C2127.72 1302.64 2128.04 1300.02 2130.33 1300.02C2137.27 1300.02 2146.33 1311.92 2146.33 1324.02ZM2055.67 1329.36C2055.67 1333.68 2056.2 1337.52 2057 1341.14C2057.96 1337.46 2059.45 1334.05 2061.43 1330.9C2060.31 1328.4 2059.61 1325.62 2059.61 1322.69C2059.67 1311.65 2068.63 1302.69 2079.67 1302.69C2084.79 1302.69 2089.48 1304.66 2093 1307.86C2096.52 1304.66 2101.21 1302.69 2106.33 1302.69C2117.37 1302.69 2126.33 1311.65 2126.33 1322.69C2126.33 1325.62 2125.69 1328.4 2124.52 1330.9C2126.49 1334.05 2128.04 1337.52 2129 1341.25C2129.8 1337.62 2130.33 1333.73 2130.33 1329.36C2130.33 1308.77 2113.59 1292.02 2093 1292.02C2072.41 1292.02 2055.67 1308.77 2055.67 1329.36ZM2124.89 1352.24C2124.89 1351.7 2125 1351.22 2125 1350.69C2125 1345.3 2123.61 1340.29 2121.27 1335.86C2117.59 1340.02 2112.31 1342.69 2106.33 1342.69C2104.89 1342.69 2103.45 1342.53 2102.12 1342.21C2102.87 1340.98 2103.35 1339.6 2103.56 1338.1C2103.61 1337.73 2103.61 1337.41 2103.67 1337.09C2104.57 1337.25 2105.43 1337.36 2106.33 1337.36C2114.44 1337.36 2121 1330.8 2121 1322.69C2121 1314.58 2114.44 1308.02 2106.33 1308.02C2102.76 1308.02 2099.29 1309.36 2096.57 1311.86L2093 1315.06L2089.43 1311.86C2086.71 1309.36 2083.24 1308.02 2079.67 1308.02C2071.56 1308.02 2065 1314.58 2065 1322.69C2065 1329.84 2070.12 1335.81 2076.89 1337.09L2072.84 1341.52C2069.64 1340.34 2066.87 1338.37 2064.68 1335.92C2062.39 1340.34 2061 1345.36 2061 1350.69C2061 1351.12 2061.05 1351.49 2061.05 1351.97C2067.03 1361.68 2077.75 1366.69 2093 1366.69C2108.36 1366.69 2119.03 1361.84 2124.89 1352.24ZM2114.33 1322.69C2114.33 1327.86 2110.76 1332.02 2106.33 1332.02C2101.91 1332.02 2098.33 1327.86 2098.33 1322.69C2098.33 1317.52 2101.91 1313.36 2106.33 1313.36C2110.76 1313.36 2114.33 1317.52 2114.33 1322.69ZM2110.33 1318.05C2110.33 1316.93 2109.43 1316.02 2108.31 1316.02C2107.19 1316.02 2106.33 1316.93 2106.33 1318.05C2106.33 1319.17 2107.24 1320.08 2108.36 1320.08C2109.48 1320.08 2110.33 1319.12 2110.33 1318.05ZM2087.67 1322.69C2087.67 1327.86 2084.09 1332.02 2079.67 1332.02C2075.24 1332.02 2071.67 1327.86 2071.67 1322.69C2071.67 1317.52 2075.24 1313.36 2079.67 1313.36C2084.09 1313.36 2087.67 1317.52 2087.67 1322.69ZM2083.67 1318.05C2083.67 1316.93 2082.76 1316.02 2081.64 1316.02C2080.52 1316.02 2079.67 1316.93 2079.67 1318.05C2079.67 1319.17 2080.57 1320.08 2081.69 1320.08C2082.81 1320.08 2083.67 1319.12 2083.67 1318.05Z" fill="#B69DF8"/>
<path d="M1217.64 2171.33H1184.52V2118H1259.19V2141.36L1269.85 2130.69V2096.67C1269.85 2090.8 1265.05 2086 1259.19 2086H1253.85V2075.33H1243.19V2086H1200.52V2075.33H1189.85V2086H1184.52C1178.6 2086 1173.91 2090.8 1173.91 2096.67L1173.85 2171.33C1173.85 2177.2 1178.6 2182 1184.52 2182H1228.31L1217.64 2171.33ZM1184.52 2096.67H1259.19V2107.33H1184.52V2096.67ZM1246.07 2184.67L1227.19 2165.79L1234.71 2158.27L1246.01 2169.57L1268.63 2146.96L1276.15 2154.48L1246.07 2184.67ZM1213.37 2139.33L1221.85 2147.81L1214.33 2155.33L1205.85 2146.85L1197.37 2155.33L1189.85 2147.81L1198.33 2139.33L1189.85 2130.85L1197.37 2123.33L1205.85 2131.81L1214.33 2123.33L1221.85 2130.85L1213.37 2139.33Z" fill="#B69DF8"/>
<path d="M1540.67 618.667H1492.03L1487.33 602.667H1455.33C1449.47 602.667 1444.67 607.467 1444.67 613.333V682.667C1444.67 688.533 1449.47 693.333 1455.33 693.333H1492.67L1498 709.333H1540.67C1546.53 709.333 1551.33 704.533 1551.33 698.667V629.333C1551.33 623.467 1546.53 618.667 1540.67 618.667ZM1472.24 669.813C1460.24 669.813 1450.43 660.053 1450.43 648C1450.43 635.947 1460.19 626.187 1472.24 626.187C1477.79 626.187 1482.85 628.16 1486.85 631.893L1487.23 632.213L1480.67 638.507L1480.35 638.24C1478.8 636.8 1476.19 635.093 1472.24 635.093C1465.25 635.093 1459.55 640.907 1459.55 648C1459.55 655.093 1465.25 660.907 1472.24 660.907C1479.55 660.907 1482.69 656.267 1483.55 653.12H1471.76V644.853H1492.83L1492.88 645.227C1493.09 646.347 1493.15 647.36 1493.15 648.48C1493.15 661.013 1484.56 669.813 1472.24 669.813ZM1504.4 660.693C1506.16 663.893 1508.35 666.987 1510.75 669.76L1507.87 672.587L1504.4 660.693ZM1508.51 656.64H1503.23L1501.57 651.093H1522.85C1522.85 651.093 1521.04 658.08 1514.53 665.707C1511.76 662.4 1509.79 659.147 1508.51 656.64ZM1546 698.667C1546 701.6 1543.6 704 1540.67 704H1503.33L1514 693.333L1509.68 678.56L1514.59 673.653L1528.88 688L1532.77 684.107L1518.32 669.813C1523.12 664.32 1526.85 657.813 1528.56 651.093H1535.33V645.547H1515.92V640H1510.37V645.547H1499.92L1493.63 624H1540.67C1543.6 624 1546 626.4 1546 629.333V698.667Z" fill="#B69DF8"/>
<path d="M989.44 1694H1053.44V1704.67H989.44V1694ZM1012.05 1625.04L1027.15 1609.95L1102.56 1685.36L1087.47 1700.45L1012.05 1625.04ZM1049.81 1587.33L1080 1617.52L1064.91 1632.61L1034.72 1602.43L1049.81 1587.33ZM1004.53 1632.56L1034.72 1662.75L1019.63 1677.84L989.44 1647.65L1004.53 1632.56Z" fill="#B69DF8"/>
<path d="M1648 283.333C1624.43 283.333 1605.33 302.427 1605.33 326C1605.33 349.573 1624.43 368.667 1648 368.667C1671.57 368.667 1690.67 349.573 1690.67 326C1690.67 302.427 1671.57 283.333 1648 283.333ZM1648 358C1630.35 358 1616 343.653 1616 326C1616 308.347 1630.35 294 1648 294C1665.65 294 1680 308.347 1680 326C1680 343.653 1665.65 358 1648 358ZM1664 318H1653.33V344.667H1642.67V318H1632V310H1664V318ZM1708 282L1722.67 288.667L1708 295.333L1701.33 310L1694.67 295.333L1680 288.667L1694.67 282L1701.33 267.333L1708 282ZM1708 356.667L1722.67 363.333L1708 370L1701.33 384.667L1694.67 370L1680 363.333L1694.67 356.667L1701.33 342L1708 356.667Z" fill="#B69DF8"/>
<path d="M187.333 1331.33V1363.33H193.573L182 1374.91L170.427 1363.33H176.667V1331.33H187.333ZM198 1320.67H166V1352.67H144.667L182 1390L219.333 1352.67H198V1320.67ZM219.333 1400.67H144.667V1411.33H219.333V1400.67Z" fill="#B69DF8"/>
<path d="M297.333 480H305.333V512H297.333V480ZM284 480H268C264.8 480 262.667 482.667 262.667 485.333V506.667C262.667 509.333 264.8 512 268 512H284C287.2 512 289.333 509.333 289.333 506.667V496H281.333V504H270.667V488H289.333V485.333C289.333 482.667 287.2 480 284 480ZM337.333 488V480H313.333V512H321.333V501.333H332V493.333H321.333V488H337.333Z" fill="#B69DF8"/>
<path d="M1930 1620.67C1900.56 1620.67 1876.67 1644.56 1876.67 1674C1876.67 1703.44 1900.56 1727.33 1930 1727.33C1959.44 1727.33 1983.33 1703.44 1983.33 1674C1983.33 1644.56 1959.44 1620.67 1930 1620.67ZM1935.33 1711.33H1924.67V1700.67H1935.33V1711.33ZM1946.37 1670L1941.57 1674.91C1937.73 1678.8 1935.33 1682 1935.33 1690H1924.67V1687.33C1924.67 1681.47 1927.07 1676.13 1930.91 1672.24L1937.52 1665.52C1939.49 1663.6 1940.67 1660.93 1940.67 1658C1940.67 1652.13 1935.87 1647.33 1930 1647.33C1924.13 1647.33 1919.33 1652.13 1919.33 1658H1908.67C1908.67 1646.21 1918.21 1636.67 1930 1636.67C1941.79 1636.67 1951.33 1646.21 1951.33 1658C1951.33 1662.69 1949.41 1666.96 1946.37 1670Z" fill="#B69DF8"/>
<path d="M1994.67 509.28C1994.67 512.96 1991.84 516 1988 516C1984.27 516 1981.28 513.013 1981.28 509.28C1981.28 505.493 1984.27 502.613 1988 502.613C1991.79 502.613 1994.67 505.547 1994.67 509.28ZM1987.95 452C1978.51 452 1972.05 458.133 1969.65 465.28L1978.4 468.96C1979.57 465.387 1982.35 461.067 1988 461.067C1996.64 461.067 1998.35 469.173 1995.31 473.493C1992.43 477.6 1987.47 480.373 1984.85 485.013C1982.77 488.693 1983.2 492.96 1983.2 495.573H1992.91C1992.91 490.613 1993.28 489.6 1994.08 488.053C1996.16 484.213 2000 482.4 2004.05 476.48C2007.68 471.147 2006.29 463.893 2003.95 460.053C2001.23 455.573 1995.84 452 1987.95 452ZM2025.33 446.667H1950.67V521.333H2025.33V446.667ZM2025.33 436C2031.2 436 2036 440.8 2036 446.667V521.333C2036 527.2 2031.2 532 2025.33 532H1950.67C1944.8 532 1940 527.2 1940 521.333V446.667C1940 440.8 1944.8 436 1950.67 436H2025.33Z" fill="#B69DF8"/>
<path d="M440.667 206H451.333V195.333H440.667V206ZM446 120.667C416.56 120.667 392.667 144.56 392.667 174C392.667 203.44 416.56 227.333 446 227.333C475.44 227.333 499.333 203.44 499.333 174C499.333 144.56 475.44 120.667 446 120.667ZM446 216.667C422.48 216.667 403.333 197.52 403.333 174C403.333 150.48 422.48 131.333 446 131.333C469.52 131.333 488.667 150.48 488.667 174C488.667 197.52 469.52 216.667 446 216.667ZM446 142C434.213 142 424.667 151.547 424.667 163.333H435.333C435.333 157.467 440.133 152.667 446 152.667C451.867 152.667 456.667 157.467 456.667 163.333C456.667 174 440.667 172.667 440.667 190H451.333C451.333 178 467.333 176.667 467.333 163.333C467.333 151.547 457.787 142 446 142Z" fill="#B69DF8"/>
<path d="M16.6134 33.36L9.04004 40.88L21.1467 52.9867C15.5467 61.4134 12.2934 71.4934 12.2934 82.3734C12.2934 111.813 36.1867 135.707 65.6267 135.707C76.5067 135.707 86.5867 132.453 95.0134 126.853L107.12 138.96L114.64 131.44L16.6134 33.36ZM65.6267 125.04C42.1067 125.04 22.96 105.893 22.96 82.3734C22.96 74.48 25.1467 67.12 28.9334 60.72L87.28 119.067C80.88 122.853 73.52 125.04 65.6267 125.04ZM43.9734 45.68L36.24 37.8934C44.6667 32.2934 54.7467 29.04 65.6267 29.04C95.0667 29.04 118.96 52.9334 118.96 82.3734C118.96 93.2534 115.707 103.333 110.107 111.76L102.32 103.973C106.107 97.6267 108.293 90.2667 108.293 82.3734C108.293 58.8534 89.1467 39.7067 65.6267 39.7067C57.7334 39.7067 50.3734 41.8934 43.9734 45.68Z" fill="#B69DF8"/>
<path d="M1218.67 1286.67H1208V1276H1218.67V1286.67ZM1208 1340V1372L1220.21 1359.79L1232.48 1372L1240 1364.48L1227.79 1352.27L1240 1340H1208ZM1229.33 1308H1240V1297.33H1229.33V1308ZM1229.33 1329.33H1240V1318.67H1229.33V1329.33ZM1186.67 1372H1197.33V1361.33H1186.67V1372ZM1165.33 1286.67H1176V1276H1165.33V1286.67ZM1144 1350.67H1154.67V1340H1144V1350.67ZM1154.67 1372V1361.33H1144C1144 1367.2 1148.8 1372 1154.67 1372ZM1229.33 1276V1286.67H1240C1240 1280.8 1235.2 1276 1229.33 1276ZM1186.67 1286.67H1197.33V1276H1186.67V1286.67ZM1144 1308H1154.67V1297.33H1144V1308ZM1165.33 1372H1176V1361.33H1165.33V1372ZM1144 1329.33H1154.67V1318.67H1144V1329.33ZM1144 1286.67H1154.67V1276C1148.8 1276 1144 1280.8 1144 1286.67Z" fill="#B69DF8"/>
</g>
<defs>
<clipPath id="clip0_9_2051">
<rect width="2169" height="2511" fill="white"/>
</clipPath>
</defs>
</svg>
