<svg width="2169" height="1534" viewBox="0 0 2169 1534" fill="none" xmlns="http://www.w3.org/2000/svg">
<g clip-path="url(#clip0_2_2333)">
<rect width="2169" height="1534" fill="#625B71"/>
<path d="M1136 0L424.041 1536.02" stroke="#4A4458" stroke-width="1.5" stroke-linecap="round"/>
<path d="M1140.96 0L429 1536.02" stroke="#4A4458" stroke-width="1.5" stroke-linecap="round"/>
<path d="M1145.92 0L433.959 1536.02" stroke="#4A4458" stroke-width="1.5" stroke-linecap="round"/>
<path d="M1150.88 0L438.918 1536.02" stroke="#4A4458" stroke-width="1.5" stroke-linecap="round"/>
<path d="M1155.84 0L443.877 1536.02" stroke="#4A4458" stroke-width="1.5" stroke-linecap="round"/>
<path d="M1160.79 0L448.835 1536.02" stroke="#4A4458" stroke-width="1.5" stroke-linecap="round"/>
<path d="M1165.75 0L453.794 1536.02" stroke="#4A4458" stroke-width="1.5" stroke-linecap="round"/>
<path d="M1170.71 0L458.753 1536.02" stroke="#4A4458" stroke-width="1.5" stroke-linecap="round"/>
<path d="M1175.67 0L463.712 1536.02" stroke="#4A4458" stroke-width="1.5" stroke-linecap="round"/>
<path d="M1180.63 0L468.671 1536.02" stroke="#4A4458" stroke-width="1.5" stroke-linecap="round"/>
<path d="M1185.59 0L473.63 1536.02" stroke="#4A4458" stroke-width="1.5" stroke-linecap="round"/>
<path d="M1190.55 0L478.589 1536.02" stroke="#4A4458" stroke-width="1.5" stroke-linecap="round"/>
<path d="M1195.51 0L483.548 1536.02" stroke="#4A4458" stroke-width="1.5" stroke-linecap="round"/>
<path d="M1200.47 0L488.507 1536.02" stroke="#4A4458" stroke-width="1.5" stroke-linecap="round"/>
<path d="M1205.42 0L493.466 1536.02" stroke="#4A4458" stroke-width="1.5" stroke-linecap="round"/>
<path d="M1210.38 0L498.425 1536.02" stroke="#4A4458" stroke-width="1.5" stroke-linecap="round"/>
<path d="M1215.34 0L503.384 1536.02" stroke="#4A4458" stroke-width="1.5" stroke-linecap="round"/>
<path d="M1220.3 0L508.343 1536.02" stroke="#4A4458" stroke-width="1.5" stroke-linecap="round"/>
<path d="M1225.26 0L513.302 1536.02" stroke="#4A4458" stroke-width="1.5" stroke-linecap="round"/>
<path d="M1230.22 0L518.261 1536.02" stroke="#4A4458" stroke-width="1.5" stroke-linecap="round"/>
<path d="M1235.18 0L523.22 1536.02" stroke="#4A4458" stroke-width="1.5" stroke-linecap="round"/>
<path d="M1240.14 0L528.178 1536.02" stroke="#4A4458" stroke-width="1.5" stroke-linecap="round"/>
<path d="M1245.1 0L533.137 1536.02" stroke="#4A4458" stroke-width="1.5" stroke-linecap="round"/>
<path d="M1250.06 0L538.096 1536.02" stroke="#4A4458" stroke-width="1.5" stroke-linecap="round"/>
<path d="M1255.01 0L543.055 1536.02" stroke="#4A4458" stroke-width="1.5" stroke-linecap="round"/>
<path d="M1259.97 0L548.014 1536.02" stroke="#4A4458" stroke-width="1.5" stroke-linecap="round"/>
<path d="M1264.93 0L552.973 1536.02" stroke="#4A4458" stroke-width="1.5" stroke-linecap="round"/>
<path d="M1269.89 0L557.932 1536.02" stroke="#4A4458" stroke-width="1.5" stroke-linecap="round"/>
<path d="M1274.85 0L562.891 1536.02" stroke="#4A4458" stroke-width="1.5" stroke-linecap="round"/>
<path d="M1279.81 0L567.85 1536.02" stroke="#4A4458" stroke-width="1.5" stroke-linecap="round"/>
<path d="M1284.77 0L572.809 1536.02" stroke="#4A4458" stroke-width="1.5" stroke-linecap="round"/>
<path d="M1289.73 0L577.768 1536.02" stroke="#4A4458" stroke-width="1.5" stroke-linecap="round"/>
<path d="M1294.69 0L582.727 1536.02" stroke="#4A4458" stroke-width="1.5" stroke-linecap="round"/>
<path d="M1299.64 0L587.686 1536.02" stroke="#4A4458" stroke-width="1.5" stroke-linecap="round"/>
<path d="M1304.6 0L592.644 1536.02" stroke="#4A4458" stroke-width="1.5" stroke-linecap="round"/>
<path d="M1309.56 0L597.603 1536.02" stroke="#4A4458" stroke-width="1.5" stroke-linecap="round"/>
<path d="M1314.52 0L602.562 1536.02" stroke="#4A4458" stroke-width="1.5" stroke-linecap="round"/>
<path d="M1319.48 0L607.521 1536.02" stroke="#4A4458" stroke-width="1.5" stroke-linecap="round"/>
<path d="M1324.44 0L612.48 1536.02" stroke="#4A4458" stroke-width="1.5" stroke-linecap="round"/>
<path d="M1329.4 0L617.439 1536.02" stroke="#4A4458" stroke-width="1.5" stroke-linecap="round"/>
<path d="M1334.36 0L622.398 1536.02" stroke="#4A4458" stroke-width="1.5" stroke-linecap="round"/>
<path d="M1339.32 0L627.357 1536.02" stroke="#4A4458" stroke-width="1.5" stroke-linecap="round"/>
<path d="M1344.27 0L632.316 1536.02" stroke="#4A4458" stroke-width="1.5" stroke-linecap="round"/>
<path d="M1349.23 0L637.275 1536.02" stroke="#4A4458" stroke-width="1.5" stroke-linecap="round"/>
<path d="M1354.19 0L642.234 1536.02" stroke="#4A4458" stroke-width="1.5" stroke-linecap="round"/>
<path d="M1359.15 0L647.192 1536.02" stroke="#4A4458" stroke-width="1.5" stroke-linecap="round"/>
<path d="M1364.11 0L652.151 1536.02" stroke="#4A4458" stroke-width="1.5" stroke-linecap="round"/>
<path d="M1369.07 0L657.11 1536.02" stroke="#4A4458" stroke-width="1.5" stroke-linecap="round"/>
<path d="M1646 0L934.041 1536.02" stroke="#958DA5" stroke-width="23" stroke-linecap="round"/>
<path d="M1776 0L1064.04 1536.02" stroke="#958DA5" stroke-width="23" stroke-linecap="round"/>
<path d="M1896 0L1184.04 1536.02" stroke="#958DA5" stroke-width="23" stroke-linecap="round"/>
</g>
<defs>
<clipPath id="clip0_2_2333">
<rect width="2169" height="1534" fill="white"/>
</clipPath>
</defs>
</svg>
